<?xml version="1.1" encoding="UTF-8"?>
<svg xmlns="http://www.w3.org/2000/svg"
    xmlns:latexdraw="http://latexdraw.sourceforge.net/namespaces/latexdraw"
    version="1.1" baseProfile="full">
    <g>
        <g latexdraw:type="circle" id="id1059793892">
            <circle cx="480.0" cy="380.0" r="179.0"
                latexdraw:borderPos="outer" stroke-width="2.0"
                stroke="black" fill="none"/>
        </g>
        <g latexdraw:type="joinedLines" id="id1096834857">
            <polyline
                points="416.0630589973503,185.74528002075803 420.59806351215985,201.08913006077924 449.9157769814859,192.4240321485539 445.3807724666764,177.08018210853257 449.9157769814859,192.4240321485539 "
                stroke-width="2.0" stroke="black" fill="none" latexdraw:rotationAngle="0.0"/>
        </g>
        <g latexdraw:type="joinedLines" id="id575472987">
            <polyline
                points="469.0686936353443,173.0539373199397 467.89038107475227,189.01049019045493 499.8034868157816,192.08140102592546 500.98179937637474,175.4105624411239 499.8034868157814,191.36711531163965 "
                stroke-width="2.0" stroke="black" fill="none" latexdraw:rotationAngle="0.0"/>
        </g>
        <g latexdraw:type="joinedLines" id="id548877396">
            <polyline
                points="516.0762661312464,177.88547929495053 511.6142934906477,193.25072579979224 542.3447865003295,202.17467108098973 546.8067591409299,186.80942457614742 542.3447865003295,202.17467108098947 "
                stroke-width="2.0" stroke="black" fill="none" latexdraw:rotationAngle="0.0"/>
        </g>
        <g latexdraw:type="dot" id="id1433099673" latexdraw:size="20.0"
            latexdraw:dotShape="*" latexdraw:position="460.74074074074065 202.9629629629629">
            <path
                d="M 469.9715099715099 202.9629629629629 C 469.9715099715099 208.06097603832407 465.8387538161018 212.19373219373213 460.74074074074065 212.19373219373213 C 455.6427276653795 212.19373219373213 451.5099715099714 208.06097603832407 451.5099715099714 202.9629629629629 C 451.5099715099714 197.86494988760174 455.6427276653795 193.73219373219368 460.74074074074065 193.73219373219368 C 465.8387538161018 193.73219373219368 469.9715099715099 197.86494988760174 469.9715099715099 202.9629629629629 z "
                fill="black" stroke-linecap="square"
                stroke-linejoin="butt" stroke-width="1.25"
                stroke-miterlimit="10.0" stroke-dashoffset="0.0" stroke="black"/>
        </g>
        <g latexdraw:type="dot" id="id1119096346" latexdraw:size="20.0"
            latexdraw:dotShape="*" latexdraw:position="301.4814814814814 385.1851851851851">
            <path
                d="M 310.71225071225064 385.1851851851851 C 310.71225071225064 390.28319826054627 306.5794945568426 394.41595441595433 301.4814814814814 394.41595441595433 C 296.38346840612024 394.41595441595433 292.2507122507122 390.28319826054627 292.2507122507122 385.1851851851851 C 292.2507122507122 380.08717210982394 296.38346840612024 375.9544159544159 301.4814814814814 375.9544159544159 C 306.5794945568426 375.9544159544159 310.71225071225064 380.08717210982394 310.71225071225064 385.1851851851851 z "
                fill="black" stroke-linecap="square"
                stroke-linejoin="butt" stroke-width="1.25"
                stroke-miterlimit="10.0" stroke-dashoffset="0.0" stroke="black"/>
        </g>
        <g latexdraw:type="dot" id="id1710597156" latexdraw:size="20.0"
            latexdraw:dotShape="*" latexdraw:position="383.70370370370364 531.8518518518517">
            <path
                d="M 392.93447293447286 531.8518518518517 C 392.93447293447286 536.9498649272128 388.8017167790648 541.0826210826209 383.70370370370364 541.0826210826209 C 378.6056906283425 541.0826210826209 374.4729344729344 536.9498649272128 374.4729344729344 531.8518518518517 C 374.4729344729344 526.7538387764905 378.6056906283425 522.6210826210825 383.70370370370364 522.6210826210825 C 388.8017167790648 522.6210826210825 392.93447293447286 526.7538387764905 392.93447293447286 531.8518518518517 z "
                fill="black" stroke-linecap="square"
                stroke-linejoin="butt" stroke-width="1.25"
                stroke-miterlimit="10.0" stroke-dashoffset="0.0" stroke="black"/>
        </g>
        <g latexdraw:type="dot" id="id407985233" latexdraw:size="20.0"
            latexdraw:dotShape="*" latexdraw:position="592.5925925925925 521.4814814814814">
            <path
                d="M 601.8233618233617 521.4814814814814 C 601.8233618233617 526.5794945568425 597.6906056679536 530.7122507122506 592.5925925925925 530.7122507122506 C 587.4945795172313 530.7122507122506 583.3618233618232 526.5794945568425 583.3618233618232 521.4814814814814 C 583.3618233618232 516.3834684061202 587.4945795172313 512.2507122507121 592.5925925925925 512.2507122507121 C 597.6906056679536 512.2507122507121 601.8233618233617 516.3834684061202 601.8233618233617 521.4814814814814 z "
                fill="black" stroke-linecap="square"
                stroke-linejoin="butt" stroke-width="1.25"
                stroke-miterlimit="10.0" stroke-dashoffset="0.0" stroke="black"/>
        </g>
        <g latexdraw:type="dot" id="id1466710513" latexdraw:size="20.0"
            latexdraw:dotShape="*" latexdraw:position="656.2962962962962 343.70370370370364">
            <path
                d="M 665.5270655270654 343.70370370370364 C 665.5270655270654 348.8017167790648 661.3943093716573 352.93447293447286 656.2962962962962 352.93447293447286 C 651.198283220935 352.93447293447286 647.0655270655269 348.8017167790648 647.0655270655269 343.70370370370364 C 647.0655270655269 338.6056906283425 651.198283220935 334.4729344729344 656.2962962962962 334.4729344729344 C 661.3943093716573 334.4729344729344 665.5270655270654 338.6056906283425 665.5270655270654 343.70370370370364 z "
                fill="black" stroke-linecap="square"
                stroke-linejoin="butt" stroke-width="1.25"
                stroke-miterlimit="10.0" stroke-dashoffset="0.0" stroke="black"/>
        </g>
        <g latexdraw:type="joinedLines" id="id87355041">
            <polyline
                points="559.7327184996017,191.25576945855374 552.7901113282578,205.6710462739476 581.6206649590431,219.55626061663344 588.563272130388,205.14098380124022 581.6206649590434,219.55626061663335 "
                stroke-width="2.0" stroke="black" fill="none" latexdraw:rotationAngle="-0.07050177866385071"/>
        </g>
        <g latexdraw:type="bezierCurve" id="id790157387">
            <path
                d="M 363.7499999999999 193.1249999999999 C 274.3749999999999 218.1249999999999 286.2499999999999 315.6249999999999 286.2499999999999 275.6249999999999 "
                stroke-width="2.0" stroke="#010101" fill="none"
                latexdraw:rotationAngle="0.0" marker-start="url(#arrow0-790157387)"/>
        </g>
        <g latexdraw:type="text" id="id1102631933" fill="#010101" latexdraw:position="bl">
            <text x="442.7339901477833" y="138.6945812807882">Step 0</text>
        </g>
        <g latexdraw:type="joinedLines" id="id680235265">
            <polyline
                points="374.22005403801614,204.34633861958474 381.0978251229892,218.7926621969777 409.99047227777186,205.0371200270321 403.1127011927999,190.59079644963884 409.9904722777721,205.03712002703173 "
                stroke-width="2.0" stroke="black" fill="none" latexdraw:rotationAngle="0.0"/>
        </g>
        <g latexdraw:type="rectangle" id="id1452841962" transform="rotate(-17.305423158799442) translate(-75.27895894438109 120.39473109092648)">
            <rect x="418.8571428571429" y="178.14285714285714"
                width="28.714285714285722" height="17.99999999999997"
                latexdraw:borderPos="outer" stroke-width="2.0"
                stroke="black" fill="#ff3366"/>
        </g>
        <g latexdraw:type="rectangle" id="id556375492" transform="rotate(2.6230614174777602) translate(7.72991813344936 -22.368311731747383)">
            <rect x="469.57142857142867" y="171.00000000000003"
                width="30.142857142856826" height="17.99999999999997"
                latexdraw:borderPos="outer" stroke-width="2.0"
                stroke="black" fill="#3300ff"/>
        </g>
    </g>
    <defs>
        <marker overflow="visible" orient="auto" id="arrow0-790157387">
            <path
                d="M 0.0 0.0 L 7.452083333333333 2.6614583333333335 L -7.452083333333333 0.0 L 7.452083333333333 -2.6614583333333335 z "
                latexdraw:arrSizeNum="4.0" fill="#010101"/>
        </marker>
    </defs>
    <metadata>
        <latexdraw:metadata>
            <latexdraw:latexIncludes/>
            <latexdraw:displayXScale>true</latexdraw:displayXScale>
            <latexdraw:displayYScale>true</latexdraw:displayYScale>
            <latexdraw:unit>CM</latexdraw:unit>
            <latexdraw:zoom>1.4000000000000004</latexdraw:zoom>
            <latexdraw:magneticGridStyle>CUSTOMISED</latexdraw:magneticGridStyle>
            <latexdraw:gridGap>20</latexdraw:gridGap>
            <latexdraw:magneticGrid>false</latexdraw:magneticGrid>
            <latexdraw:version>3.3.7</latexdraw:version>
            <latexdraw:size>
                <latexdraw:width>1855</latexdraw:width>
                <latexdraw:height>812</latexdraw:height>
            </latexdraw:size>
            <latexdraw:position>
                <latexdraw:x>0.0</latexdraw:x>
                <latexdraw:y>0.0</latexdraw:y>
            </latexdraw:position>
        </latexdraw:metadata>
    </metadata>
</svg>
