<?xml version="1.1" encoding="UTF-8"?>
<svg xmlns="http://www.w3.org/2000/svg"
    xmlns:latexdraw="http://latexdraw.sourceforge.net/namespaces/latexdraw"
    version="1.1" baseProfile="full">
    <g>
        <g latexdraw:type="joinedLines" id="id2091845990">
            <polyline
                points="20.0,120.0 20.0,140.0 1060.0,140.0 1060.0,120.0 1060.0,120.0 "
                stroke-width="2.0" stroke="black" fill="none" latexdraw:rotationAngle="0.0"/>
        </g>
        <g latexdraw:type="joinedLines" id="id1875202459">
            <polyline points="20.0,180.0 1060.0,180.0 1060.0,180.0 "
                stroke-width="2.0" stroke="black" fill="none"
                latexdraw:rotationAngle="0.0"
                marker-start="url(#arrow0-1875202459)" marker-end="url(#arrow1-1875202459)"/>
        </g>
        <g latexdraw:type="joinedLines" id="id1278780992">
            <polyline points="80.0,100.0 280.0,100.0 "
                stroke-width="2.0" stroke="black"
                latexdraw:rotationAngle="0.0"
                marker-start="url(#arrow0-1278780992)" marker-end="url(#arrow1-1278780992)"/>
        </g>
        <g latexdraw:type="joinedLines" id="id397023532">
            <polyline points="80.0,60.0 640.0,60.0 " stroke-width="2.0"
                stroke="black" latexdraw:rotationAngle="0.0"
                marker-start="url(#arrow0-397023532)" marker-end="url(#arrow1-397023532)"/>
        </g>
        <g latexdraw:type="joinedLines" id="id367705828">
            <polyline points="700.0,140.0 920.0,140.0 920.0,160.0 "
                stroke-width="2.0" stroke="white" fill="none"
                stroke-dasharray="8.819444444444445, 5.291666666666667" latexdraw:rotationAngle="0.0"/>
        </g>
        <g latexdraw:type="joinedLines" id="id907515459">
            <polyline points="700.0,180.0 920.0,180.0 "
                stroke-width="2.0" stroke="white"
                stroke-dasharray="8.819444444444445, 5.291666666666667" latexdraw:rotationAngle="0.0"/>
        </g>
        <g latexdraw:type="text" id="id1328850724" fill="black" latexdraw:position="bl">
            <text x="480.0" y="220.0">Period</text>
        </g>
        <g latexdraw:type="text" id="id327740655" fill="black" latexdraw:position="bl">
            <text x="164.0" y="96.0">$K$</text>
        </g>
        <g latexdraw:type="text" id="id66372509" fill="black" latexdraw:position="bl">
            <text x="280.0" y="40.0">Emission time</text>
        </g>
        <g latexdraw:type="rectangle" id="id450792721">
            <rect x="81.0" y="121.0" width="18.0" height="18.0"
                latexdraw:borderPos="outer" stroke-width="2.0"
                stroke="#3333ff" fill="blue"/>
        </g>
        <g latexdraw:type="rectangle" id="id1034287957">
            <rect x="281.0" y="121.0" width="18.0" height="18.0"
                latexdraw:borderPos="outer" stroke-width="2.0"
                stroke="#3333ff" fill="blue"/>
        </g>
        <g latexdraw:type="text" id="id396210372" fill="black" latexdraw:position="bl">
            <text x="147.0" y="244.0">RRH traffic</text>
        </g>
        <g latexdraw:type="joinedLines" id="id91262513">
            <polyline points="40.0,140.0 40.0,120.0 40.0,120.0 "
                stroke-width="0.7" stroke="black" fill="none" latexdraw:rotationAngle="0.0"/>
        </g>
        <g latexdraw:type="joinedLines" id="id780346873">
            <polyline points="60.0,140.0 60.0,120.0 60.0,120.0 "
                stroke-width="0.7" stroke="black" fill="none" latexdraw:rotationAngle="0.0"/>
        </g>
        <g latexdraw:type="joinedLines" id="id1432528598">
            <polyline
                points="80.0,120.0 80.0,140.0 100.0,140.0 100.0,120.0 100.0,140.0 120.0,140.0 120.0,120.0 120.0,140.0 140.0,140.0 140.0,120.0 140.0,140.0 160.0,140.0 160.0,120.0 160.0,140.0 180.0,140.0 180.0,120.0 180.0,140.0 200.0,140.0 200.0,120.0 200.0,140.0 220.0,140.0 220.0,120.0 220.0,140.0 240.0,140.0 240.0,120.0 240.0,140.0 260.0,140.0 260.0,120.0 260.0,140.0 280.0,140.0 280.0,120.0 280.0,140.0 300.0,140.0 300.0,120.0 300.0,140.0 320.0,140.0 320.0,120.0 320.0,140.0 340.0,140.0 340.0,120.0 340.0,140.0 360.0,140.0 360.0,120.0 360.0,140.0 380.0,140.0 380.0,120.0 380.0,140.0 400.0,140.0 400.0,120.0 400.0,140.0 420.0,140.0 420.0,120.0 420.0,140.0 440.0,140.0 440.0,120.0 440.0,140.0 460.0,140.0 460.0,120.0 460.0,140.0 480.0,140.0 480.0,120.0 480.0,140.0 500.0,140.0 500.0,120.0 500.0,140.0 520.0,140.0 520.0,120.0 520.0,140.0 540.0,140.0 540.0,120.0 540.0,140.0 560.0,140.0 560.0,120.0 560.0,140.0 580.0,140.0 580.0,120.0 580.0,140.0 600.0,140.0 600.0,120.0 600.0,140.0 620.0,140.0 620.0,120.0 620.0,140.0 640.0,140.0 640.0,120.0 640.0,140.0 660.0,140.0 660.0,120.0 660.0,140.0 680.0,140.0 680.0,120.0 680.0,140.0 "
                stroke-width="0.7" stroke="black" fill="none" latexdraw:rotationAngle="0.0"/>
        </g>
        <g latexdraw:type="joinedLines" id="id1645766114">
            <polyline
                points="940.0,120.0 940.0,140.0 960.0,140.0 960.0,120.0 960.0,140.0 980.0,140.0 980.0,120.0 980.0,140.0 1000.0,140.0 1000.0,120.0 1000.0,140.0 1020.0,140.0 1020.0,120.0 1020.0,140.0 1040.0,140.0 1040.0,120.0 1040.0,140.0 "
                stroke-width="0.7" stroke="black" fill="none" latexdraw:rotationAngle="0.0"/>
        </g>
        <g latexdraw:type="text" id="id801715861" fill="black" latexdraw:position="bl">
            <text x="80.0" y="160.0">t</text>
        </g>
        <g latexdraw:type="joinedLines" id="id241136123">
            <polyline
                points="92.0,150.0 190.0,223.0 287.0,149.0 292.0,145.0 "
                stroke-width="2.0" stroke="#0033ff" fill="none"
                latexdraw:rotationAngle="0.0"
                marker-start="url(#arrow0-241136123)" marker-end="url(#arrow1-241136123)"/>
        </g>
    </g>
    <defs>
        <marker overflow="visible" orient="auto" id="arrow0-1875202459">
            <path
                d="M 0.0 0.0 L 4.652083333333334 1.6614583333333335 L 4.652083333333334 0.0 L 4.652083333333334 -1.6614583333333335 z "
                latexdraw:arrSizeNum="2.0" fill="black"/>
        </marker>
        <marker overflow="visible" orient="auto" id="arrow1-1875202459">
            <path
                d="M 0.0 0.0 L -4.652083333333334 1.6614583333333335 L -4.652083333333334 0.0 L -4.652083333333334 -1.6614583333333335 z "
                latexdraw:arrSizeNum="2.0" fill="black"/>
        </marker>
        <marker overflow="visible" orient="auto" id="arrow0-1278780992">
            <path
                d="M 0.0 0.0 L 4.652083333333334 1.6614583333333335 L 4.652083333333334 0.0 L 4.652083333333334 -1.6614583333333335 z "
                latexdraw:arrSizeNum="2.0" fill="black"/>
        </marker>
        <marker overflow="visible" orient="auto" id="arrow1-1278780992">
            <path
                d="M 0.0 0.0 L -4.652083333333334 1.6614583333333335 L -4.652083333333334 0.0 L -4.652083333333334 -1.6614583333333335 z "
                latexdraw:arrSizeNum="2.0" fill="black"/>
        </marker>
        <marker overflow="visible" orient="auto" id="arrow0-397023532">
            <path
                d="M 0.0 0.0 L 4.652083333333334 1.6614583333333335 L 4.652083333333334 0.0 L 4.652083333333334 -1.6614583333333335 z "
                latexdraw:arrSizeNum="2.0" fill="black"/>
        </marker>
        <marker overflow="visible" orient="auto" id="arrow1-397023532">
            <path
                d="M 0.0 0.0 L -4.652083333333334 1.6614583333333335 L -4.652083333333334 0.0 L -4.652083333333334 -1.6614583333333335 z "
                latexdraw:arrSizeNum="2.0" fill="black"/>
        </marker>
        <marker overflow="visible" orient="auto" id="arrow0-241136123">
            <path
                d="M 0.0 0.0 L 4.652083333333334 1.6614583333333335 L 4.652083333333334 0.0 L 4.652083333333334 -1.6614583333333335 z "
                latexdraw:arrSizeNum="2.0" fill="#0033ff"/>
        </marker>
        <marker overflow="visible" orient="auto" id="arrow1-241136123">
            <path
                d="M 0.0 0.0 L -4.652083333333334 1.6614583333333335 L -4.652083333333334 0.0 L -4.652083333333334 -1.6614583333333335 z "
                latexdraw:arrSizeNum="2.0" fill="#0033ff"/>
        </marker>
    </defs>
    <metadata>
        <latexdraw:metadata>
            <latexdraw:latexIncludes/>
            <latexdraw:displayXScale>true</latexdraw:displayXScale>
            <latexdraw:displayYScale>true</latexdraw:displayYScale>
            <latexdraw:unit>CM</latexdraw:unit>
            <latexdraw:zoom>1.0</latexdraw:zoom>
            <latexdraw:magneticGridStyle>CUSTOMISED</latexdraw:magneticGridStyle>
            <latexdraw:gridGap>20</latexdraw:gridGap>
            <latexdraw:magneticGrid>false</latexdraw:magneticGrid>
            <latexdraw:version>3.3.7</latexdraw:version>
            <latexdraw:size>
                <latexdraw:width>1440</latexdraw:width>
                <latexdraw:height>812</latexdraw:height>
            </latexdraw:size>
            <latexdraw:position>
                <latexdraw:x>0.0</latexdraw:x>
                <latexdraw:y>23.0</latexdraw:y>
            </latexdraw:position>
        </latexdraw:metadata>
    </metadata>
</svg>
