<?xml version="1.1" encoding="UTF-8"?>
<svg xmlns="http://www.w3.org/2000/svg"
    xmlns:latexdraw="http://latexdraw.sourceforge.net/namespaces/latexdraw"
    version="1.1" baseProfile="full">
    <g>
        <g latexdraw:type="rectangle" id="id428564706">
            <rect x="240.5" y="120.5" width="599.0" height="199.0"
                latexdraw:borderPos="outer" stroke-width="1.0"
                stroke="black" fill="none"/>
        </g>
        <g latexdraw:type="joinedLines" id="id126082857">
            <polyline points="240.0,160.0 840.0,160.0 "
                stroke-width="1.0" stroke="black" latexdraw:rotationAngle="0.0"/>
        </g>
        <g latexdraw:type="joinedLines" id="id2020408061">
            <polyline points="240.0,200.0 820.0,200.0 "
                stroke-width="1.0" stroke="black" latexdraw:rotationAngle="0.0"/>
        </g>
        <g latexdraw:type="joinedLines" id="id1443927624">
            <polyline
                points="839.9999994930959,239.98285342638457 240.00000050690483,240.01714657361546 "
                stroke-width="1.0" stroke="black" latexdraw:rotationAngle="0.0"/>
        </g>
        <g latexdraw:type="joinedLines" id="id1672857605">
            <polyline
                points="240.00000000000006,280.0000000000009 840.0,279.9999999999991 "
                stroke-width="1.0" stroke="black" latexdraw:rotationAngle="0.0"/>
        </g>
        <g latexdraw:type="joinedLines" id="id1710421815">
            <polyline
                points="260.0000139940864,360.08692989448036 819.9999860059133,359.91307010551964 819.9999860059133,359.91307010551964 "
                stroke-width="1.0" stroke="black" fill="none"
                latexdraw:rotationAngle="0.0" marker-end="url(#arrow1-1710421815)"/>
        </g>
        <g latexdraw:type="text" id="id2085899913" fill="black" latexdraw:position="bl">
            <text x="500.0" y="380.0">Period $P$</text>
        </g>
        <g latexdraw:type="text" id="id555697846" fill="black" latexdraw:position="bl">
            <text x="300.0" y="80.0">Emission Time</text>
        </g>
        <g latexdraw:type="joinedLines" id="id65342195">
            <polyline points="240.0,100.0 440.0,100.0 "
                stroke-width="1.0" stroke="black"
                latexdraw:rotationAngle="0.0" marker-end="url(#arrow1-65342195)"/>
        </g>
        <g latexdraw:type="rectangle" id="id968485957">
            <rect x="240.75" y="120.75" width="598.5" height="198.5"
                latexdraw:borderPos="outer" stroke-width="1.5"
                stroke="black" fill="none"/>
        </g>
        <g latexdraw:type="text" id="id1303270668" fill="black" latexdraw:position="bl">
            <text x="60.0" y="220.0">Frequencies</text>
        </g>
        <g latexdraw:type="joinedLines" id="id990069560">
            <polyline points="180.0,220.0 220.0,140.0 "
                stroke-width="1.5" stroke="black"
                latexdraw:rotationAngle="0.0" marker-end="url(#arrow1-990069560)"/>
        </g>
        <g latexdraw:type="joinedLines" id="id1503220630">
            <polyline points="180.0,220.0 220.0,180.0 "
                stroke-width="1.5" stroke="black"
                latexdraw:rotationAngle="0.0" marker-end="url(#arrow1-1503220630)"/>
        </g>
        <g latexdraw:type="joinedLines" id="id1201405683">
            <polyline points="180.0,220.0 220.0,220.0 "
                stroke-width="1.5" stroke="black"
                latexdraw:rotationAngle="0.0" marker-end="url(#arrow1-1201405683)"/>
        </g>
        <g latexdraw:type="joinedLines" id="id1146795963">
            <polyline points="180.0,220.0 220.0,260.0 "
                stroke-width="1.5" stroke="black"
                latexdraw:rotationAngle="0.0" marker-end="url(#arrow1-1146795963)"/>
        </g>
        <g latexdraw:type="joinedLines" id="id959956618">
            <polyline points="180.0,220.0 220.0,300.0 "
                stroke-width="1.5" stroke="black"
                latexdraw:rotationAngle="0.0" marker-end="url(#arrow1-959956618)"/>
        </g>
        <g latexdraw:type="text" id="id576479061" fill="black" latexdraw:position="bl">
            <text x="280.0" y="140.0">Antenna $0$</text>
        </g>
        <g latexdraw:type="rectangle" id="id634969602">
            <rect x="240.05" y="120.05" width="199.9" height="39.9"
                latexdraw:borderPos="outer" stroke-width="0.1"
                stroke="black" fill="url(#pattern634969602)"/>
        </g>
        <g latexdraw:type="joinedLines" id="id12668366">
            <polyline points="240.0,200.0 840.0,200.0 "
                stroke-width="1.0" stroke="black" latexdraw:rotationAngle="0.0"/>
        </g>
        <g latexdraw:type="rectangle" id="id602731196">
            <rect x="440.05" y="120.05000000000003" width="199.9"
                height="39.9" latexdraw:borderPos="outer"
                stroke-width="0.1" stroke="black" fill="url(#pattern602731196)"/>
        </g>
        <g latexdraw:type="rectangle" id="id899517122">
            <rect x="640.05" y="200.05000000000007" width="199.9"
                height="39.9" latexdraw:borderPos="outer"
                stroke-width="0.1" stroke="black" fill="url(#pattern899517122)"/>
        </g>
        <g latexdraw:type="rectangle" id="id152835747">
            <rect x="440.05" y="200.05000000000004" width="199.9"
                height="39.9" latexdraw:borderPos="outer"
                stroke-width="0.1" stroke="black" fill="url(#pattern152835747)"/>
        </g>
        <g latexdraw:type="rectangle" id="id800567797">
            <rect x="640.05" y="280.05" width="199.9" height="39.9"
                latexdraw:borderPos="outer" stroke-width="0.1"
                stroke="black" fill="url(#pattern800567797)"/>
        </g>
        <g latexdraw:type="text" id="id1496995420" fill="black" latexdraw:position="bl">
            <text x="480.0" y="140.0">Antenna $1$</text>
        </g>
        <g latexdraw:type="text" id="id239360207" fill="black" latexdraw:position="bl">
            <text x="680.0" y="300.0">Antenna $n-1$</text>
        </g>
    </g>
    <defs>
        <marker overflow="visible" orient="auto" id="arrow1-1710421815">
            <path
                d="M 0.0 0.0 L -6.504166666666667 2.322916666666667 L -6.504166666666667 0.0 L -6.504166666666667 -2.322916666666667 z "
                latexdraw:arrSizeNum="2.0" fill="black"/>
        </marker>
        <marker overflow="visible" orient="auto" id="arrow1-65342195">
            <path
                d="M 0.0 0.0 L -6.504166666666667 2.322916666666667 L -6.504166666666667 0.0 L -6.504166666666667 -2.322916666666667 z "
                latexdraw:arrSizeNum="2.0" fill="black"/>
        </marker>
        <marker overflow="visible" orient="auto" id="arrow1-990069560">
            <path
                d="M 0.0 0.0 L -5.269444444444445 1.8819444444444446 L -5.269444444444445 0.0 L -5.269444444444445 -1.8819444444444446 z "
                latexdraw:arrSizeNum="2.0" fill="black"/>
        </marker>
        <marker overflow="visible" orient="auto" id="arrow1-1503220630">
            <path
                d="M 0.0 0.0 L -5.269444444444445 1.8819444444444446 L -5.269444444444445 0.0 L -5.269444444444445 -1.8819444444444446 z "
                latexdraw:arrSizeNum="2.0" fill="black"/>
        </marker>
        <marker overflow="visible" orient="auto" id="arrow1-1201405683">
            <path
                d="M 0.0 0.0 L -5.269444444444445 1.8819444444444446 L -5.269444444444445 0.0 L -5.269444444444445 -1.8819444444444446 z "
                latexdraw:arrSizeNum="2.0" fill="black"/>
        </marker>
        <marker overflow="visible" orient="auto" id="arrow1-1146795963">
            <path
                d="M 0.0 0.0 L -5.269444444444445 1.8819444444444446 L -5.269444444444445 0.0 L -5.269444444444445 -1.8819444444444446 z "
                latexdraw:arrSizeNum="2.0" fill="black"/>
        </marker>
        <marker overflow="visible" orient="auto" id="arrow1-959956618">
            <path
                d="M 0.0 0.0 L -5.269444444444445 1.8819444444444446 L -5.269444444444445 0.0 L -5.269444444444445 -1.8819444444444446 z "
                latexdraw:arrSizeNum="2.0" fill="black"/>
        </marker>
        <pattern latexdraw:type="crosshatch"
            latexdraw:rotationAngle="0.0"
            latexdraw:size="7.055555555555555"
            patternUnits="userSpaceOnUse" id="pattern634969602" x="0"
            y="0" width="440" height="160">
            <g stroke="#999999" stroke-width="0.6" stroke-dasharray="none">
                <path d="M 240.0 120.0 L 240.0 160.0 M 247.65555555555557 120.0 L 247.65555555555557 160.0 M 255.31111111111113 120.0 L 255.31111111111113 160.0 M 262.9666666666667 120.0 L 262.9666666666667 160.0 M 270.62222222222226 120.0 L 270.62222222222226 160.0 M 278.2777777777778 120.0 L 278.2777777777778 160.0 M 285.9333333333334 120.0 L 285.9333333333334 160.0 M 293.58888888888896 120.0 L 293.58888888888896 160.0 M 301.2444444444445 120.0 L 301.2444444444445 160.0 M 308.9000000000001 120.0 L 308.9000000000001 160.0 M 316.55555555555566 120.0 L 316.55555555555566 160.0 M 324.2111111111112 120.0 L 324.2111111111112 160.0 M 331.8666666666668 120.0 L 331.8666666666668 160.0 M 339.52222222222235 120.0 L 339.52222222222235 160.0 M 347.1777777777779 120.0 L 347.1777777777779 160.0 M 354.8333333333335 120.0 L 354.8333333333335 160.0 M 362.48888888888905 120.0 L 362.48888888888905 160.0 M 370.1444444444446 120.0 L 370.1444444444446 160.0 M 377.8000000000002 120.0 L 377.8000000000002 160.0 M 385.45555555555575 120.0 L 385.45555555555575 160.0 M 393.1111111111113 120.0 L 393.1111111111113 160.0 M 400.7666666666669 120.0 L 400.7666666666669 160.0 M 408.42222222222244 120.0 L 408.42222222222244 160.0 M 416.077777777778 120.0 L 416.077777777778 160.0 M 423.7333333333336 120.0 L 423.7333333333336 160.0 M 431.38888888888914 120.0 L 431.38888888888914 160.0 M 439.0444444444447 120.0 L 439.0444444444447 160.0 M 240.0 120.0 L 440.0 120.0 M 240.0 127.65555555555555 L 440.0 127.65555555555555 M 240.0 135.3111111111111 L 440.0 135.3111111111111 M 240.0 142.96666666666667 L 440.0 142.96666666666667 M 240.0 150.62222222222223 L 440.0 150.62222222222223 M 240.0 158.2777777777778 L 440.0 158.2777777777778 "/>
            </g>
        </pattern>
        <pattern latexdraw:type="crosshatch"
            latexdraw:rotationAngle="0.0"
            latexdraw:size="7.055555555555555"
            patternUnits="userSpaceOnUse" id="pattern602731196" x="0"
            y="0" width="640" height="160">
            <g stroke="#999999" stroke-width="0.6" stroke-dasharray="none">
                <path d="M 440.0 120.00000000000003 L 440.0 160.00000000000003 M 447.65555555555557 120.00000000000003 L 447.65555555555557 160.00000000000003 M 455.31111111111113 120.00000000000003 L 455.31111111111113 160.00000000000003 M 462.9666666666667 120.00000000000003 L 462.9666666666667 160.00000000000003 M 470.62222222222226 120.00000000000003 L 470.62222222222226 160.00000000000003 M 478.2777777777778 120.00000000000003 L 478.2777777777778 160.00000000000003 M 485.9333333333334 120.00000000000003 L 485.9333333333334 160.00000000000003 M 493.58888888888896 120.00000000000003 L 493.58888888888896 160.00000000000003 M 501.2444444444445 120.00000000000003 L 501.2444444444445 160.00000000000003 M 508.9000000000001 120.00000000000003 L 508.9000000000001 160.00000000000003 M 516.5555555555557 120.00000000000003 L 516.5555555555557 160.00000000000003 M 524.2111111111112 120.00000000000003 L 524.2111111111112 160.00000000000003 M 531.8666666666668 120.00000000000003 L 531.8666666666668 160.00000000000003 M 539.5222222222224 120.00000000000003 L 539.5222222222224 160.00000000000003 M 547.1777777777779 120.00000000000003 L 547.1777777777779 160.00000000000003 M 554.8333333333335 120.00000000000003 L 554.8333333333335 160.00000000000003 M 562.488888888889 120.00000000000003 L 562.488888888889 160.00000000000003 M 570.1444444444446 120.00000000000003 L 570.1444444444446 160.00000000000003 M 577.8000000000002 120.00000000000003 L 577.8000000000002 160.00000000000003 M 585.4555555555557 120.00000000000003 L 585.4555555555557 160.00000000000003 M 593.1111111111113 120.00000000000003 L 593.1111111111113 160.00000000000003 M 600.7666666666669 120.00000000000003 L 600.7666666666669 160.00000000000003 M 608.4222222222224 120.00000000000003 L 608.4222222222224 160.00000000000003 M 616.077777777778 120.00000000000003 L 616.077777777778 160.00000000000003 M 623.7333333333336 120.00000000000003 L 623.7333333333336 160.00000000000003 M 631.3888888888891 120.00000000000003 L 631.3888888888891 160.00000000000003 M 639.0444444444447 120.00000000000003 L 639.0444444444447 160.00000000000003 M 440.0 120.00000000000003 L 640.0 120.00000000000003 M 440.0 127.65555555555558 L 640.0 127.65555555555558 M 440.0 135.31111111111113 L 640.0 135.31111111111113 M 440.0 142.9666666666667 L 640.0 142.9666666666667 M 440.0 150.62222222222226 L 640.0 150.62222222222226 M 440.0 158.27777777777783 L 640.0 158.27777777777783 "/>
            </g>
        </pattern>
        <pattern latexdraw:type="crosshatch"
            latexdraw:rotationAngle="0.0"
            latexdraw:size="7.055555555555555"
            patternUnits="userSpaceOnUse" id="pattern899517122" x="0"
            y="0" width="840" height="240">
            <g stroke="#999999" stroke-width="0.6" stroke-dasharray="none">
                <path d="M 640.0 200.00000000000006 L 640.0 240.00000000000006 M 647.6555555555556 200.00000000000006 L 647.6555555555556 240.00000000000006 M 655.3111111111111 200.00000000000006 L 655.3111111111111 240.00000000000006 M 662.9666666666667 200.00000000000006 L 662.9666666666667 240.00000000000006 M 670.6222222222223 200.00000000000006 L 670.6222222222223 240.00000000000006 M 678.2777777777778 200.00000000000006 L 678.2777777777778 240.00000000000006 M 685.9333333333334 200.00000000000006 L 685.9333333333334 240.00000000000006 M 693.588888888889 200.00000000000006 L 693.588888888889 240.00000000000006 M 701.2444444444445 200.00000000000006 L 701.2444444444445 240.00000000000006 M 708.9000000000001 200.00000000000006 L 708.9000000000001 240.00000000000006 M 716.5555555555557 200.00000000000006 L 716.5555555555557 240.00000000000006 M 724.2111111111112 200.00000000000006 L 724.2111111111112 240.00000000000006 M 731.8666666666668 200.00000000000006 L 731.8666666666668 240.00000000000006 M 739.5222222222224 200.00000000000006 L 739.5222222222224 240.00000000000006 M 747.1777777777779 200.00000000000006 L 747.1777777777779 240.00000000000006 M 754.8333333333335 200.00000000000006 L 754.8333333333335 240.00000000000006 M 762.488888888889 200.00000000000006 L 762.488888888889 240.00000000000006 M 770.1444444444446 200.00000000000006 L 770.1444444444446 240.00000000000006 M 777.8000000000002 200.00000000000006 L 777.8000000000002 240.00000000000006 M 785.4555555555557 200.00000000000006 L 785.4555555555557 240.00000000000006 M 793.1111111111113 200.00000000000006 L 793.1111111111113 240.00000000000006 M 800.7666666666669 200.00000000000006 L 800.7666666666669 240.00000000000006 M 808.4222222222224 200.00000000000006 L 808.4222222222224 240.00000000000006 M 816.077777777778 200.00000000000006 L 816.077777777778 240.00000000000006 M 823.7333333333336 200.00000000000006 L 823.7333333333336 240.00000000000006 M 831.3888888888891 200.00000000000006 L 831.3888888888891 240.00000000000006 M 839.0444444444447 200.00000000000006 L 839.0444444444447 240.00000000000006 M 640.0 200.00000000000006 L 840.0 200.00000000000006 M 640.0 207.65555555555562 L 840.0 207.65555555555562 M 640.0 215.3111111111112 L 840.0 215.3111111111112 M 640.0 222.96666666666675 L 840.0 222.96666666666675 M 640.0 230.62222222222232 L 840.0 230.62222222222232 M 640.0 238.27777777777789 L 840.0 238.27777777777789 "/>
            </g>
        </pattern>
        <pattern latexdraw:type="crosshatch"
            latexdraw:rotationAngle="0.0"
            latexdraw:size="7.055555555555555"
            patternUnits="userSpaceOnUse" id="pattern152835747" x="0"
            y="0" width="640" height="240">
            <g stroke="#999999" stroke-width="0.6" stroke-dasharray="none">
                <path d="M 440.0 200.00000000000003 L 440.0 240.00000000000003 M 447.65555555555557 200.00000000000003 L 447.65555555555557 240.00000000000003 M 455.31111111111113 200.00000000000003 L 455.31111111111113 240.00000000000003 M 462.9666666666667 200.00000000000003 L 462.9666666666667 240.00000000000003 M 470.62222222222226 200.00000000000003 L 470.62222222222226 240.00000000000003 M 478.2777777777778 200.00000000000003 L 478.2777777777778 240.00000000000003 M 485.9333333333334 200.00000000000003 L 485.9333333333334 240.00000000000003 M 493.58888888888896 200.00000000000003 L 493.58888888888896 240.00000000000003 M 501.2444444444445 200.00000000000003 L 501.2444444444445 240.00000000000003 M 508.9000000000001 200.00000000000003 L 508.9000000000001 240.00000000000003 M 516.5555555555557 200.00000000000003 L 516.5555555555557 240.00000000000003 M 524.2111111111112 200.00000000000003 L 524.2111111111112 240.00000000000003 M 531.8666666666668 200.00000000000003 L 531.8666666666668 240.00000000000003 M 539.5222222222224 200.00000000000003 L 539.5222222222224 240.00000000000003 M 547.1777777777779 200.00000000000003 L 547.1777777777779 240.00000000000003 M 554.8333333333335 200.00000000000003 L 554.8333333333335 240.00000000000003 M 562.488888888889 200.00000000000003 L 562.488888888889 240.00000000000003 M 570.1444444444446 200.00000000000003 L 570.1444444444446 240.00000000000003 M 577.8000000000002 200.00000000000003 L 577.8000000000002 240.00000000000003 M 585.4555555555557 200.00000000000003 L 585.4555555555557 240.00000000000003 M 593.1111111111113 200.00000000000003 L 593.1111111111113 240.00000000000003 M 600.7666666666669 200.00000000000003 L 600.7666666666669 240.00000000000003 M 608.4222222222224 200.00000000000003 L 608.4222222222224 240.00000000000003 M 616.077777777778 200.00000000000003 L 616.077777777778 240.00000000000003 M 623.7333333333336 200.00000000000003 L 623.7333333333336 240.00000000000003 M 631.3888888888891 200.00000000000003 L 631.3888888888891 240.00000000000003 M 639.0444444444447 200.00000000000003 L 639.0444444444447 240.00000000000003 M 440.0 200.00000000000003 L 640.0 200.00000000000003 M 440.0 207.6555555555556 L 640.0 207.6555555555556 M 440.0 215.31111111111116 L 640.0 215.31111111111116 M 440.0 222.96666666666673 L 640.0 222.96666666666673 M 440.0 230.6222222222223 L 640.0 230.6222222222223 M 440.0 238.27777777777786 L 640.0 238.27777777777786 "/>
            </g>
        </pattern>
        <pattern latexdraw:type="crosshatch"
            latexdraw:rotationAngle="0.0"
            latexdraw:size="7.055555555555555"
            patternUnits="userSpaceOnUse" id="pattern800567797" x="0"
            y="0" width="840" height="320">
            <g stroke="#999999" stroke-width="0.6" stroke-dasharray="none">
                <path d="M 640.0 280.0 L 640.0 320.0 M 647.6555555555556 280.0 L 647.6555555555556 320.0 M 655.3111111111111 280.0 L 655.3111111111111 320.0 M 662.9666666666667 280.0 L 662.9666666666667 320.0 M 670.6222222222223 280.0 L 670.6222222222223 320.0 M 678.2777777777778 280.0 L 678.2777777777778 320.0 M 685.9333333333334 280.0 L 685.9333333333334 320.0 M 693.588888888889 280.0 L 693.588888888889 320.0 M 701.2444444444445 280.0 L 701.2444444444445 320.0 M 708.9000000000001 280.0 L 708.9000000000001 320.0 M 716.5555555555557 280.0 L 716.5555555555557 320.0 M 724.2111111111112 280.0 L 724.2111111111112 320.0 M 731.8666666666668 280.0 L 731.8666666666668 320.0 M 739.5222222222224 280.0 L 739.5222222222224 320.0 M 747.1777777777779 280.0 L 747.1777777777779 320.0 M 754.8333333333335 280.0 L 754.8333333333335 320.0 M 762.488888888889 280.0 L 762.488888888889 320.0 M 770.1444444444446 280.0 L 770.1444444444446 320.0 M 777.8000000000002 280.0 L 777.8000000000002 320.0 M 785.4555555555557 280.0 L 785.4555555555557 320.0 M 793.1111111111113 280.0 L 793.1111111111113 320.0 M 800.7666666666669 280.0 L 800.7666666666669 320.0 M 808.4222222222224 280.0 L 808.4222222222224 320.0 M 816.077777777778 280.0 L 816.077777777778 320.0 M 823.7333333333336 280.0 L 823.7333333333336 320.0 M 831.3888888888891 280.0 L 831.3888888888891 320.0 M 839.0444444444447 280.0 L 839.0444444444447 320.0 M 640.0 280.0 L 840.0 280.0 M 640.0 287.65555555555557 L 840.0 287.65555555555557 M 640.0 295.31111111111113 L 840.0 295.31111111111113 M 640.0 302.9666666666667 L 840.0 302.9666666666667 M 640.0 310.62222222222226 L 840.0 310.62222222222226 M 640.0 318.2777777777778 L 840.0 318.2777777777778 "/>
            </g>
        </pattern>
    </defs>
    <metadata>
        <latexdraw:metadata>
            <latexdraw:latexIncludes/>
            <latexdraw:displayXScale>true</latexdraw:displayXScale>
            <latexdraw:displayYScale>true</latexdraw:displayYScale>
            <latexdraw:unit>CM</latexdraw:unit>
            <latexdraw:zoom>1.0</latexdraw:zoom>
            <latexdraw:magneticGridStyle>CUSTOMISED</latexdraw:magneticGridStyle>
            <latexdraw:gridGap>20</latexdraw:gridGap>
            <latexdraw:magneticGrid>true</latexdraw:magneticGrid>
            <latexdraw:version>3.3.7</latexdraw:version>
            <latexdraw:size>
                <latexdraw:width>1440</latexdraw:width>
                <latexdraw:height>807</latexdraw:height>
            </latexdraw:size>
            <latexdraw:position>
                <latexdraw:x>0.0</latexdraw:x>
                <latexdraw:y>23.0</latexdraw:y>
            </latexdraw:position>
        </latexdraw:metadata>
    </metadata>
</svg>
