<?xml version="1.1" encoding="UTF-8"?>
<svg xmlns="http://www.w3.org/2000/svg"
    xmlns:latexdraw="http://latexdraw.sourceforge.net/namespaces/latexdraw"
    version="1.1" baseProfile="full">
    <g>
        <g latexdraw:type="rectangle" id="id1209832881">
            <rect x="200.5" y="59.666666666666515" width="299.0"
                height="99.0" latexdraw:borderPos="outer"
                stroke-width="1.0" stroke="black" fill="none"/>
        </g>
        <g latexdraw:type="joinedLines" id="id106396935">
            <polyline
                points="200.0,79.16666666666652 500.0,79.16666666666652 "
                stroke-width="0.6" stroke="black" latexdraw:rotationAngle="0.0"/>
        </g>
        <g latexdraw:type="joinedLines" id="id1991259037">
            <polyline
                points="500.0,119.16666666666652 200.0,119.16666666666652 "
                stroke-width="0.6" stroke="black" latexdraw:rotationAngle="0.0"/>
        </g>
        <g latexdraw:type="joinedLines" id="id172854477">
            <polyline
                points="500.0,139.16666666666652 200.0,139.16666666666652 "
                stroke-width="0.6" stroke="black" latexdraw:rotationAngle="0.0"/>
        </g>
        <g latexdraw:type="joinedLines" id="id1269712780">
            <polyline
                points="340.0,199.16666666666652 340.0,179.16666666666652 "
                stroke-width="1.4000000000000001" stroke="black"
                latexdraw:rotationAngle="0.0" marker-start="url(#arrow0-1269712780)"/>
        </g>
        <g latexdraw:type="rectangle" id="id1633914243">
            <rect x="200.05" y="59.2166666666665" width="99.9"
                height="19.9" latexdraw:borderPos="outer"
                stroke-width="0.1" stroke="black" fill="url(#pattern1633914243)"/>
        </g>
        <g latexdraw:type="rectangle" id="id1226207952">
            <rect x="200.05" y="79.2166666666665" width="99.9"
                height="19.9" latexdraw:borderPos="outer"
                stroke-width="0.1" stroke="black" fill="url(#pattern1226207952)"/>
        </g>
        <g latexdraw:type="rectangle" id="id1093525658">
            <rect x="200.05" y="99.2166666666665" width="99.9"
                height="19.9" latexdraw:borderPos="outer"
                stroke-width="0.1" stroke="black" fill="url(#pattern1093525658)"/>
        </g>
        <g latexdraw:type="rectangle" id="id624942640">
            <rect x="200.5" y="219.66666666666652" width="299.0"
                height="99.0" latexdraw:borderPos="outer"
                stroke-width="1.0" stroke="black" fill="none"/>
        </g>
        <g latexdraw:type="joinedLines" id="id1288220070">
            <polyline
                points="200.0,239.16666666666652 500.0,239.16666666666652 "
                stroke-width="0.6" stroke="black" latexdraw:rotationAngle="0.0"/>
        </g>
        <g latexdraw:type="joinedLines" id="id1708506772">
            <polyline
                points="500.0,279.1666666666665 200.0,279.1666666666665 "
                stroke-width="0.6" stroke="black" latexdraw:rotationAngle="0.0"/>
        </g>
        <g latexdraw:type="joinedLines" id="id1944786968">
            <polyline
                points="500.0,299.1666666666665 200.0,299.1666666666665 "
                stroke-width="0.6" stroke="black" latexdraw:rotationAngle="0.0"/>
        </g>
        <g latexdraw:type="rectangle" id="id70553855">
            <rect x="200.05" y="219.21666666666664" width="99.9"
                height="19.9" latexdraw:borderPos="outer"
                stroke-width="0.1" stroke="black" fill="url(#pattern70553855)"/>
        </g>
        <g latexdraw:type="rectangle" id="id1825284316">
            <rect x="300.05" y="219.21666666666664" width="99.9"
                height="19.9" latexdraw:borderPos="outer"
                stroke-width="0.1" stroke="black" fill="url(#pattern1825284316)"/>
        </g>
        <g latexdraw:type="rectangle" id="id1829983066">
            <rect x="300.05" y="59.2166666666665" width="39.9"
                height="19.9" latexdraw:borderPos="outer"
                stroke-width="0.1" stroke="black" fill="#ff3333"/>
        </g>
        <g latexdraw:type="rectangle" id="id1105640177">
            <rect x="300.05" y="79.2166666666665" width="39.9"
                height="19.9" latexdraw:borderPos="outer"
                stroke-width="0.1" stroke="black" fill="#ff3333"/>
        </g>
        <g latexdraw:type="rectangle" id="id2145049364">
            <rect x="300.05" y="99.2166666666665" width="39.9"
                height="19.9" latexdraw:borderPos="outer"
                stroke-width="0.1" stroke="black" fill="#ff3333"/>
        </g>
        <g latexdraw:type="rectangle" id="id711972046">
            <rect x="400.05" y="219.21666666666664" width="39.9"
                height="19.9" latexdraw:borderPos="outer"
                stroke-width="0.1" stroke="black" fill="#ff3333"/>
        </g>
        <g latexdraw:type="text" id="id621594444" fill="black" latexdraw:position="bl">
            <text x="289.1666666666665" y="49.166666666666515"> Ring Size</text>
        </g>
        <g latexdraw:type="rectangle" id="id1896984199">
            <rect x="200.05" y="139.2166666666666" width="99.9"
                height="19.9" latexdraw:borderPos="outer"
                stroke-width="0.1" stroke="black" fill="url(#pattern1896984199)"/>
        </g>
        <g latexdraw:type="rectangle" id="id50833649">
            <rect x="200.05" y="119.21666666666651" width="99.9"
                height="19.9" latexdraw:borderPos="outer"
                stroke-width="0.1" stroke="black" fill="url(#pattern50833649)"/>
        </g>
        <g latexdraw:type="rectangle" id="id1013695077">
            <rect x="300.05" y="119.2166666666665" width="39.9"
                height="19.900000000000013" latexdraw:borderPos="outer"
                stroke-width="0.1" stroke="black" fill="#ff3333"/>
        </g>
        <g latexdraw:type="rectangle" id="id1464285444">
            <rect x="300.05" y="139.2166666666666" width="39.9"
                height="19.9" latexdraw:borderPos="outer"
                stroke-width="0.1" stroke="black" fill="#ff3333"/>
        </g>
        <g latexdraw:type="rectangle" id="id1681252661">
            <rect x="200.05" y="259.2166666666665" width="99.9"
                height="19.9" latexdraw:borderPos="outer"
                stroke-width="0.1" stroke="black" fill="url(#pattern1681252661)"/>
        </g>
        <g latexdraw:type="rectangle" id="id694794601">
            <rect x="300.05" y="259.2166666666665" width="99.9"
                height="19.9" latexdraw:borderPos="outer"
                stroke-width="0.1" stroke="black" fill="url(#pattern694794601)"/>
        </g>
        <g latexdraw:type="rectangle" id="id525859928">
            <rect x="400.05" y="259.2166666666665" width="39.9"
                height="19.9" latexdraw:borderPos="outer"
                stroke-width="0.1" stroke="black" fill="#ff3333"/>
        </g>
        <g latexdraw:type="rectangle" id="id2099450908">
            <rect x="200.05" y="299.2166666666665" width="99.9"
                height="19.9" latexdraw:borderPos="outer"
                stroke-width="0.1" stroke="black" fill="url(#pattern2099450908)"/>
        </g>
        <g latexdraw:type="rectangle" id="id232499654">
            <rect x="300.05" y="299.2166666666665" width="39.9"
                height="19.9" latexdraw:borderPos="outer"
                stroke-width="0.1" stroke="black" fill="#ff3333"/>
        </g>
        <g latexdraw:type="joinedLines" id="id1540267244">
            <polyline
                points="500.0,99.16666666666652 200.0,99.16666666666652 "
                stroke-width="0.6" stroke="black" latexdraw:rotationAngle="0.0"/>
        </g>
        <g latexdraw:type="joinedLines" id="id1471250626">
            <polyline
                points="500.0,259.1666666666665 200.0,259.1666666666665 "
                stroke-width="0.6" stroke="black" latexdraw:rotationAngle="0.0"/>
        </g>
        <g latexdraw:type="joinedLines" id="id16805953">
            <polyline
                points="195.0,71.6666666666665 162.5,106.6666666666665 "
                stroke-width="1.0" stroke="black"
                latexdraw:rotationAngle="0.0" marker-start="url(#arrow0-16805953)"/>
        </g>
        <g latexdraw:type="joinedLines" id="id2044215298">
            <polyline
                points="198.33333333333331,90.83333333333317 164.16666666666666,109.1666666666665 "
                stroke-width="1.0" stroke="black"
                latexdraw:rotationAngle="0.0" marker-start="url(#arrow0-2044215298)"/>
        </g>
        <g latexdraw:type="joinedLines" id="id1623266289">
            <polyline
                points="196.66666666666666,114.1666666666665 166.66666666666666,114.99999999999983 "
                stroke-width="1.0" stroke="black"
                latexdraw:rotationAngle="0.0" marker-start="url(#arrow0-1623266289)"/>
        </g>
        <g latexdraw:type="joinedLines" id="id1510962387">
            <polyline
                points="195.0,132.49999999999983 168.33333333333331,120.83333333333316 "
                stroke-width="1.0" stroke="black"
                latexdraw:rotationAngle="0.0" marker-start="url(#arrow0-1510962387)"/>
        </g>
        <g latexdraw:type="joinedLines" id="id1597584636">
            <polyline
                points="192.5,149.99999999999983 164.16666666666666,121.6666666666665 "
                stroke-width="1.0" stroke="black"
                latexdraw:rotationAngle="0.0" marker-start="url(#arrow0-1597584636)"/>
        </g>
        <g latexdraw:type="text" id="id815983633" fill="black" latexdraw:position="bl">
            <text x="93.33333333333363" y="116.66666666666664">Positions</text>
        </g>
        <g latexdraw:type="text" id="id1302505905" fill="black" latexdraw:position="bl">
            <text x="155.83333333333317" y="273.33333333333314">Slot</text>
        </g>
        <g latexdraw:type="joinedLines" id="id1160852415">
            <polyline
                points="193.33333333333331,319.99999999999994 193.33333333333331,220.83333333333348 "
                stroke-width="1.0999999999999999" stroke="black"
                latexdraw:rotationAngle="0.0"
                marker-start="url(#arrow0-1160852415)" marker-end="url(#arrow1-1160852415)"/>
        </g>
        <g latexdraw:type="joinedLines" id="id286061267">
            <polyline
                points="300.8333333333333,54.16666666666666 341.66666666666663,54.16666666666666 "
                stroke-width="1.0999999999999999" stroke="black"
                latexdraw:rotationAngle="0.0"
                marker-start="url(#arrow0-286061267)" marker-end="url(#arrow1-286061267)"/>
        </g>
        <g latexdraw:type="joinedLines" id="id372995522">
            <polyline
                points="200.83333333333331,25.83333333333333 339.99999999999994,24.999999999999996 "
                stroke-width="1.0999999999999999" stroke="black"
                latexdraw:rotationAngle="0.0"
                marker-start="url(#arrow0-372995522)" marker-end="url(#arrow1-372995522)"/>
        </g>
        <g latexdraw:type="text" id="id775445179" fill="black" latexdraw:position="bl">
            <text x="257.49999999999966" y="23.333333333333332">$ET$</text>
        </g>
    </g>
    <defs>
        <marker overflow="visible" orient="auto" id="arrow0-1269712780">
            <path
                d="M 0.0 0.0 L 5.445833333333333 1.9449404761904758 L 5.445833333333333 0.0 L 5.445833333333333 -1.9449404761904758 z "
                latexdraw:arrSizeNum="2.0" fill="black"/>
        </marker>
        <pattern latexdraw:type="crosshatch*"
            latexdraw:rotationAngle="0.0"
            latexdraw:size="7.055555555555555"
            patternUnits="userSpaceOnUse" id="pattern1633914243" x="0"
            y="0" width="300" height="79">
            <rect width="300" height="79" fill="#cccccc" stroke="none"/>
            <g stroke="#999999" stroke-width="0.6" stroke-dasharray="none">
                <path d="M 200.0 59.1666666666665 L 200.0 79.1666666666665 M 207.65555555555557 59.1666666666665 L 207.65555555555557 79.1666666666665 M 215.31111111111113 59.1666666666665 L 215.31111111111113 79.1666666666665 M 222.9666666666667 59.1666666666665 L 222.9666666666667 79.1666666666665 M 230.62222222222226 59.1666666666665 L 230.62222222222226 79.1666666666665 M 238.27777777777783 59.1666666666665 L 238.27777777777783 79.1666666666665 M 245.9333333333334 59.1666666666665 L 245.9333333333334 79.1666666666665 M 253.58888888888896 59.1666666666665 L 253.58888888888896 79.1666666666665 M 261.2444444444445 59.1666666666665 L 261.2444444444445 79.1666666666665 M 268.9000000000001 59.1666666666665 L 268.9000000000001 79.1666666666665 M 276.55555555555566 59.1666666666665 L 276.55555555555566 79.1666666666665 M 284.2111111111112 59.1666666666665 L 284.2111111111112 79.1666666666665 M 291.8666666666668 59.1666666666665 L 291.8666666666668 79.1666666666665 M 299.52222222222235 59.1666666666665 L 299.52222222222235 79.1666666666665 M 200.0 59.1666666666665 L 300.0 59.1666666666665 M 200.0 66.82222222222205 L 300.0 66.82222222222205 M 200.0 74.4777777777776 L 300.0 74.4777777777776 "/>
            </g>
        </pattern>
        <pattern latexdraw:type="crosshatch*"
            latexdraw:rotationAngle="0.0"
            latexdraw:size="7.055555555555555"
            patternUnits="userSpaceOnUse" id="pattern1226207952" x="0"
            y="0" width="300" height="99">
            <rect width="300" height="99" fill="#cccccc" stroke="none"/>
            <g stroke="#999999" stroke-width="0.6" stroke-dasharray="none">
                <path d="M 200.0 79.1666666666665 L 200.0 99.1666666666665 M 207.65555555555557 79.1666666666665 L 207.65555555555557 99.1666666666665 M 215.31111111111113 79.1666666666665 L 215.31111111111113 99.1666666666665 M 222.9666666666667 79.1666666666665 L 222.9666666666667 99.1666666666665 M 230.62222222222226 79.1666666666665 L 230.62222222222226 99.1666666666665 M 238.27777777777783 79.1666666666665 L 238.27777777777783 99.1666666666665 M 245.9333333333334 79.1666666666665 L 245.9333333333334 99.1666666666665 M 253.58888888888896 79.1666666666665 L 253.58888888888896 99.1666666666665 M 261.2444444444445 79.1666666666665 L 261.2444444444445 99.1666666666665 M 268.9000000000001 79.1666666666665 L 268.9000000000001 99.1666666666665 M 276.55555555555566 79.1666666666665 L 276.55555555555566 99.1666666666665 M 284.2111111111112 79.1666666666665 L 284.2111111111112 99.1666666666665 M 291.8666666666668 79.1666666666665 L 291.8666666666668 99.1666666666665 M 299.52222222222235 79.1666666666665 L 299.52222222222235 99.1666666666665 M 200.0 79.1666666666665 L 300.0 79.1666666666665 M 200.0 86.82222222222205 L 300.0 86.82222222222205 M 200.0 94.4777777777776 L 300.0 94.4777777777776 "/>
            </g>
        </pattern>
        <pattern latexdraw:type="crosshatch*"
            latexdraw:rotationAngle="0.0"
            latexdraw:size="7.055555555555555"
            patternUnits="userSpaceOnUse" id="pattern1093525658" x="0"
            y="0" width="300" height="119">
            <rect width="300" height="119" fill="#cccccc" stroke="none"/>
            <g stroke="#999999" stroke-width="0.6" stroke-dasharray="none">
                <path d="M 200.0 99.1666666666665 L 200.0 119.1666666666665 M 207.65555555555557 99.1666666666665 L 207.65555555555557 119.1666666666665 M 215.31111111111113 99.1666666666665 L 215.31111111111113 119.1666666666665 M 222.9666666666667 99.1666666666665 L 222.9666666666667 119.1666666666665 M 230.62222222222226 99.1666666666665 L 230.62222222222226 119.1666666666665 M 238.27777777777783 99.1666666666665 L 238.27777777777783 119.1666666666665 M 245.9333333333334 99.1666666666665 L 245.9333333333334 119.1666666666665 M 253.58888888888896 99.1666666666665 L 253.58888888888896 119.1666666666665 M 261.2444444444445 99.1666666666665 L 261.2444444444445 119.1666666666665 M 268.9000000000001 99.1666666666665 L 268.9000000000001 119.1666666666665 M 276.55555555555566 99.1666666666665 L 276.55555555555566 119.1666666666665 M 284.2111111111112 99.1666666666665 L 284.2111111111112 119.1666666666665 M 291.8666666666668 99.1666666666665 L 291.8666666666668 119.1666666666665 M 299.52222222222235 99.1666666666665 L 299.52222222222235 119.1666666666665 M 200.0 99.1666666666665 L 300.0 99.1666666666665 M 200.0 106.82222222222205 L 300.0 106.82222222222205 M 200.0 114.4777777777776 L 300.0 114.4777777777776 "/>
            </g>
        </pattern>
        <pattern latexdraw:type="crosshatch*"
            latexdraw:rotationAngle="0.0"
            latexdraw:size="7.055555555555555"
            patternUnits="userSpaceOnUse" id="pattern70553855" x="0"
            y="0" width="300" height="239">
            <rect width="300" height="239" fill="#cccccc" stroke="none"/>
            <g stroke="#999999" stroke-width="0.6" stroke-dasharray="none">
                <path d="M 200.0 219.16666666666663 L 200.0 239.16666666666663 M 207.65555555555557 219.16666666666663 L 207.65555555555557 239.16666666666663 M 215.31111111111113 219.16666666666663 L 215.31111111111113 239.16666666666663 M 222.9666666666667 219.16666666666663 L 222.9666666666667 239.16666666666663 M 230.62222222222226 219.16666666666663 L 230.62222222222226 239.16666666666663 M 238.27777777777783 219.16666666666663 L 238.27777777777783 239.16666666666663 M 245.9333333333334 219.16666666666663 L 245.9333333333334 239.16666666666663 M 253.58888888888896 219.16666666666663 L 253.58888888888896 239.16666666666663 M 261.2444444444445 219.16666666666663 L 261.2444444444445 239.16666666666663 M 268.9000000000001 219.16666666666663 L 268.9000000000001 239.16666666666663 M 276.55555555555566 219.16666666666663 L 276.55555555555566 239.16666666666663 M 284.2111111111112 219.16666666666663 L 284.2111111111112 239.16666666666663 M 291.8666666666668 219.16666666666663 L 291.8666666666668 239.16666666666663 M 299.52222222222235 219.16666666666663 L 299.52222222222235 239.16666666666663 M 200.0 219.16666666666663 L 300.0 219.16666666666663 M 200.0 226.8222222222222 L 300.0 226.8222222222222 M 200.0 234.47777777777776 L 300.0 234.47777777777776 "/>
            </g>
        </pattern>
        <pattern latexdraw:type="crosshatch*"
            latexdraw:rotationAngle="0.0"
            latexdraw:size="7.055555555555555"
            patternUnits="userSpaceOnUse" id="pattern1825284316" x="0"
            y="0" width="400" height="239">
            <rect width="400" height="239" fill="#cccccc" stroke="none"/>
            <g stroke="#999999" stroke-width="0.6" stroke-dasharray="none">
                <path d="M 300.0 219.16666666666663 L 300.0 239.16666666666663 M 307.65555555555557 219.16666666666663 L 307.65555555555557 239.16666666666663 M 315.31111111111113 219.16666666666663 L 315.31111111111113 239.16666666666663 M 322.9666666666667 219.16666666666663 L 322.9666666666667 239.16666666666663 M 330.62222222222226 219.16666666666663 L 330.62222222222226 239.16666666666663 M 338.2777777777778 219.16666666666663 L 338.2777777777778 239.16666666666663 M 345.9333333333334 219.16666666666663 L 345.9333333333334 239.16666666666663 M 353.58888888888896 219.16666666666663 L 353.58888888888896 239.16666666666663 M 361.2444444444445 219.16666666666663 L 361.2444444444445 239.16666666666663 M 368.9000000000001 219.16666666666663 L 368.9000000000001 239.16666666666663 M 376.55555555555566 219.16666666666663 L 376.55555555555566 239.16666666666663 M 384.2111111111112 219.16666666666663 L 384.2111111111112 239.16666666666663 M 391.8666666666668 219.16666666666663 L 391.8666666666668 239.16666666666663 M 399.52222222222235 219.16666666666663 L 399.52222222222235 239.16666666666663 M 300.0 219.16666666666663 L 400.0 219.16666666666663 M 300.0 226.8222222222222 L 400.0 226.8222222222222 M 300.0 234.47777777777776 L 400.0 234.47777777777776 "/>
            </g>
        </pattern>
        <pattern latexdraw:type="crosshatch*"
            latexdraw:rotationAngle="0.0"
            latexdraw:size="7.055555555555555"
            patternUnits="userSpaceOnUse" id="pattern1896984199" x="0"
            y="0" width="300" height="159">
            <rect width="300" height="159" fill="#cccccc" stroke="none"/>
            <g stroke="#999999" stroke-width="0.6" stroke-dasharray="none">
                <path d="M 200.0 139.1666666666666 L 200.0 159.1666666666666 M 207.65555555555557 139.1666666666666 L 207.65555555555557 159.1666666666666 M 215.31111111111113 139.1666666666666 L 215.31111111111113 159.1666666666666 M 222.9666666666667 139.1666666666666 L 222.9666666666667 159.1666666666666 M 230.62222222222226 139.1666666666666 L 230.62222222222226 159.1666666666666 M 238.27777777777783 139.1666666666666 L 238.27777777777783 159.1666666666666 M 245.9333333333334 139.1666666666666 L 245.9333333333334 159.1666666666666 M 253.58888888888896 139.1666666666666 L 253.58888888888896 159.1666666666666 M 261.2444444444445 139.1666666666666 L 261.2444444444445 159.1666666666666 M 268.9000000000001 139.1666666666666 L 268.9000000000001 159.1666666666666 M 276.55555555555566 139.1666666666666 L 276.55555555555566 159.1666666666666 M 284.2111111111112 139.1666666666666 L 284.2111111111112 159.1666666666666 M 291.8666666666668 139.1666666666666 L 291.8666666666668 159.1666666666666 M 299.52222222222235 139.1666666666666 L 299.52222222222235 159.1666666666666 M 200.0 139.1666666666666 L 300.0 139.1666666666666 M 200.0 146.82222222222217 L 300.0 146.82222222222217 M 200.0 154.47777777777773 L 300.0 154.47777777777773 "/>
            </g>
        </pattern>
        <pattern latexdraw:type="crosshatch*"
            latexdraw:rotationAngle="0.0"
            latexdraw:size="7.055555555555555"
            patternUnits="userSpaceOnUse" id="pattern50833649" x="0"
            y="0" width="300" height="139">
            <rect width="300" height="139" fill="#cccccc" stroke="none"/>
            <g stroke="#999999" stroke-width="0.6" stroke-dasharray="none">
                <path d="M 200.0 119.16666666666652 L 200.0 139.16666666666652 M 207.65555555555557 119.16666666666652 L 207.65555555555557 139.16666666666652 M 215.31111111111113 119.16666666666652 L 215.31111111111113 139.16666666666652 M 222.9666666666667 119.16666666666652 L 222.9666666666667 139.16666666666652 M 230.62222222222226 119.16666666666652 L 230.62222222222226 139.16666666666652 M 238.27777777777783 119.16666666666652 L 238.27777777777783 139.16666666666652 M 245.9333333333334 119.16666666666652 L 245.9333333333334 139.16666666666652 M 253.58888888888896 119.16666666666652 L 253.58888888888896 139.16666666666652 M 261.2444444444445 119.16666666666652 L 261.2444444444445 139.16666666666652 M 268.9000000000001 119.16666666666652 L 268.9000000000001 139.16666666666652 M 276.55555555555566 119.16666666666652 L 276.55555555555566 139.16666666666652 M 284.2111111111112 119.16666666666652 L 284.2111111111112 139.16666666666652 M 291.8666666666668 119.16666666666652 L 291.8666666666668 139.16666666666652 M 299.52222222222235 119.16666666666652 L 299.52222222222235 139.16666666666652 M 200.0 119.16666666666652 L 300.0 119.16666666666652 M 200.0 126.82222222222207 L 300.0 126.82222222222207 M 200.0 134.47777777777762 L 300.0 134.47777777777762 "/>
            </g>
        </pattern>
        <pattern latexdraw:type="crosshatch*"
            latexdraw:rotationAngle="0.0"
            latexdraw:size="7.055555555555555"
            patternUnits="userSpaceOnUse" id="pattern1681252661" x="0"
            y="0" width="300" height="279">
            <rect width="300" height="279" fill="#cccccc" stroke="none"/>
            <g stroke="#999999" stroke-width="0.6" stroke-dasharray="none">
                <path d="M 200.0 259.1666666666665 L 200.0 279.1666666666665 M 207.65555555555557 259.1666666666665 L 207.65555555555557 279.1666666666665 M 215.31111111111113 259.1666666666665 L 215.31111111111113 279.1666666666665 M 222.9666666666667 259.1666666666665 L 222.9666666666667 279.1666666666665 M 230.62222222222226 259.1666666666665 L 230.62222222222226 279.1666666666665 M 238.27777777777783 259.1666666666665 L 238.27777777777783 279.1666666666665 M 245.9333333333334 259.1666666666665 L 245.9333333333334 279.1666666666665 M 253.58888888888896 259.1666666666665 L 253.58888888888896 279.1666666666665 M 261.2444444444445 259.1666666666665 L 261.2444444444445 279.1666666666665 M 268.9000000000001 259.1666666666665 L 268.9000000000001 279.1666666666665 M 276.55555555555566 259.1666666666665 L 276.55555555555566 279.1666666666665 M 284.2111111111112 259.1666666666665 L 284.2111111111112 279.1666666666665 M 291.8666666666668 259.1666666666665 L 291.8666666666668 279.1666666666665 M 299.52222222222235 259.1666666666665 L 299.52222222222235 279.1666666666665 M 200.0 259.1666666666665 L 300.0 259.1666666666665 M 200.0 266.8222222222221 L 300.0 266.8222222222221 M 200.0 274.47777777777765 L 300.0 274.47777777777765 "/>
            </g>
        </pattern>
        <pattern latexdraw:type="crosshatch*"
            latexdraw:rotationAngle="0.0"
            latexdraw:size="7.055555555555555"
            patternUnits="userSpaceOnUse" id="pattern694794601" x="0"
            y="0" width="400" height="279">
            <rect width="400" height="279" fill="#cccccc" stroke="none"/>
            <g stroke="#999999" stroke-width="0.6" stroke-dasharray="none">
                <path d="M 300.0 259.1666666666665 L 300.0 279.1666666666665 M 307.65555555555557 259.1666666666665 L 307.65555555555557 279.1666666666665 M 315.31111111111113 259.1666666666665 L 315.31111111111113 279.1666666666665 M 322.9666666666667 259.1666666666665 L 322.9666666666667 279.1666666666665 M 330.62222222222226 259.1666666666665 L 330.62222222222226 279.1666666666665 M 338.2777777777778 259.1666666666665 L 338.2777777777778 279.1666666666665 M 345.9333333333334 259.1666666666665 L 345.9333333333334 279.1666666666665 M 353.58888888888896 259.1666666666665 L 353.58888888888896 279.1666666666665 M 361.2444444444445 259.1666666666665 L 361.2444444444445 279.1666666666665 M 368.9000000000001 259.1666666666665 L 368.9000000000001 279.1666666666665 M 376.55555555555566 259.1666666666665 L 376.55555555555566 279.1666666666665 M 384.2111111111112 259.1666666666665 L 384.2111111111112 279.1666666666665 M 391.8666666666668 259.1666666666665 L 391.8666666666668 279.1666666666665 M 399.52222222222235 259.1666666666665 L 399.52222222222235 279.1666666666665 M 300.0 259.1666666666665 L 400.0 259.1666666666665 M 300.0 266.8222222222221 L 400.0 266.8222222222221 M 300.0 274.47777777777765 L 400.0 274.47777777777765 "/>
            </g>
        </pattern>
        <pattern latexdraw:type="crosshatch*"
            latexdraw:rotationAngle="0.0"
            latexdraw:size="7.055555555555555"
            patternUnits="userSpaceOnUse" id="pattern2099450908" x="0"
            y="0" width="300" height="319">
            <rect width="300" height="319" fill="#cccccc" stroke="none"/>
            <g stroke="#999999" stroke-width="0.6" stroke-dasharray="none">
                <path d="M 200.0 299.1666666666665 L 200.0 319.1666666666665 M 207.65555555555557 299.1666666666665 L 207.65555555555557 319.1666666666665 M 215.31111111111113 299.1666666666665 L 215.31111111111113 319.1666666666665 M 222.9666666666667 299.1666666666665 L 222.9666666666667 319.1666666666665 M 230.62222222222226 299.1666666666665 L 230.62222222222226 319.1666666666665 M 238.27777777777783 299.1666666666665 L 238.27777777777783 319.1666666666665 M 245.9333333333334 299.1666666666665 L 245.9333333333334 319.1666666666665 M 253.58888888888896 299.1666666666665 L 253.58888888888896 319.1666666666665 M 261.2444444444445 299.1666666666665 L 261.2444444444445 319.1666666666665 M 268.9000000000001 299.1666666666665 L 268.9000000000001 319.1666666666665 M 276.55555555555566 299.1666666666665 L 276.55555555555566 319.1666666666665 M 284.2111111111112 299.1666666666665 L 284.2111111111112 319.1666666666665 M 291.8666666666668 299.1666666666665 L 291.8666666666668 319.1666666666665 M 299.52222222222235 299.1666666666665 L 299.52222222222235 319.1666666666665 M 200.0 299.1666666666665 L 300.0 299.1666666666665 M 200.0 306.8222222222221 L 300.0 306.8222222222221 M 200.0 314.47777777777765 L 300.0 314.47777777777765 "/>
            </g>
        </pattern>
        <marker overflow="visible" orient="auto" id="arrow0-16805953">
            <path
                d="M 0.0 0.0 L 6.504166666666667 2.322916666666667 L 6.504166666666667 0.0 L 6.504166666666667 -2.322916666666667 z "
                latexdraw:arrSizeNum="2.0" fill="black"/>
        </marker>
        <marker overflow="visible" orient="auto" id="arrow0-2044215298">
            <path
                d="M 0.0 0.0 L 6.504166666666667 2.322916666666667 L 6.504166666666667 0.0 L 6.504166666666667 -2.322916666666667 z "
                latexdraw:arrSizeNum="2.0" fill="black"/>
        </marker>
        <marker overflow="visible" orient="auto" id="arrow0-1623266289">
            <path
                d="M 0.0 0.0 L 6.504166666666667 2.322916666666667 L 6.504166666666667 0.0 L 6.504166666666667 -2.322916666666667 z "
                latexdraw:arrSizeNum="2.0" fill="black"/>
        </marker>
        <marker overflow="visible" orient="auto" id="arrow0-1510962387">
            <path
                d="M 0.0 0.0 L 6.504166666666667 2.322916666666667 L 6.504166666666667 0.0 L 6.504166666666667 -2.322916666666667 z "
                latexdraw:arrSizeNum="2.0" fill="black"/>
        </marker>
        <marker overflow="visible" orient="auto" id="arrow0-1597584636">
            <path
                d="M 0.0 0.0 L 6.504166666666667 2.322916666666667 L 6.504166666666667 0.0 L 6.504166666666667 -2.322916666666667 z "
                latexdraw:arrSizeNum="2.0" fill="black"/>
        </marker>
        <marker overflow="visible" orient="auto" id="arrow0-1160852415">
            <path
                d="M 0.0 0.0 L 8.967424242424242 3.202651515151515 L 8.967424242424242 0.0 L 8.967424242424242 -3.202651515151515 z "
                latexdraw:arrSizeNum="4.0" fill="black"/>
        </marker>
        <marker overflow="visible" orient="auto" id="arrow1-1160852415">
            <path
                d="M 0.0 0.0 L -8.967424242424242 3.202651515151515 L -8.967424242424242 0.0 L -8.967424242424242 -3.202651515151515 z "
                latexdraw:arrSizeNum="4.0" fill="black"/>
        </marker>
        <marker overflow="visible" orient="auto" id="arrow0-286061267">
            <path
                d="M 0.0 0.0 L 8.967424242424242 3.202651515151515 L 8.967424242424242 0.0 L 8.967424242424242 -3.202651515151515 z "
                latexdraw:arrSizeNum="4.0" fill="black"/>
        </marker>
        <marker overflow="visible" orient="auto" id="arrow1-286061267">
            <path
                d="M 0.0 0.0 L -8.967424242424242 3.202651515151515 L -8.967424242424242 0.0 L -8.967424242424242 -3.202651515151515 z "
                latexdraw:arrSizeNum="4.0" fill="black"/>
        </marker>
        <marker overflow="visible" orient="auto" id="arrow0-372995522">
            <path
                d="M 0.0 0.0 L 8.967424242424242 3.202651515151515 L 8.967424242424242 0.0 L 8.967424242424242 -3.202651515151515 z "
                latexdraw:arrSizeNum="4.0" fill="black"/>
        </marker>
        <marker overflow="visible" orient="auto" id="arrow1-372995522">
            <path
                d="M 0.0 0.0 L -8.967424242424242 3.202651515151515 L -8.967424242424242 0.0 L -8.967424242424242 -3.202651515151515 z "
                latexdraw:arrSizeNum="4.0" fill="black"/>
        </marker>
    </defs>
    <metadata>
        <latexdraw:metadata>
            <latexdraw:latexIncludes/>
            <latexdraw:displayXScale>true</latexdraw:displayXScale>
            <latexdraw:displayYScale>true</latexdraw:displayYScale>
            <latexdraw:unit>CM</latexdraw:unit>
            <latexdraw:zoom>1.2000000000000002</latexdraw:zoom>
            <latexdraw:magneticGridStyle>CUSTOMISED</latexdraw:magneticGridStyle>
            <latexdraw:gridGap>20</latexdraw:gridGap>
            <latexdraw:magneticGrid>false</latexdraw:magneticGrid>
            <latexdraw:version>3.3.7</latexdraw:version>
            <latexdraw:size>
                <latexdraw:width>1440</latexdraw:width>
                <latexdraw:height>804</latexdraw:height>
            </latexdraw:size>
            <latexdraw:position>
                <latexdraw:x>0.0</latexdraw:x>
                <latexdraw:y>23.0</latexdraw:y>
            </latexdraw:position>
        </latexdraw:metadata>
    </metadata>
</svg>
