<?xml version="1.1" encoding="UTF-8"?>
<svg xmlns="http://www.w3.org/2000/svg"
    xmlns:latexdraw="http://latexdraw.sourceforge.net/namespaces/latexdraw"
    version="1.1" baseProfile="full">
    <g>
        <g latexdraw:type="rectangle" id="id1560565829">
            <rect x="80.5" y="60.5" width="299.0" height="99.0"
                latexdraw:borderPos="outer" stroke-width="1.0"
                stroke="black" fill="none"/>
        </g>
        <g latexdraw:type="joinedLines" id="id675499802">
            <polyline points="80.0,80.0 380.0,80.0 " stroke-width="0.6"
                stroke="black" latexdraw:rotationAngle="0.0"/>
        </g>
        <g latexdraw:type="joinedLines" id="id680214749">
            <polyline points="380.0,120.0 80.0,120.0 "
                stroke-width="0.6" stroke="black" latexdraw:rotationAngle="0.0"/>
        </g>
        <g latexdraw:type="joinedLines" id="id1673889695">
            <polyline points="380.0,140.0 80.0,140.0 "
                stroke-width="0.6" stroke="black" latexdraw:rotationAngle="0.0"/>
        </g>
        <g latexdraw:type="joinedLines" id="id1073403359">
            <polyline points="220.0,200.0 220.0,180.0 "
                stroke-width="1.4000000000000001" stroke="black"
                latexdraw:rotationAngle="0.0" marker-start="url(#arrow0-1073403359)"/>
        </g>
        <g latexdraw:type="rectangle" id="id1134479238">
            <rect x="320.05" y="140.05000000000004" width="59.9"
                height="19.9" latexdraw:borderPos="outer"
                stroke-width="0.1" stroke="black" fill="url(#pattern1134479238)"/>
        </g>
        <g latexdraw:type="rectangle" id="id65654605">
            <rect x="80.05" y="140.05000000000004" width="39.9"
                height="19.9" latexdraw:borderPos="outer"
                stroke-width="0.1" stroke="black" fill="url(#pattern65654605)"/>
        </g>
        <g latexdraw:type="rectangle" id="id717544279">
            <rect x="80.05" y="60.04999999999998" width="99.9"
                height="19.9" latexdraw:borderPos="outer"
                stroke-width="0.1" stroke="black" fill="url(#pattern717544279)"/>
        </g>
        <g latexdraw:type="rectangle" id="id685665971">
            <rect x="140.05" y="80.04999999999998" width="99.9"
                height="19.9" latexdraw:borderPos="outer"
                stroke-width="0.1" stroke="black" fill="url(#pattern685665971)"/>
        </g>
        <g latexdraw:type="rectangle" id="id670192577">
            <rect x="200.05" y="100.04999999999998" width="99.9"
                height="19.9" latexdraw:borderPos="outer"
                stroke-width="0.1" stroke="black" fill="url(#pattern670192577)"/>
        </g>
        <g latexdraw:type="rectangle" id="id458369945">
            <rect x="260.05" y="120.05" width="99.9" height="19.9"
                latexdraw:borderPos="outer" stroke-width="0.1"
                stroke="black" fill="url(#pattern458369945)"/>
        </g>
        <g latexdraw:type="rectangle" id="id77415979">
            <rect x="80.5" y="220.5" width="299.0" height="99.0"
                latexdraw:borderPos="outer" stroke-width="1.0"
                stroke="black" fill="none"/>
        </g>
        <g latexdraw:type="joinedLines" id="id1562299335">
            <polyline points="80.0,240.0 380.0,240.0 "
                stroke-width="0.6" stroke="black" latexdraw:rotationAngle="0.0"/>
        </g>
        <g latexdraw:type="joinedLines" id="id565623961">
            <polyline points="380.0,280.0 80.0,280.0 "
                stroke-width="0.6" stroke="black" latexdraw:rotationAngle="0.0"/>
        </g>
        <g latexdraw:type="joinedLines" id="id212056944">
            <polyline points="380.0,300.0 80.0,300.0 "
                stroke-width="0.6" stroke="black" latexdraw:rotationAngle="0.0"/>
        </g>
        <g latexdraw:type="rectangle" id="id2009389500">
            <rect x="320.05" y="300.05" width="59.9" height="19.9"
                latexdraw:borderPos="outer" stroke-width="0.1"
                stroke="black" fill="url(#pattern2009389500)"/>
        </g>
        <g latexdraw:type="rectangle" id="id23584599">
            <rect x="80.05" y="300.05" width="39.9" height="19.9"
                latexdraw:borderPos="outer" stroke-width="0.1"
                stroke="black" fill="url(#pattern23584599)"/>
        </g>
        <g latexdraw:type="rectangle" id="id617644437">
            <rect x="80.05" y="220.05000000000004" width="99.9"
                height="19.9" latexdraw:borderPos="outer"
                stroke-width="0.1" stroke="black" fill="url(#pattern617644437)"/>
        </g>
        <g latexdraw:type="rectangle" id="id2137554765">
            <rect x="180.05" y="220.05000000000004" width="99.9"
                height="19.9" latexdraw:borderPos="outer"
                stroke-width="0.1" stroke="black" fill="url(#pattern2137554765)"/>
        </g>
        <g latexdraw:type="rectangle" id="id1867599471">
            <rect x="200.05" y="260.05" width="99.9" height="19.9"
                latexdraw:borderPos="outer" stroke-width="0.1"
                stroke="black" fill="url(#pattern1867599471)"/>
        </g>
        <g latexdraw:type="rectangle" id="id1196082666">
            <rect x="300.05" y="260.05" width="79.9" height="19.9"
                latexdraw:borderPos="outer" stroke-width="0.1"
                stroke="black" fill="url(#pattern1196082666)"/>
        </g>
        <g latexdraw:type="rectangle" id="id1305412">
            <rect x="80.05" y="260.05" width="19.9" height="19.9"
                latexdraw:borderPos="outer" stroke-width="0.1"
                stroke="black" fill="url(#pattern1305412)"/>
        </g>
        <g latexdraw:type="rectangle" id="id1210328432">
            <rect x="180.05" y="60.04999999999998" width="39.9"
                height="19.9" latexdraw:borderPos="outer"
                stroke-width="0.1" stroke="black" fill="#ff3333"/>
        </g>
        <g latexdraw:type="rectangle" id="id360299858">
            <rect x="240.05" y="80.04999999999998" width="39.9"
                height="19.9" latexdraw:borderPos="outer"
                stroke-width="0.1" stroke="black" fill="#ff3333"/>
        </g>
        <g latexdraw:type="rectangle" id="id593583035">
            <rect x="300.05" y="100.04999999999998" width="39.9"
                height="19.9" latexdraw:borderPos="outer"
                stroke-width="0.1" stroke="black" fill="#ff3333"/>
        </g>
        <g latexdraw:type="rectangle" id="id142790359">
            <rect x="360.05" y="120.05" width="19.9" height="19.9"
                latexdraw:borderPos="outer" stroke-width="0.1"
                stroke="black" fill="#ff3333"/>
        </g>
        <g latexdraw:type="rectangle" id="id1411658223">
            <rect x="80.05" y="120.05" width="19.9" height="19.9"
                latexdraw:borderPos="outer" stroke-width="0.1"
                stroke="black" fill="#ff3333"/>
        </g>
        <g latexdraw:type="rectangle" id="id1372184189">
            <rect x="120.05" y="140.05000000000004" width="39.9"
                height="19.9" latexdraw:borderPos="outer"
                stroke-width="0.1" stroke="black" fill="#ff3333"/>
        </g>
        <g latexdraw:type="rectangle" id="id1373114762">
            <rect x="280.05" y="220.05000000000004" width="39.9"
                height="19.9" latexdraw:borderPos="outer"
                stroke-width="0.1" stroke="black" fill="#ff3333"/>
        </g>
        <g latexdraw:type="rectangle" id="id463636679">
            <rect x="100.05" y="260.05" width="39.9" height="19.9"
                latexdraw:borderPos="outer" stroke-width="0.1"
                stroke="black" fill="#ff3333"/>
        </g>
        <g latexdraw:type="rectangle" id="id424620882">
            <rect x="120.05" y="300.05" width="39.9" height="19.9"
                latexdraw:borderPos="outer" stroke-width="0.1"
                stroke="black" fill="#ff3333"/>
        </g>
        <g latexdraw:type="rectangle" id="id775660494">
            <rect x="160.05" y="20.05" width="39.9" height="19.9"
                latexdraw:borderPos="outer" stroke-width="0.1"
                stroke="black" fill="#ff3333"/>
        </g>
        <g latexdraw:type="text" id="id831240809" fill="black" latexdraw:position="bl">
            <text x="200.0" y="40.0"> Ring Size</text>
        </g>
    </g>
    <defs>
        <marker overflow="visible" orient="auto" id="arrow0-1073403359">
            <path
                d="M 0.0 0.0 L 5.445833333333333 1.9449404761904758 L 5.445833333333333 0.0 L 5.445833333333333 -1.9449404761904758 z "
                latexdraw:arrSizeNum="2.0" fill="black"/>
        </marker>
        <pattern latexdraw:type="crosshatch*"
            latexdraw:rotationAngle="0.0"
            latexdraw:size="7.055555555555555"
            patternUnits="userSpaceOnUse" id="pattern1134479238" x="0"
            y="0" width="380" height="160">
            <rect width="380" height="160" fill="#cccccc" stroke="none"/>
            <g stroke="#999999" stroke-width="0.6" stroke-dasharray="none">
                <path d="M 320.0 140.00000000000003 L 320.0 160.00000000000003 M 327.65555555555557 140.00000000000003 L 327.65555555555557 160.00000000000003 M 335.31111111111113 140.00000000000003 L 335.31111111111113 160.00000000000003 M 342.9666666666667 140.00000000000003 L 342.9666666666667 160.00000000000003 M 350.62222222222226 140.00000000000003 L 350.62222222222226 160.00000000000003 M 358.2777777777778 140.00000000000003 L 358.2777777777778 160.00000000000003 M 365.9333333333334 140.00000000000003 L 365.9333333333334 160.00000000000003 M 373.58888888888896 140.00000000000003 L 373.58888888888896 160.00000000000003 M 320.0 140.00000000000003 L 380.0 140.00000000000003 M 320.0 147.6555555555556 L 380.0 147.6555555555556 M 320.0 155.31111111111116 L 380.0 155.31111111111116 "/>
            </g>
        </pattern>
        <pattern latexdraw:type="crosshatch*"
            latexdraw:rotationAngle="0.0"
            latexdraw:size="7.055555555555555"
            patternUnits="userSpaceOnUse" id="pattern65654605" x="0"
            y="0" width="120" height="160">
            <rect width="120" height="160" fill="#cccccc" stroke="none"/>
            <g stroke="#999999" stroke-width="0.6" stroke-dasharray="none">
                <path d="M 80.0 140.00000000000003 L 80.0 160.00000000000003 M 87.65555555555555 140.00000000000003 L 87.65555555555555 160.00000000000003 M 95.3111111111111 140.00000000000003 L 95.3111111111111 160.00000000000003 M 102.96666666666665 140.00000000000003 L 102.96666666666665 160.00000000000003 M 110.6222222222222 140.00000000000003 L 110.6222222222222 160.00000000000003 M 118.27777777777776 140.00000000000003 L 118.27777777777776 160.00000000000003 M 80.0 140.00000000000003 L 120.0 140.00000000000003 M 80.0 147.6555555555556 L 120.0 147.6555555555556 M 80.0 155.31111111111116 L 120.0 155.31111111111116 "/>
            </g>
        </pattern>
        <pattern latexdraw:type="crosshatch*"
            latexdraw:rotationAngle="0.0"
            latexdraw:size="7.055555555555555"
            patternUnits="userSpaceOnUse" id="pattern717544279" x="0"
            y="0" width="180" height="79">
            <rect width="180" height="79" fill="#cccccc" stroke="none"/>
            <g stroke="#999999" stroke-width="0.6" stroke-dasharray="none">
                <path d="M 80.0 59.999999999999986 L 80.0 79.99999999999999 M 87.65555555555555 59.999999999999986 L 87.65555555555555 79.99999999999999 M 95.3111111111111 59.999999999999986 L 95.3111111111111 79.99999999999999 M 102.96666666666665 59.999999999999986 L 102.96666666666665 79.99999999999999 M 110.6222222222222 59.999999999999986 L 110.6222222222222 79.99999999999999 M 118.27777777777776 59.999999999999986 L 118.27777777777776 79.99999999999999 M 125.93333333333331 59.999999999999986 L 125.93333333333331 79.99999999999999 M 133.58888888888887 59.999999999999986 L 133.58888888888887 79.99999999999999 M 141.24444444444444 59.999999999999986 L 141.24444444444444 79.99999999999999 M 148.9 59.999999999999986 L 148.9 79.99999999999999 M 156.55555555555557 59.999999999999986 L 156.55555555555557 79.99999999999999 M 164.21111111111114 59.999999999999986 L 164.21111111111114 79.99999999999999 M 171.8666666666667 59.999999999999986 L 171.8666666666667 79.99999999999999 M 179.52222222222227 59.999999999999986 L 179.52222222222227 79.99999999999999 M 80.0 59.999999999999986 L 180.0 59.999999999999986 M 80.0 67.65555555555554 L 180.0 67.65555555555554 M 80.0 75.31111111111109 L 180.0 75.31111111111109 "/>
            </g>
        </pattern>
        <pattern latexdraw:type="crosshatch*"
            latexdraw:rotationAngle="0.0"
            latexdraw:size="7.055555555555555"
            patternUnits="userSpaceOnUse" id="pattern685665971" x="0"
            y="0" width="240" height="99">
            <rect width="240" height="99" fill="#cccccc" stroke="none"/>
            <g stroke="#999999" stroke-width="0.6" stroke-dasharray="none">
                <path d="M 140.0 79.99999999999999 L 140.0 99.99999999999999 M 147.65555555555557 79.99999999999999 L 147.65555555555557 99.99999999999999 M 155.31111111111113 79.99999999999999 L 155.31111111111113 99.99999999999999 M 162.9666666666667 79.99999999999999 L 162.9666666666667 99.99999999999999 M 170.62222222222226 79.99999999999999 L 170.62222222222226 99.99999999999999 M 178.27777777777783 79.99999999999999 L 178.27777777777783 99.99999999999999 M 185.9333333333334 79.99999999999999 L 185.9333333333334 99.99999999999999 M 193.58888888888896 79.99999999999999 L 193.58888888888896 99.99999999999999 M 201.24444444444453 79.99999999999999 L 201.24444444444453 99.99999999999999 M 208.9000000000001 79.99999999999999 L 208.9000000000001 99.99999999999999 M 216.55555555555566 79.99999999999999 L 216.55555555555566 99.99999999999999 M 224.21111111111122 79.99999999999999 L 224.21111111111122 99.99999999999999 M 231.8666666666668 79.99999999999999 L 231.8666666666668 99.99999999999999 M 239.52222222222235 79.99999999999999 L 239.52222222222235 99.99999999999999 M 140.0 79.99999999999999 L 240.0 79.99999999999999 M 140.0 87.65555555555554 L 240.0 87.65555555555554 M 140.0 95.31111111111109 L 240.0 95.31111111111109 "/>
            </g>
        </pattern>
        <pattern latexdraw:type="crosshatch*"
            latexdraw:rotationAngle="0.0"
            latexdraw:size="7.055555555555555"
            patternUnits="userSpaceOnUse" id="pattern670192577" x="0"
            y="0" width="300" height="119">
            <rect width="300" height="119" fill="#cccccc" stroke="none"/>
            <g stroke="#999999" stroke-width="0.6" stroke-dasharray="none">
                <path d="M 200.0 99.99999999999999 L 200.0 119.99999999999999 M 207.65555555555557 99.99999999999999 L 207.65555555555557 119.99999999999999 M 215.31111111111113 99.99999999999999 L 215.31111111111113 119.99999999999999 M 222.9666666666667 99.99999999999999 L 222.9666666666667 119.99999999999999 M 230.62222222222226 99.99999999999999 L 230.62222222222226 119.99999999999999 M 238.27777777777783 99.99999999999999 L 238.27777777777783 119.99999999999999 M 245.9333333333334 99.99999999999999 L 245.9333333333334 119.99999999999999 M 253.58888888888896 99.99999999999999 L 253.58888888888896 119.99999999999999 M 261.2444444444445 99.99999999999999 L 261.2444444444445 119.99999999999999 M 268.9000000000001 99.99999999999999 L 268.9000000000001 119.99999999999999 M 276.55555555555566 99.99999999999999 L 276.55555555555566 119.99999999999999 M 284.2111111111112 99.99999999999999 L 284.2111111111112 119.99999999999999 M 291.8666666666668 99.99999999999999 L 291.8666666666668 119.99999999999999 M 299.52222222222235 99.99999999999999 L 299.52222222222235 119.99999999999999 M 200.0 99.99999999999999 L 300.0 99.99999999999999 M 200.0 107.65555555555554 L 300.0 107.65555555555554 M 200.0 115.31111111111109 L 300.0 115.31111111111109 "/>
            </g>
        </pattern>
        <pattern latexdraw:type="crosshatch*"
            latexdraw:rotationAngle="0.0"
            latexdraw:size="7.055555555555555"
            patternUnits="userSpaceOnUse" id="pattern458369945" x="0"
            y="0" width="360" height="140">
            <rect width="360" height="140" fill="#cccccc" stroke="none"/>
            <g stroke="#999999" stroke-width="0.6" stroke-dasharray="none">
                <path d="M 260.0 120.0 L 260.0 140.0 M 267.65555555555557 120.0 L 267.65555555555557 140.0 M 275.31111111111113 120.0 L 275.31111111111113 140.0 M 282.9666666666667 120.0 L 282.9666666666667 140.0 M 290.62222222222226 120.0 L 290.62222222222226 140.0 M 298.2777777777778 120.0 L 298.2777777777778 140.0 M 305.9333333333334 120.0 L 305.9333333333334 140.0 M 313.58888888888896 120.0 L 313.58888888888896 140.0 M 321.2444444444445 120.0 L 321.2444444444445 140.0 M 328.9000000000001 120.0 L 328.9000000000001 140.0 M 336.55555555555566 120.0 L 336.55555555555566 140.0 M 344.2111111111112 120.0 L 344.2111111111112 140.0 M 351.8666666666668 120.0 L 351.8666666666668 140.0 M 359.52222222222235 120.0 L 359.52222222222235 140.0 M 260.0 120.0 L 360.0 120.0 M 260.0 127.65555555555555 L 360.0 127.65555555555555 M 260.0 135.3111111111111 L 360.0 135.3111111111111 "/>
            </g>
        </pattern>
        <pattern latexdraw:type="crosshatch*"
            latexdraw:rotationAngle="0.0"
            latexdraw:size="7.055555555555555"
            patternUnits="userSpaceOnUse" id="pattern2009389500" x="0"
            y="0" width="380" height="320">
            <rect width="380" height="320" fill="#cccccc" stroke="none"/>
            <g stroke="#999999" stroke-width="0.6" stroke-dasharray="none">
                <path d="M 320.0 300.0 L 320.0 320.0 M 327.65555555555557 300.0 L 327.65555555555557 320.0 M 335.31111111111113 300.0 L 335.31111111111113 320.0 M 342.9666666666667 300.0 L 342.9666666666667 320.0 M 350.62222222222226 300.0 L 350.62222222222226 320.0 M 358.2777777777778 300.0 L 358.2777777777778 320.0 M 365.9333333333334 300.0 L 365.9333333333334 320.0 M 373.58888888888896 300.0 L 373.58888888888896 320.0 M 320.0 300.0 L 380.0 300.0 M 320.0 307.65555555555557 L 380.0 307.65555555555557 M 320.0 315.31111111111113 L 380.0 315.31111111111113 "/>
            </g>
        </pattern>
        <pattern latexdraw:type="crosshatch*"
            latexdraw:rotationAngle="0.0"
            latexdraw:size="7.055555555555555"
            patternUnits="userSpaceOnUse" id="pattern23584599" x="0"
            y="0" width="120" height="320">
            <rect width="120" height="320" fill="#cccccc" stroke="none"/>
            <g stroke="#999999" stroke-width="0.6" stroke-dasharray="none">
                <path d="M 80.0 300.0 L 80.0 320.0 M 87.65555555555555 300.0 L 87.65555555555555 320.0 M 95.3111111111111 300.0 L 95.3111111111111 320.0 M 102.96666666666665 300.0 L 102.96666666666665 320.0 M 110.6222222222222 300.0 L 110.6222222222222 320.0 M 118.27777777777776 300.0 L 118.27777777777776 320.0 M 80.0 300.0 L 120.0 300.0 M 80.0 307.65555555555557 L 120.0 307.65555555555557 M 80.0 315.31111111111113 L 120.0 315.31111111111113 "/>
            </g>
        </pattern>
        <pattern latexdraw:type="crosshatch*"
            latexdraw:rotationAngle="0.0"
            latexdraw:size="7.055555555555555"
            patternUnits="userSpaceOnUse" id="pattern617644437" x="0"
            y="0" width="180" height="240">
            <rect width="180" height="240" fill="#cccccc" stroke="none"/>
            <g stroke="#999999" stroke-width="0.6" stroke-dasharray="none">
                <path d="M 80.0 220.00000000000003 L 80.0 240.00000000000003 M 87.65555555555555 220.00000000000003 L 87.65555555555555 240.00000000000003 M 95.3111111111111 220.00000000000003 L 95.3111111111111 240.00000000000003 M 102.96666666666665 220.00000000000003 L 102.96666666666665 240.00000000000003 M 110.6222222222222 220.00000000000003 L 110.6222222222222 240.00000000000003 M 118.27777777777776 220.00000000000003 L 118.27777777777776 240.00000000000003 M 125.93333333333331 220.00000000000003 L 125.93333333333331 240.00000000000003 M 133.58888888888887 220.00000000000003 L 133.58888888888887 240.00000000000003 M 141.24444444444444 220.00000000000003 L 141.24444444444444 240.00000000000003 M 148.9 220.00000000000003 L 148.9 240.00000000000003 M 156.55555555555557 220.00000000000003 L 156.55555555555557 240.00000000000003 M 164.21111111111114 220.00000000000003 L 164.21111111111114 240.00000000000003 M 171.8666666666667 220.00000000000003 L 171.8666666666667 240.00000000000003 M 179.52222222222227 220.00000000000003 L 179.52222222222227 240.00000000000003 M 80.0 220.00000000000003 L 180.0 220.00000000000003 M 80.0 227.6555555555556 L 180.0 227.6555555555556 M 80.0 235.31111111111116 L 180.0 235.31111111111116 "/>
            </g>
        </pattern>
        <pattern latexdraw:type="crosshatch*"
            latexdraw:rotationAngle="0.0"
            latexdraw:size="7.055555555555555"
            patternUnits="userSpaceOnUse" id="pattern2137554765" x="0"
            y="0" width="280" height="240">
            <rect width="280" height="240" fill="#cccccc" stroke="none"/>
            <g stroke="#999999" stroke-width="0.6" stroke-dasharray="none">
                <path d="M 180.0 220.00000000000003 L 180.0 240.00000000000003 M 187.65555555555557 220.00000000000003 L 187.65555555555557 240.00000000000003 M 195.31111111111113 220.00000000000003 L 195.31111111111113 240.00000000000003 M 202.9666666666667 220.00000000000003 L 202.9666666666667 240.00000000000003 M 210.62222222222226 220.00000000000003 L 210.62222222222226 240.00000000000003 M 218.27777777777783 220.00000000000003 L 218.27777777777783 240.00000000000003 M 225.9333333333334 220.00000000000003 L 225.9333333333334 240.00000000000003 M 233.58888888888896 220.00000000000003 L 233.58888888888896 240.00000000000003 M 241.24444444444453 220.00000000000003 L 241.24444444444453 240.00000000000003 M 248.9000000000001 220.00000000000003 L 248.9000000000001 240.00000000000003 M 256.55555555555566 220.00000000000003 L 256.55555555555566 240.00000000000003 M 264.2111111111112 220.00000000000003 L 264.2111111111112 240.00000000000003 M 271.8666666666668 220.00000000000003 L 271.8666666666668 240.00000000000003 M 279.52222222222235 220.00000000000003 L 279.52222222222235 240.00000000000003 M 180.0 220.00000000000003 L 280.0 220.00000000000003 M 180.0 227.6555555555556 L 280.0 227.6555555555556 M 180.0 235.31111111111116 L 280.0 235.31111111111116 "/>
            </g>
        </pattern>
        <pattern latexdraw:type="crosshatch*"
            latexdraw:rotationAngle="0.0"
            latexdraw:size="7.055555555555555"
            patternUnits="userSpaceOnUse" id="pattern1867599471" x="0"
            y="0" width="300" height="280">
            <rect width="300" height="280" fill="#cccccc" stroke="none"/>
            <g stroke="#999999" stroke-width="0.6" stroke-dasharray="none">
                <path d="M 200.0 260.0 L 200.0 280.0 M 207.65555555555557 260.0 L 207.65555555555557 280.0 M 215.31111111111113 260.0 L 215.31111111111113 280.0 M 222.9666666666667 260.0 L 222.9666666666667 280.0 M 230.62222222222226 260.0 L 230.62222222222226 280.0 M 238.27777777777783 260.0 L 238.27777777777783 280.0 M 245.9333333333334 260.0 L 245.9333333333334 280.0 M 253.58888888888896 260.0 L 253.58888888888896 280.0 M 261.2444444444445 260.0 L 261.2444444444445 280.0 M 268.9000000000001 260.0 L 268.9000000000001 280.0 M 276.55555555555566 260.0 L 276.55555555555566 280.0 M 284.2111111111112 260.0 L 284.2111111111112 280.0 M 291.8666666666668 260.0 L 291.8666666666668 280.0 M 299.52222222222235 260.0 L 299.52222222222235 280.0 M 200.0 260.0 L 300.0 260.0 M 200.0 267.65555555555557 L 300.0 267.65555555555557 M 200.0 275.31111111111113 L 300.0 275.31111111111113 "/>
            </g>
        </pattern>
        <pattern latexdraw:type="crosshatch*"
            latexdraw:rotationAngle="0.0"
            latexdraw:size="7.055555555555555"
            patternUnits="userSpaceOnUse" id="pattern1196082666" x="0"
            y="0" width="380" height="280">
            <rect width="380" height="280" fill="#cccccc" stroke="none"/>
            <g stroke="#999999" stroke-width="0.6" stroke-dasharray="none">
                <path d="M 300.0 260.0 L 300.0 280.0 M 307.65555555555557 260.0 L 307.65555555555557 280.0 M 315.31111111111113 260.0 L 315.31111111111113 280.0 M 322.9666666666667 260.0 L 322.9666666666667 280.0 M 330.62222222222226 260.0 L 330.62222222222226 280.0 M 338.2777777777778 260.0 L 338.2777777777778 280.0 M 345.9333333333334 260.0 L 345.9333333333334 280.0 M 353.58888888888896 260.0 L 353.58888888888896 280.0 M 361.2444444444445 260.0 L 361.2444444444445 280.0 M 368.9000000000001 260.0 L 368.9000000000001 280.0 M 376.55555555555566 260.0 L 376.55555555555566 280.0 M 300.0 260.0 L 380.0 260.0 M 300.0 267.65555555555557 L 380.0 267.65555555555557 M 300.0 275.31111111111113 L 380.0 275.31111111111113 "/>
            </g>
        </pattern>
        <pattern latexdraw:type="crosshatch*"
            latexdraw:rotationAngle="0.0"
            latexdraw:size="7.055555555555555"
            patternUnits="userSpaceOnUse" id="pattern1305412" x="0"
            y="0" width="100" height="280">
            <rect width="100" height="280" fill="#cccccc" stroke="none"/>
            <g stroke="#999999" stroke-width="0.6" stroke-dasharray="none">
                <path d="M 80.0 260.0 L 80.0 280.0 M 87.65555555555555 260.0 L 87.65555555555555 280.0 M 95.3111111111111 260.0 L 95.3111111111111 280.0 M 80.0 260.0 L 100.0 260.0 M 80.0 267.65555555555557 L 100.0 267.65555555555557 M 80.0 275.31111111111113 L 100.0 275.31111111111113 "/>
            </g>
        </pattern>
    </defs>
    <metadata>
        <latexdraw:metadata>
            <latexdraw:latexIncludes/>
            <latexdraw:displayXScale>true</latexdraw:displayXScale>
            <latexdraw:displayYScale>true</latexdraw:displayYScale>
            <latexdraw:unit>CM</latexdraw:unit>
            <latexdraw:zoom>1.0</latexdraw:zoom>
            <latexdraw:magneticGridStyle>CUSTOMISED</latexdraw:magneticGridStyle>
            <latexdraw:gridGap>20</latexdraw:gridGap>
            <latexdraw:magneticGrid>true</latexdraw:magneticGrid>
            <latexdraw:version>3.3.7</latexdraw:version>
            <latexdraw:size>
                <latexdraw:width>1920</latexdraw:width>
                <latexdraw:height>984</latexdraw:height>
            </latexdraw:size>
            <latexdraw:position>
                <latexdraw:x>0.0</latexdraw:x>
                <latexdraw:y>23.0</latexdraw:y>
            </latexdraw:position>
        </latexdraw:metadata>
    </metadata>
</svg>
