<?xml version="1.1" encoding="UTF-8"?>
<svg xmlns="http://www.w3.org/2000/svg"
    xmlns:latexdraw="http://latexdraw.sourceforge.net/namespaces/latexdraw"
    version="1.1" baseProfile="full">
    <g>
        <g latexdraw:type="rectangle" id="id1481525444">
            <rect x="200.5" y="59.666666666666515" width="299.0"
                height="99.0" latexdraw:borderPos="outer"
                stroke-width="1.0" stroke="black" fill="none"/>
        </g>
        <g latexdraw:type="joinedLines" id="id137137017">
            <polyline
                points="200.0,79.16666666666652 500.0,79.16666666666652 "
                stroke-width="0.6" stroke="black" latexdraw:rotationAngle="0.0"/>
        </g>
        <g latexdraw:type="joinedLines" id="id425529805">
            <polyline
                points="500.0,119.16666666666652 200.0,119.16666666666652 "
                stroke-width="0.6" stroke="black" latexdraw:rotationAngle="0.0"/>
        </g>
        <g latexdraw:type="joinedLines" id="id957462181">
            <polyline
                points="500.0,139.16666666666652 200.0,139.16666666666652 "
                stroke-width="0.6" stroke="black" latexdraw:rotationAngle="0.0"/>
        </g>
        <g latexdraw:type="joinedLines" id="id1807973436">
            <polyline
                points="340.0,199.16666666666652 340.0,179.16666666666652 "
                stroke-width="1.4000000000000001" stroke="black"
                latexdraw:rotationAngle="0.0" marker-start="url(#arrow0-1807973436)"/>
        </g>
        <g latexdraw:type="rectangle" id="id1577871346">
            <rect x="200.05" y="59.2166666666665" width="99.9"
                height="19.9" latexdraw:borderPos="outer"
                stroke-width="0.1" stroke="black" fill="url(#pattern1577871346)"/>
        </g>
        <g latexdraw:type="rectangle" id="id1401891111">
            <rect x="200.05" y="79.2166666666665" width="99.9"
                height="19.9" latexdraw:borderPos="outer"
                stroke-width="0.1" stroke="black" fill="url(#pattern1401891111)"/>
        </g>
        <g latexdraw:type="rectangle" id="id372145748">
            <rect x="200.05" y="99.2166666666665" width="99.9"
                height="19.9" latexdraw:borderPos="outer"
                stroke-width="0.1" stroke="black" fill="url(#pattern372145748)"/>
        </g>
        <g latexdraw:type="rectangle" id="id1942946188">
            <rect x="200.5" y="219.66666666666652" width="299.0"
                height="99.0" latexdraw:borderPos="outer"
                stroke-width="1.0" stroke="black" fill="none"/>
        </g>
        <g latexdraw:type="joinedLines" id="id939608170">
            <polyline
                points="200.0,239.16666666666652 500.0,239.16666666666652 "
                stroke-width="0.6" stroke="black" latexdraw:rotationAngle="0.0"/>
        </g>
        <g latexdraw:type="joinedLines" id="id1950417093">
            <polyline
                points="500.0,279.1666666666665 200.0,279.1666666666665 "
                stroke-width="0.6" stroke="black" latexdraw:rotationAngle="0.0"/>
        </g>
        <g latexdraw:type="joinedLines" id="id1503429356">
            <polyline
                points="500.0,299.1666666666665 200.0,299.1666666666665 "
                stroke-width="0.6" stroke="black" latexdraw:rotationAngle="0.0"/>
        </g>
        <g latexdraw:type="rectangle" id="id401795575">
            <rect x="200.05" y="219.21666666666667" width="99.9"
                height="19.9" latexdraw:borderPos="outer"
                stroke-width="0.1" stroke="black" fill="url(#pattern401795575)"/>
        </g>
        <g latexdraw:type="rectangle" id="id655003630">
            <rect x="300.05" y="219.21666666666667" width="99.9"
                height="19.9" latexdraw:borderPos="outer"
                stroke-width="0.1" stroke="black" fill="url(#pattern655003630)"/>
        </g>
        <g latexdraw:type="rectangle" id="id190174">
            <rect x="300.05" y="59.2166666666665" width="39.9"
                height="19.9" latexdraw:borderPos="outer"
                stroke-width="0.1" stroke="black" fill="#ff3333"/>
        </g>
        <g latexdraw:type="rectangle" id="id250101528">
            <rect x="300.05" y="79.2166666666665" width="39.9"
                height="19.9" latexdraw:borderPos="outer"
                stroke-width="0.1" stroke="black" fill="#ff3333"/>
        </g>
        <g latexdraw:type="rectangle" id="id1633623135">
            <rect x="300.05" y="99.2166666666665" width="39.9"
                height="19.9" latexdraw:borderPos="outer"
                stroke-width="0.1" stroke="black" fill="#ff3333"/>
        </g>
        <g latexdraw:type="rectangle" id="id640930576">
            <rect x="400.05" y="219.21666666666667" width="39.9"
                height="19.9" latexdraw:borderPos="outer"
                stroke-width="0.1" stroke="black" fill="#ff3333"/>
        </g>
        <g latexdraw:type="text" id="id376715770" fill="black" latexdraw:position="bl">
            <text x="289.1666666666665" y="49.166666666666515"> Ring Size</text>
        </g>
        <g latexdraw:type="rectangle" id="id1282033242">
            <rect x="200.05" y="139.21666666666664" width="99.9"
                height="19.9" latexdraw:borderPos="outer"
                stroke-width="0.1" stroke="black" fill="url(#pattern1282033242)"/>
        </g>
        <g latexdraw:type="rectangle" id="id617002792">
            <rect x="200.05" y="119.21666666666651" width="99.9"
                height="19.9" latexdraw:borderPos="outer"
                stroke-width="0.1" stroke="black" fill="url(#pattern617002792)"/>
        </g>
        <g latexdraw:type="rectangle" id="id1018097782">
            <rect x="300.05" y="119.2166666666665" width="39.9"
                height="19.900000000000013" latexdraw:borderPos="outer"
                stroke-width="0.1" stroke="black" fill="#ff3333"/>
        </g>
        <g latexdraw:type="rectangle" id="id1711526968">
            <rect x="300.05" y="139.21666666666664" width="39.9"
                height="19.9" latexdraw:borderPos="outer"
                stroke-width="0.1" stroke="black" fill="#ff3333"/>
        </g>
        <g latexdraw:type="rectangle" id="id1312393344">
            <rect x="200.05" y="259.2166666666665" width="99.9"
                height="19.9" latexdraw:borderPos="outer"
                stroke-width="0.1" stroke="black" fill="url(#pattern1312393344)"/>
        </g>
        <g latexdraw:type="rectangle" id="id730022536">
            <rect x="300.05" y="259.2166666666665" width="99.9"
                height="19.9" latexdraw:borderPos="outer"
                stroke-width="0.1" stroke="black" fill="url(#pattern730022536)"/>
        </g>
        <g latexdraw:type="rectangle" id="id1408357057">
            <rect x="400.05" y="259.2166666666665" width="39.9"
                height="19.9" latexdraw:borderPos="outer"
                stroke-width="0.1" stroke="black" fill="#ff3333"/>
        </g>
        <g latexdraw:type="rectangle" id="id2128936340">
            <rect x="200.05" y="299.2166666666665" width="99.9"
                height="19.9" latexdraw:borderPos="outer"
                stroke-width="0.1" stroke="black" fill="url(#pattern2128936340)"/>
        </g>
        <g latexdraw:type="rectangle" id="id60770306">
            <rect x="300.05" y="299.2166666666665" width="39.9"
                height="19.9" latexdraw:borderPos="outer"
                stroke-width="0.1" stroke="black" fill="#ff3333"/>
        </g>
        <g latexdraw:type="joinedLines" id="id106892030">
            <polyline
                points="500.0,99.16666666666652 200.0,99.16666666666652 "
                stroke-width="0.6" stroke="black" latexdraw:rotationAngle="0.0"/>
        </g>
        <g latexdraw:type="joinedLines" id="id240862939">
            <polyline
                points="500.0,259.1666666666665 200.0,259.1666666666665 "
                stroke-width="0.6" stroke="black" latexdraw:rotationAngle="0.0"/>
        </g>
        <g latexdraw:type="joinedLines" id="id1571323213">
            <polyline
                points="195.0,71.6666666666665 162.5,106.6666666666665 "
                stroke-width="1.0" stroke="black"
                latexdraw:rotationAngle="0.0" marker-start="url(#arrow0-1571323213)"/>
        </g>
        <g latexdraw:type="joinedLines" id="id277783802">
            <polyline
                points="198.33333333333331,90.83333333333317 164.16666666666666,109.1666666666665 "
                stroke-width="1.0" stroke="black"
                latexdraw:rotationAngle="0.0" marker-start="url(#arrow0-277783802)"/>
        </g>
        <g latexdraw:type="joinedLines" id="id1493366129">
            <polyline
                points="196.66666666666666,114.1666666666665 166.66666666666666,114.99999999999983 "
                stroke-width="1.0" stroke="black"
                latexdraw:rotationAngle="0.0" marker-start="url(#arrow0-1493366129)"/>
        </g>
        <g latexdraw:type="joinedLines" id="id1124003463">
            <polyline
                points="195.0,132.49999999999983 168.33333333333331,120.83333333333316 "
                stroke-width="1.0" stroke="black"
                latexdraw:rotationAngle="0.0" marker-start="url(#arrow0-1124003463)"/>
        </g>
        <g latexdraw:type="joinedLines" id="id1050910244">
            <polyline
                points="192.5,149.99999999999983 164.16666666666666,121.6666666666665 "
                stroke-width="1.0" stroke="black"
                latexdraw:rotationAngle="0.0" marker-start="url(#arrow0-1050910244)"/>
        </g>
        <g latexdraw:type="text" id="id1871749202" fill="black" latexdraw:position="bl">
            <text x="93.33333333333363" y="116.66666666666664">Positions</text>
        </g>
        <g latexdraw:type="text" id="id57458957" fill="black" latexdraw:position="bl">
            <text x="155.83333333333317" y="273.33333333333314">Slot</text>
        </g>
        <g latexdraw:type="joinedLines" id="id41603300">
            <polyline
                points="193.33333333333331,319.99999999999994 193.33333333333331,220.83333333333348 "
                stroke-width="1.0999999999999999" stroke="black"
                latexdraw:rotationAngle="0.0"
                marker-start="url(#arrow0-41603300)" marker-end="url(#arrow1-41603300)"/>
        </g>
        <g latexdraw:type="text" id="id105084218" fill="black" latexdraw:position="bl">
            <text x="232.49999999999966" y="48.33333333333333">$ET$</text>
        </g>
        <g latexdraw:type="joinedLines" id="id1213808324">
            <polyline
                points="199.99999999999997,54.99999999999999 298.3333333333333,54.99999999999999 "
                stroke-width="1.0" stroke="black"
                latexdraw:rotationAngle="0.0"
                marker-start="url(#arrow0-1213808324)" marker-end="url(#arrow1-1213808324)"/>
        </g>
        <g latexdraw:type="joinedLines" id="id1000587939">
            <polyline
                points="298.3333333333333,54.99999999999999 340.83333333333326,54.16666666666666 "
                stroke-width="1.0" stroke="black"
                latexdraw:rotationAngle="0.0"
                marker-start="url(#arrow0-1000587939)" marker-end="url(#arrow1-1000587939)"/>
        </g>
    </g>
    <defs>
        <marker overflow="visible" orient="auto" id="arrow0-1807973436">
            <path
                d="M 0.0 0.0 L 5.445833333333333 1.9449404761904758 L 5.445833333333333 0.0 L 5.445833333333333 -1.9449404761904758 z "
                latexdraw:arrSizeNum="2.0" fill="black"/>
        </marker>
        <pattern latexdraw:type="crosshatch*"
            latexdraw:rotationAngle="0.0"
            latexdraw:size="7.055555555555555"
            patternUnits="userSpaceOnUse" id="pattern1577871346" x="0"
            y="0" width="300" height="79">
            <rect width="300" height="79" fill="#cccccc" stroke="none"/>
            <g stroke="#999999" stroke-width="0.6" stroke-dasharray="none">
                <path d="M 200.0 59.1666666666665 L 200.0 79.1666666666665 M 207.65555555555557 59.1666666666665 L 207.65555555555557 79.1666666666665 M 215.31111111111113 59.1666666666665 L 215.31111111111113 79.1666666666665 M 222.9666666666667 59.1666666666665 L 222.9666666666667 79.1666666666665 M 230.62222222222226 59.1666666666665 L 230.62222222222226 79.1666666666665 M 238.27777777777783 59.1666666666665 L 238.27777777777783 79.1666666666665 M 245.9333333333334 59.1666666666665 L 245.9333333333334 79.1666666666665 M 253.58888888888896 59.1666666666665 L 253.58888888888896 79.1666666666665 M 261.2444444444445 59.1666666666665 L 261.2444444444445 79.1666666666665 M 268.9000000000001 59.1666666666665 L 268.9000000000001 79.1666666666665 M 276.55555555555566 59.1666666666665 L 276.55555555555566 79.1666666666665 M 284.2111111111112 59.1666666666665 L 284.2111111111112 79.1666666666665 M 291.8666666666668 59.1666666666665 L 291.8666666666668 79.1666666666665 M 299.52222222222235 59.1666666666665 L 299.52222222222235 79.1666666666665 M 200.0 59.1666666666665 L 300.0 59.1666666666665 M 200.0 66.82222222222205 L 300.0 66.82222222222205 M 200.0 74.4777777777776 L 300.0 74.4777777777776 "/>
            </g>
        </pattern>
        <pattern latexdraw:type="crosshatch*"
            latexdraw:rotationAngle="0.0"
            latexdraw:size="7.055555555555555"
            patternUnits="userSpaceOnUse" id="pattern1401891111" x="0"
            y="0" width="300" height="99">
            <rect width="300" height="99" fill="#cccccc" stroke="none"/>
            <g stroke="#999999" stroke-width="0.6" stroke-dasharray="none">
                <path d="M 200.0 79.1666666666665 L 200.0 99.1666666666665 M 207.65555555555557 79.1666666666665 L 207.65555555555557 99.1666666666665 M 215.31111111111113 79.1666666666665 L 215.31111111111113 99.1666666666665 M 222.9666666666667 79.1666666666665 L 222.9666666666667 99.1666666666665 M 230.62222222222226 79.1666666666665 L 230.62222222222226 99.1666666666665 M 238.27777777777783 79.1666666666665 L 238.27777777777783 99.1666666666665 M 245.9333333333334 79.1666666666665 L 245.9333333333334 99.1666666666665 M 253.58888888888896 79.1666666666665 L 253.58888888888896 99.1666666666665 M 261.2444444444445 79.1666666666665 L 261.2444444444445 99.1666666666665 M 268.9000000000001 79.1666666666665 L 268.9000000000001 99.1666666666665 M 276.55555555555566 79.1666666666665 L 276.55555555555566 99.1666666666665 M 284.2111111111112 79.1666666666665 L 284.2111111111112 99.1666666666665 M 291.8666666666668 79.1666666666665 L 291.8666666666668 99.1666666666665 M 299.52222222222235 79.1666666666665 L 299.52222222222235 99.1666666666665 M 200.0 79.1666666666665 L 300.0 79.1666666666665 M 200.0 86.82222222222205 L 300.0 86.82222222222205 M 200.0 94.4777777777776 L 300.0 94.4777777777776 "/>
            </g>
        </pattern>
        <pattern latexdraw:type="crosshatch*"
            latexdraw:rotationAngle="0.0"
            latexdraw:size="7.055555555555555"
            patternUnits="userSpaceOnUse" id="pattern372145748" x="0"
            y="0" width="300" height="119">
            <rect width="300" height="119" fill="#cccccc" stroke="none"/>
            <g stroke="#999999" stroke-width="0.6" stroke-dasharray="none">
                <path d="M 200.0 99.1666666666665 L 200.0 119.1666666666665 M 207.65555555555557 99.1666666666665 L 207.65555555555557 119.1666666666665 M 215.31111111111113 99.1666666666665 L 215.31111111111113 119.1666666666665 M 222.9666666666667 99.1666666666665 L 222.9666666666667 119.1666666666665 M 230.62222222222226 99.1666666666665 L 230.62222222222226 119.1666666666665 M 238.27777777777783 99.1666666666665 L 238.27777777777783 119.1666666666665 M 245.9333333333334 99.1666666666665 L 245.9333333333334 119.1666666666665 M 253.58888888888896 99.1666666666665 L 253.58888888888896 119.1666666666665 M 261.2444444444445 99.1666666666665 L 261.2444444444445 119.1666666666665 M 268.9000000000001 99.1666666666665 L 268.9000000000001 119.1666666666665 M 276.55555555555566 99.1666666666665 L 276.55555555555566 119.1666666666665 M 284.2111111111112 99.1666666666665 L 284.2111111111112 119.1666666666665 M 291.8666666666668 99.1666666666665 L 291.8666666666668 119.1666666666665 M 299.52222222222235 99.1666666666665 L 299.52222222222235 119.1666666666665 M 200.0 99.1666666666665 L 300.0 99.1666666666665 M 200.0 106.82222222222205 L 300.0 106.82222222222205 M 200.0 114.4777777777776 L 300.0 114.4777777777776 "/>
            </g>
        </pattern>
        <pattern latexdraw:type="crosshatch*"
            latexdraw:rotationAngle="0.0"
            latexdraw:size="7.055555555555555"
            patternUnits="userSpaceOnUse" id="pattern401795575" x="0"
            y="0" width="300" height="239">
            <rect width="300" height="239" fill="#cccccc" stroke="none"/>
            <g stroke="#999999" stroke-width="0.6" stroke-dasharray="none">
                <path d="M 200.0 219.16666666666666 L 200.0 239.16666666666666 M 207.65555555555557 219.16666666666666 L 207.65555555555557 239.16666666666666 M 215.31111111111113 219.16666666666666 L 215.31111111111113 239.16666666666666 M 222.9666666666667 219.16666666666666 L 222.9666666666667 239.16666666666666 M 230.62222222222226 219.16666666666666 L 230.62222222222226 239.16666666666666 M 238.27777777777783 219.16666666666666 L 238.27777777777783 239.16666666666666 M 245.9333333333334 219.16666666666666 L 245.9333333333334 239.16666666666666 M 253.58888888888896 219.16666666666666 L 253.58888888888896 239.16666666666666 M 261.2444444444445 219.16666666666666 L 261.2444444444445 239.16666666666666 M 268.9000000000001 219.16666666666666 L 268.9000000000001 239.16666666666666 M 276.55555555555566 219.16666666666666 L 276.55555555555566 239.16666666666666 M 284.2111111111112 219.16666666666666 L 284.2111111111112 239.16666666666666 M 291.8666666666668 219.16666666666666 L 291.8666666666668 239.16666666666666 M 299.52222222222235 219.16666666666666 L 299.52222222222235 239.16666666666666 M 200.0 219.16666666666666 L 300.0 219.16666666666666 M 200.0 226.82222222222222 L 300.0 226.82222222222222 M 200.0 234.4777777777778 L 300.0 234.4777777777778 "/>
            </g>
        </pattern>
        <pattern latexdraw:type="crosshatch*"
            latexdraw:rotationAngle="0.0"
            latexdraw:size="7.055555555555555"
            patternUnits="userSpaceOnUse" id="pattern655003630" x="0"
            y="0" width="400" height="239">
            <rect width="400" height="239" fill="#cccccc" stroke="none"/>
            <g stroke="#999999" stroke-width="0.6" stroke-dasharray="none">
                <path d="M 300.0 219.16666666666666 L 300.0 239.16666666666666 M 307.65555555555557 219.16666666666666 L 307.65555555555557 239.16666666666666 M 315.31111111111113 219.16666666666666 L 315.31111111111113 239.16666666666666 M 322.9666666666667 219.16666666666666 L 322.9666666666667 239.16666666666666 M 330.62222222222226 219.16666666666666 L 330.62222222222226 239.16666666666666 M 338.2777777777778 219.16666666666666 L 338.2777777777778 239.16666666666666 M 345.9333333333334 219.16666666666666 L 345.9333333333334 239.16666666666666 M 353.58888888888896 219.16666666666666 L 353.58888888888896 239.16666666666666 M 361.2444444444445 219.16666666666666 L 361.2444444444445 239.16666666666666 M 368.9000000000001 219.16666666666666 L 368.9000000000001 239.16666666666666 M 376.55555555555566 219.16666666666666 L 376.55555555555566 239.16666666666666 M 384.2111111111112 219.16666666666666 L 384.2111111111112 239.16666666666666 M 391.8666666666668 219.16666666666666 L 391.8666666666668 239.16666666666666 M 399.52222222222235 219.16666666666666 L 399.52222222222235 239.16666666666666 M 300.0 219.16666666666666 L 400.0 219.16666666666666 M 300.0 226.82222222222222 L 400.0 226.82222222222222 M 300.0 234.4777777777778 L 400.0 234.4777777777778 "/>
            </g>
        </pattern>
        <pattern latexdraw:type="crosshatch*"
            latexdraw:rotationAngle="0.0"
            latexdraw:size="7.055555555555555"
            patternUnits="userSpaceOnUse" id="pattern1282033242" x="0"
            y="0" width="300" height="159">
            <rect width="300" height="159" fill="#cccccc" stroke="none"/>
            <g stroke="#999999" stroke-width="0.6" stroke-dasharray="none">
                <path d="M 200.0 139.16666666666663 L 200.0 159.16666666666663 M 207.65555555555557 139.16666666666663 L 207.65555555555557 159.16666666666663 M 215.31111111111113 139.16666666666663 L 215.31111111111113 159.16666666666663 M 222.9666666666667 139.16666666666663 L 222.9666666666667 159.16666666666663 M 230.62222222222226 139.16666666666663 L 230.62222222222226 159.16666666666663 M 238.27777777777783 139.16666666666663 L 238.27777777777783 159.16666666666663 M 245.9333333333334 139.16666666666663 L 245.9333333333334 159.16666666666663 M 253.58888888888896 139.16666666666663 L 253.58888888888896 159.16666666666663 M 261.2444444444445 139.16666666666663 L 261.2444444444445 159.16666666666663 M 268.9000000000001 139.16666666666663 L 268.9000000000001 159.16666666666663 M 276.55555555555566 139.16666666666663 L 276.55555555555566 159.16666666666663 M 284.2111111111112 139.16666666666663 L 284.2111111111112 159.16666666666663 M 291.8666666666668 139.16666666666663 L 291.8666666666668 159.16666666666663 M 299.52222222222235 139.16666666666663 L 299.52222222222235 159.16666666666663 M 200.0 139.16666666666663 L 300.0 139.16666666666663 M 200.0 146.8222222222222 L 300.0 146.8222222222222 M 200.0 154.47777777777776 L 300.0 154.47777777777776 "/>
            </g>
        </pattern>
        <pattern latexdraw:type="crosshatch*"
            latexdraw:rotationAngle="0.0"
            latexdraw:size="7.055555555555555"
            patternUnits="userSpaceOnUse" id="pattern617002792" x="0"
            y="0" width="300" height="139">
            <rect width="300" height="139" fill="#cccccc" stroke="none"/>
            <g stroke="#999999" stroke-width="0.6" stroke-dasharray="none">
                <path d="M 200.0 119.16666666666652 L 200.0 139.16666666666652 M 207.65555555555557 119.16666666666652 L 207.65555555555557 139.16666666666652 M 215.31111111111113 119.16666666666652 L 215.31111111111113 139.16666666666652 M 222.9666666666667 119.16666666666652 L 222.9666666666667 139.16666666666652 M 230.62222222222226 119.16666666666652 L 230.62222222222226 139.16666666666652 M 238.27777777777783 119.16666666666652 L 238.27777777777783 139.16666666666652 M 245.9333333333334 119.16666666666652 L 245.9333333333334 139.16666666666652 M 253.58888888888896 119.16666666666652 L 253.58888888888896 139.16666666666652 M 261.2444444444445 119.16666666666652 L 261.2444444444445 139.16666666666652 M 268.9000000000001 119.16666666666652 L 268.9000000000001 139.16666666666652 M 276.55555555555566 119.16666666666652 L 276.55555555555566 139.16666666666652 M 284.2111111111112 119.16666666666652 L 284.2111111111112 139.16666666666652 M 291.8666666666668 119.16666666666652 L 291.8666666666668 139.16666666666652 M 299.52222222222235 119.16666666666652 L 299.52222222222235 139.16666666666652 M 200.0 119.16666666666652 L 300.0 119.16666666666652 M 200.0 126.82222222222207 L 300.0 126.82222222222207 M 200.0 134.47777777777762 L 300.0 134.47777777777762 "/>
            </g>
        </pattern>
        <pattern latexdraw:type="crosshatch*"
            latexdraw:rotationAngle="0.0"
            latexdraw:size="7.055555555555555"
            patternUnits="userSpaceOnUse" id="pattern1312393344" x="0"
            y="0" width="300" height="279">
            <rect width="300" height="279" fill="#cccccc" stroke="none"/>
            <g stroke="#999999" stroke-width="0.6" stroke-dasharray="none">
                <path d="M 200.0 259.1666666666665 L 200.0 279.1666666666665 M 207.65555555555557 259.1666666666665 L 207.65555555555557 279.1666666666665 M 215.31111111111113 259.1666666666665 L 215.31111111111113 279.1666666666665 M 222.9666666666667 259.1666666666665 L 222.9666666666667 279.1666666666665 M 230.62222222222226 259.1666666666665 L 230.62222222222226 279.1666666666665 M 238.27777777777783 259.1666666666665 L 238.27777777777783 279.1666666666665 M 245.9333333333334 259.1666666666665 L 245.9333333333334 279.1666666666665 M 253.58888888888896 259.1666666666665 L 253.58888888888896 279.1666666666665 M 261.2444444444445 259.1666666666665 L 261.2444444444445 279.1666666666665 M 268.9000000000001 259.1666666666665 L 268.9000000000001 279.1666666666665 M 276.55555555555566 259.1666666666665 L 276.55555555555566 279.1666666666665 M 284.2111111111112 259.1666666666665 L 284.2111111111112 279.1666666666665 M 291.8666666666668 259.1666666666665 L 291.8666666666668 279.1666666666665 M 299.52222222222235 259.1666666666665 L 299.52222222222235 279.1666666666665 M 200.0 259.1666666666665 L 300.0 259.1666666666665 M 200.0 266.8222222222221 L 300.0 266.8222222222221 M 200.0 274.47777777777765 L 300.0 274.47777777777765 "/>
            </g>
        </pattern>
        <pattern latexdraw:type="crosshatch*"
            latexdraw:rotationAngle="0.0"
            latexdraw:size="7.055555555555555"
            patternUnits="userSpaceOnUse" id="pattern730022536" x="0"
            y="0" width="400" height="279">
            <rect width="400" height="279" fill="#cccccc" stroke="none"/>
            <g stroke="#999999" stroke-width="0.6" stroke-dasharray="none">
                <path d="M 300.0 259.1666666666665 L 300.0 279.1666666666665 M 307.65555555555557 259.1666666666665 L 307.65555555555557 279.1666666666665 M 315.31111111111113 259.1666666666665 L 315.31111111111113 279.1666666666665 M 322.9666666666667 259.1666666666665 L 322.9666666666667 279.1666666666665 M 330.62222222222226 259.1666666666665 L 330.62222222222226 279.1666666666665 M 338.2777777777778 259.1666666666665 L 338.2777777777778 279.1666666666665 M 345.9333333333334 259.1666666666665 L 345.9333333333334 279.1666666666665 M 353.58888888888896 259.1666666666665 L 353.58888888888896 279.1666666666665 M 361.2444444444445 259.1666666666665 L 361.2444444444445 279.1666666666665 M 368.9000000000001 259.1666666666665 L 368.9000000000001 279.1666666666665 M 376.55555555555566 259.1666666666665 L 376.55555555555566 279.1666666666665 M 384.2111111111112 259.1666666666665 L 384.2111111111112 279.1666666666665 M 391.8666666666668 259.1666666666665 L 391.8666666666668 279.1666666666665 M 399.52222222222235 259.1666666666665 L 399.52222222222235 279.1666666666665 M 300.0 259.1666666666665 L 400.0 259.1666666666665 M 300.0 266.8222222222221 L 400.0 266.8222222222221 M 300.0 274.47777777777765 L 400.0 274.47777777777765 "/>
            </g>
        </pattern>
        <pattern latexdraw:type="crosshatch*"
            latexdraw:rotationAngle="0.0"
            latexdraw:size="7.055555555555555"
            patternUnits="userSpaceOnUse" id="pattern2128936340" x="0"
            y="0" width="300" height="319">
            <rect width="300" height="319" fill="#cccccc" stroke="none"/>
            <g stroke="#999999" stroke-width="0.6" stroke-dasharray="none">
                <path d="M 200.0 299.1666666666665 L 200.0 319.1666666666665 M 207.65555555555557 299.1666666666665 L 207.65555555555557 319.1666666666665 M 215.31111111111113 299.1666666666665 L 215.31111111111113 319.1666666666665 M 222.9666666666667 299.1666666666665 L 222.9666666666667 319.1666666666665 M 230.62222222222226 299.1666666666665 L 230.62222222222226 319.1666666666665 M 238.27777777777783 299.1666666666665 L 238.27777777777783 319.1666666666665 M 245.9333333333334 299.1666666666665 L 245.9333333333334 319.1666666666665 M 253.58888888888896 299.1666666666665 L 253.58888888888896 319.1666666666665 M 261.2444444444445 299.1666666666665 L 261.2444444444445 319.1666666666665 M 268.9000000000001 299.1666666666665 L 268.9000000000001 319.1666666666665 M 276.55555555555566 299.1666666666665 L 276.55555555555566 319.1666666666665 M 284.2111111111112 299.1666666666665 L 284.2111111111112 319.1666666666665 M 291.8666666666668 299.1666666666665 L 291.8666666666668 319.1666666666665 M 299.52222222222235 299.1666666666665 L 299.52222222222235 319.1666666666665 M 200.0 299.1666666666665 L 300.0 299.1666666666665 M 200.0 306.8222222222221 L 300.0 306.8222222222221 M 200.0 314.47777777777765 L 300.0 314.47777777777765 "/>
            </g>
        </pattern>
        <marker overflow="visible" orient="auto" id="arrow0-1571323213">
            <path
                d="M 0.0 0.0 L 6.504166666666667 2.322916666666667 L 6.504166666666667 0.0 L 6.504166666666667 -2.322916666666667 z "
                latexdraw:arrSizeNum="2.0" fill="black"/>
        </marker>
        <marker overflow="visible" orient="auto" id="arrow0-277783802">
            <path
                d="M 0.0 0.0 L 6.504166666666667 2.322916666666667 L 6.504166666666667 0.0 L 6.504166666666667 -2.322916666666667 z "
                latexdraw:arrSizeNum="2.0" fill="black"/>
        </marker>
        <marker overflow="visible" orient="auto" id="arrow0-1493366129">
            <path
                d="M 0.0 0.0 L 6.504166666666667 2.322916666666667 L 6.504166666666667 0.0 L 6.504166666666667 -2.322916666666667 z "
                latexdraw:arrSizeNum="2.0" fill="black"/>
        </marker>
        <marker overflow="visible" orient="auto" id="arrow0-1124003463">
            <path
                d="M 0.0 0.0 L 6.504166666666667 2.322916666666667 L 6.504166666666667 0.0 L 6.504166666666667 -2.322916666666667 z "
                latexdraw:arrSizeNum="2.0" fill="black"/>
        </marker>
        <marker overflow="visible" orient="auto" id="arrow0-1050910244">
            <path
                d="M 0.0 0.0 L 6.504166666666667 2.322916666666667 L 6.504166666666667 0.0 L 6.504166666666667 -2.322916666666667 z "
                latexdraw:arrSizeNum="2.0" fill="black"/>
        </marker>
        <marker overflow="visible" orient="auto" id="arrow0-41603300">
            <path
                d="M 0.0 0.0 L 8.967424242424242 3.202651515151515 L 8.967424242424242 0.0 L 8.967424242424242 -3.202651515151515 z "
                latexdraw:arrSizeNum="4.0" fill="black"/>
        </marker>
        <marker overflow="visible" orient="auto" id="arrow1-41603300">
            <path
                d="M 0.0 0.0 L -8.967424242424242 3.202651515151515 L -8.967424242424242 0.0 L -8.967424242424242 -3.202651515151515 z "
                latexdraw:arrSizeNum="4.0" fill="black"/>
        </marker>
        <marker overflow="visible" orient="auto" id="arrow0-1213808324">
            <path
                d="M 0.0 0.0 L 6.504166666666667 2.322916666666667 L 6.504166666666667 0.0 L 6.504166666666667 -2.322916666666667 z "
                latexdraw:arrSizeNum="2.0" fill="black"/>
        </marker>
        <marker overflow="visible" orient="auto" id="arrow1-1213808324">
            <path
                d="M 0.0 0.0 L -6.504166666666667 2.322916666666667 L -6.504166666666667 0.0 L -6.504166666666667 -2.322916666666667 z "
                latexdraw:arrSizeNum="2.0" fill="black"/>
        </marker>
        <marker overflow="visible" orient="auto" id="arrow0-1000587939">
            <path
                d="M 0.0 0.0 L 6.504166666666667 2.322916666666667 L 6.504166666666667 0.0 L 6.504166666666667 -2.322916666666667 z "
                latexdraw:arrSizeNum="2.0" fill="black"/>
        </marker>
        <marker overflow="visible" orient="auto" id="arrow1-1000587939">
            <path
                d="M 0.0 0.0 L -6.504166666666667 2.322916666666667 L -6.504166666666667 0.0 L -6.504166666666667 -2.322916666666667 z "
                latexdraw:arrSizeNum="2.0" fill="black"/>
        </marker>
    </defs>
    <metadata>
        <latexdraw:metadata>
            <latexdraw:latexIncludes/>
            <latexdraw:displayXScale>true</latexdraw:displayXScale>
            <latexdraw:displayYScale>true</latexdraw:displayYScale>
            <latexdraw:unit>CM</latexdraw:unit>
            <latexdraw:zoom>1.2000000000000002</latexdraw:zoom>
            <latexdraw:magneticGridStyle>CUSTOMISED</latexdraw:magneticGridStyle>
            <latexdraw:gridGap>20</latexdraw:gridGap>
            <latexdraw:magneticGrid>false</latexdraw:magneticGrid>
            <latexdraw:version>3.3.7</latexdraw:version>
            <latexdraw:size>
                <latexdraw:width>1440</latexdraw:width>
                <latexdraw:height>804</latexdraw:height>
            </latexdraw:size>
            <latexdraw:position>
                <latexdraw:x>0.0</latexdraw:x>
                <latexdraw:y>23.0</latexdraw:y>
            </latexdraw:position>
        </latexdraw:metadata>
    </metadata>
</svg>
