<?xml version="1.1" encoding="UTF-8"?>
<svg xmlns="http://www.w3.org/2000/svg"
    xmlns:latexdraw="http://latexdraw.sourceforge.net/namespaces/latexdraw"
    version="1.1" baseProfile="full">
    <g>
        <g latexdraw:type="rectangle" id="id1818147490">
            <rect x="221.0" y="101.0" width="518.0" height="118.0"
                latexdraw:borderPos="outer" stroke-width="2.0"
                stroke="black" fill="none"/>
        </g>
        <g latexdraw:type="text" id="id1073253709" fill="black" latexdraw:position="bl">
            <text x="208.0" y="135.0">1</text>
        </g>
        <g latexdraw:type="text" id="id1934532343" fill="black" latexdraw:position="bl">
            <text x="208.0" y="155.0">2</text>
        </g>
        <g latexdraw:type="text" id="id903109894" fill="black" latexdraw:position="bl">
            <text x="208.0" y="175.0">3</text>
        </g>
        <g latexdraw:type="text" id="id1101959278" fill="black" latexdraw:position="bl">
            <text x="208.0" y="195.0">4</text>
        </g>
        <g latexdraw:type="text" id="id1904515319" fill="black" latexdraw:position="bl">
            <text x="208.0" y="215.0">5</text>
        </g>
        <g latexdraw:type="text" id="id40995254" fill="black" latexdraw:position="bl">
            <text x="114.0" y="162.0">Positions</text>
        </g>
        <g latexdraw:type="joinedLines" id="id443322796">
            <polyline points="220.0,80.0 740.0,80.0 " stroke-width="2.0"
                stroke="black" latexdraw:rotationAngle="0.0"
                marker-start="url(#arrow0-443322796)" marker-end="url(#arrow1-443322796)"/>
        </g>
        <g latexdraw:type="text" id="id1011515046" fill="black" latexdraw:position="bl">
            <text x="447.0" y="74.0">$\frac{P}{F}$ Slots</text>
        </g>
        <g latexdraw:type="joinedLines" id="id1112893810">
            <polyline points="760.0,100.0 760.0,220.0 "
                stroke-width="2.0" stroke="black"
                latexdraw:rotationAngle="0.0"
                marker-start="url(#arrow0-1112893810)" marker-end="url(#arrow1-1112893810)"/>
        </g>
        <g latexdraw:type="text" id="id1150083760" fill="black" latexdraw:position="bl">
            <text x="768.0" y="164.0">Slot</text>
        </g>
        <g latexdraw:type="joinedLines" id="id771431850">
            <polyline points="460.0,240.0 598.0,240.0 "
                stroke-width="2.0" stroke="black"
                latexdraw:rotationAngle="0.0"
                marker-start="url(#arrow0-771431850)" marker-end="url(#arrow1-771431850)"/>
        </g>
        <g latexdraw:type="text" id="id1777305210" fill="black" latexdraw:position="bl">
            <text x="518.0" y="268.0">$\frac{ET}{F}$</text>
        </g>
        <g latexdraw:type="joinedLines" id="id478986400">
            <polyline points="420.0,240.0 460.0,240.0 "
                stroke-width="2.0" stroke="black"
                latexdraw:rotationAngle="0.0"
                marker-start="url(#arrow0-478986400)" marker-end="url(#arrow1-478986400)"/>
        </g>
        <g latexdraw:type="text" id="id1963168983" fill="black" latexdraw:position="bl">
            <text x="429.0" y="269.0">$\frac{RS}{F}$</text>
        </g>
        <g latexdraw:type="joinedLines" id="id259052311">
            <polyline points="220.0,120.0 740.0,120.0 "
                stroke-width="2.0" stroke="black" latexdraw:rotationAngle="0.0"/>
        </g>
        <g latexdraw:type="joinedLines" id="id1915688562">
            <polyline points="740.0,160.0 220.0,160.0 "
                stroke-width="2.0" stroke="black" latexdraw:rotationAngle="0.0"/>
        </g>
        <g latexdraw:type="joinedLines" id="id302125516">
            <polyline points="220.0,140.0 740.0,140.0 "
                stroke-width="2.0" stroke="black" latexdraw:rotationAngle="0.0"/>
        </g>
        <g latexdraw:type="joinedLines" id="id1275644016">
            <polyline points="740.0,180.0 220.0,180.0 "
                stroke-width="2.0" stroke="black" latexdraw:rotationAngle="0.0"/>
        </g>
        <g latexdraw:type="joinedLines" id="id1231825165">
            <polyline points="740.0,200.0 220.0,200.0 "
                stroke-width="2.0" stroke="black" latexdraw:rotationAngle="0.0"/>
        </g>
        <g latexdraw:type="rectangle" id="id1934725775">
            <rect x="280.5" y="100.5" width="39.0" height="19.0"
                latexdraw:borderPos="outer" stroke-width="1.0"
                stroke="black" fill="#ff3333"/>
        </g>
        <g latexdraw:type="rectangle" id="id109890952">
            <rect x="280.5" y="120.5" width="39.0" height="19.0"
                latexdraw:borderPos="outer" stroke-width="1.0"
                stroke="black" fill="#ff3333"/>
        </g>
        <g latexdraw:type="rectangle" id="id78589933">
            <rect x="420.5" y="200.5" width="39.0" height="19.0"
                latexdraw:borderPos="outer" stroke-width="1.0"
                stroke="black" fill="#ff3333"/>
        </g>
        <g latexdraw:type="rectangle" id="id1332486809">
            <rect x="320.5" y="100.5" width="139.0" height="19.0"
                latexdraw:borderPos="outer" stroke-width="1.0"
                stroke="black" fill="url(#pattern1332486809)"/>
        </g>
        <g latexdraw:type="rectangle" id="id1635293809">
            <rect x="320.5" y="120.5" width="139.0" height="19.0"
                latexdraw:borderPos="outer" stroke-width="1.0"
                stroke="black" fill="url(#pattern1635293809)"/>
        </g>
        <g latexdraw:type="rectangle" id="id48036895">
            <rect x="460.5" y="200.5" width="139.0" height="19.0"
                latexdraw:borderPos="outer" stroke-width="1.0"
                stroke="black" fill="url(#pattern48036895)"/>
        </g>
        <g latexdraw:type="rectangle" id="id331477561">
            <rect x="480.5" y="220.5" width="1.0" height="1.0"
                latexdraw:borderPos="outer" stroke-width="1.0"
                stroke="black" fill="url(#pattern331477561)"/>
        </g>
        <g latexdraw:type="rectangle" id="id154276665">
            <rect x="398.05" y="269.2166666666665" width="19.9"
                height="19.900000000000055" latexdraw:borderPos="outer"
                stroke-width="0.1" stroke="black" fill="#ff3333"/>
        </g>
        <g latexdraw:type="rectangle" id="id1502676705">
            <rect x="558.05" y="269.2166666666667" width="19.9"
                height="19.9" latexdraw:borderPos="outer"
                stroke-width="0.1" stroke="black" fill="url(#pattern1502676705)"/>
        </g>
        <g latexdraw:type="text" id="id1528380675" fill="black" latexdraw:position="bl">
            <text x="425.4999999999998" y="285.8333333333335">Reservation</text>
        </g>
        <g latexdraw:type="text" id="id910525933" fill="black" latexdraw:position="bl">
            <text x="583.0000000000001" y="285.83333333333303">C-RAN Traffic</text>
        </g>
        <g latexdraw:type="text" id="id316571971" fill="black" latexdraw:position="bl">
            <text x="366.0" y="215.0">BBU 2</text>
        </g>
        <g latexdraw:type="text" id="id1993012710" fill="black" latexdraw:position="bl">
            <text x="227.0" y="117.0">RRH 1</text>
        </g>
        <g latexdraw:type="text" id="id2047145668" fill="black" latexdraw:position="bl">
            <text x="228.0" y="137.0">BBU 1</text>
        </g>
        <g latexdraw:type="text" id="id1690236830" fill="black" latexdraw:position="bl">
            <text x="208.0" y="118.0">0</text>
        </g>
        <g latexdraw:type="rectangle" id="id1306882537">
            <rect x="420.5" y="180.5" width="39.0" height="19.0"
                latexdraw:borderPos="outer" stroke-width="1.0"
                stroke="black" fill="#ff3333"/>
        </g>
        <g latexdraw:type="rectangle" id="id119489307">
            <rect x="460.5" y="180.5" width="139.0" height="19.0"
                latexdraw:borderPos="outer" stroke-width="1.0"
                stroke="black" fill="url(#pattern119489307)"/>
        </g>
        <g latexdraw:type="text" id="id850052371" fill="black" latexdraw:position="bl">
            <text x="366.0" y="196.0">RRH 2</text>
        </g>
        <g latexdraw:type="rectangle" id="id1141786226">
            <rect x="244.5" y="270.5" width="19.0" height="19.0"
                latexdraw:borderPos="outer" stroke-width="1.0"
                stroke="black" fill="none"/>
        </g>
        <g latexdraw:type="text" id="id1566528885" fill="black" latexdraw:position="bl">
            <text x="267.0" y="285.0">Free containers</text>
        </g>
    </g>
    <defs>
        <marker overflow="visible" orient="auto" id="arrow0-443322796">
            <path
                d="M 0.0 0.0 L 4.652083333333334 1.6614583333333335 L 4.652083333333334 0.0 L 4.652083333333334 -1.6614583333333335 z "
                latexdraw:arrSizeNum="2.0" fill="black"/>
        </marker>
        <marker overflow="visible" orient="auto" id="arrow1-443322796">
            <path
                d="M 0.0 0.0 L -4.652083333333334 1.6614583333333335 L -4.652083333333334 0.0 L -4.652083333333334 -1.6614583333333335 z "
                latexdraw:arrSizeNum="2.0" fill="black"/>
        </marker>
        <marker overflow="visible" orient="auto" id="arrow0-1112893810">
            <path
                d="M 0.0 0.0 L 4.652083333333334 1.6614583333333335 L 4.652083333333334 0.0 L 4.652083333333334 -1.6614583333333335 z "
                latexdraw:arrSizeNum="2.0" fill="black"/>
        </marker>
        <marker overflow="visible" orient="auto" id="arrow1-1112893810">
            <path
                d="M 0.0 0.0 L -4.652083333333334 1.6614583333333335 L -4.652083333333334 0.0 L -4.652083333333334 -1.6614583333333335 z "
                latexdraw:arrSizeNum="2.0" fill="black"/>
        </marker>
        <marker overflow="visible" orient="auto" id="arrow0-771431850">
            <path
                d="M 0.0 0.0 L 4.652083333333334 1.6614583333333335 L 4.652083333333334 0.0 L 4.652083333333334 -1.6614583333333335 z "
                latexdraw:arrSizeNum="2.0" fill="black"/>
        </marker>
        <marker overflow="visible" orient="auto" id="arrow1-771431850">
            <path
                d="M 0.0 0.0 L -4.652083333333334 1.6614583333333335 L -4.652083333333334 0.0 L -4.652083333333334 -1.6614583333333335 z "
                latexdraw:arrSizeNum="2.0" fill="black"/>
        </marker>
        <marker overflow="visible" orient="auto" id="arrow0-478986400">
            <path
                d="M 0.0 0.0 L 4.652083333333334 1.6614583333333335 L 4.652083333333334 0.0 L 4.652083333333334 -1.6614583333333335 z "
                latexdraw:arrSizeNum="2.0" fill="black"/>
        </marker>
        <marker overflow="visible" orient="auto" id="arrow1-478986400">
            <path
                d="M 0.0 0.0 L -4.652083333333334 1.6614583333333335 L -4.652083333333334 0.0 L -4.652083333333334 -1.6614583333333335 z "
                latexdraw:arrSizeNum="2.0" fill="black"/>
        </marker>
        <pattern latexdraw:type="crosshatch"
            latexdraw:rotationAngle="0.0"
            latexdraw:size="7.055555555555555"
            patternUnits="userSpaceOnUse" id="pattern1332486809" x="0"
            y="0" width="460" height="120">
            <g stroke="#999999" stroke-width="1.4111111111111112" stroke-dasharray="none">
                <path d="M 320.0 100.0 L 320.0 120.0 M 328.46666666666664 100.0 L 328.46666666666664 120.0 M 336.9333333333333 100.0 L 336.9333333333333 120.0 M 345.3999999999999 100.0 L 345.3999999999999 120.0 M 353.86666666666656 100.0 L 353.86666666666656 120.0 M 362.3333333333332 100.0 L 362.3333333333332 120.0 M 370.79999999999984 100.0 L 370.79999999999984 120.0 M 379.2666666666665 100.0 L 379.2666666666665 120.0 M 387.7333333333331 100.0 L 387.7333333333331 120.0 M 396.19999999999976 100.0 L 396.19999999999976 120.0 M 404.6666666666664 100.0 L 404.6666666666664 120.0 M 413.13333333333304 100.0 L 413.13333333333304 120.0 M 421.5999999999997 100.0 L 421.5999999999997 120.0 M 430.0666666666663 100.0 L 430.0666666666663 120.0 M 438.53333333333296 100.0 L 438.53333333333296 120.0 M 446.9999999999996 100.0 L 446.9999999999996 120.0 M 455.46666666666624 100.0 L 455.46666666666624 120.0 M 320.0 100.0 L 460.0 100.0 M 320.0 108.46666666666667 L 460.0 108.46666666666667 M 320.0 116.93333333333334 L 460.0 116.93333333333334 "/>
            </g>
        </pattern>
        <pattern latexdraw:type="crosshatch"
            latexdraw:rotationAngle="0.0"
            latexdraw:size="7.055555555555555"
            patternUnits="userSpaceOnUse" id="pattern1635293809" x="0"
            y="0" width="460" height="140">
            <g stroke="#999999" stroke-width="1.4111111111111112" stroke-dasharray="none">
                <path d="M 320.0 120.0 L 320.0 140.0 M 328.46666666666664 120.0 L 328.46666666666664 140.0 M 336.9333333333333 120.0 L 336.9333333333333 140.0 M 345.3999999999999 120.0 L 345.3999999999999 140.0 M 353.86666666666656 120.0 L 353.86666666666656 140.0 M 362.3333333333332 120.0 L 362.3333333333332 140.0 M 370.79999999999984 120.0 L 370.79999999999984 140.0 M 379.2666666666665 120.0 L 379.2666666666665 140.0 M 387.7333333333331 120.0 L 387.7333333333331 140.0 M 396.19999999999976 120.0 L 396.19999999999976 140.0 M 404.6666666666664 120.0 L 404.6666666666664 140.0 M 413.13333333333304 120.0 L 413.13333333333304 140.0 M 421.5999999999997 120.0 L 421.5999999999997 140.0 M 430.0666666666663 120.0 L 430.0666666666663 140.0 M 438.53333333333296 120.0 L 438.53333333333296 140.0 M 446.9999999999996 120.0 L 446.9999999999996 140.0 M 455.46666666666624 120.0 L 455.46666666666624 140.0 M 320.0 120.0 L 460.0 120.0 M 320.0 128.46666666666667 L 460.0 128.46666666666667 M 320.0 136.93333333333334 L 460.0 136.93333333333334 "/>
            </g>
        </pattern>
        <pattern latexdraw:type="crosshatch"
            latexdraw:rotationAngle="0.0"
            latexdraw:size="7.055555555555555"
            patternUnits="userSpaceOnUse" id="pattern48036895" x="0"
            y="0" width="600" height="220">
            <g stroke="#999999" stroke-width="1.4111111111111112" stroke-dasharray="none">
                <path d="M 460.0 200.0 L 460.0 220.0 M 468.46666666666664 200.0 L 468.46666666666664 220.0 M 476.9333333333333 200.0 L 476.9333333333333 220.0 M 485.3999999999999 200.0 L 485.3999999999999 220.0 M 493.86666666666656 200.0 L 493.86666666666656 220.0 M 502.3333333333332 200.0 L 502.3333333333332 220.0 M 510.79999999999984 200.0 L 510.79999999999984 220.0 M 519.2666666666665 200.0 L 519.2666666666665 220.0 M 527.7333333333332 200.0 L 527.7333333333332 220.0 M 536.1999999999999 200.0 L 536.1999999999999 220.0 M 544.6666666666666 200.0 L 544.6666666666666 220.0 M 553.1333333333333 200.0 L 553.1333333333333 220.0 M 561.6 200.0 L 561.6 220.0 M 570.0666666666667 200.0 L 570.0666666666667 220.0 M 578.5333333333334 200.0 L 578.5333333333334 220.0 M 587.0000000000001 200.0 L 587.0000000000001 220.0 M 595.4666666666668 200.0 L 595.4666666666668 220.0 M 460.0 200.0 L 600.0 200.0 M 460.0 208.46666666666667 L 600.0 208.46666666666667 M 460.0 216.93333333333334 L 600.0 216.93333333333334 "/>
            </g>
        </pattern>
        <pattern latexdraw:type="crosshatch"
            latexdraw:rotationAngle="0.0"
            latexdraw:size="7.055555555555555"
            patternUnits="userSpaceOnUse" id="pattern331477561" x="0"
            y="0" width="482" height="222">
            <g stroke="#999999" stroke-width="1.4111111111111112" stroke-dasharray="none">
                <path d="M 480.0 220.0 L 480.0 222.0 M 480.0 220.0 L 482.0 220.0 "/>
            </g>
        </pattern>
        <pattern latexdraw:type="crosshatch*"
            latexdraw:rotationAngle="0.0"
            latexdraw:size="7.055555555555555"
            patternUnits="userSpaceOnUse" id="pattern1502676705" x="0"
            y="0" width="578" height="289">
            <rect width="578" height="289" fill="#cccccc" stroke="none"/>
            <g stroke="#999999" stroke-width="0.6" stroke-dasharray="none">
                <path d="M 558.0 269.1666666666667 L 558.0 289.1666666666667 M 565.6555555555556 269.1666666666667 L 565.6555555555556 289.1666666666667 M 573.3111111111111 269.1666666666667 L 573.3111111111111 289.1666666666667 M 558.0 269.1666666666667 L 578.0 269.1666666666667 M 558.0 276.82222222222225 L 578.0 276.82222222222225 M 558.0 284.4777777777778 L 578.0 284.4777777777778 "/>
            </g>
        </pattern>
        <pattern latexdraw:type="crosshatch"
            latexdraw:rotationAngle="0.0"
            latexdraw:size="7.055555555555555"
            patternUnits="userSpaceOnUse" id="pattern119489307" x="0"
            y="0" width="600" height="200">
            <g stroke="#999999" stroke-width="1.4111111111111112" stroke-dasharray="none">
                <path d="M 460.0 180.0 L 460.0 200.0 M 468.46666666666664 180.0 L 468.46666666666664 200.0 M 476.9333333333333 180.0 L 476.9333333333333 200.0 M 485.3999999999999 180.0 L 485.3999999999999 200.0 M 493.86666666666656 180.0 L 493.86666666666656 200.0 M 502.3333333333332 180.0 L 502.3333333333332 200.0 M 510.79999999999984 180.0 L 510.79999999999984 200.0 M 519.2666666666665 180.0 L 519.2666666666665 200.0 M 527.7333333333332 180.0 L 527.7333333333332 200.0 M 536.1999999999999 180.0 L 536.1999999999999 200.0 M 544.6666666666666 180.0 L 544.6666666666666 200.0 M 553.1333333333333 180.0 L 553.1333333333333 200.0 M 561.6 180.0 L 561.6 200.0 M 570.0666666666667 180.0 L 570.0666666666667 200.0 M 578.5333333333334 180.0 L 578.5333333333334 200.0 M 587.0000000000001 180.0 L 587.0000000000001 200.0 M 595.4666666666668 180.0 L 595.4666666666668 200.0 M 460.0 180.0 L 600.0 180.0 M 460.0 188.46666666666667 L 600.0 188.46666666666667 M 460.0 196.93333333333334 L 600.0 196.93333333333334 "/>
            </g>
        </pattern>
    </defs>
    <metadata>
        <latexdraw:metadata>
            <latexdraw:latexIncludes/>
            <latexdraw:displayXScale>true</latexdraw:displayXScale>
            <latexdraw:displayYScale>true</latexdraw:displayYScale>
            <latexdraw:unit>CM</latexdraw:unit>
            <latexdraw:zoom>1.0</latexdraw:zoom>
            <latexdraw:magneticGridStyle>CUSTOMISED</latexdraw:magneticGridStyle>
            <latexdraw:gridGap>20</latexdraw:gridGap>
            <latexdraw:magneticGrid>false</latexdraw:magneticGrid>
            <latexdraw:version>3.3.8</latexdraw:version>
            <latexdraw:size>
                <latexdraw:width>1695</latexdraw:width>
                <latexdraw:height>804</latexdraw:height>
            </latexdraw:size>
            <latexdraw:position>
                <latexdraw:x>111.0</latexdraw:x>
                <latexdraw:y>23.0</latexdraw:y>
            </latexdraw:position>
        </latexdraw:metadata>
    </metadata>
</svg>
