<?xml version="1.0" encoding="UTF-8"?><svg xmlns="http://www.w3.org/2000/svg" xmlns:latexdraw="http://latexdraw.sourceforge.net/namespaces/latexdraw" version="1.1" baseProfile="full">
    <g>
        <g latexdraw:type="rectangle" id="id1883204338">
            <rect x="240.5" y="59.666666666666515" width="259.0" height="99.0" latexdraw:borderPos="outer" stroke-width="1.0" stroke="black" fill="none"/>
        </g>
        <g latexdraw:type="joinedLines" id="id2009506835">
            <polyline points="240.0,79.16666666666652 500.0,79.16666666666652 " stroke-width="0.6" stroke="black" latexdraw:rotationAngle="0.0"/>
        </g>
        <g latexdraw:type="rectangle" id="id1430920981">
            <rect x="240.05" y="59.2166666666665" width="99.9" height="19.9" latexdraw:borderPos="outer" stroke-width="0.1" stroke="black" fill="url(#pattern1430920981)"/>
        </g>
        <g latexdraw:type="joinedLines" id="id1279378171">
            <polyline points="240.0,99.16666666666652 500.0,99.16666666666652 " stroke-width="0.6" stroke="black" latexdraw:rotationAngle="0.0"/>
        </g>
        <g latexdraw:type="rectangle" id="id675924980">
            <rect x="240.05" y="79.2166666666665" width="99.9" height="19.9" latexdraw:borderPos="outer" stroke-width="0.1" stroke="black" fill="url(#pattern675924980)"/>
        </g>
        <g latexdraw:type="joinedLines" id="id1466647326">
            <polyline points="240.0,119.16666666666652 500.0,119.16666666666652 " stroke-width="0.6" stroke="black" latexdraw:rotationAngle="0.0"/>
        </g>
        <g latexdraw:type="rectangle" id="id934215733">
            <rect x="240.05" y="99.2166666666665" width="99.9" height="19.9" latexdraw:borderPos="outer" stroke-width="0.1" stroke="black" fill="url(#pattern934215733)"/>
        </g>
        <g latexdraw:type="joinedLines" id="id1313796206">
            <polyline points="240.0,139.16666666666652 500.0,139.16666666666652 " stroke-width="0.6" stroke="black" latexdraw:rotationAngle="0.0"/>
        </g>
        <g latexdraw:type="rectangle" id="id890338714">
            <rect x="240.05" y="119.2166666666665" width="99.9" height="19.900000000000013" latexdraw:borderPos="outer" stroke-width="0.1" stroke="black" fill="url(#pattern890338714)"/>
        </g>
        <g latexdraw:type="joinedLines" id="id409397224">
            <polyline points="240.0,159.16666666666652 500.0,159.16666666666652 " stroke-width="0.6" stroke="black" latexdraw:rotationAngle="0.0"/>
        </g>
        <g latexdraw:type="rectangle" id="id53341305">
            <rect x="240.05" y="139.21666666666678" width="99.9" height="19.9" latexdraw:borderPos="outer" stroke-width="0.1" stroke="black" fill="url(#pattern53341305)"/>
        </g>
        <g latexdraw:type="joinedLines" id="id2005227851">
            <polyline points="533.3333333333333,99.99999999999999 566.6666666666666,99.99999999999999 " stroke-width="2.0" stroke="black" latexdraw:rotationAngle="0.0" marker-end="url(#arrow1-2005227851)"/>
        </g>
        <g latexdraw:type="rectangle" id="id1871794363">
            <rect x="600.5" y="59.666666666666515" width="259.0" height="99.0" latexdraw:borderPos="outer" stroke-width="1.0" stroke="black" fill="none"/>
        </g>
        <g latexdraw:type="joinedLines" id="id268803811">
            <polyline points="600.0,79.16666666666652 860.0,79.16666666666652 " stroke-width="0.6" stroke="black" latexdraw:rotationAngle="0.0"/>
        </g>
        <g latexdraw:type="joinedLines" id="id285520746">
            <polyline points="860.0,119.16666666666652 600.0,119.16666666666652 " stroke-width="0.6" stroke="black" latexdraw:rotationAngle="0.0"/>
        </g>
        <g latexdraw:type="joinedLines" id="id1583744880">
            <polyline points="860.0,139.16666666666652 600.0,139.16666666666652 " stroke-width="0.6" stroke="black" latexdraw:rotationAngle="0.0"/>
        </g>
        <g latexdraw:type="rectangle" id="id938148499">
            <rect x="600.05" y="59.216666666666725" width="99.9" height="19.9" latexdraw:borderPos="outer" stroke-width="0.1" stroke="black" fill="url(#pattern938148499)"/>
        </g>
        <g latexdraw:type="rectangle" id="id2024534389">
            <rect x="700.05" y="59.216666666666725" width="99.9" height="19.9" latexdraw:borderPos="outer" stroke-width="0.1" stroke="black" fill="url(#pattern2024534389)"/>
        </g>
        <g latexdraw:type="rectangle" id="id1737152970">
            <rect x="600.05" y="79.2166666666665" width="99.9" height="19.9" latexdraw:borderPos="outer" stroke-width="0.1" stroke="black" fill="url(#pattern1737152970)"/>
        </g>
        <g latexdraw:type="rectangle" id="id195441741">
            <rect x="700.05" y="79.2166666666665" width="99.9" height="19.9" latexdraw:borderPos="outer" stroke-width="0.1" stroke="black" fill="url(#pattern195441741)"/>
        </g>
        <g latexdraw:type="rectangle" id="id1936226477">
            <rect x="600.05" y="99.2166666666665" width="99.9" height="19.9" latexdraw:borderPos="outer" stroke-width="0.1" stroke="black" fill="url(#pattern1936226477)"/>
        </g>
        <g latexdraw:type="joinedLines" id="id615609531">
            <polyline points="860.0,99.16666666666652 600.0,99.16666666666652 " stroke-width="0.6" stroke="black" latexdraw:rotationAngle="0.0"/>
        </g>
    </g>
    <defs>
        <pattern latexdraw:type="crosshatch*" latexdraw:rotationAngle="0.0" latexdraw:size="7.055555555555555" patternUnits="userSpaceOnUse" id="pattern1430920981" x="0" y="0" width="340" height="79">
            <rect width="340" height="79" fill="#cccccc" stroke="none"/>
            <g stroke="#999999" stroke-width="0.6" stroke-dasharray="none">
                <path d="M 240.0 59.1666666666665 L 240.0 79.1666666666665 M 247.65555555555557 59.1666666666665 L 247.65555555555557 79.1666666666665 M 255.31111111111113 59.1666666666665 L 255.31111111111113 79.1666666666665 M 262.9666666666667 59.1666666666665 L 262.9666666666667 79.1666666666665 M 270.62222222222226 59.1666666666665 L 270.62222222222226 79.1666666666665 M 278.2777777777778 59.1666666666665 L 278.2777777777778 79.1666666666665 M 285.9333333333334 59.1666666666665 L 285.9333333333334 79.1666666666665 M 293.58888888888896 59.1666666666665 L 293.58888888888896 79.1666666666665 M 301.2444444444445 59.1666666666665 L 301.2444444444445 79.1666666666665 M 308.9000000000001 59.1666666666665 L 308.9000000000001 79.1666666666665 M 316.55555555555566 59.1666666666665 L 316.55555555555566 79.1666666666665 M 324.2111111111112 59.1666666666665 L 324.2111111111112 79.1666666666665 M 331.8666666666668 59.1666666666665 L 331.8666666666668 79.1666666666665 M 339.52222222222235 59.1666666666665 L 339.52222222222235 79.1666666666665 M 240.0 59.1666666666665 L 340.0 59.1666666666665 M 240.0 66.82222222222205 L 340.0 66.82222222222205 M 240.0 74.4777777777776 L 340.0 74.4777777777776 "/>
            </g>
        </pattern>
        <pattern latexdraw:type="crosshatch*" latexdraw:rotationAngle="0.0" latexdraw:size="7.055555555555555" patternUnits="userSpaceOnUse" id="pattern675924980" x="0" y="0" width="340" height="99">
            <rect width="340" height="99" fill="#cccccc" stroke="none"/>
            <g stroke="#999999" stroke-width="0.6" stroke-dasharray="none">
                <path d="M 240.0 79.1666666666665 L 240.0 99.1666666666665 M 247.65555555555557 79.1666666666665 L 247.65555555555557 99.1666666666665 M 255.31111111111113 79.1666666666665 L 255.31111111111113 99.1666666666665 M 262.9666666666667 79.1666666666665 L 262.9666666666667 99.1666666666665 M 270.62222222222226 79.1666666666665 L 270.62222222222226 99.1666666666665 M 278.2777777777778 79.1666666666665 L 278.2777777777778 99.1666666666665 M 285.9333333333334 79.1666666666665 L 285.9333333333334 99.1666666666665 M 293.58888888888896 79.1666666666665 L 293.58888888888896 99.1666666666665 M 301.2444444444445 79.1666666666665 L 301.2444444444445 99.1666666666665 M 308.9000000000001 79.1666666666665 L 308.9000000000001 99.1666666666665 M 316.55555555555566 79.1666666666665 L 316.55555555555566 99.1666666666665 M 324.2111111111112 79.1666666666665 L 324.2111111111112 99.1666666666665 M 331.8666666666668 79.1666666666665 L 331.8666666666668 99.1666666666665 M 339.52222222222235 79.1666666666665 L 339.52222222222235 99.1666666666665 M 240.0 79.1666666666665 L 340.0 79.1666666666665 M 240.0 86.82222222222205 L 340.0 86.82222222222205 M 240.0 94.4777777777776 L 340.0 94.4777777777776 "/>
            </g>
        </pattern>
        <pattern latexdraw:type="crosshatch*" latexdraw:rotationAngle="0.0" latexdraw:size="7.055555555555555" patternUnits="userSpaceOnUse" id="pattern934215733" x="0" y="0" width="340" height="119">
            <rect width="340" height="119" fill="#cccccc" stroke="none"/>
            <g stroke="#999999" stroke-width="0.6" stroke-dasharray="none">
                <path d="M 240.0 99.1666666666665 L 240.0 119.1666666666665 M 247.65555555555557 99.1666666666665 L 247.65555555555557 119.1666666666665 M 255.31111111111113 99.1666666666665 L 255.31111111111113 119.1666666666665 M 262.9666666666667 99.1666666666665 L 262.9666666666667 119.1666666666665 M 270.62222222222226 99.1666666666665 L 270.62222222222226 119.1666666666665 M 278.2777777777778 99.1666666666665 L 278.2777777777778 119.1666666666665 M 285.9333333333334 99.1666666666665 L 285.9333333333334 119.1666666666665 M 293.58888888888896 99.1666666666665 L 293.58888888888896 119.1666666666665 M 301.2444444444445 99.1666666666665 L 301.2444444444445 119.1666666666665 M 308.9000000000001 99.1666666666665 L 308.9000000000001 119.1666666666665 M 316.55555555555566 99.1666666666665 L 316.55555555555566 119.1666666666665 M 324.2111111111112 99.1666666666665 L 324.2111111111112 119.1666666666665 M 331.8666666666668 99.1666666666665 L 331.8666666666668 119.1666666666665 M 339.52222222222235 99.1666666666665 L 339.52222222222235 119.1666666666665 M 240.0 99.1666666666665 L 340.0 99.1666666666665 M 240.0 106.82222222222205 L 340.0 106.82222222222205 M 240.0 114.4777777777776 L 340.0 114.4777777777776 "/>
            </g>
        </pattern>
        <pattern latexdraw:type="crosshatch*" latexdraw:rotationAngle="0.0" latexdraw:size="7.055555555555555" patternUnits="userSpaceOnUse" id="pattern890338714" x="0" y="0" width="340" height="139">
            <rect width="340" height="139" fill="#cccccc" stroke="none"/>
            <g stroke="#999999" stroke-width="0.6" stroke-dasharray="none">
                <path d="M 240.0 119.1666666666665 L 240.0 139.16666666666652 M 247.65555555555557 119.1666666666665 L 247.65555555555557 139.16666666666652 M 255.31111111111113 119.1666666666665 L 255.31111111111113 139.16666666666652 M 262.9666666666667 119.1666666666665 L 262.9666666666667 139.16666666666652 M 270.62222222222226 119.1666666666665 L 270.62222222222226 139.16666666666652 M 278.2777777777778 119.1666666666665 L 278.2777777777778 139.16666666666652 M 285.9333333333334 119.1666666666665 L 285.9333333333334 139.16666666666652 M 293.58888888888896 119.1666666666665 L 293.58888888888896 139.16666666666652 M 301.2444444444445 119.1666666666665 L 301.2444444444445 139.16666666666652 M 308.9000000000001 119.1666666666665 L 308.9000000000001 139.16666666666652 M 316.55555555555566 119.1666666666665 L 316.55555555555566 139.16666666666652 M 324.2111111111112 119.1666666666665 L 324.2111111111112 139.16666666666652 M 331.8666666666668 119.1666666666665 L 331.8666666666668 139.16666666666652 M 339.52222222222235 119.1666666666665 L 339.52222222222235 139.16666666666652 M 240.0 119.1666666666665 L 340.0 119.1666666666665 M 240.0 126.82222222222205 L 340.0 126.82222222222205 M 240.0 134.47777777777762 L 340.0 134.47777777777762 "/>
            </g>
        </pattern>
        <pattern latexdraw:type="crosshatch*" latexdraw:rotationAngle="0.0" latexdraw:size="7.055555555555555" patternUnits="userSpaceOnUse" id="pattern53341305" x="0" y="0" width="340" height="159">
            <rect width="340" height="159" fill="#cccccc" stroke="none"/>
            <g stroke="#999999" stroke-width="0.6" stroke-dasharray="none">
                <path d="M 240.0 139.16666666666677 L 240.0 159.16666666666677 M 247.65555555555557 139.16666666666677 L 247.65555555555557 159.16666666666677 M 255.31111111111113 139.16666666666677 L 255.31111111111113 159.16666666666677 M 262.9666666666667 139.16666666666677 L 262.9666666666667 159.16666666666677 M 270.62222222222226 139.16666666666677 L 270.62222222222226 159.16666666666677 M 278.2777777777778 139.16666666666677 L 278.2777777777778 159.16666666666677 M 285.9333333333334 139.16666666666677 L 285.9333333333334 159.16666666666677 M 293.58888888888896 139.16666666666677 L 293.58888888888896 159.16666666666677 M 301.2444444444445 139.16666666666677 L 301.2444444444445 159.16666666666677 M 308.9000000000001 139.16666666666677 L 308.9000000000001 159.16666666666677 M 316.55555555555566 139.16666666666677 L 316.55555555555566 159.16666666666677 M 324.2111111111112 139.16666666666677 L 324.2111111111112 159.16666666666677 M 331.8666666666668 139.16666666666677 L 331.8666666666668 159.16666666666677 M 339.52222222222235 139.16666666666677 L 339.52222222222235 159.16666666666677 M 240.0 139.16666666666677 L 340.0 139.16666666666677 M 240.0 146.82222222222234 L 340.0 146.82222222222234 M 240.0 154.4777777777779 L 340.0 154.4777777777779 "/>
            </g>
        </pattern>
        <marker overflow="visible" orient="auto" id="arrow1-2005227851">
            <path d="M 0.0 0.0 L -4.652083333333334 1.6614583333333335 L -4.652083333333334 0.0 L -4.652083333333334 -1.6614583333333335 z " latexdraw:arrSizeNum="2.0" fill="black"/>
        </marker>
        <pattern latexdraw:type="crosshatch*" latexdraw:rotationAngle="0.0" latexdraw:size="7.055555555555555" patternUnits="userSpaceOnUse" id="pattern938148499" x="0" y="0" width="700" height="79">
            <rect width="700" height="79" fill="#cccccc" stroke="none"/>
            <g stroke="#999999" stroke-width="0.6" stroke-dasharray="none">
                <path d="M 600.0 59.16666666666673 L 600.0 79.16666666666673 M 607.6555555555556 59.16666666666673 L 607.6555555555556 79.16666666666673 M 615.3111111111111 59.16666666666673 L 615.3111111111111 79.16666666666673 M 622.9666666666667 59.16666666666673 L 622.9666666666667 79.16666666666673 M 630.6222222222223 59.16666666666673 L 630.6222222222223 79.16666666666673 M 638.2777777777778 59.16666666666673 L 638.2777777777778 79.16666666666673 M 645.9333333333334 59.16666666666673 L 645.9333333333334 79.16666666666673 M 653.588888888889 59.16666666666673 L 653.588888888889 79.16666666666673 M 661.2444444444445 59.16666666666673 L 661.2444444444445 79.16666666666673 M 668.9000000000001 59.16666666666673 L 668.9000000000001 79.16666666666673 M 676.5555555555557 59.16666666666673 L 676.5555555555557 79.16666666666673 M 684.2111111111112 59.16666666666673 L 684.2111111111112 79.16666666666673 M 691.8666666666668 59.16666666666673 L 691.8666666666668 79.16666666666673 M 699.5222222222224 59.16666666666673 L 699.5222222222224 79.16666666666673 M 600.0 59.16666666666673 L 700.0 59.16666666666673 M 600.0 66.82222222222228 L 700.0 66.82222222222228 M 600.0 74.47777777777783 L 700.0 74.47777777777783 "/>
            </g>
        </pattern>
        <pattern latexdraw:type="crosshatch*" latexdraw:rotationAngle="0.0" latexdraw:size="7.055555555555555" patternUnits="userSpaceOnUse" id="pattern2024534389" x="0" y="0" width="800" height="79">
            <rect width="800" height="79" fill="#cccccc" stroke="none"/>
            <g stroke="#999999" stroke-width="0.6" stroke-dasharray="none">
                <path d="M 700.0 59.16666666666673 L 700.0 79.16666666666673 M 707.6555555555556 59.16666666666673 L 707.6555555555556 79.16666666666673 M 715.3111111111111 59.16666666666673 L 715.3111111111111 79.16666666666673 M 722.9666666666667 59.16666666666673 L 722.9666666666667 79.16666666666673 M 730.6222222222223 59.16666666666673 L 730.6222222222223 79.16666666666673 M 738.2777777777778 59.16666666666673 L 738.2777777777778 79.16666666666673 M 745.9333333333334 59.16666666666673 L 745.9333333333334 79.16666666666673 M 753.588888888889 59.16666666666673 L 753.588888888889 79.16666666666673 M 761.2444444444445 59.16666666666673 L 761.2444444444445 79.16666666666673 M 768.9000000000001 59.16666666666673 L 768.9000000000001 79.16666666666673 M 776.5555555555557 59.16666666666673 L 776.5555555555557 79.16666666666673 M 784.2111111111112 59.16666666666673 L 784.2111111111112 79.16666666666673 M 791.8666666666668 59.16666666666673 L 791.8666666666668 79.16666666666673 M 799.5222222222224 59.16666666666673 L 799.5222222222224 79.16666666666673 M 700.0 59.16666666666673 L 800.0 59.16666666666673 M 700.0 66.82222222222228 L 800.0 66.82222222222228 M 700.0 74.47777777777783 L 800.0 74.47777777777783 "/>
            </g>
        </pattern>
        <pattern latexdraw:type="crosshatch*" latexdraw:rotationAngle="0.0" latexdraw:size="7.055555555555555" patternUnits="userSpaceOnUse" id="pattern1737152970" x="0" y="0" width="700" height="99">
            <rect width="700" height="99" fill="#cccccc" stroke="none"/>
            <g stroke="#999999" stroke-width="0.6" stroke-dasharray="none">
                <path d="M 600.0 79.1666666666665 L 600.0 99.1666666666665 M 607.6555555555556 79.1666666666665 L 607.6555555555556 99.1666666666665 M 615.3111111111111 79.1666666666665 L 615.3111111111111 99.1666666666665 M 622.9666666666667 79.1666666666665 L 622.9666666666667 99.1666666666665 M 630.6222222222223 79.1666666666665 L 630.6222222222223 99.1666666666665 M 638.2777777777778 79.1666666666665 L 638.2777777777778 99.1666666666665 M 645.9333333333334 79.1666666666665 L 645.9333333333334 99.1666666666665 M 653.588888888889 79.1666666666665 L 653.588888888889 99.1666666666665 M 661.2444444444445 79.1666666666665 L 661.2444444444445 99.1666666666665 M 668.9000000000001 79.1666666666665 L 668.9000000000001 99.1666666666665 M 676.5555555555557 79.1666666666665 L 676.5555555555557 99.1666666666665 M 684.2111111111112 79.1666666666665 L 684.2111111111112 99.1666666666665 M 691.8666666666668 79.1666666666665 L 691.8666666666668 99.1666666666665 M 699.5222222222224 79.1666666666665 L 699.5222222222224 99.1666666666665 M 600.0 79.1666666666665 L 700.0 79.1666666666665 M 600.0 86.82222222222205 L 700.0 86.82222222222205 M 600.0 94.4777777777776 L 700.0 94.4777777777776 "/>
            </g>
        </pattern>
        <pattern latexdraw:type="crosshatch*" latexdraw:rotationAngle="0.0" latexdraw:size="7.055555555555555" patternUnits="userSpaceOnUse" id="pattern195441741" x="0" y="0" width="800" height="99">
            <rect width="800" height="99" fill="#cccccc" stroke="none"/>
            <g stroke="#999999" stroke-width="0.6" stroke-dasharray="none">
                <path d="M 700.0 79.1666666666665 L 700.0 99.1666666666665 M 707.6555555555556 79.1666666666665 L 707.6555555555556 99.1666666666665 M 715.3111111111111 79.1666666666665 L 715.3111111111111 99.1666666666665 M 722.9666666666667 79.1666666666665 L 722.9666666666667 99.1666666666665 M 730.6222222222223 79.1666666666665 L 730.6222222222223 99.1666666666665 M 738.2777777777778 79.1666666666665 L 738.2777777777778 99.1666666666665 M 745.9333333333334 79.1666666666665 L 745.9333333333334 99.1666666666665 M 753.588888888889 79.1666666666665 L 753.588888888889 99.1666666666665 M 761.2444444444445 79.1666666666665 L 761.2444444444445 99.1666666666665 M 768.9000000000001 79.1666666666665 L 768.9000000000001 99.1666666666665 M 776.5555555555557 79.1666666666665 L 776.5555555555557 99.1666666666665 M 784.2111111111112 79.1666666666665 L 784.2111111111112 99.1666666666665 M 791.8666666666668 79.1666666666665 L 791.8666666666668 99.1666666666665 M 799.5222222222224 79.1666666666665 L 799.5222222222224 99.1666666666665 M 700.0 79.1666666666665 L 800.0 79.1666666666665 M 700.0 86.82222222222205 L 800.0 86.82222222222205 M 700.0 94.4777777777776 L 800.0 94.4777777777776 "/>
            </g>
        </pattern>
        <pattern latexdraw:type="crosshatch*" latexdraw:rotationAngle="0.0" latexdraw:size="7.055555555555555" patternUnits="userSpaceOnUse" id="pattern1936226477" x="0" y="0" width="700" height="119">
            <rect width="700" height="119" fill="#cccccc" stroke="none"/>
            <g stroke="#999999" stroke-width="0.6" stroke-dasharray="none">
                <path d="M 600.0 99.1666666666665 L 600.0 119.1666666666665 M 607.6555555555556 99.1666666666665 L 607.6555555555556 119.1666666666665 M 615.3111111111111 99.1666666666665 L 615.3111111111111 119.1666666666665 M 622.9666666666667 99.1666666666665 L 622.9666666666667 119.1666666666665 M 630.6222222222223 99.1666666666665 L 630.6222222222223 119.1666666666665 M 638.2777777777778 99.1666666666665 L 638.2777777777778 119.1666666666665 M 645.9333333333334 99.1666666666665 L 645.9333333333334 119.1666666666665 M 653.588888888889 99.1666666666665 L 653.588888888889 119.1666666666665 M 661.2444444444445 99.1666666666665 L 661.2444444444445 119.1666666666665 M 668.9000000000001 99.1666666666665 L 668.9000000000001 119.1666666666665 M 676.5555555555557 99.1666666666665 L 676.5555555555557 119.1666666666665 M 684.2111111111112 99.1666666666665 L 684.2111111111112 119.1666666666665 M 691.8666666666668 99.1666666666665 L 691.8666666666668 119.1666666666665 M 699.5222222222224 99.1666666666665 L 699.5222222222224 119.1666666666665 M 600.0 99.1666666666665 L 700.0 99.1666666666665 M 600.0 106.82222222222205 L 700.0 106.82222222222205 M 600.0 114.4777777777776 L 700.0 114.4777777777776 "/>
            </g>
        </pattern>
    </defs>
    <metadata>
        <latexdraw:metadata>
            <latexdraw:latexIncludes/>
            <latexdraw:displayXScale>true</latexdraw:displayXScale>
            <latexdraw:displayYScale>true</latexdraw:displayYScale>
            <latexdraw:unit>CM</latexdraw:unit>
            <latexdraw:zoom>1.2000000000000002</latexdraw:zoom>
            <latexdraw:magneticGridStyle>CUSTOMISED</latexdraw:magneticGridStyle>
            <latexdraw:gridGap>20</latexdraw:gridGap>
            <latexdraw:magneticGrid>true</latexdraw:magneticGrid>
            <latexdraw:version>3.3.8</latexdraw:version>
            <latexdraw:size>
                <latexdraw:width>1440</latexdraw:width>
                <latexdraw:height>804</latexdraw:height>
            </latexdraw:size>
            <latexdraw:position>
                <latexdraw:x>0.0</latexdraw:x>
                <latexdraw:y>23.0</latexdraw:y>
            </latexdraw:position>
        </latexdraw:metadata>
    </metadata>
</svg>
