<?xml version="1.1" encoding="UTF-8"?>
<svg xmlns="http://www.w3.org/2000/svg"
    xmlns:latexdraw="http://latexdraw.sourceforge.net/namespaces/latexdraw"
    version="1.1" baseProfile="full">
    <g>
        <g latexdraw:type="rectangle" id="id909184040">
            <rect x="160.5" y="60.5" width="259.0" height="99.0"
                latexdraw:borderPos="outer" stroke-width="1.0"
                stroke="black" fill="none"/>
        </g>
        <g latexdraw:type="joinedLines" id="id1647599080">
            <polyline points="160.0,80.0 420.0,80.0 " stroke-width="0.6"
                stroke="black" latexdraw:rotationAngle="0.0"/>
        </g>
        <g latexdraw:type="rectangle" id="id376732092">
            <rect x="160.05" y="60.04999999999998" width="150.9"
                height="19.9" latexdraw:borderPos="outer"
                stroke-width="0.1" stroke="black" fill="url(#pattern376732092)"/>
        </g>
        <g latexdraw:type="rectangle" id="id1203673818">
            <rect x="518.5" y="59.5" width="259.0" height="99.0"
                latexdraw:borderPos="outer" stroke-width="1.0"
                stroke="black" fill="none"/>
        </g>
        <g latexdraw:type="joinedLines" id="id156565856">
            <polyline points="518.0,79.0 778.0,79.0 " stroke-width="0.6"
                stroke="black" latexdraw:rotationAngle="0.0"/>
        </g>
        <g latexdraw:type="joinedLines" id="id392225026">
            <polyline points="778.0,119.0 518.0,119.0 "
                stroke-width="0.6" stroke="black" latexdraw:rotationAngle="0.0"/>
        </g>
        <g latexdraw:type="joinedLines" id="id1132829128">
            <polyline points="518.0,99.0 778.0,99.0 " stroke-width="0.6"
                stroke="black" latexdraw:rotationAngle="0.0"/>
        </g>
        <g latexdraw:type="joinedLines" id="id688157470">
            <polyline points="778.0,139.0 518.0,139.0 "
                stroke-width="0.6" stroke="black" latexdraw:rotationAngle="0.0"/>
        </g>
        <g latexdraw:type="rectangle" id="id1924767888">
            <rect x="518.0500000000002" y="59.05000000000011"
                width="161.89999999999978" height="19.89999999999987"
                latexdraw:borderPos="outer" stroke-width="0.1"
                stroke="black" fill="url(#pattern1924767888)"/>
        </g>
        <g latexdraw:type="rectangle" id="id644074491">
            <rect x="558.05" y="79.04999999999998" width="130.9"
                height="19.9" latexdraw:borderPos="outer"
                stroke-width="0.1" stroke="black" fill="url(#pattern644074491)"/>
        </g>
        <g latexdraw:type="rectangle" id="id1828814164">
            <rect x="619.05" y="99.04999999999998" width="129.9"
                height="19.9" latexdraw:borderPos="outer"
                stroke-width="0.1" stroke="black" fill="url(#pattern1828814164)"/>
        </g>
        <g latexdraw:type="rectangle" id="id1467853210">
            <rect x="680.05" y="119.05" width="97.9" height="19.9"
                latexdraw:borderPos="outer" stroke-width="0.1"
                stroke="black" fill="url(#pattern1467853210)"/>
        </g>
        <g latexdraw:type="rectangle" id="id2087389790">
            <rect x="518.05" y="119.05" width="60.966666666666605"
                height="19.9" latexdraw:borderPos="outer"
                stroke-width="0.1" stroke="black" fill="url(#pattern2087389790)"/>
        </g>
        <g latexdraw:type="rectangle" id="id1701187635">
            <rect x="740.05" y="139.0500000000001" width="37.9"
                height="19.9" latexdraw:borderPos="outer"
                stroke-width="0.1" stroke="black" fill="url(#pattern1701187635)"/>
        </g>
        <g latexdraw:type="rectangle" id="id1783278365">
            <rect x="518.05" y="139.0500000000001"
                width="119.8333333333334" height="19.9"
                latexdraw:borderPos="outer" stroke-width="0.1"
                stroke="black" fill="url(#pattern1783278365)"/>
        </g>
        <g latexdraw:type="rectangle" id="id179899656">
            <rect x="760.05" y="100.05" width="1.0000000000000226"
                height="1.0000000000000226" latexdraw:borderPos="outer"
                stroke-width="0.1" stroke="black" fill="#ff3333"/>
        </g>
        <g latexdraw:type="rectangle" id="id1077798761">
            <rect x="746.05" y="99.04999999999998" width="30.9"
                height="19.9" latexdraw:borderPos="outer"
                stroke-width="0.1" stroke="black" fill="#ff3333"/>
        </g>
        <g latexdraw:type="joinedLines" id="id116081439">
            <polyline points="160.0,100.0 420.0,100.0 "
                stroke-width="0.6" stroke="black" latexdraw:rotationAngle="0.0"/>
        </g>
        <g latexdraw:type="rectangle" id="id1399208537">
            <rect x="160.05" y="80.04999999999998" width="150.9"
                height="19.9" latexdraw:borderPos="outer"
                stroke-width="0.1" stroke="black" fill="url(#pattern1399208537)"/>
        </g>
        <g latexdraw:type="joinedLines" id="id218979087">
            <polyline points="160.0,120.0 420.0,120.0 "
                stroke-width="0.6" stroke="black" latexdraw:rotationAngle="0.0"/>
        </g>
        <g latexdraw:type="rectangle" id="id1869913611">
            <rect x="160.05" y="100.04999999999998" width="150.9"
                height="19.9" latexdraw:borderPos="outer"
                stroke-width="0.1" stroke="black" fill="url(#pattern1869913611)"/>
        </g>
        <g latexdraw:type="joinedLines" id="id1231646700">
            <polyline points="160.0,140.0 420.0,140.0 "
                stroke-width="0.6" stroke="black" latexdraw:rotationAngle="0.0"/>
        </g>
        <g latexdraw:type="rectangle" id="id425147810">
            <rect x="160.05" y="120.04999999999998" width="150.9"
                height="19.900000000000013" latexdraw:borderPos="outer"
                stroke-width="0.1" stroke="black" fill="url(#pattern425147810)"/>
        </g>
        <g latexdraw:type="joinedLines" id="id1770669383">
            <polyline points="160.0,160.0 420.0,160.0 "
                stroke-width="0.6" stroke="black" latexdraw:rotationAngle="0.0"/>
        </g>
        <g latexdraw:type="rectangle" id="id1479566421">
            <rect x="160.05" y="140.05000000000013" width="150.9"
                height="19.9" latexdraw:borderPos="outer"
                stroke-width="0.1" stroke="black" fill="url(#pattern1479566421)"/>
        </g>
        <g latexdraw:type="rectangle" id="id2057491312">
            <rect x="557.05" y="79.05000000000011" width="162.9"
                height="19.9" latexdraw:borderPos="outer"
                stroke-width="0.1" stroke="black" fill="url(#pattern2057491312)"/>
        </g>
        <g latexdraw:type="rectangle" id="id235454670">
            <rect x="618.05" y="99.0500000000001" width="158.9"
                height="19.9" latexdraw:borderPos="outer"
                stroke-width="0.1" stroke="black" fill="url(#pattern235454670)"/>
        </g>
        <g latexdraw:type="joinedLines" id="id1801346894">
            <polyline points="440.0,100.0 480.0,100.0 "
                stroke-width="2.0" stroke="black"
                latexdraw:rotationAngle="0.0" marker-end="url(#arrow1-1801346894)"/>
        </g>
        <g latexdraw:type="text" id="id542776729" fill="black" latexdraw:position="bl">
            <text x="53.33333333333363" y="116.66666666666664">Positions</text>
        </g>
        <g latexdraw:type="text" id="id627001601" fill="black" latexdraw:position="bl">
            <text x="148.33333333333314" y="78.33333333333333">0</text>
        </g>
        <g latexdraw:type="text" id="id887079329" fill="black" latexdraw:position="bl">
            <text x="147.49999999999997" y="96.6666666666668">2</text>
        </g>
        <g latexdraw:type="text" id="id1860337078" fill="black" latexdraw:position="bl">
            <text x="146.6666666666665" y="114.16666666666666">4</text>
        </g>
        <g latexdraw:type="text" id="id767125442" fill="black" latexdraw:position="bl">
            <text x="147.49999999999997" y="135.00000000000028">6</text>
        </g>
        <g latexdraw:type="text" id="id821024843" fill="black" latexdraw:position="bl">
            <text x="146.66666666666634" y="153.33333333333317">8</text>
        </g>
    </g>
    <defs>
        <pattern latexdraw:type="crosshatch*"
            latexdraw:rotationAngle="0.0"
            latexdraw:size="7.055555555555555"
            patternUnits="userSpaceOnUse" id="pattern376732092" x="0"
            y="0" width="311" height="79">
            <rect width="311" height="79" fill="#cccccc" stroke="none"/>
            <g stroke="#999999" stroke-width="0.5" stroke-dasharray="none">
                <path d="M 160.0 59.999999999999986 L 160.0 79.99999999999999 M 167.55555555555554 59.999999999999986 L 167.55555555555554 79.99999999999999 M 175.1111111111111 59.999999999999986 L 175.1111111111111 79.99999999999999 M 182.66666666666663 59.999999999999986 L 182.66666666666663 79.99999999999999 M 190.22222222222217 59.999999999999986 L 190.22222222222217 79.99999999999999 M 197.77777777777771 59.999999999999986 L 197.77777777777771 79.99999999999999 M 205.33333333333326 59.999999999999986 L 205.33333333333326 79.99999999999999 M 212.8888888888888 59.999999999999986 L 212.8888888888888 79.99999999999999 M 220.44444444444434 59.999999999999986 L 220.44444444444434 79.99999999999999 M 227.9999999999999 59.999999999999986 L 227.9999999999999 79.99999999999999 M 235.55555555555543 59.999999999999986 L 235.55555555555543 79.99999999999999 M 243.11111111111097 59.999999999999986 L 243.11111111111097 79.99999999999999 M 250.66666666666652 59.999999999999986 L 250.66666666666652 79.99999999999999 M 258.22222222222206 59.999999999999986 L 258.22222222222206 79.99999999999999 M 265.7777777777776 59.999999999999986 L 265.7777777777776 79.99999999999999 M 273.33333333333314 59.999999999999986 L 273.33333333333314 79.99999999999999 M 280.8888888888887 59.999999999999986 L 280.8888888888887 79.99999999999999 M 288.44444444444423 59.999999999999986 L 288.44444444444423 79.99999999999999 M 295.9999999999998 59.999999999999986 L 295.9999999999998 79.99999999999999 M 303.5555555555553 59.999999999999986 L 303.5555555555553 79.99999999999999 M 160.0 59.999999999999986 L 311.0 59.999999999999986 M 160.0 67.55555555555554 L 311.0 67.55555555555554 M 160.0 75.1111111111111 L 311.0 75.1111111111111 "/>
            </g>
        </pattern>
        <pattern latexdraw:type="crosshatch*"
            latexdraw:rotationAngle="0.0"
            latexdraw:size="7.055555555555555"
            patternUnits="userSpaceOnUse" id="pattern1924767888" x="0"
            y="0" width="680" height="78">
            <rect width="680" height="78" fill="#cccccc" stroke="none"/>
            <g stroke="#999999" stroke-width="0.5" stroke-dasharray="none">
                <path d="M 518.0000000000002 59.000000000000114 L 518.0000000000002 78.99999999999999 M 525.5555555555558 59.000000000000114 L 525.5555555555558 78.99999999999999 M 533.1111111111113 59.000000000000114 L 533.1111111111113 78.99999999999999 M 540.6666666666669 59.000000000000114 L 540.6666666666669 78.99999999999999 M 548.2222222222224 59.000000000000114 L 548.2222222222224 78.99999999999999 M 555.7777777777779 59.000000000000114 L 555.7777777777779 78.99999999999999 M 563.3333333333335 59.000000000000114 L 563.3333333333335 78.99999999999999 M 570.888888888889 59.000000000000114 L 570.888888888889 78.99999999999999 M 578.4444444444446 59.000000000000114 L 578.4444444444446 78.99999999999999 M 586.0000000000001 59.000000000000114 L 586.0000000000001 78.99999999999999 M 593.5555555555557 59.000000000000114 L 593.5555555555557 78.99999999999999 M 601.1111111111112 59.000000000000114 L 601.1111111111112 78.99999999999999 M 608.6666666666667 59.000000000000114 L 608.6666666666667 78.99999999999999 M 616.2222222222223 59.000000000000114 L 616.2222222222223 78.99999999999999 M 623.7777777777778 59.000000000000114 L 623.7777777777778 78.99999999999999 M 631.3333333333334 59.000000000000114 L 631.3333333333334 78.99999999999999 M 638.8888888888889 59.000000000000114 L 638.8888888888889 78.99999999999999 M 646.4444444444445 59.000000000000114 L 646.4444444444445 78.99999999999999 M 654.0 59.000000000000114 L 654.0 78.99999999999999 M 661.5555555555555 59.000000000000114 L 661.5555555555555 78.99999999999999 M 669.1111111111111 59.000000000000114 L 669.1111111111111 78.99999999999999 M 676.6666666666666 59.000000000000114 L 676.6666666666666 78.99999999999999 M 518.0000000000002 59.000000000000114 L 680.0 59.000000000000114 M 518.0000000000002 66.55555555555567 L 680.0 66.55555555555567 M 518.0000000000002 74.11111111111123 L 680.0 74.11111111111123 "/>
            </g>
        </pattern>
        <pattern latexdraw:type="crosshatch*"
            latexdraw:rotationAngle="0.0"
            latexdraw:size="7.055555555555555"
            patternUnits="userSpaceOnUse" id="pattern644074491" x="0"
            y="0" width="689" height="98">
            <rect width="689" height="98" fill="#cccccc" stroke="none"/>
            <g stroke="#999999" stroke-width="0.5" stroke-dasharray="none">
                <path d="M 558.0 78.99999999999999 L 558.0 98.99999999999999 M 565.5555555555555 78.99999999999999 L 565.5555555555555 98.99999999999999 M 573.1111111111111 78.99999999999999 L 573.1111111111111 98.99999999999999 M 580.6666666666666 78.99999999999999 L 580.6666666666666 98.99999999999999 M 588.2222222222222 78.99999999999999 L 588.2222222222222 98.99999999999999 M 595.7777777777777 78.99999999999999 L 595.7777777777777 98.99999999999999 M 603.3333333333333 78.99999999999999 L 603.3333333333333 98.99999999999999 M 610.8888888888888 78.99999999999999 L 610.8888888888888 98.99999999999999 M 618.4444444444443 78.99999999999999 L 618.4444444444443 98.99999999999999 M 625.9999999999999 78.99999999999999 L 625.9999999999999 98.99999999999999 M 633.5555555555554 78.99999999999999 L 633.5555555555554 98.99999999999999 M 641.111111111111 78.99999999999999 L 641.111111111111 98.99999999999999 M 648.6666666666665 78.99999999999999 L 648.6666666666665 98.99999999999999 M 656.2222222222221 78.99999999999999 L 656.2222222222221 98.99999999999999 M 663.7777777777776 78.99999999999999 L 663.7777777777776 98.99999999999999 M 671.3333333333331 78.99999999999999 L 671.3333333333331 98.99999999999999 M 678.8888888888887 78.99999999999999 L 678.8888888888887 98.99999999999999 M 686.4444444444442 78.99999999999999 L 686.4444444444442 98.99999999999999 M 558.0 78.99999999999999 L 689.0 78.99999999999999 M 558.0 86.55555555555554 L 689.0 86.55555555555554 M 558.0 94.1111111111111 L 689.0 94.1111111111111 "/>
            </g>
        </pattern>
        <pattern latexdraw:type="crosshatch*"
            latexdraw:rotationAngle="0.0"
            latexdraw:size="7.055555555555555"
            patternUnits="userSpaceOnUse" id="pattern1828814164" x="0"
            y="0" width="749" height="118">
            <rect width="749" height="118" fill="#cccccc" stroke="none"/>
            <g stroke="#999999" stroke-width="0.5" stroke-dasharray="none">
                <path d="M 619.0 98.99999999999999 L 619.0 118.99999999999999 M 626.5555555555555 98.99999999999999 L 626.5555555555555 118.99999999999999 M 634.1111111111111 98.99999999999999 L 634.1111111111111 118.99999999999999 M 641.6666666666666 98.99999999999999 L 641.6666666666666 118.99999999999999 M 649.2222222222222 98.99999999999999 L 649.2222222222222 118.99999999999999 M 656.7777777777777 98.99999999999999 L 656.7777777777777 118.99999999999999 M 664.3333333333333 98.99999999999999 L 664.3333333333333 118.99999999999999 M 671.8888888888888 98.99999999999999 L 671.8888888888888 118.99999999999999 M 679.4444444444443 98.99999999999999 L 679.4444444444443 118.99999999999999 M 686.9999999999999 98.99999999999999 L 686.9999999999999 118.99999999999999 M 694.5555555555554 98.99999999999999 L 694.5555555555554 118.99999999999999 M 702.111111111111 98.99999999999999 L 702.111111111111 118.99999999999999 M 709.6666666666665 98.99999999999999 L 709.6666666666665 118.99999999999999 M 717.2222222222221 98.99999999999999 L 717.2222222222221 118.99999999999999 M 724.7777777777776 98.99999999999999 L 724.7777777777776 118.99999999999999 M 732.3333333333331 98.99999999999999 L 732.3333333333331 118.99999999999999 M 739.8888888888887 98.99999999999999 L 739.8888888888887 118.99999999999999 M 747.4444444444442 98.99999999999999 L 747.4444444444442 118.99999999999999 M 619.0 98.99999999999999 L 749.0 98.99999999999999 M 619.0 106.55555555555554 L 749.0 106.55555555555554 M 619.0 114.1111111111111 L 749.0 114.1111111111111 "/>
            </g>
        </pattern>
        <pattern latexdraw:type="crosshatch*"
            latexdraw:rotationAngle="0.0"
            latexdraw:size="7.055555555555555"
            patternUnits="userSpaceOnUse" id="pattern1467853210" x="0"
            y="0" width="778" height="139">
            <rect width="778" height="139" fill="#cccccc" stroke="none"/>
            <g stroke="#999999" stroke-width="0.5" stroke-dasharray="none">
                <path d="M 680.0 119.0 L 680.0 139.0 M 687.5555555555555 119.0 L 687.5555555555555 139.0 M 695.1111111111111 119.0 L 695.1111111111111 139.0 M 702.6666666666666 119.0 L 702.6666666666666 139.0 M 710.2222222222222 119.0 L 710.2222222222222 139.0 M 717.7777777777777 119.0 L 717.7777777777777 139.0 M 725.3333333333333 119.0 L 725.3333333333333 139.0 M 732.8888888888888 119.0 L 732.8888888888888 139.0 M 740.4444444444443 119.0 L 740.4444444444443 139.0 M 747.9999999999999 119.0 L 747.9999999999999 139.0 M 755.5555555555554 119.0 L 755.5555555555554 139.0 M 763.111111111111 119.0 L 763.111111111111 139.0 M 770.6666666666665 119.0 L 770.6666666666665 139.0 M 680.0 119.0 L 778.0 119.0 M 680.0 126.55555555555556 L 778.0 126.55555555555556 M 680.0 134.11111111111111 L 778.0 134.11111111111111 "/>
            </g>
        </pattern>
        <pattern latexdraw:type="crosshatch*"
            latexdraw:rotationAngle="0.0"
            latexdraw:size="7.055555555555555"
            patternUnits="userSpaceOnUse" id="pattern2087389790" x="0"
            y="0" width="579" height="139">
            <rect width="579" height="139" fill="#cccccc" stroke="none"/>
            <g stroke="#999999" stroke-width="0.5" stroke-dasharray="none">
                <path d="M 518.0 119.0 L 518.0 139.0 M 525.5555555555555 119.0 L 525.5555555555555 139.0 M 533.1111111111111 119.0 L 533.1111111111111 139.0 M 540.6666666666666 119.0 L 540.6666666666666 139.0 M 548.2222222222222 119.0 L 548.2222222222222 139.0 M 555.7777777777777 119.0 L 555.7777777777777 139.0 M 563.3333333333333 119.0 L 563.3333333333333 139.0 M 570.8888888888888 119.0 L 570.8888888888888 139.0 M 578.4444444444443 119.0 L 578.4444444444443 139.0 M 518.0 119.0 L 579.0666666666666 119.0 M 518.0 126.55555555555556 L 579.0666666666666 126.55555555555556 M 518.0 134.11111111111111 L 579.0666666666666 134.11111111111111 "/>
            </g>
        </pattern>
        <pattern latexdraw:type="crosshatch*"
            latexdraw:rotationAngle="0.0"
            latexdraw:size="7.055555555555555"
            patternUnits="userSpaceOnUse" id="pattern1701187635" x="0"
            y="0" width="778" height="159">
            <rect width="778" height="159" fill="#cccccc" stroke="none"/>
            <g stroke="#999999" stroke-width="0.5" stroke-dasharray="none">
                <path d="M 740.0 139.00000000000009 L 740.0 159.00000000000009 M 747.5555555555555 139.00000000000009 L 747.5555555555555 159.00000000000009 M 755.1111111111111 139.00000000000009 L 755.1111111111111 159.00000000000009 M 762.6666666666666 139.00000000000009 L 762.6666666666666 159.00000000000009 M 770.2222222222222 139.00000000000009 L 770.2222222222222 159.00000000000009 M 777.7777777777777 139.00000000000009 L 777.7777777777777 159.00000000000009 M 740.0 139.00000000000009 L 778.0 139.00000000000009 M 740.0 146.55555555555563 L 778.0 146.55555555555563 M 740.0 154.11111111111117 L 778.0 154.11111111111117 "/>
            </g>
        </pattern>
        <pattern latexdraw:type="crosshatch*"
            latexdraw:rotationAngle="0.0"
            latexdraw:size="7.055555555555555"
            patternUnits="userSpaceOnUse" id="pattern1783278365" x="0"
            y="0" width="637" height="159">
            <rect width="637" height="159" fill="#cccccc" stroke="none"/>
            <g stroke="#999999" stroke-width="0.5" stroke-dasharray="none">
                <path d="M 518.0 139.00000000000009 L 518.0 159.00000000000009 M 525.5555555555555 139.00000000000009 L 525.5555555555555 159.00000000000009 M 533.1111111111111 139.00000000000009 L 533.1111111111111 159.00000000000009 M 540.6666666666666 139.00000000000009 L 540.6666666666666 159.00000000000009 M 548.2222222222222 139.00000000000009 L 548.2222222222222 159.00000000000009 M 555.7777777777777 139.00000000000009 L 555.7777777777777 159.00000000000009 M 563.3333333333333 139.00000000000009 L 563.3333333333333 159.00000000000009 M 570.8888888888888 139.00000000000009 L 570.8888888888888 159.00000000000009 M 578.4444444444443 139.00000000000009 L 578.4444444444443 159.00000000000009 M 585.9999999999999 139.00000000000009 L 585.9999999999999 159.00000000000009 M 593.5555555555554 139.00000000000009 L 593.5555555555554 159.00000000000009 M 601.111111111111 139.00000000000009 L 601.111111111111 159.00000000000009 M 608.6666666666665 139.00000000000009 L 608.6666666666665 159.00000000000009 M 616.2222222222221 139.00000000000009 L 616.2222222222221 159.00000000000009 M 623.7777777777776 139.00000000000009 L 623.7777777777776 159.00000000000009 M 631.3333333333331 139.00000000000009 L 631.3333333333331 159.00000000000009 M 518.0 139.00000000000009 L 637.9333333333334 139.00000000000009 M 518.0 146.55555555555563 L 637.9333333333334 146.55555555555563 M 518.0 154.11111111111117 L 637.9333333333334 154.11111111111117 "/>
            </g>
        </pattern>
        <pattern latexdraw:type="crosshatch*"
            latexdraw:rotationAngle="0.0"
            latexdraw:size="7.055555555555555"
            patternUnits="userSpaceOnUse" id="pattern1399208537" x="0"
            y="0" width="311" height="99">
            <rect width="311" height="99" fill="#cccccc" stroke="none"/>
            <g stroke="#999999" stroke-width="0.5" stroke-dasharray="none">
                <path d="M 160.0 79.99999999999999 L 160.0 99.99999999999999 M 167.55555555555554 79.99999999999999 L 167.55555555555554 99.99999999999999 M 175.1111111111111 79.99999999999999 L 175.1111111111111 99.99999999999999 M 182.66666666666663 79.99999999999999 L 182.66666666666663 99.99999999999999 M 190.22222222222217 79.99999999999999 L 190.22222222222217 99.99999999999999 M 197.77777777777771 79.99999999999999 L 197.77777777777771 99.99999999999999 M 205.33333333333326 79.99999999999999 L 205.33333333333326 99.99999999999999 M 212.8888888888888 79.99999999999999 L 212.8888888888888 99.99999999999999 M 220.44444444444434 79.99999999999999 L 220.44444444444434 99.99999999999999 M 227.9999999999999 79.99999999999999 L 227.9999999999999 99.99999999999999 M 235.55555555555543 79.99999999999999 L 235.55555555555543 99.99999999999999 M 243.11111111111097 79.99999999999999 L 243.11111111111097 99.99999999999999 M 250.66666666666652 79.99999999999999 L 250.66666666666652 99.99999999999999 M 258.22222222222206 79.99999999999999 L 258.22222222222206 99.99999999999999 M 265.7777777777776 79.99999999999999 L 265.7777777777776 99.99999999999999 M 273.33333333333314 79.99999999999999 L 273.33333333333314 99.99999999999999 M 280.8888888888887 79.99999999999999 L 280.8888888888887 99.99999999999999 M 288.44444444444423 79.99999999999999 L 288.44444444444423 99.99999999999999 M 295.9999999999998 79.99999999999999 L 295.9999999999998 99.99999999999999 M 303.5555555555553 79.99999999999999 L 303.5555555555553 99.99999999999999 M 160.0 79.99999999999999 L 311.0 79.99999999999999 M 160.0 87.55555555555554 L 311.0 87.55555555555554 M 160.0 95.1111111111111 L 311.0 95.1111111111111 "/>
            </g>
        </pattern>
        <pattern latexdraw:type="crosshatch*"
            latexdraw:rotationAngle="0.0"
            latexdraw:size="7.055555555555555"
            patternUnits="userSpaceOnUse" id="pattern1869913611" x="0"
            y="0" width="311" height="119">
            <rect width="311" height="119" fill="#cccccc" stroke="none"/>
            <g stroke="#999999" stroke-width="0.5" stroke-dasharray="none">
                <path d="M 160.0 99.99999999999999 L 160.0 119.99999999999999 M 167.55555555555554 99.99999999999999 L 167.55555555555554 119.99999999999999 M 175.1111111111111 99.99999999999999 L 175.1111111111111 119.99999999999999 M 182.66666666666663 99.99999999999999 L 182.66666666666663 119.99999999999999 M 190.22222222222217 99.99999999999999 L 190.22222222222217 119.99999999999999 M 197.77777777777771 99.99999999999999 L 197.77777777777771 119.99999999999999 M 205.33333333333326 99.99999999999999 L 205.33333333333326 119.99999999999999 M 212.8888888888888 99.99999999999999 L 212.8888888888888 119.99999999999999 M 220.44444444444434 99.99999999999999 L 220.44444444444434 119.99999999999999 M 227.9999999999999 99.99999999999999 L 227.9999999999999 119.99999999999999 M 235.55555555555543 99.99999999999999 L 235.55555555555543 119.99999999999999 M 243.11111111111097 99.99999999999999 L 243.11111111111097 119.99999999999999 M 250.66666666666652 99.99999999999999 L 250.66666666666652 119.99999999999999 M 258.22222222222206 99.99999999999999 L 258.22222222222206 119.99999999999999 M 265.7777777777776 99.99999999999999 L 265.7777777777776 119.99999999999999 M 273.33333333333314 99.99999999999999 L 273.33333333333314 119.99999999999999 M 280.8888888888887 99.99999999999999 L 280.8888888888887 119.99999999999999 M 288.44444444444423 99.99999999999999 L 288.44444444444423 119.99999999999999 M 295.9999999999998 99.99999999999999 L 295.9999999999998 119.99999999999999 M 303.5555555555553 99.99999999999999 L 303.5555555555553 119.99999999999999 M 160.0 99.99999999999999 L 311.0 99.99999999999999 M 160.0 107.55555555555554 L 311.0 107.55555555555554 M 160.0 115.1111111111111 L 311.0 115.1111111111111 "/>
            </g>
        </pattern>
        <pattern latexdraw:type="crosshatch*"
            latexdraw:rotationAngle="0.0"
            latexdraw:size="7.055555555555555"
            patternUnits="userSpaceOnUse" id="pattern425147810" x="0"
            y="0" width="311" height="140">
            <rect width="311" height="140" fill="#cccccc" stroke="none"/>
            <g stroke="#999999" stroke-width="0.5" stroke-dasharray="none">
                <path d="M 160.0 119.99999999999999 L 160.0 140.0 M 167.55555555555554 119.99999999999999 L 167.55555555555554 140.0 M 175.1111111111111 119.99999999999999 L 175.1111111111111 140.0 M 182.66666666666663 119.99999999999999 L 182.66666666666663 140.0 M 190.22222222222217 119.99999999999999 L 190.22222222222217 140.0 M 197.77777777777771 119.99999999999999 L 197.77777777777771 140.0 M 205.33333333333326 119.99999999999999 L 205.33333333333326 140.0 M 212.8888888888888 119.99999999999999 L 212.8888888888888 140.0 M 220.44444444444434 119.99999999999999 L 220.44444444444434 140.0 M 227.9999999999999 119.99999999999999 L 227.9999999999999 140.0 M 235.55555555555543 119.99999999999999 L 235.55555555555543 140.0 M 243.11111111111097 119.99999999999999 L 243.11111111111097 140.0 M 250.66666666666652 119.99999999999999 L 250.66666666666652 140.0 M 258.22222222222206 119.99999999999999 L 258.22222222222206 140.0 M 265.7777777777776 119.99999999999999 L 265.7777777777776 140.0 M 273.33333333333314 119.99999999999999 L 273.33333333333314 140.0 M 280.8888888888887 119.99999999999999 L 280.8888888888887 140.0 M 288.44444444444423 119.99999999999999 L 288.44444444444423 140.0 M 295.9999999999998 119.99999999999999 L 295.9999999999998 140.0 M 303.5555555555553 119.99999999999999 L 303.5555555555553 140.0 M 160.0 119.99999999999999 L 311.0 119.99999999999999 M 160.0 127.55555555555554 L 311.0 127.55555555555554 M 160.0 135.1111111111111 L 311.0 135.1111111111111 "/>
            </g>
        </pattern>
        <pattern latexdraw:type="crosshatch*"
            latexdraw:rotationAngle="0.0"
            latexdraw:size="7.055555555555555"
            patternUnits="userSpaceOnUse" id="pattern1479566421" x="0"
            y="0" width="311" height="160">
            <rect width="311" height="160" fill="#cccccc" stroke="none"/>
            <g stroke="#999999" stroke-width="0.5" stroke-dasharray="none">
                <path d="M 160.0 140.0000000000001 L 160.0 160.0000000000001 M 167.55555555555554 140.0000000000001 L 167.55555555555554 160.0000000000001 M 175.1111111111111 140.0000000000001 L 175.1111111111111 160.0000000000001 M 182.66666666666663 140.0000000000001 L 182.66666666666663 160.0000000000001 M 190.22222222222217 140.0000000000001 L 190.22222222222217 160.0000000000001 M 197.77777777777771 140.0000000000001 L 197.77777777777771 160.0000000000001 M 205.33333333333326 140.0000000000001 L 205.33333333333326 160.0000000000001 M 212.8888888888888 140.0000000000001 L 212.8888888888888 160.0000000000001 M 220.44444444444434 140.0000000000001 L 220.44444444444434 160.0000000000001 M 227.9999999999999 140.0000000000001 L 227.9999999999999 160.0000000000001 M 235.55555555555543 140.0000000000001 L 235.55555555555543 160.0000000000001 M 243.11111111111097 140.0000000000001 L 243.11111111111097 160.0000000000001 M 250.66666666666652 140.0000000000001 L 250.66666666666652 160.0000000000001 M 258.22222222222206 140.0000000000001 L 258.22222222222206 160.0000000000001 M 265.7777777777776 140.0000000000001 L 265.7777777777776 160.0000000000001 M 273.33333333333314 140.0000000000001 L 273.33333333333314 160.0000000000001 M 280.8888888888887 140.0000000000001 L 280.8888888888887 160.0000000000001 M 288.44444444444423 140.0000000000001 L 288.44444444444423 160.0000000000001 M 295.9999999999998 140.0000000000001 L 295.9999999999998 160.0000000000001 M 303.5555555555553 140.0000000000001 L 303.5555555555553 160.0000000000001 M 160.0 140.0000000000001 L 311.0 140.0000000000001 M 160.0 147.55555555555566 L 311.0 147.55555555555566 M 160.0 155.1111111111112 L 311.0 155.1111111111112 "/>
            </g>
        </pattern>
        <pattern latexdraw:type="crosshatch*"
            latexdraw:rotationAngle="0.0"
            latexdraw:size="7.055555555555555"
            patternUnits="userSpaceOnUse" id="pattern2057491312" x="0"
            y="0" width="720" height="99">
            <rect width="720" height="99" fill="#cccccc" stroke="none"/>
            <g stroke="#999999" stroke-width="0.5" stroke-dasharray="none">
                <path d="M 557.0 79.00000000000011 L 557.0 99.00000000000011 M 564.5555555555555 79.00000000000011 L 564.5555555555555 99.00000000000011 M 572.1111111111111 79.00000000000011 L 572.1111111111111 99.00000000000011 M 579.6666666666666 79.00000000000011 L 579.6666666666666 99.00000000000011 M 587.2222222222222 79.00000000000011 L 587.2222222222222 99.00000000000011 M 594.7777777777777 79.00000000000011 L 594.7777777777777 99.00000000000011 M 602.3333333333333 79.00000000000011 L 602.3333333333333 99.00000000000011 M 609.8888888888888 79.00000000000011 L 609.8888888888888 99.00000000000011 M 617.4444444444443 79.00000000000011 L 617.4444444444443 99.00000000000011 M 624.9999999999999 79.00000000000011 L 624.9999999999999 99.00000000000011 M 632.5555555555554 79.00000000000011 L 632.5555555555554 99.00000000000011 M 640.111111111111 79.00000000000011 L 640.111111111111 99.00000000000011 M 647.6666666666665 79.00000000000011 L 647.6666666666665 99.00000000000011 M 655.2222222222221 79.00000000000011 L 655.2222222222221 99.00000000000011 M 662.7777777777776 79.00000000000011 L 662.7777777777776 99.00000000000011 M 670.3333333333331 79.00000000000011 L 670.3333333333331 99.00000000000011 M 677.8888888888887 79.00000000000011 L 677.8888888888887 99.00000000000011 M 685.4444444444442 79.00000000000011 L 685.4444444444442 99.00000000000011 M 692.9999999999998 79.00000000000011 L 692.9999999999998 99.00000000000011 M 700.5555555555553 79.00000000000011 L 700.5555555555553 99.00000000000011 M 708.1111111111109 79.00000000000011 L 708.1111111111109 99.00000000000011 M 715.6666666666664 79.00000000000011 L 715.6666666666664 99.00000000000011 M 557.0 79.00000000000011 L 720.0 79.00000000000011 M 557.0 86.55555555555567 L 720.0 86.55555555555567 M 557.0 94.11111111111123 L 720.0 94.11111111111123 "/>
            </g>
        </pattern>
        <pattern latexdraw:type="crosshatch*"
            latexdraw:rotationAngle="0.0"
            latexdraw:size="7.055555555555555"
            patternUnits="userSpaceOnUse" id="pattern235454670" x="0"
            y="0" width="777" height="119">
            <rect width="777" height="119" fill="#cccccc" stroke="none"/>
            <g stroke="#999999" stroke-width="0.5" stroke-dasharray="none">
                <path d="M 618.0 99.0000000000001 L 618.0 119.0000000000001 M 625.5555555555555 99.0000000000001 L 625.5555555555555 119.0000000000001 M 633.1111111111111 99.0000000000001 L 633.1111111111111 119.0000000000001 M 640.6666666666666 99.0000000000001 L 640.6666666666666 119.0000000000001 M 648.2222222222222 99.0000000000001 L 648.2222222222222 119.0000000000001 M 655.7777777777777 99.0000000000001 L 655.7777777777777 119.0000000000001 M 663.3333333333333 99.0000000000001 L 663.3333333333333 119.0000000000001 M 670.8888888888888 99.0000000000001 L 670.8888888888888 119.0000000000001 M 678.4444444444443 99.0000000000001 L 678.4444444444443 119.0000000000001 M 685.9999999999999 99.0000000000001 L 685.9999999999999 119.0000000000001 M 693.5555555555554 99.0000000000001 L 693.5555555555554 119.0000000000001 M 701.111111111111 99.0000000000001 L 701.111111111111 119.0000000000001 M 708.6666666666665 99.0000000000001 L 708.6666666666665 119.0000000000001 M 716.2222222222221 99.0000000000001 L 716.2222222222221 119.0000000000001 M 723.7777777777776 99.0000000000001 L 723.7777777777776 119.0000000000001 M 731.3333333333331 99.0000000000001 L 731.3333333333331 119.0000000000001 M 738.8888888888887 99.0000000000001 L 738.8888888888887 119.0000000000001 M 746.4444444444442 99.0000000000001 L 746.4444444444442 119.0000000000001 M 753.9999999999998 99.0000000000001 L 753.9999999999998 119.0000000000001 M 761.5555555555553 99.0000000000001 L 761.5555555555553 119.0000000000001 M 769.1111111111109 99.0000000000001 L 769.1111111111109 119.0000000000001 M 776.6666666666664 99.0000000000001 L 776.6666666666664 119.0000000000001 M 618.0 99.0000000000001 L 777.0 99.0000000000001 M 618.0 106.55555555555566 L 777.0 106.55555555555566 M 618.0 114.11111111111121 L 777.0 114.11111111111121 "/>
            </g>
        </pattern>
        <marker overflow="visible" orient="auto" id="arrow1-1801346894">
            <path
                d="M 0.0 0.0 L -4.652083333333334 1.6614583333333335 L -4.652083333333334 0.0 L -4.652083333333334 -1.6614583333333335 z "
                latexdraw:arrSizeNum="2.0" fill="black"/>
        </marker>
    </defs>
    <metadata>
        <latexdraw:metadata>
            <latexdraw:latexIncludes/>
            <latexdraw:displayXScale>true</latexdraw:displayXScale>
            <latexdraw:displayYScale>true</latexdraw:displayYScale>
            <latexdraw:unit>CM</latexdraw:unit>
            <latexdraw:zoom>1.0</latexdraw:zoom>
            <latexdraw:magneticGridStyle>CUSTOMISED</latexdraw:magneticGridStyle>
            <latexdraw:gridGap>20</latexdraw:gridGap>
            <latexdraw:magneticGrid>true</latexdraw:magneticGrid>
            <latexdraw:version>3.3.8</latexdraw:version>
            <latexdraw:size>
                <latexdraw:width>1920</latexdraw:width>
                <latexdraw:height>804</latexdraw:height>
            </latexdraw:size>
            <latexdraw:position>
                <latexdraw:x>0.0</latexdraw:x>
                <latexdraw:y>23.0</latexdraw:y>
            </latexdraw:position>
        </latexdraw:metadata>
    </metadata>
</svg>
