<?xml version="1.0" encoding="UTF-8"?><svg xmlns="http://www.w3.org/2000/svg" xmlns:latexdraw="http://latexdraw.sourceforge.net/namespaces/latexdraw" version="1.1" baseProfile="full">
    <g>
        <g latexdraw:type="joinedLines" id="id1731741884">
            <polyline points="533.3333333333333,99.99999999999999 566.6666666666666,99.99999999999999 " stroke-width="2.0" stroke="black" latexdraw:rotationAngle="0.0" marker-end="url(#arrow1-1731741884)"/>
        </g>
        <g latexdraw:type="rectangle" id="id1479883454">
            <rect x="600.5" y="59.666666666666515" width="259.0" height="99.0" latexdraw:borderPos="outer" stroke-width="1.0" stroke="black" fill="none"/>
        </g>
        <g latexdraw:type="joinedLines" id="id938466702">
            <polyline points="600.0,79.16666666666652 860.0,79.16666666666652 " stroke-width="0.6" stroke="black" latexdraw:rotationAngle="0.0"/>
        </g>
        <g latexdraw:type="joinedLines" id="id1171426417">
            <polyline points="860.0,119.16666666666652 600.0,119.16666666666652 " stroke-width="0.6" stroke="black" latexdraw:rotationAngle="0.0"/>
        </g>
        <g latexdraw:type="joinedLines" id="id642989229">
            <polyline points="860.0,139.16666666666652 600.0,139.16666666666652 " stroke-width="0.6" stroke="black" latexdraw:rotationAngle="0.0"/>
        </g>
        <g latexdraw:type="rectangle" id="id1583153968">
            <rect x="600.05" y="59.216666666666725" width="99.9" height="19.9" latexdraw:borderPos="outer" stroke-width="0.1" stroke="black" fill="url(#pattern1583153968)"/>
        </g>
        <g latexdraw:type="rectangle" id="id1117085867">
            <rect x="700.05" y="59.216666666666725" width="99.9" height="19.9" latexdraw:borderPos="outer" stroke-width="0.1" stroke="black" fill="url(#pattern1117085867)"/>
        </g>
        <g latexdraw:type="rectangle" id="id1712738571">
            <rect x="600.05" y="119.2166666666665" width="99.9" height="19.900000000000013" latexdraw:borderPos="outer" stroke-width="0.1" stroke="black" fill="url(#pattern1712738571)"/>
        </g>
        <g latexdraw:type="rectangle" id="id1188660959">
            <rect x="700.05" y="119.2166666666665" width="99.9" height="19.900000000000013" latexdraw:borderPos="outer" stroke-width="0.1" stroke="black" fill="url(#pattern1188660959)"/>
        </g>
        <g latexdraw:type="joinedLines" id="id321201943">
            <polyline points="860.0,99.16666666666652 600.0,99.16666666666652 " stroke-width="0.6" stroke="black" latexdraw:rotationAngle="0.0"/>
        </g>
        <g latexdraw:type="rectangle" id="id325181797">
            <rect x="240.5" y="59.666666666666515" width="259.0" height="99.0" latexdraw:borderPos="outer" stroke-width="1.0" stroke="black" fill="none"/>
        </g>
        <g latexdraw:type="joinedLines" id="id892783016">
            <polyline points="240.0,79.16666666666652 500.0,79.16666666666652 " stroke-width="0.6" stroke="black" latexdraw:rotationAngle="0.0"/>
        </g>
        <g latexdraw:type="joinedLines" id="id1633271072">
            <polyline points="500.0,119.16666666666652 240.0,119.16666666666652 " stroke-width="0.6" stroke="black" latexdraw:rotationAngle="0.0"/>
        </g>
        <g latexdraw:type="joinedLines" id="id1734558369">
            <polyline points="500.0,139.16666666666652 240.0,139.16666666666652 " stroke-width="0.6" stroke="black" latexdraw:rotationAngle="0.0"/>
        </g>
        <g latexdraw:type="rectangle" id="id1323086072">
            <rect x="240.05" y="59.216666666666725" width="99.9" height="19.9" latexdraw:borderPos="outer" stroke-width="0.1" stroke="black" fill="url(#pattern1323086072)"/>
        </g>
        <g latexdraw:type="rectangle" id="id169165964">
            <rect x="340.05" y="59.216666666666725" width="99.9" height="19.9" latexdraw:borderPos="outer" stroke-width="0.1" stroke="black" fill="url(#pattern169165964)"/>
        </g>
        <g latexdraw:type="rectangle" id="id1651772138">
            <rect x="240.05" y="79.2166666666665" width="99.9" height="19.9" latexdraw:borderPos="outer" stroke-width="0.1" stroke="black" fill="url(#pattern1651772138)"/>
        </g>
        <g latexdraw:type="rectangle" id="id1218413567">
            <rect x="340.05" y="79.2166666666665" width="99.9" height="19.9" latexdraw:borderPos="outer" stroke-width="0.1" stroke="black" fill="url(#pattern1218413567)"/>
        </g>
        <g latexdraw:type="joinedLines" id="id156829974">
            <polyline points="500.0,99.16666666666652 240.0,99.16666666666652 " stroke-width="0.6" stroke="black" latexdraw:rotationAngle="0.0"/>
        </g>
    </g>
    <defs>
        <marker overflow="visible" orient="auto" id="arrow1-1731741884">
            <path d="M 0.0 0.0 L -4.652083333333334 1.6614583333333335 L -4.652083333333334 0.0 L -4.652083333333334 -1.6614583333333335 z " latexdraw:arrSizeNum="2.0" fill="black"/>
        </marker>
        <pattern latexdraw:type="crosshatch*" latexdraw:rotationAngle="0.0" latexdraw:size="7.055555555555555" patternUnits="userSpaceOnUse" id="pattern1583153968" x="0" y="0" width="700" height="79">
            <rect width="700" height="79" fill="#cccccc" stroke="none"/>
            <g stroke="#999999" stroke-width="0.6" stroke-dasharray="none">
                <path d="M 600.0 59.16666666666673 L 600.0 79.16666666666673 M 607.6555555555556 59.16666666666673 L 607.6555555555556 79.16666666666673 M 615.3111111111111 59.16666666666673 L 615.3111111111111 79.16666666666673 M 622.9666666666667 59.16666666666673 L 622.9666666666667 79.16666666666673 M 630.6222222222223 59.16666666666673 L 630.6222222222223 79.16666666666673 M 638.2777777777778 59.16666666666673 L 638.2777777777778 79.16666666666673 M 645.9333333333334 59.16666666666673 L 645.9333333333334 79.16666666666673 M 653.588888888889 59.16666666666673 L 653.588888888889 79.16666666666673 M 661.2444444444445 59.16666666666673 L 661.2444444444445 79.16666666666673 M 668.9000000000001 59.16666666666673 L 668.9000000000001 79.16666666666673 M 676.5555555555557 59.16666666666673 L 676.5555555555557 79.16666666666673 M 684.2111111111112 59.16666666666673 L 684.2111111111112 79.16666666666673 M 691.8666666666668 59.16666666666673 L 691.8666666666668 79.16666666666673 M 699.5222222222224 59.16666666666673 L 699.5222222222224 79.16666666666673 M 600.0 59.16666666666673 L 700.0 59.16666666666673 M 600.0 66.82222222222228 L 700.0 66.82222222222228 M 600.0 74.47777777777783 L 700.0 74.47777777777783 "/>
            </g>
        </pattern>
        <pattern latexdraw:type="crosshatch*" latexdraw:rotationAngle="0.0" latexdraw:size="7.055555555555555" patternUnits="userSpaceOnUse" id="pattern1117085867" x="0" y="0" width="800" height="79">
            <rect width="800" height="79" fill="#cccccc" stroke="none"/>
            <g stroke="#999999" stroke-width="0.6" stroke-dasharray="none">
                <path d="M 700.0 59.16666666666673 L 700.0 79.16666666666673 M 707.6555555555556 59.16666666666673 L 707.6555555555556 79.16666666666673 M 715.3111111111111 59.16666666666673 L 715.3111111111111 79.16666666666673 M 722.9666666666667 59.16666666666673 L 722.9666666666667 79.16666666666673 M 730.6222222222223 59.16666666666673 L 730.6222222222223 79.16666666666673 M 738.2777777777778 59.16666666666673 L 738.2777777777778 79.16666666666673 M 745.9333333333334 59.16666666666673 L 745.9333333333334 79.16666666666673 M 753.588888888889 59.16666666666673 L 753.588888888889 79.16666666666673 M 761.2444444444445 59.16666666666673 L 761.2444444444445 79.16666666666673 M 768.9000000000001 59.16666666666673 L 768.9000000000001 79.16666666666673 M 776.5555555555557 59.16666666666673 L 776.5555555555557 79.16666666666673 M 784.2111111111112 59.16666666666673 L 784.2111111111112 79.16666666666673 M 791.8666666666668 59.16666666666673 L 791.8666666666668 79.16666666666673 M 799.5222222222224 59.16666666666673 L 799.5222222222224 79.16666666666673 M 700.0 59.16666666666673 L 800.0 59.16666666666673 M 700.0 66.82222222222228 L 800.0 66.82222222222228 M 700.0 74.47777777777783 L 800.0 74.47777777777783 "/>
            </g>
        </pattern>
        <pattern latexdraw:type="crosshatch*" latexdraw:rotationAngle="0.0" latexdraw:size="7.055555555555555" patternUnits="userSpaceOnUse" id="pattern1712738571" x="0" y="0" width="700" height="139">
            <rect width="700" height="139" fill="#cccccc" stroke="none"/>
            <g stroke="#999999" stroke-width="0.6" stroke-dasharray="none">
                <path d="M 600.0 119.1666666666665 L 600.0 139.16666666666652 M 607.6555555555556 119.1666666666665 L 607.6555555555556 139.16666666666652 M 615.3111111111111 119.1666666666665 L 615.3111111111111 139.16666666666652 M 622.9666666666667 119.1666666666665 L 622.9666666666667 139.16666666666652 M 630.6222222222223 119.1666666666665 L 630.6222222222223 139.16666666666652 M 638.2777777777778 119.1666666666665 L 638.2777777777778 139.16666666666652 M 645.9333333333334 119.1666666666665 L 645.9333333333334 139.16666666666652 M 653.588888888889 119.1666666666665 L 653.588888888889 139.16666666666652 M 661.2444444444445 119.1666666666665 L 661.2444444444445 139.16666666666652 M 668.9000000000001 119.1666666666665 L 668.9000000000001 139.16666666666652 M 676.5555555555557 119.1666666666665 L 676.5555555555557 139.16666666666652 M 684.2111111111112 119.1666666666665 L 684.2111111111112 139.16666666666652 M 691.8666666666668 119.1666666666665 L 691.8666666666668 139.16666666666652 M 699.5222222222224 119.1666666666665 L 699.5222222222224 139.16666666666652 M 600.0 119.1666666666665 L 700.0 119.1666666666665 M 600.0 126.82222222222205 L 700.0 126.82222222222205 M 600.0 134.47777777777762 L 700.0 134.47777777777762 "/>
            </g>
        </pattern>
        <pattern latexdraw:type="crosshatch*" latexdraw:rotationAngle="0.0" latexdraw:size="7.055555555555555" patternUnits="userSpaceOnUse" id="pattern1188660959" x="0" y="0" width="800" height="139">
            <rect width="800" height="139" fill="#cccccc" stroke="none"/>
            <g stroke="#999999" stroke-width="0.6" stroke-dasharray="none">
                <path d="M 700.0 119.1666666666665 L 700.0 139.16666666666652 M 707.6555555555556 119.1666666666665 L 707.6555555555556 139.16666666666652 M 715.3111111111111 119.1666666666665 L 715.3111111111111 139.16666666666652 M 722.9666666666667 119.1666666666665 L 722.9666666666667 139.16666666666652 M 730.6222222222223 119.1666666666665 L 730.6222222222223 139.16666666666652 M 738.2777777777778 119.1666666666665 L 738.2777777777778 139.16666666666652 M 745.9333333333334 119.1666666666665 L 745.9333333333334 139.16666666666652 M 753.588888888889 119.1666666666665 L 753.588888888889 139.16666666666652 M 761.2444444444445 119.1666666666665 L 761.2444444444445 139.16666666666652 M 768.9000000000001 119.1666666666665 L 768.9000000000001 139.16666666666652 M 776.5555555555557 119.1666666666665 L 776.5555555555557 139.16666666666652 M 784.2111111111112 119.1666666666665 L 784.2111111111112 139.16666666666652 M 791.8666666666668 119.1666666666665 L 791.8666666666668 139.16666666666652 M 799.5222222222224 119.1666666666665 L 799.5222222222224 139.16666666666652 M 700.0 119.1666666666665 L 800.0 119.1666666666665 M 700.0 126.82222222222205 L 800.0 126.82222222222205 M 700.0 134.47777777777762 L 800.0 134.47777777777762 "/>
            </g>
        </pattern>
        <pattern latexdraw:type="crosshatch*" latexdraw:rotationAngle="0.0" latexdraw:size="7.055555555555555" patternUnits="userSpaceOnUse" id="pattern1323086072" x="0" y="0" width="340" height="79">
            <rect width="340" height="79" fill="#cccccc" stroke="none"/>
            <g stroke="#999999" stroke-width="0.6" stroke-dasharray="none">
                <path d="M 240.0 59.16666666666673 L 240.0 79.16666666666673 M 247.65555555555557 59.16666666666673 L 247.65555555555557 79.16666666666673 M 255.31111111111113 59.16666666666673 L 255.31111111111113 79.16666666666673 M 262.9666666666667 59.16666666666673 L 262.9666666666667 79.16666666666673 M 270.62222222222226 59.16666666666673 L 270.62222222222226 79.16666666666673 M 278.2777777777778 59.16666666666673 L 278.2777777777778 79.16666666666673 M 285.9333333333334 59.16666666666673 L 285.9333333333334 79.16666666666673 M 293.58888888888896 59.16666666666673 L 293.58888888888896 79.16666666666673 M 301.2444444444445 59.16666666666673 L 301.2444444444445 79.16666666666673 M 308.9000000000001 59.16666666666673 L 308.9000000000001 79.16666666666673 M 316.55555555555566 59.16666666666673 L 316.55555555555566 79.16666666666673 M 324.2111111111112 59.16666666666673 L 324.2111111111112 79.16666666666673 M 331.8666666666668 59.16666666666673 L 331.8666666666668 79.16666666666673 M 339.52222222222235 59.16666666666673 L 339.52222222222235 79.16666666666673 M 240.0 59.16666666666673 L 340.0 59.16666666666673 M 240.0 66.82222222222228 L 340.0 66.82222222222228 M 240.0 74.47777777777783 L 340.0 74.47777777777783 "/>
            </g>
        </pattern>
        <pattern latexdraw:type="crosshatch*" latexdraw:rotationAngle="0.0" latexdraw:size="7.055555555555555" patternUnits="userSpaceOnUse" id="pattern169165964" x="0" y="0" width="440" height="79">
            <rect width="440" height="79" fill="#cccccc" stroke="none"/>
            <g stroke="#999999" stroke-width="0.6" stroke-dasharray="none">
                <path d="M 340.0 59.16666666666673 L 340.0 79.16666666666673 M 347.65555555555557 59.16666666666673 L 347.65555555555557 79.16666666666673 M 355.31111111111113 59.16666666666673 L 355.31111111111113 79.16666666666673 M 362.9666666666667 59.16666666666673 L 362.9666666666667 79.16666666666673 M 370.62222222222226 59.16666666666673 L 370.62222222222226 79.16666666666673 M 378.2777777777778 59.16666666666673 L 378.2777777777778 79.16666666666673 M 385.9333333333334 59.16666666666673 L 385.9333333333334 79.16666666666673 M 393.58888888888896 59.16666666666673 L 393.58888888888896 79.16666666666673 M 401.2444444444445 59.16666666666673 L 401.2444444444445 79.16666666666673 M 408.9000000000001 59.16666666666673 L 408.9000000000001 79.16666666666673 M 416.55555555555566 59.16666666666673 L 416.55555555555566 79.16666666666673 M 424.2111111111112 59.16666666666673 L 424.2111111111112 79.16666666666673 M 431.8666666666668 59.16666666666673 L 431.8666666666668 79.16666666666673 M 439.52222222222235 59.16666666666673 L 439.52222222222235 79.16666666666673 M 340.0 59.16666666666673 L 440.0 59.16666666666673 M 340.0 66.82222222222228 L 440.0 66.82222222222228 M 340.0 74.47777777777783 L 440.0 74.47777777777783 "/>
            </g>
        </pattern>
        <pattern latexdraw:type="crosshatch*" latexdraw:rotationAngle="0.0" latexdraw:size="7.055555555555555" patternUnits="userSpaceOnUse" id="pattern1651772138" x="0" y="0" width="340" height="99">
            <rect width="340" height="99" fill="#cccccc" stroke="none"/>
            <g stroke="#999999" stroke-width="0.6" stroke-dasharray="none">
                <path d="M 240.0 79.1666666666665 L 240.0 99.1666666666665 M 247.65555555555557 79.1666666666665 L 247.65555555555557 99.1666666666665 M 255.31111111111113 79.1666666666665 L 255.31111111111113 99.1666666666665 M 262.9666666666667 79.1666666666665 L 262.9666666666667 99.1666666666665 M 270.62222222222226 79.1666666666665 L 270.62222222222226 99.1666666666665 M 278.2777777777778 79.1666666666665 L 278.2777777777778 99.1666666666665 M 285.9333333333334 79.1666666666665 L 285.9333333333334 99.1666666666665 M 293.58888888888896 79.1666666666665 L 293.58888888888896 99.1666666666665 M 301.2444444444445 79.1666666666665 L 301.2444444444445 99.1666666666665 M 308.9000000000001 79.1666666666665 L 308.9000000000001 99.1666666666665 M 316.55555555555566 79.1666666666665 L 316.55555555555566 99.1666666666665 M 324.2111111111112 79.1666666666665 L 324.2111111111112 99.1666666666665 M 331.8666666666668 79.1666666666665 L 331.8666666666668 99.1666666666665 M 339.52222222222235 79.1666666666665 L 339.52222222222235 99.1666666666665 M 240.0 79.1666666666665 L 340.0 79.1666666666665 M 240.0 86.82222222222205 L 340.0 86.82222222222205 M 240.0 94.4777777777776 L 340.0 94.4777777777776 "/>
            </g>
        </pattern>
        <pattern latexdraw:type="crosshatch*" latexdraw:rotationAngle="0.0" latexdraw:size="7.055555555555555" patternUnits="userSpaceOnUse" id="pattern1218413567" x="0" y="0" width="440" height="99">
            <rect width="440" height="99" fill="#cccccc" stroke="none"/>
            <g stroke="#999999" stroke-width="0.6" stroke-dasharray="none">
                <path d="M 340.0 79.1666666666665 L 340.0 99.1666666666665 M 347.65555555555557 79.1666666666665 L 347.65555555555557 99.1666666666665 M 355.31111111111113 79.1666666666665 L 355.31111111111113 99.1666666666665 M 362.9666666666667 79.1666666666665 L 362.9666666666667 99.1666666666665 M 370.62222222222226 79.1666666666665 L 370.62222222222226 99.1666666666665 M 378.2777777777778 79.1666666666665 L 378.2777777777778 99.1666666666665 M 385.9333333333334 79.1666666666665 L 385.9333333333334 99.1666666666665 M 393.58888888888896 79.1666666666665 L 393.58888888888896 99.1666666666665 M 401.2444444444445 79.1666666666665 L 401.2444444444445 99.1666666666665 M 408.9000000000001 79.1666666666665 L 408.9000000000001 99.1666666666665 M 416.55555555555566 79.1666666666665 L 416.55555555555566 99.1666666666665 M 424.2111111111112 79.1666666666665 L 424.2111111111112 99.1666666666665 M 431.8666666666668 79.1666666666665 L 431.8666666666668 99.1666666666665 M 439.52222222222235 79.1666666666665 L 439.52222222222235 99.1666666666665 M 340.0 79.1666666666665 L 440.0 79.1666666666665 M 340.0 86.82222222222205 L 440.0 86.82222222222205 M 340.0 94.4777777777776 L 440.0 94.4777777777776 "/>
            </g>
        </pattern>
    </defs>
    <metadata>
        <latexdraw:metadata>
            <latexdraw:latexIncludes/>
            <latexdraw:displayXScale>true</latexdraw:displayXScale>
            <latexdraw:displayYScale>true</latexdraw:displayYScale>
            <latexdraw:unit>CM</latexdraw:unit>
            <latexdraw:zoom>1.2000000000000002</latexdraw:zoom>
            <latexdraw:magneticGridStyle>CUSTOMISED</latexdraw:magneticGridStyle>
            <latexdraw:gridGap>20</latexdraw:gridGap>
            <latexdraw:magneticGrid>true</latexdraw:magneticGrid>
            <latexdraw:version>3.3.8</latexdraw:version>
            <latexdraw:size>
                <latexdraw:width>1440</latexdraw:width>
                <latexdraw:height>804</latexdraw:height>
            </latexdraw:size>
            <latexdraw:position>
                <latexdraw:x>0.0</latexdraw:x>
                <latexdraw:y>23.0</latexdraw:y>
            </latexdraw:position>
        </latexdraw:metadata>
    </metadata>
</svg>
