<?xml version="1.0" encoding="UTF-8"?><svg xmlns="http://www.w3.org/2000/svg" xmlns:latexdraw="http://latexdraw.sourceforge.net/namespaces/latexdraw" version="1.1" baseProfile="full">
    <g>
        <g latexdraw:type="rectangle" id="id323633112">
            <rect x="200.5" y="59.666666666666515" width="299.0" height="99.0" latexdraw:borderPos="outer" stroke-width="1.0" stroke="black" fill="none"/>
        </g>
        <g latexdraw:type="joinedLines" id="id1616197613">
            <polyline points="200.0,79.16666666666652 500.0,79.16666666666652 " stroke-width="0.6" stroke="black" latexdraw:rotationAngle="0.0"/>
        </g>
        <g latexdraw:type="rectangle" id="id2141034501">
            <rect x="240.05" y="59.2166666666665" width="99.9" height="19.9" latexdraw:borderPos="outer" stroke-width="0.1" stroke="black" fill="url(#pattern2141034501)"/>
        </g>
        <g latexdraw:type="rectangle" id="id1402412">
            <rect x="200.05" y="59.2166666666665" width="39.9" height="19.9" latexdraw:borderPos="outer" stroke-width="0.1" stroke="black" fill="#ff3333"/>
        </g>
        <g latexdraw:type="text" id="id267096931" fill="black" latexdraw:position="bl">
            <text x="93.33333333333363" y="116.66666666666664">Positions</text>
        </g>
        <g latexdraw:type="joinedLines" id="id618963124">
            <polyline points="200.0,99.16666666666652 500.0,99.16666666666652 " stroke-width="0.6" stroke="black" latexdraw:rotationAngle="0.0"/>
        </g>
        <g latexdraw:type="rectangle" id="id1077937264">
            <rect x="240.05" y="79.2166666666665" width="99.9" height="19.9" latexdraw:borderPos="outer" stroke-width="0.1" stroke="black" fill="url(#pattern1077937264)"/>
        </g>
        <g latexdraw:type="rectangle" id="id310576216">
            <rect x="200.05" y="79.2166666666665" width="39.9" height="19.9" latexdraw:borderPos="outer" stroke-width="0.1" stroke="black" fill="#ff3333"/>
        </g>
        <g latexdraw:type="joinedLines" id="id197250116">
            <polyline points="200.0,119.16666666666652 500.0,119.16666666666652 " stroke-width="0.6" stroke="black" latexdraw:rotationAngle="0.0"/>
        </g>
        <g latexdraw:type="rectangle" id="id221843637">
            <rect x="240.05" y="99.2166666666665" width="99.9" height="19.9" latexdraw:borderPos="outer" stroke-width="0.1" stroke="black" fill="url(#pattern221843637)"/>
        </g>
        <g latexdraw:type="rectangle" id="id1387356758">
            <rect x="200.05" y="99.2166666666665" width="39.9" height="19.9" latexdraw:borderPos="outer" stroke-width="0.1" stroke="black" fill="#ff3333"/>
        </g>
        <g latexdraw:type="joinedLines" id="id56681784">
            <polyline points="200.0,139.16666666666652 500.0,139.16666666666652 " stroke-width="0.6" stroke="black" latexdraw:rotationAngle="0.0"/>
        </g>
        <g latexdraw:type="rectangle" id="id886792639">
            <rect x="240.05" y="119.2166666666665" width="99.9" height="19.900000000000013" latexdraw:borderPos="outer" stroke-width="0.1" stroke="black" fill="url(#pattern886792639)"/>
        </g>
        <g latexdraw:type="rectangle" id="id961123238">
            <rect x="200.05" y="119.2166666666665" width="39.9" height="19.900000000000013" latexdraw:borderPos="outer" stroke-width="0.1" stroke="black" fill="#ff3333"/>
        </g>
        <g latexdraw:type="joinedLines" id="id869857487">
            <polyline points="200.0,159.16666666666652 500.0,159.16666666666652 " stroke-width="0.6" stroke="black" latexdraw:rotationAngle="0.0"/>
        </g>
        <g latexdraw:type="rectangle" id="id1546119226">
            <rect x="240.05" y="139.21666666666673" width="99.9" height="19.9" latexdraw:borderPos="outer" stroke-width="0.1" stroke="black" fill="url(#pattern1546119226)"/>
        </g>
        <g latexdraw:type="rectangle" id="id2032036542">
            <rect x="200.05" y="139.21666666666673" width="39.9" height="19.9" latexdraw:borderPos="outer" stroke-width="0.1" stroke="black" fill="#ff3333"/>
        </g>
        <g latexdraw:type="joinedLines" id="id131073000">
            <polyline points="533.3333333333333,99.99999999999999 566.6666666666666,99.99999999999999 " stroke-width="2.0" stroke="black" latexdraw:rotationAngle="0.0" marker-end="url(#arrow1-131073000)"/>
        </g>
        <g latexdraw:type="rectangle" id="id669357120">
            <rect x="600.5" y="59.666666666666515" width="299.0" height="99.0" latexdraw:borderPos="outer" stroke-width="1.0" stroke="black" fill="none"/>
        </g>
        <g latexdraw:type="joinedLines" id="id1857883656">
            <polyline points="600.0,79.16666666666652 900.0,79.16666666666652 " stroke-width="0.6" stroke="black" latexdraw:rotationAngle="0.0"/>
        </g>
        <g latexdraw:type="joinedLines" id="id1784463033">
            <polyline points="900.0,119.16666666666652 600.0,119.16666666666652 " stroke-width="0.6" stroke="black" latexdraw:rotationAngle="0.0"/>
        </g>
        <g latexdraw:type="joinedLines" id="id693849020">
            <polyline points="900.0,139.16666666666652 600.0,139.16666666666652 " stroke-width="0.6" stroke="black" latexdraw:rotationAngle="0.0"/>
        </g>
        <g latexdraw:type="rectangle" id="id1149602810">
            <rect x="640.05" y="59.216666666666725" width="99.9" height="19.9" latexdraw:borderPos="outer" stroke-width="0.1" stroke="black" fill="url(#pattern1149602810)"/>
        </g>
        <g latexdraw:type="rectangle" id="id513918674">
            <rect x="740.05" y="59.216666666666725" width="99.9" height="19.9" latexdraw:borderPos="outer" stroke-width="0.1" stroke="black" fill="url(#pattern513918674)"/>
        </g>
        <g latexdraw:type="rectangle" id="id655086036">
            <rect x="600.05" y="59.216666666666725" width="39.9" height="19.9" latexdraw:borderPos="outer" stroke-width="0.1" stroke="black" fill="#ff3333"/>
        </g>
        <g latexdraw:type="rectangle" id="id2032529636">
            <rect x="640.05" y="79.2166666666665" width="99.9" height="19.9" latexdraw:borderPos="outer" stroke-width="0.1" stroke="black" fill="url(#pattern2032529636)"/>
        </g>
        <g latexdraw:type="rectangle" id="id95004836">
            <rect x="740.05" y="79.2166666666665" width="99.9" height="19.9" latexdraw:borderPos="outer" stroke-width="0.1" stroke="black" fill="url(#pattern95004836)"/>
        </g>
        <g latexdraw:type="rectangle" id="id728041823">
            <rect x="600.05" y="79.2166666666665" width="39.9" height="19.9" latexdraw:borderPos="outer" stroke-width="0.1" stroke="black" fill="#ff3333"/>
        </g>
        <g latexdraw:type="rectangle" id="id903787824">
            <rect x="640.05" y="99.2166666666665" width="99.9" height="19.9" latexdraw:borderPos="outer" stroke-width="0.1" stroke="black" fill="url(#pattern903787824)"/>
        </g>
        <g latexdraw:type="rectangle" id="id1077149219">
            <rect x="600.05" y="99.2166666666665" width="39.9" height="19.9" latexdraw:borderPos="outer" stroke-width="0.1" stroke="black" fill="#ff3333"/>
        </g>
        <g latexdraw:type="joinedLines" id="id723574951">
            <polyline points="900.0,99.16666666666652 600.0,99.16666666666652 " stroke-width="0.6" stroke="black" latexdraw:rotationAngle="0.0"/>
        </g>
        <g latexdraw:type="text" id="id1615826634" fill="black" latexdraw:position="bl">
            <text x="188.33333333333314" y="78.33333333333333">0</text>
        </g>
        <g latexdraw:type="text" id="id1694911936" fill="black" latexdraw:position="bl">
            <text x="187.49999999999997" y="96.6666666666668">2</text>
        </g>
        <g latexdraw:type="text" id="id1287416069" fill="black" latexdraw:position="bl">
            <text x="186.6666666666665" y="114.16666666666666">4</text>
        </g>
        <g latexdraw:type="text" id="id678082225" fill="black" latexdraw:position="bl">
            <text x="187.49999999999997" y="135.00000000000028">6</text>
        </g>
        <g latexdraw:type="text" id="id888691182" fill="black" latexdraw:position="bl">
            <text x="186.66666666666634" y="153.33333333333317">8</text>
        </g>
    </g>
    <defs>
        <pattern latexdraw:type="crosshatch*" latexdraw:rotationAngle="0.0" latexdraw:size="7.055555555555555" patternUnits="userSpaceOnUse" id="pattern2141034501" x="0" y="0" width="340" height="79">
            <rect width="340" height="79" fill="#cccccc" stroke="none"/>
            <g stroke="#999999" stroke-width="0.6" stroke-dasharray="none">
                <path d="M 240.0 59.1666666666665 L 240.0 79.1666666666665 M 247.65555555555557 59.1666666666665 L 247.65555555555557 79.1666666666665 M 255.31111111111113 59.1666666666665 L 255.31111111111113 79.1666666666665 M 262.9666666666667 59.1666666666665 L 262.9666666666667 79.1666666666665 M 270.62222222222226 59.1666666666665 L 270.62222222222226 79.1666666666665 M 278.2777777777778 59.1666666666665 L 278.2777777777778 79.1666666666665 M 285.9333333333334 59.1666666666665 L 285.9333333333334 79.1666666666665 M 293.58888888888896 59.1666666666665 L 293.58888888888896 79.1666666666665 M 301.2444444444445 59.1666666666665 L 301.2444444444445 79.1666666666665 M 308.9000000000001 59.1666666666665 L 308.9000000000001 79.1666666666665 M 316.55555555555566 59.1666666666665 L 316.55555555555566 79.1666666666665 M 324.2111111111112 59.1666666666665 L 324.2111111111112 79.1666666666665 M 331.8666666666668 59.1666666666665 L 331.8666666666668 79.1666666666665 M 339.52222222222235 59.1666666666665 L 339.52222222222235 79.1666666666665 M 240.0 59.1666666666665 L 340.0 59.1666666666665 M 240.0 66.82222222222205 L 340.0 66.82222222222205 M 240.0 74.4777777777776 L 340.0 74.4777777777776 "/>
            </g>
        </pattern>
        <pattern latexdraw:type="crosshatch*" latexdraw:rotationAngle="0.0" latexdraw:size="7.055555555555555" patternUnits="userSpaceOnUse" id="pattern1077937264" x="0" y="0" width="340" height="99">
            <rect width="340" height="99" fill="#cccccc" stroke="none"/>
            <g stroke="#999999" stroke-width="0.6" stroke-dasharray="none">
                <path d="M 240.0 79.1666666666665 L 240.0 99.1666666666665 M 247.65555555555557 79.1666666666665 L 247.65555555555557 99.1666666666665 M 255.31111111111113 79.1666666666665 L 255.31111111111113 99.1666666666665 M 262.9666666666667 79.1666666666665 L 262.9666666666667 99.1666666666665 M 270.62222222222226 79.1666666666665 L 270.62222222222226 99.1666666666665 M 278.2777777777778 79.1666666666665 L 278.2777777777778 99.1666666666665 M 285.9333333333334 79.1666666666665 L 285.9333333333334 99.1666666666665 M 293.58888888888896 79.1666666666665 L 293.58888888888896 99.1666666666665 M 301.2444444444445 79.1666666666665 L 301.2444444444445 99.1666666666665 M 308.9000000000001 79.1666666666665 L 308.9000000000001 99.1666666666665 M 316.55555555555566 79.1666666666665 L 316.55555555555566 99.1666666666665 M 324.2111111111112 79.1666666666665 L 324.2111111111112 99.1666666666665 M 331.8666666666668 79.1666666666665 L 331.8666666666668 99.1666666666665 M 339.52222222222235 79.1666666666665 L 339.52222222222235 99.1666666666665 M 240.0 79.1666666666665 L 340.0 79.1666666666665 M 240.0 86.82222222222205 L 340.0 86.82222222222205 M 240.0 94.4777777777776 L 340.0 94.4777777777776 "/>
            </g>
        </pattern>
        <pattern latexdraw:type="crosshatch*" latexdraw:rotationAngle="0.0" latexdraw:size="7.055555555555555" patternUnits="userSpaceOnUse" id="pattern221843637" x="0" y="0" width="340" height="119">
            <rect width="340" height="119" fill="#cccccc" stroke="none"/>
            <g stroke="#999999" stroke-width="0.6" stroke-dasharray="none">
                <path d="M 240.0 99.1666666666665 L 240.0 119.1666666666665 M 247.65555555555557 99.1666666666665 L 247.65555555555557 119.1666666666665 M 255.31111111111113 99.1666666666665 L 255.31111111111113 119.1666666666665 M 262.9666666666667 99.1666666666665 L 262.9666666666667 119.1666666666665 M 270.62222222222226 99.1666666666665 L 270.62222222222226 119.1666666666665 M 278.2777777777778 99.1666666666665 L 278.2777777777778 119.1666666666665 M 285.9333333333334 99.1666666666665 L 285.9333333333334 119.1666666666665 M 293.58888888888896 99.1666666666665 L 293.58888888888896 119.1666666666665 M 301.2444444444445 99.1666666666665 L 301.2444444444445 119.1666666666665 M 308.9000000000001 99.1666666666665 L 308.9000000000001 119.1666666666665 M 316.55555555555566 99.1666666666665 L 316.55555555555566 119.1666666666665 M 324.2111111111112 99.1666666666665 L 324.2111111111112 119.1666666666665 M 331.8666666666668 99.1666666666665 L 331.8666666666668 119.1666666666665 M 339.52222222222235 99.1666666666665 L 339.52222222222235 119.1666666666665 M 240.0 99.1666666666665 L 340.0 99.1666666666665 M 240.0 106.82222222222205 L 340.0 106.82222222222205 M 240.0 114.4777777777776 L 340.0 114.4777777777776 "/>
            </g>
        </pattern>
        <pattern latexdraw:type="crosshatch*" latexdraw:rotationAngle="0.0" latexdraw:size="7.055555555555555" patternUnits="userSpaceOnUse" id="pattern886792639" x="0" y="0" width="340" height="139">
            <rect width="340" height="139" fill="#cccccc" stroke="none"/>
            <g stroke="#999999" stroke-width="0.6" stroke-dasharray="none">
                <path d="M 240.0 119.1666666666665 L 240.0 139.16666666666652 M 247.65555555555557 119.1666666666665 L 247.65555555555557 139.16666666666652 M 255.31111111111113 119.1666666666665 L 255.31111111111113 139.16666666666652 M 262.9666666666667 119.1666666666665 L 262.9666666666667 139.16666666666652 M 270.62222222222226 119.1666666666665 L 270.62222222222226 139.16666666666652 M 278.2777777777778 119.1666666666665 L 278.2777777777778 139.16666666666652 M 285.9333333333334 119.1666666666665 L 285.9333333333334 139.16666666666652 M 293.58888888888896 119.1666666666665 L 293.58888888888896 139.16666666666652 M 301.2444444444445 119.1666666666665 L 301.2444444444445 139.16666666666652 M 308.9000000000001 119.1666666666665 L 308.9000000000001 139.16666666666652 M 316.55555555555566 119.1666666666665 L 316.55555555555566 139.16666666666652 M 324.2111111111112 119.1666666666665 L 324.2111111111112 139.16666666666652 M 331.8666666666668 119.1666666666665 L 331.8666666666668 139.16666666666652 M 339.52222222222235 119.1666666666665 L 339.52222222222235 139.16666666666652 M 240.0 119.1666666666665 L 340.0 119.1666666666665 M 240.0 126.82222222222205 L 340.0 126.82222222222205 M 240.0 134.47777777777762 L 340.0 134.47777777777762 "/>
            </g>
        </pattern>
        <pattern latexdraw:type="crosshatch*" latexdraw:rotationAngle="0.0" latexdraw:size="7.055555555555555" patternUnits="userSpaceOnUse" id="pattern1546119226" x="0" y="0" width="340" height="159">
            <rect width="340" height="159" fill="#cccccc" stroke="none"/>
            <g stroke="#999999" stroke-width="0.6" stroke-dasharray="none">
                <path d="M 240.0 139.1666666666667 L 240.0 159.1666666666667 M 247.65555555555557 139.1666666666667 L 247.65555555555557 159.1666666666667 M 255.31111111111113 139.1666666666667 L 255.31111111111113 159.1666666666667 M 262.9666666666667 139.1666666666667 L 262.9666666666667 159.1666666666667 M 270.62222222222226 139.1666666666667 L 270.62222222222226 159.1666666666667 M 278.2777777777778 139.1666666666667 L 278.2777777777778 159.1666666666667 M 285.9333333333334 139.1666666666667 L 285.9333333333334 159.1666666666667 M 293.58888888888896 139.1666666666667 L 293.58888888888896 159.1666666666667 M 301.2444444444445 139.1666666666667 L 301.2444444444445 159.1666666666667 M 308.9000000000001 139.1666666666667 L 308.9000000000001 159.1666666666667 M 316.55555555555566 139.1666666666667 L 316.55555555555566 159.1666666666667 M 324.2111111111112 139.1666666666667 L 324.2111111111112 159.1666666666667 M 331.8666666666668 139.1666666666667 L 331.8666666666668 159.1666666666667 M 339.52222222222235 139.1666666666667 L 339.52222222222235 159.1666666666667 M 240.0 139.1666666666667 L 340.0 139.1666666666667 M 240.0 146.82222222222228 L 340.0 146.82222222222228 M 240.0 154.47777777777785 L 340.0 154.47777777777785 "/>
            </g>
        </pattern>
        <marker overflow="visible" orient="auto" id="arrow1-131073000">
            <path d="M 0.0 0.0 L -4.652083333333334 1.6614583333333335 L -4.652083333333334 0.0 L -4.652083333333334 -1.6614583333333335 z " latexdraw:arrSizeNum="2.0" fill="black"/>
        </marker>
        <pattern latexdraw:type="crosshatch*" latexdraw:rotationAngle="0.0" latexdraw:size="7.055555555555555" patternUnits="userSpaceOnUse" id="pattern1149602810" x="0" y="0" width="740" height="79">
            <rect width="740" height="79" fill="#cccccc" stroke="none"/>
            <g stroke="#999999" stroke-width="0.6" stroke-dasharray="none">
                <path d="M 640.0 59.16666666666673 L 640.0 79.16666666666673 M 647.6555555555556 59.16666666666673 L 647.6555555555556 79.16666666666673 M 655.3111111111111 59.16666666666673 L 655.3111111111111 79.16666666666673 M 662.9666666666667 59.16666666666673 L 662.9666666666667 79.16666666666673 M 670.6222222222223 59.16666666666673 L 670.6222222222223 79.16666666666673 M 678.2777777777778 59.16666666666673 L 678.2777777777778 79.16666666666673 M 685.9333333333334 59.16666666666673 L 685.9333333333334 79.16666666666673 M 693.588888888889 59.16666666666673 L 693.588888888889 79.16666666666673 M 701.2444444444445 59.16666666666673 L 701.2444444444445 79.16666666666673 M 708.9000000000001 59.16666666666673 L 708.9000000000001 79.16666666666673 M 716.5555555555557 59.16666666666673 L 716.5555555555557 79.16666666666673 M 724.2111111111112 59.16666666666673 L 724.2111111111112 79.16666666666673 M 731.8666666666668 59.16666666666673 L 731.8666666666668 79.16666666666673 M 739.5222222222224 59.16666666666673 L 739.5222222222224 79.16666666666673 M 640.0 59.16666666666673 L 740.0 59.16666666666673 M 640.0 66.82222222222228 L 740.0 66.82222222222228 M 640.0 74.47777777777783 L 740.0 74.47777777777783 "/>
            </g>
        </pattern>
        <pattern latexdraw:type="crosshatch*" latexdraw:rotationAngle="0.0" latexdraw:size="7.055555555555555" patternUnits="userSpaceOnUse" id="pattern513918674" x="0" y="0" width="840" height="79">
            <rect width="840" height="79" fill="#cccccc" stroke="none"/>
            <g stroke="#999999" stroke-width="0.6" stroke-dasharray="none">
                <path d="M 740.0 59.16666666666673 L 740.0 79.16666666666673 M 747.6555555555556 59.16666666666673 L 747.6555555555556 79.16666666666673 M 755.3111111111111 59.16666666666673 L 755.3111111111111 79.16666666666673 M 762.9666666666667 59.16666666666673 L 762.9666666666667 79.16666666666673 M 770.6222222222223 59.16666666666673 L 770.6222222222223 79.16666666666673 M 778.2777777777778 59.16666666666673 L 778.2777777777778 79.16666666666673 M 785.9333333333334 59.16666666666673 L 785.9333333333334 79.16666666666673 M 793.588888888889 59.16666666666673 L 793.588888888889 79.16666666666673 M 801.2444444444445 59.16666666666673 L 801.2444444444445 79.16666666666673 M 808.9000000000001 59.16666666666673 L 808.9000000000001 79.16666666666673 M 816.5555555555557 59.16666666666673 L 816.5555555555557 79.16666666666673 M 824.2111111111112 59.16666666666673 L 824.2111111111112 79.16666666666673 M 831.8666666666668 59.16666666666673 L 831.8666666666668 79.16666666666673 M 839.5222222222224 59.16666666666673 L 839.5222222222224 79.16666666666673 M 740.0 59.16666666666673 L 840.0 59.16666666666673 M 740.0 66.82222222222228 L 840.0 66.82222222222228 M 740.0 74.47777777777783 L 840.0 74.47777777777783 "/>
            </g>
        </pattern>
        <pattern latexdraw:type="crosshatch*" latexdraw:rotationAngle="0.0" latexdraw:size="7.055555555555555" patternUnits="userSpaceOnUse" id="pattern2032529636" x="0" y="0" width="740" height="99">
            <rect width="740" height="99" fill="#cccccc" stroke="none"/>
            <g stroke="#999999" stroke-width="0.6" stroke-dasharray="none">
                <path d="M 640.0 79.1666666666665 L 640.0 99.1666666666665 M 647.6555555555556 79.1666666666665 L 647.6555555555556 99.1666666666665 M 655.3111111111111 79.1666666666665 L 655.3111111111111 99.1666666666665 M 662.9666666666667 79.1666666666665 L 662.9666666666667 99.1666666666665 M 670.6222222222223 79.1666666666665 L 670.6222222222223 99.1666666666665 M 678.2777777777778 79.1666666666665 L 678.2777777777778 99.1666666666665 M 685.9333333333334 79.1666666666665 L 685.9333333333334 99.1666666666665 M 693.588888888889 79.1666666666665 L 693.588888888889 99.1666666666665 M 701.2444444444445 79.1666666666665 L 701.2444444444445 99.1666666666665 M 708.9000000000001 79.1666666666665 L 708.9000000000001 99.1666666666665 M 716.5555555555557 79.1666666666665 L 716.5555555555557 99.1666666666665 M 724.2111111111112 79.1666666666665 L 724.2111111111112 99.1666666666665 M 731.8666666666668 79.1666666666665 L 731.8666666666668 99.1666666666665 M 739.5222222222224 79.1666666666665 L 739.5222222222224 99.1666666666665 M 640.0 79.1666666666665 L 740.0 79.1666666666665 M 640.0 86.82222222222205 L 740.0 86.82222222222205 M 640.0 94.4777777777776 L 740.0 94.4777777777776 "/>
            </g>
        </pattern>
        <pattern latexdraw:type="crosshatch*" latexdraw:rotationAngle="0.0" latexdraw:size="7.055555555555555" patternUnits="userSpaceOnUse" id="pattern95004836" x="0" y="0" width="840" height="99">
            <rect width="840" height="99" fill="#cccccc" stroke="none"/>
            <g stroke="#999999" stroke-width="0.6" stroke-dasharray="none">
                <path d="M 740.0 79.1666666666665 L 740.0 99.1666666666665 M 747.6555555555556 79.1666666666665 L 747.6555555555556 99.1666666666665 M 755.3111111111111 79.1666666666665 L 755.3111111111111 99.1666666666665 M 762.9666666666667 79.1666666666665 L 762.9666666666667 99.1666666666665 M 770.6222222222223 79.1666666666665 L 770.6222222222223 99.1666666666665 M 778.2777777777778 79.1666666666665 L 778.2777777777778 99.1666666666665 M 785.9333333333334 79.1666666666665 L 785.9333333333334 99.1666666666665 M 793.588888888889 79.1666666666665 L 793.588888888889 99.1666666666665 M 801.2444444444445 79.1666666666665 L 801.2444444444445 99.1666666666665 M 808.9000000000001 79.1666666666665 L 808.9000000000001 99.1666666666665 M 816.5555555555557 79.1666666666665 L 816.5555555555557 99.1666666666665 M 824.2111111111112 79.1666666666665 L 824.2111111111112 99.1666666666665 M 831.8666666666668 79.1666666666665 L 831.8666666666668 99.1666666666665 M 839.5222222222224 79.1666666666665 L 839.5222222222224 99.1666666666665 M 740.0 79.1666666666665 L 840.0 79.1666666666665 M 740.0 86.82222222222205 L 840.0 86.82222222222205 M 740.0 94.4777777777776 L 840.0 94.4777777777776 "/>
            </g>
        </pattern>
        <pattern latexdraw:type="crosshatch*" latexdraw:rotationAngle="0.0" latexdraw:size="7.055555555555555" patternUnits="userSpaceOnUse" id="pattern903787824" x="0" y="0" width="740" height="119">
            <rect width="740" height="119" fill="#cccccc" stroke="none"/>
            <g stroke="#999999" stroke-width="0.6" stroke-dasharray="none">
                <path d="M 640.0 99.1666666666665 L 640.0 119.1666666666665 M 647.6555555555556 99.1666666666665 L 647.6555555555556 119.1666666666665 M 655.3111111111111 99.1666666666665 L 655.3111111111111 119.1666666666665 M 662.9666666666667 99.1666666666665 L 662.9666666666667 119.1666666666665 M 670.6222222222223 99.1666666666665 L 670.6222222222223 119.1666666666665 M 678.2777777777778 99.1666666666665 L 678.2777777777778 119.1666666666665 M 685.9333333333334 99.1666666666665 L 685.9333333333334 119.1666666666665 M 693.588888888889 99.1666666666665 L 693.588888888889 119.1666666666665 M 701.2444444444445 99.1666666666665 L 701.2444444444445 119.1666666666665 M 708.9000000000001 99.1666666666665 L 708.9000000000001 119.1666666666665 M 716.5555555555557 99.1666666666665 L 716.5555555555557 119.1666666666665 M 724.2111111111112 99.1666666666665 L 724.2111111111112 119.1666666666665 M 731.8666666666668 99.1666666666665 L 731.8666666666668 119.1666666666665 M 739.5222222222224 99.1666666666665 L 739.5222222222224 119.1666666666665 M 640.0 99.1666666666665 L 740.0 99.1666666666665 M 640.0 106.82222222222205 L 740.0 106.82222222222205 M 640.0 114.4777777777776 L 740.0 114.4777777777776 "/>
            </g>
        </pattern>
    </defs>
    <metadata>
        <latexdraw:metadata>
            <latexdraw:latexIncludes/>
            <latexdraw:displayXScale>true</latexdraw:displayXScale>
            <latexdraw:displayYScale>true</latexdraw:displayYScale>
            <latexdraw:unit>CM</latexdraw:unit>
            <latexdraw:zoom>1.2000000000000002</latexdraw:zoom>
            <latexdraw:magneticGridStyle>CUSTOMISED</latexdraw:magneticGridStyle>
            <latexdraw:gridGap>20</latexdraw:gridGap>
            <latexdraw:magneticGrid>false</latexdraw:magneticGrid>
            <latexdraw:version>3.3.8</latexdraw:version>
            <latexdraw:size>
                <latexdraw:width>1440</latexdraw:width>
                <latexdraw:height>804</latexdraw:height>
            </latexdraw:size>
            <latexdraw:position>
                <latexdraw:x>0.0</latexdraw:x>
                <latexdraw:y>23.0</latexdraw:y>
            </latexdraw:position>
        </latexdraw:metadata>
    </metadata>
</svg>
