<?xml version="1.1" encoding="UTF-8"?>
<svg xmlns="http://www.w3.org/2000/svg"
    xmlns:latexdraw="http://latexdraw.sourceforge.net/namespaces/latexdraw"
    version="1.1" baseProfile="full">
    <g>
        <g latexdraw:type="rectangle" id="id1559278825">
            <rect x="260.5" y="100.5" width="199.0" height="19.0"
                latexdraw:borderPos="outer" stroke-width="1.0"
                stroke="black" fill="url(#pattern1559278825)"/>
        </g>
        <g latexdraw:type="joinedLines" id="id1116586278">
            <polyline points="460.0,120.0 460.0,100.0 "
                stroke-width="1.2000000000000002" stroke="black" latexdraw:rotationAngle="0.0"/>
        </g>
        <g latexdraw:type="joinedLines" id="id745172599">
            <polyline points="500.0,140.0 500.0,120.0 "
                stroke-width="1.2000000000000002" stroke="black" latexdraw:rotationAngle="0.0"/>
        </g>
        <g latexdraw:type="joinedLines" id="id1682441407">
            <polyline points="540.0,160.0 540.0,140.0 "
                stroke-width="1.2000000000000002" stroke="black" latexdraw:rotationAngle="0.0"/>
        </g>
        <g latexdraw:type="joinedLines" id="id1275381214">
            <polyline points="580.0,180.0 580.0,160.0 "
                stroke-width="1.2000000000000002" stroke="black" latexdraw:rotationAngle="0.0"/>
        </g>
        <g latexdraw:type="joinedLines" id="id1397820033">
            <polyline points="420.0,200.0 420.0,180.0 "
                stroke-width="1.2000000000000002" stroke="black" latexdraw:rotationAngle="0.0"/>
        </g>
        <g latexdraw:type="joinedLines" id="id447743769">
            <polyline points="380.0,180.0 380.0,160.0 "
                stroke-width="1.2000000000000002" stroke="black" latexdraw:rotationAngle="0.0"/>
        </g>
        <g latexdraw:type="joinedLines" id="id1919695430">
            <polyline points="340.0,160.0 340.0,140.0 "
                stroke-width="1.2000000000000002" stroke="black" latexdraw:rotationAngle="0.0"/>
        </g>
        <g latexdraw:type="joinedLines" id="id407491084">
            <polyline points="300.0,140.0 300.0,120.0 "
                stroke-width="1.2000000000000002" stroke="black" latexdraw:rotationAngle="0.0"/>
        </g>
        <g latexdraw:type="rectangle" id="id1456319382">
            <rect x="460.5" y="100.5" width="159.0" height="19.0"
                latexdraw:borderPos="outer" stroke-width="1.0"
                stroke="black" fill="url(#pattern1456319382)"/>
        </g>
        <g latexdraw:type="rectangle" id="id471730131">
            <rect x="260.5" y="120.5" width="39.0" height="19.0"
                latexdraw:borderPos="outer" stroke-width="1.0"
                stroke="black" fill="url(#pattern471730131)"/>
        </g>
        <g latexdraw:type="rectangle" id="id1837244509">
            <rect x="300.5" y="120.5" width="199.0" height="19.0"
                latexdraw:borderPos="outer" stroke-width="1.0"
                stroke="black" fill="url(#pattern1837244509)"/>
        </g>
        <g latexdraw:type="rectangle" id="id1365616896">
            <rect x="500.5" y="120.5" width="119.0" height="19.0"
                latexdraw:borderPos="outer" stroke-width="1.0"
                stroke="black" fill="url(#pattern1365616896)"/>
        </g>
        <g latexdraw:type="rectangle" id="id2024700128">
            <rect x="540.5" y="140.5" width="79.0" height="19.0"
                latexdraw:borderPos="outer" stroke-width="1.0"
                stroke="black" fill="url(#pattern2024700128)"/>
        </g>
        <g latexdraw:type="rectangle" id="id758573270">
            <rect x="340.5" y="140.5" width="199.0" height="19.0"
                latexdraw:borderPos="outer" stroke-width="1.0"
                stroke="black" fill="url(#pattern758573270)"/>
        </g>
        <g latexdraw:type="rectangle" id="id228701106">
            <rect x="260.5" y="140.5" width="79.0" height="19.0"
                latexdraw:borderPos="outer" stroke-width="1.0"
                stroke="black" fill="url(#pattern228701106)"/>
        </g>
        <g latexdraw:type="rectangle" id="id1569821316">
            <rect x="260.5" y="160.5" width="119.0" height="19.0"
                latexdraw:borderPos="outer" stroke-width="1.0"
                stroke="black" fill="url(#pattern1569821316)"/>
        </g>
        <g latexdraw:type="rectangle" id="id785412190">
            <rect x="380.5" y="160.5" width="199.0" height="19.0"
                latexdraw:borderPos="outer" stroke-width="1.0"
                stroke="black" fill="url(#pattern785412190)"/>
        </g>
        <g latexdraw:type="rectangle" id="id1966814800">
            <rect x="580.5" y="160.5" width="39.0" height="19.0"
                latexdraw:borderPos="outer" stroke-width="1.0"
                stroke="black" fill="url(#pattern1966814800)"/>
        </g>
        <g latexdraw:type="rectangle" id="id2046288768">
            <rect x="420.5" y="180.5" width="199.0" height="19.0"
                latexdraw:borderPos="outer" stroke-width="1.0"
                stroke="black" fill="url(#pattern2046288768)"/>
        </g>
        <g latexdraw:type="rectangle" id="id2083451951">
            <rect x="260.5" y="180.5" width="159.0" height="19.0"
                latexdraw:borderPos="outer" stroke-width="1.0"
                stroke="black" fill="url(#pattern2083451951)"/>
        </g>
    </g>
    <defs>
        <pattern latexdraw:type="crosshatch"
            latexdraw:rotationAngle="0.0"
            latexdraw:size="7.055555555555555"
            patternUnits="userSpaceOnUse" id="pattern1559278825" x="0"
            y="0" width="460" height="120">
            <g stroke="#999999" stroke-width="1.4111111111111112" stroke-dasharray="none">
                <path d="M 260.0 100.0 L 260.0 120.0 M 268.46666666666664 100.0 L 268.46666666666664 120.0 M 276.9333333333333 100.0 L 276.9333333333333 120.0 M 285.3999999999999 100.0 L 285.3999999999999 120.0 M 293.86666666666656 100.0 L 293.86666666666656 120.0 M 302.3333333333332 100.0 L 302.3333333333332 120.0 M 310.79999999999984 100.0 L 310.79999999999984 120.0 M 319.2666666666665 100.0 L 319.2666666666665 120.0 M 327.7333333333331 100.0 L 327.7333333333331 120.0 M 336.19999999999976 100.0 L 336.19999999999976 120.0 M 344.6666666666664 100.0 L 344.6666666666664 120.0 M 353.13333333333304 100.0 L 353.13333333333304 120.0 M 361.5999999999997 100.0 L 361.5999999999997 120.0 M 370.0666666666663 100.0 L 370.0666666666663 120.0 M 378.53333333333296 100.0 L 378.53333333333296 120.0 M 386.9999999999996 100.0 L 386.9999999999996 120.0 M 395.46666666666624 100.0 L 395.46666666666624 120.0 M 403.9333333333329 100.0 L 403.9333333333329 120.0 M 412.3999999999995 100.0 L 412.3999999999995 120.0 M 420.86666666666616 100.0 L 420.86666666666616 120.0 M 429.3333333333328 100.0 L 429.3333333333328 120.0 M 437.79999999999944 100.0 L 437.79999999999944 120.0 M 446.2666666666661 100.0 L 446.2666666666661 120.0 M 454.7333333333327 100.0 L 454.7333333333327 120.0 M 260.0 100.0 L 460.0 100.0 M 260.0 108.46666666666667 L 460.0 108.46666666666667 M 260.0 116.93333333333334 L 460.0 116.93333333333334 "/>
            </g>
        </pattern>
        <pattern latexdraw:type="crosshatch"
            latexdraw:rotationAngle="0.0"
            latexdraw:size="7.055555555555555"
            patternUnits="userSpaceOnUse" id="pattern1456319382" x="0"
            y="0" width="620" height="120">
            <g stroke="#999999" stroke-width="1.4111111111111112" stroke-dasharray="none">
                <path d="M 460.0 100.0 L 460.0 120.0 M 468.46666666666664 100.0 L 468.46666666666664 120.0 M 476.9333333333333 100.0 L 476.9333333333333 120.0 M 485.3999999999999 100.0 L 485.3999999999999 120.0 M 493.86666666666656 100.0 L 493.86666666666656 120.0 M 502.3333333333332 100.0 L 502.3333333333332 120.0 M 510.79999999999984 100.0 L 510.79999999999984 120.0 M 519.2666666666665 100.0 L 519.2666666666665 120.0 M 527.7333333333332 100.0 L 527.7333333333332 120.0 M 536.1999999999999 100.0 L 536.1999999999999 120.0 M 544.6666666666666 100.0 L 544.6666666666666 120.0 M 553.1333333333333 100.0 L 553.1333333333333 120.0 M 561.6 100.0 L 561.6 120.0 M 570.0666666666667 100.0 L 570.0666666666667 120.0 M 578.5333333333334 100.0 L 578.5333333333334 120.0 M 587.0000000000001 100.0 L 587.0000000000001 120.0 M 595.4666666666668 100.0 L 595.4666666666668 120.0 M 603.9333333333335 100.0 L 603.9333333333335 120.0 M 612.4000000000002 100.0 L 612.4000000000002 120.0 M 460.0 100.0 L 620.0 100.0 M 460.0 108.46666666666667 L 620.0 108.46666666666667 M 460.0 116.93333333333334 L 620.0 116.93333333333334 "/>
            </g>
        </pattern>
        <pattern latexdraw:type="crosshatch"
            latexdraw:rotationAngle="0.0"
            latexdraw:size="7.055555555555555"
            patternUnits="userSpaceOnUse" id="pattern471730131" x="0"
            y="0" width="300" height="140">
            <g stroke="#999999" stroke-width="1.4111111111111112" stroke-dasharray="none">
                <path d="M 260.0 120.0 L 260.0 140.0 M 268.46666666666664 120.0 L 268.46666666666664 140.0 M 276.9333333333333 120.0 L 276.9333333333333 140.0 M 285.3999999999999 120.0 L 285.3999999999999 140.0 M 293.86666666666656 120.0 L 293.86666666666656 140.0 M 260.0 120.0 L 300.0 120.0 M 260.0 128.46666666666667 L 300.0 128.46666666666667 M 260.0 136.93333333333334 L 300.0 136.93333333333334 "/>
            </g>
        </pattern>
        <pattern latexdraw:type="crosshatch"
            latexdraw:rotationAngle="0.0"
            latexdraw:size="7.055555555555555"
            patternUnits="userSpaceOnUse" id="pattern1837244509" x="0"
            y="0" width="500" height="140">
            <g stroke="#999999" stroke-width="1.4111111111111112" stroke-dasharray="none">
                <path d="M 300.0 120.0 L 300.0 140.0 M 308.46666666666664 120.0 L 308.46666666666664 140.0 M 316.9333333333333 120.0 L 316.9333333333333 140.0 M 325.3999999999999 120.0 L 325.3999999999999 140.0 M 333.86666666666656 120.0 L 333.86666666666656 140.0 M 342.3333333333332 120.0 L 342.3333333333332 140.0 M 350.79999999999984 120.0 L 350.79999999999984 140.0 M 359.2666666666665 120.0 L 359.2666666666665 140.0 M 367.7333333333331 120.0 L 367.7333333333331 140.0 M 376.19999999999976 120.0 L 376.19999999999976 140.0 M 384.6666666666664 120.0 L 384.6666666666664 140.0 M 393.13333333333304 120.0 L 393.13333333333304 140.0 M 401.5999999999997 120.0 L 401.5999999999997 140.0 M 410.0666666666663 120.0 L 410.0666666666663 140.0 M 418.53333333333296 120.0 L 418.53333333333296 140.0 M 426.9999999999996 120.0 L 426.9999999999996 140.0 M 435.46666666666624 120.0 L 435.46666666666624 140.0 M 443.9333333333329 120.0 L 443.9333333333329 140.0 M 452.3999999999995 120.0 L 452.3999999999995 140.0 M 460.86666666666616 120.0 L 460.86666666666616 140.0 M 469.3333333333328 120.0 L 469.3333333333328 140.0 M 477.79999999999944 120.0 L 477.79999999999944 140.0 M 486.2666666666661 120.0 L 486.2666666666661 140.0 M 494.7333333333327 120.0 L 494.7333333333327 140.0 M 300.0 120.0 L 500.0 120.0 M 300.0 128.46666666666667 L 500.0 128.46666666666667 M 300.0 136.93333333333334 L 500.0 136.93333333333334 "/>
            </g>
        </pattern>
        <pattern latexdraw:type="crosshatch"
            latexdraw:rotationAngle="0.0"
            latexdraw:size="7.055555555555555"
            patternUnits="userSpaceOnUse" id="pattern1365616896" x="0"
            y="0" width="620" height="140">
            <g stroke="#999999" stroke-width="1.4111111111111112" stroke-dasharray="none">
                <path d="M 500.0 120.0 L 500.0 140.0 M 508.46666666666664 120.0 L 508.46666666666664 140.0 M 516.9333333333333 120.0 L 516.9333333333333 140.0 M 525.4 120.0 L 525.4 140.0 M 533.8666666666667 120.0 L 533.8666666666667 140.0 M 542.3333333333334 120.0 L 542.3333333333334 140.0 M 550.8000000000001 120.0 L 550.8000000000001 140.0 M 559.2666666666668 120.0 L 559.2666666666668 140.0 M 567.7333333333335 120.0 L 567.7333333333335 140.0 M 576.2000000000002 120.0 L 576.2000000000002 140.0 M 584.6666666666669 120.0 L 584.6666666666669 140.0 M 593.1333333333336 120.0 L 593.1333333333336 140.0 M 601.6000000000003 120.0 L 601.6000000000003 140.0 M 610.066666666667 120.0 L 610.066666666667 140.0 M 618.5333333333336 120.0 L 618.5333333333336 140.0 M 500.0 120.0 L 620.0 120.0 M 500.0 128.46666666666667 L 620.0 128.46666666666667 M 500.0 136.93333333333334 L 620.0 136.93333333333334 "/>
            </g>
        </pattern>
        <pattern latexdraw:type="crosshatch"
            latexdraw:rotationAngle="0.0"
            latexdraw:size="7.055555555555555"
            patternUnits="userSpaceOnUse" id="pattern2024700128" x="0"
            y="0" width="620" height="160">
            <g stroke="#999999" stroke-width="1.4111111111111112" stroke-dasharray="none">
                <path d="M 540.0 140.0 L 540.0 160.0 M 548.4666666666667 140.0 L 548.4666666666667 160.0 M 556.9333333333334 140.0 L 556.9333333333334 160.0 M 565.4000000000001 140.0 L 565.4000000000001 160.0 M 573.8666666666668 140.0 L 573.8666666666668 160.0 M 582.3333333333335 140.0 L 582.3333333333335 160.0 M 590.8000000000002 140.0 L 590.8000000000002 160.0 M 599.2666666666669 140.0 L 599.2666666666669 160.0 M 607.7333333333336 140.0 L 607.7333333333336 160.0 M 616.2000000000003 140.0 L 616.2000000000003 160.0 M 540.0 140.0 L 620.0 140.0 M 540.0 148.46666666666667 L 620.0 148.46666666666667 M 540.0 156.93333333333334 L 620.0 156.93333333333334 "/>
            </g>
        </pattern>
        <pattern latexdraw:type="crosshatch"
            latexdraw:rotationAngle="0.0"
            latexdraw:size="7.055555555555555"
            patternUnits="userSpaceOnUse" id="pattern758573270" x="0"
            y="0" width="540" height="160">
            <g stroke="#999999" stroke-width="1.4111111111111112" stroke-dasharray="none">
                <path d="M 340.0 140.0 L 340.0 160.0 M 348.46666666666664 140.0 L 348.46666666666664 160.0 M 356.9333333333333 140.0 L 356.9333333333333 160.0 M 365.3999999999999 140.0 L 365.3999999999999 160.0 M 373.86666666666656 140.0 L 373.86666666666656 160.0 M 382.3333333333332 140.0 L 382.3333333333332 160.0 M 390.79999999999984 140.0 L 390.79999999999984 160.0 M 399.2666666666665 140.0 L 399.2666666666665 160.0 M 407.7333333333331 140.0 L 407.7333333333331 160.0 M 416.19999999999976 140.0 L 416.19999999999976 160.0 M 424.6666666666664 140.0 L 424.6666666666664 160.0 M 433.13333333333304 140.0 L 433.13333333333304 160.0 M 441.5999999999997 140.0 L 441.5999999999997 160.0 M 450.0666666666663 140.0 L 450.0666666666663 160.0 M 458.53333333333296 140.0 L 458.53333333333296 160.0 M 466.9999999999996 140.0 L 466.9999999999996 160.0 M 475.46666666666624 140.0 L 475.46666666666624 160.0 M 483.9333333333329 140.0 L 483.9333333333329 160.0 M 492.3999999999995 140.0 L 492.3999999999995 160.0 M 500.86666666666616 140.0 L 500.86666666666616 160.0 M 509.3333333333328 140.0 L 509.3333333333328 160.0 M 517.7999999999995 140.0 L 517.7999999999995 160.0 M 526.2666666666662 140.0 L 526.2666666666662 160.0 M 534.7333333333329 140.0 L 534.7333333333329 160.0 M 340.0 140.0 L 540.0 140.0 M 340.0 148.46666666666667 L 540.0 148.46666666666667 M 340.0 156.93333333333334 L 540.0 156.93333333333334 "/>
            </g>
        </pattern>
        <pattern latexdraw:type="crosshatch"
            latexdraw:rotationAngle="0.0"
            latexdraw:size="7.055555555555555"
            patternUnits="userSpaceOnUse" id="pattern228701106" x="0"
            y="0" width="340" height="160">
            <g stroke="#999999" stroke-width="1.4111111111111112" stroke-dasharray="none">
                <path d="M 260.0 140.0 L 260.0 160.0 M 268.46666666666664 140.0 L 268.46666666666664 160.0 M 276.9333333333333 140.0 L 276.9333333333333 160.0 M 285.3999999999999 140.0 L 285.3999999999999 160.0 M 293.86666666666656 140.0 L 293.86666666666656 160.0 M 302.3333333333332 140.0 L 302.3333333333332 160.0 M 310.79999999999984 140.0 L 310.79999999999984 160.0 M 319.2666666666665 140.0 L 319.2666666666665 160.0 M 327.7333333333331 140.0 L 327.7333333333331 160.0 M 336.19999999999976 140.0 L 336.19999999999976 160.0 M 260.0 140.0 L 340.0 140.0 M 260.0 148.46666666666667 L 340.0 148.46666666666667 M 260.0 156.93333333333334 L 340.0 156.93333333333334 "/>
            </g>
        </pattern>
        <pattern latexdraw:type="crosshatch"
            latexdraw:rotationAngle="0.0"
            latexdraw:size="7.055555555555555"
            patternUnits="userSpaceOnUse" id="pattern1569821316" x="0"
            y="0" width="380" height="180">
            <g stroke="#999999" stroke-width="1.4111111111111112" stroke-dasharray="none">
                <path d="M 260.0 160.0 L 260.0 180.0 M 268.46666666666664 160.0 L 268.46666666666664 180.0 M 276.9333333333333 160.0 L 276.9333333333333 180.0 M 285.3999999999999 160.0 L 285.3999999999999 180.0 M 293.86666666666656 160.0 L 293.86666666666656 180.0 M 302.3333333333332 160.0 L 302.3333333333332 180.0 M 310.79999999999984 160.0 L 310.79999999999984 180.0 M 319.2666666666665 160.0 L 319.2666666666665 180.0 M 327.7333333333331 160.0 L 327.7333333333331 180.0 M 336.19999999999976 160.0 L 336.19999999999976 180.0 M 344.6666666666664 160.0 L 344.6666666666664 180.0 M 353.13333333333304 160.0 L 353.13333333333304 180.0 M 361.5999999999997 160.0 L 361.5999999999997 180.0 M 370.0666666666663 160.0 L 370.0666666666663 180.0 M 378.53333333333296 160.0 L 378.53333333333296 180.0 M 260.0 160.0 L 380.0 160.0 M 260.0 168.46666666666667 L 380.0 168.46666666666667 M 260.0 176.93333333333334 L 380.0 176.93333333333334 "/>
            </g>
        </pattern>
        <pattern latexdraw:type="crosshatch"
            latexdraw:rotationAngle="0.0"
            latexdraw:size="7.055555555555555"
            patternUnits="userSpaceOnUse" id="pattern785412190" x="0"
            y="0" width="580" height="180">
            <g stroke="#999999" stroke-width="1.4111111111111112" stroke-dasharray="none">
                <path d="M 380.0 160.0 L 380.0 180.0 M 388.46666666666664 160.0 L 388.46666666666664 180.0 M 396.9333333333333 160.0 L 396.9333333333333 180.0 M 405.3999999999999 160.0 L 405.3999999999999 180.0 M 413.86666666666656 160.0 L 413.86666666666656 180.0 M 422.3333333333332 160.0 L 422.3333333333332 180.0 M 430.79999999999984 160.0 L 430.79999999999984 180.0 M 439.2666666666665 160.0 L 439.2666666666665 180.0 M 447.7333333333331 160.0 L 447.7333333333331 180.0 M 456.19999999999976 160.0 L 456.19999999999976 180.0 M 464.6666666666664 160.0 L 464.6666666666664 180.0 M 473.13333333333304 160.0 L 473.13333333333304 180.0 M 481.5999999999997 160.0 L 481.5999999999997 180.0 M 490.0666666666663 160.0 L 490.0666666666663 180.0 M 498.53333333333296 160.0 L 498.53333333333296 180.0 M 506.9999999999996 160.0 L 506.9999999999996 180.0 M 515.4666666666662 160.0 L 515.4666666666662 180.0 M 523.9333333333329 160.0 L 523.9333333333329 180.0 M 532.3999999999996 160.0 L 532.3999999999996 180.0 M 540.8666666666663 160.0 L 540.8666666666663 180.0 M 549.333333333333 160.0 L 549.333333333333 180.0 M 557.7999999999997 160.0 L 557.7999999999997 180.0 M 566.2666666666664 160.0 L 566.2666666666664 180.0 M 574.7333333333331 160.0 L 574.7333333333331 180.0 M 380.0 160.0 L 580.0 160.0 M 380.0 168.46666666666667 L 580.0 168.46666666666667 M 380.0 176.93333333333334 L 580.0 176.93333333333334 "/>
            </g>
        </pattern>
        <pattern latexdraw:type="crosshatch"
            latexdraw:rotationAngle="0.0"
            latexdraw:size="7.055555555555555"
            patternUnits="userSpaceOnUse" id="pattern1966814800" x="0"
            y="0" width="620" height="180">
            <g stroke="#999999" stroke-width="1.4111111111111112" stroke-dasharray="none">
                <path d="M 580.0 160.0 L 580.0 180.0 M 588.4666666666667 160.0 L 588.4666666666667 180.0 M 596.9333333333334 160.0 L 596.9333333333334 180.0 M 605.4000000000001 160.0 L 605.4000000000001 180.0 M 613.8666666666668 160.0 L 613.8666666666668 180.0 M 580.0 160.0 L 620.0 160.0 M 580.0 168.46666666666667 L 620.0 168.46666666666667 M 580.0 176.93333333333334 L 620.0 176.93333333333334 "/>
            </g>
        </pattern>
        <pattern latexdraw:type="crosshatch"
            latexdraw:rotationAngle="0.0"
            latexdraw:size="7.055555555555555"
            patternUnits="userSpaceOnUse" id="pattern2046288768" x="0"
            y="0" width="620" height="200">
            <g stroke="#999999" stroke-width="1.4111111111111112" stroke-dasharray="none">
                <path d="M 420.0 180.0 L 420.0 200.0 M 428.46666666666664 180.0 L 428.46666666666664 200.0 M 436.9333333333333 180.0 L 436.9333333333333 200.0 M 445.3999999999999 180.0 L 445.3999999999999 200.0 M 453.86666666666656 180.0 L 453.86666666666656 200.0 M 462.3333333333332 180.0 L 462.3333333333332 200.0 M 470.79999999999984 180.0 L 470.79999999999984 200.0 M 479.2666666666665 180.0 L 479.2666666666665 200.0 M 487.7333333333331 180.0 L 487.7333333333331 200.0 M 496.19999999999976 180.0 L 496.19999999999976 200.0 M 504.6666666666664 180.0 L 504.6666666666664 200.0 M 513.1333333333331 180.0 L 513.1333333333331 200.0 M 521.5999999999998 180.0 L 521.5999999999998 200.0 M 530.0666666666665 180.0 L 530.0666666666665 200.0 M 538.5333333333332 180.0 L 538.5333333333332 200.0 M 546.9999999999999 180.0 L 546.9999999999999 200.0 M 555.4666666666666 180.0 L 555.4666666666666 200.0 M 563.9333333333333 180.0 L 563.9333333333333 200.0 M 572.4 180.0 L 572.4 200.0 M 580.8666666666667 180.0 L 580.8666666666667 200.0 M 589.3333333333334 180.0 L 589.3333333333334 200.0 M 597.8000000000001 180.0 L 597.8000000000001 200.0 M 606.2666666666668 180.0 L 606.2666666666668 200.0 M 614.7333333333335 180.0 L 614.7333333333335 200.0 M 420.0 180.0 L 620.0 180.0 M 420.0 188.46666666666667 L 620.0 188.46666666666667 M 420.0 196.93333333333334 L 620.0 196.93333333333334 "/>
            </g>
        </pattern>
        <pattern latexdraw:type="crosshatch"
            latexdraw:rotationAngle="0.0"
            latexdraw:size="7.055555555555555"
            patternUnits="userSpaceOnUse" id="pattern2083451951" x="0"
            y="0" width="420" height="200">
            <g stroke="#999999" stroke-width="1.4111111111111112" stroke-dasharray="none">
                <path d="M 260.0 180.0 L 260.0 200.0 M 268.46666666666664 180.0 L 268.46666666666664 200.0 M 276.9333333333333 180.0 L 276.9333333333333 200.0 M 285.3999999999999 180.0 L 285.3999999999999 200.0 M 293.86666666666656 180.0 L 293.86666666666656 200.0 M 302.3333333333332 180.0 L 302.3333333333332 200.0 M 310.79999999999984 180.0 L 310.79999999999984 200.0 M 319.2666666666665 180.0 L 319.2666666666665 200.0 M 327.7333333333331 180.0 L 327.7333333333331 200.0 M 336.19999999999976 180.0 L 336.19999999999976 200.0 M 344.6666666666664 180.0 L 344.6666666666664 200.0 M 353.13333333333304 180.0 L 353.13333333333304 200.0 M 361.5999999999997 180.0 L 361.5999999999997 200.0 M 370.0666666666663 180.0 L 370.0666666666663 200.0 M 378.53333333333296 180.0 L 378.53333333333296 200.0 M 386.9999999999996 180.0 L 386.9999999999996 200.0 M 395.46666666666624 180.0 L 395.46666666666624 200.0 M 403.9333333333329 180.0 L 403.9333333333329 200.0 M 412.3999999999995 180.0 L 412.3999999999995 200.0 M 260.0 180.0 L 420.0 180.0 M 260.0 188.46666666666667 L 420.0 188.46666666666667 M 260.0 196.93333333333334 L 420.0 196.93333333333334 "/>
            </g>
        </pattern>
    </defs>
    <metadata>
        <latexdraw:metadata>
            <latexdraw:latexIncludes/>
            <latexdraw:displayXScale>true</latexdraw:displayXScale>
            <latexdraw:displayYScale>true</latexdraw:displayYScale>
            <latexdraw:unit>CM</latexdraw:unit>
            <latexdraw:zoom>1.0</latexdraw:zoom>
            <latexdraw:magneticGridStyle>CUSTOMISED</latexdraw:magneticGridStyle>
            <latexdraw:gridGap>20</latexdraw:gridGap>
            <latexdraw:magneticGrid>true</latexdraw:magneticGrid>
            <latexdraw:version>3.3.8</latexdraw:version>
            <latexdraw:size>
                <latexdraw:width>1695</latexdraw:width>
                <latexdraw:height>812</latexdraw:height>
            </latexdraw:size>
            <latexdraw:position>
                <latexdraw:x>111.0</latexdraw:x>
                <latexdraw:y>23.0</latexdraw:y>
            </latexdraw:position>
        </latexdraw:metadata>
    </metadata>
</svg>
