<?xml version="1.1" encoding="UTF-8"?>
<svg xmlns="http://www.w3.org/2000/svg"
    xmlns:latexdraw="http://latexdraw.sourceforge.net/namespaces/latexdraw"
    version="1.1" baseProfile="full">
    <g>
        <g latexdraw:type="rectangle" id="id589591941">
            <rect x="200.5" y="59.666666666666515" width="299.0"
                height="99.0" latexdraw:borderPos="outer"
                stroke-width="1.0" stroke="black" fill="none"/>
        </g>
        <g latexdraw:type="joinedLines" id="id1625272507">
            <polyline
                points="200.0,79.16666666666652 500.0,79.16666666666652 "
                stroke-width="0.6" stroke="black" latexdraw:rotationAngle="0.0"/>
        </g>
        <g latexdraw:type="joinedLines" id="id1454483177">
            <polyline
                points="340.0,199.16666666666652 340.0,179.16666666666652 "
                stroke-width="1.4000000000000001" stroke="black"
                latexdraw:rotationAngle="0.0" marker-start="url(#arrow0-1454483177)"/>
        </g>
        <g latexdraw:type="rectangle" id="id2142785323">
            <rect x="240.05" y="59.2166666666665" width="99.9"
                height="19.9" latexdraw:borderPos="outer"
                stroke-width="0.1" stroke="black" fill="url(#pattern2142785323)"/>
        </g>
        <g latexdraw:type="rectangle" id="id957254446">
            <rect x="200.5" y="219.66666666666652" width="299.0"
                height="99.0" latexdraw:borderPos="outer"
                stroke-width="1.0" stroke="black" fill="none"/>
        </g>
        <g latexdraw:type="joinedLines" id="id496596417">
            <polyline
                points="200.0,239.16666666666652 500.0,239.16666666666652 "
                stroke-width="0.6" stroke="black" latexdraw:rotationAngle="0.0"/>
        </g>
        <g latexdraw:type="joinedLines" id="id769005882">
            <polyline
                points="500.0,279.1666666666665 200.0,279.1666666666665 "
                stroke-width="0.6" stroke="black" latexdraw:rotationAngle="0.0"/>
        </g>
        <g latexdraw:type="joinedLines" id="id1986013042">
            <polyline
                points="500.0,299.1666666666665 200.0,299.1666666666665 "
                stroke-width="0.6" stroke="black" latexdraw:rotationAngle="0.0"/>
        </g>
        <g latexdraw:type="rectangle" id="id1860500318">
            <rect x="240.05" y="219.21666666666673" width="99.9"
                height="19.9" latexdraw:borderPos="outer"
                stroke-width="0.1" stroke="black" fill="url(#pattern1860500318)"/>
        </g>
        <g latexdraw:type="rectangle" id="id841794608">
            <rect x="340.05" y="219.21666666666673" width="99.9"
                height="19.9" latexdraw:borderPos="outer"
                stroke-width="0.1" stroke="black" fill="url(#pattern841794608)"/>
        </g>
        <g latexdraw:type="rectangle" id="id962669144">
            <rect x="200.05" y="59.2166666666665" width="39.9"
                height="19.9" latexdraw:borderPos="outer"
                stroke-width="0.1" stroke="black" fill="#ff3333"/>
        </g>
        <g latexdraw:type="rectangle" id="id696181241">
            <rect x="200.05" y="219.21666666666673" width="39.9"
                height="19.9" latexdraw:borderPos="outer"
                stroke-width="0.1" stroke="black" fill="#ff3333"/>
        </g>
        <g latexdraw:type="text" id="id436059588" fill="black" latexdraw:position="bl">
            <text x="209.16666666666652" y="49.166666666666515"> RS</text>
        </g>
        <g latexdraw:type="rectangle" id="id1196619307">
            <rect x="240.05" y="259.2166666666665" width="99.9"
                height="19.9" latexdraw:borderPos="outer"
                stroke-width="0.1" stroke="black" fill="url(#pattern1196619307)"/>
        </g>
        <g latexdraw:type="rectangle" id="id1767618659">
            <rect x="340.05" y="259.2166666666665" width="99.9"
                height="19.9" latexdraw:borderPos="outer"
                stroke-width="0.1" stroke="black" fill="url(#pattern1767618659)"/>
        </g>
        <g latexdraw:type="rectangle" id="id1292858675">
            <rect x="200.05" y="259.2166666666665" width="39.9"
                height="19.9" latexdraw:borderPos="outer"
                stroke-width="0.1" stroke="black" fill="#ff3333"/>
        </g>
        <g latexdraw:type="rectangle" id="id1094597461">
            <rect x="240.05" y="299.2166666666665" width="99.9"
                height="19.9" latexdraw:borderPos="outer"
                stroke-width="0.1" stroke="black" fill="url(#pattern1094597461)"/>
        </g>
        <g latexdraw:type="rectangle" id="id196524218">
            <rect x="200.05" y="299.2166666666665" width="39.9"
                height="19.9" latexdraw:borderPos="outer"
                stroke-width="0.1" stroke="black" fill="#ff3333"/>
        </g>
        <g latexdraw:type="joinedLines" id="id1585219014">
            <polyline
                points="500.0,259.1666666666665 200.0,259.1666666666665 "
                stroke-width="0.6" stroke="black" latexdraw:rotationAngle="0.0"/>
        </g>
        <g latexdraw:type="joinedLines" id="id1790667617">
            <polyline
                points="195.0,71.6666666666665 162.5,106.6666666666665 "
                stroke-width="1.0" stroke="black"
                latexdraw:rotationAngle="0.0" marker-start="url(#arrow0-1790667617)"/>
        </g>
        <g latexdraw:type="joinedLines" id="id2041317551">
            <polyline
                points="198.33333333333331,90.83333333333317 164.16666666666666,109.1666666666665 "
                stroke-width="1.0" stroke="black"
                latexdraw:rotationAngle="0.0" marker-start="url(#arrow0-2041317551)"/>
        </g>
        <g latexdraw:type="joinedLines" id="id792568426">
            <polyline
                points="196.66666666666666,114.1666666666665 166.66666666666666,114.99999999999983 "
                stroke-width="1.0" stroke="black"
                latexdraw:rotationAngle="0.0" marker-start="url(#arrow0-792568426)"/>
        </g>
        <g latexdraw:type="joinedLines" id="id1389398357">
            <polyline
                points="195.0,132.49999999999983 168.33333333333331,120.83333333333316 "
                stroke-width="1.0" stroke="black"
                latexdraw:rotationAngle="0.0" marker-start="url(#arrow0-1389398357)"/>
        </g>
        <g latexdraw:type="joinedLines" id="id1874471298">
            <polyline
                points="192.5,149.99999999999983 164.16666666666666,121.6666666666665 "
                stroke-width="1.0" stroke="black"
                latexdraw:rotationAngle="0.0" marker-start="url(#arrow0-1874471298)"/>
        </g>
        <g latexdraw:type="text" id="id1755000975" fill="black" latexdraw:position="bl">
            <text x="93.33333333333363" y="116.66666666666664">Positions</text>
        </g>
        <g latexdraw:type="text" id="id118445869" fill="black" latexdraw:position="bl">
            <text x="155.83333333333317" y="273.33333333333314">Slot</text>
        </g>
        <g latexdraw:type="joinedLines" id="id1708379260">
            <polyline
                points="193.33333333333331,319.99999999999994 193.33333333333331,220.83333333333348 "
                stroke-width="1.0999999999999999" stroke="black"
                latexdraw:rotationAngle="0.0"
                marker-start="url(#arrow0-1708379260)" marker-end="url(#arrow1-1708379260)"/>
        </g>
        <g latexdraw:type="text" id="id1623039951" fill="black" latexdraw:position="bl">
            <text x="272.49999999999966" y="48.33333333333333">$ET$</text>
        </g>
        <g latexdraw:type="joinedLines" id="id460722056">
            <polyline
                points="240.0,54.99999999999999 338.3333333333333,54.99999999999999 "
                stroke-width="1.0" stroke="black"
                latexdraw:rotationAngle="0.0"
                marker-start="url(#arrow0-460722056)" marker-end="url(#arrow1-460722056)"/>
        </g>
        <g latexdraw:type="joinedLines" id="id242975335">
            <polyline
                points="198.33333333333331,55.0 240.83333333333326,54.16666666666666 "
                stroke-width="1.0" stroke="black"
                latexdraw:rotationAngle="0.0"
                marker-start="url(#arrow0-242975335)" marker-end="url(#arrow1-242975335)"/>
        </g>
        <g latexdraw:type="joinedLines" id="id689271313">
            <polyline
                points="200.0,99.16666666666652 500.0,99.16666666666652 "
                stroke-width="0.6" stroke="black" latexdraw:rotationAngle="0.0"/>
        </g>
        <g latexdraw:type="rectangle" id="id40767898">
            <rect x="240.05" y="79.2166666666665" width="99.9"
                height="19.9" latexdraw:borderPos="outer"
                stroke-width="0.1" stroke="black" fill="url(#pattern40767898)"/>
        </g>
        <g latexdraw:type="rectangle" id="id599967139">
            <rect x="200.05" y="79.2166666666665" width="39.9"
                height="19.9" latexdraw:borderPos="outer"
                stroke-width="0.1" stroke="black" fill="#ff3333"/>
        </g>
        <g latexdraw:type="joinedLines" id="id666519369">
            <polyline
                points="200.0,119.16666666666652 500.0,119.16666666666652 "
                stroke-width="0.6" stroke="black" latexdraw:rotationAngle="0.0"/>
        </g>
        <g latexdraw:type="rectangle" id="id509279470">
            <rect x="240.05" y="99.2166666666665" width="99.9"
                height="19.9" latexdraw:borderPos="outer"
                stroke-width="0.1" stroke="black" fill="url(#pattern509279470)"/>
        </g>
        <g latexdraw:type="rectangle" id="id1844869778">
            <rect x="200.05" y="99.2166666666665" width="39.9"
                height="19.9" latexdraw:borderPos="outer"
                stroke-width="0.1" stroke="black" fill="#ff3333"/>
        </g>
        <g latexdraw:type="joinedLines" id="id166779509">
            <polyline
                points="200.0,139.16666666666652 500.0,139.16666666666652 "
                stroke-width="0.6" stroke="black" latexdraw:rotationAngle="0.0"/>
        </g>
        <g latexdraw:type="rectangle" id="id1354691065">
            <rect x="240.05" y="119.2166666666665" width="99.9"
                height="19.900000000000013" latexdraw:borderPos="outer"
                stroke-width="0.1" stroke="black" fill="url(#pattern1354691065)"/>
        </g>
        <g latexdraw:type="rectangle" id="id946465629">
            <rect x="200.05" y="119.2166666666665" width="39.9"
                height="19.900000000000013" latexdraw:borderPos="outer"
                stroke-width="0.1" stroke="black" fill="#ff3333"/>
        </g>
        <g latexdraw:type="joinedLines" id="id14684375">
            <polyline
                points="200.0,159.16666666666652 500.0,159.16666666666652 "
                stroke-width="0.6" stroke="black" latexdraw:rotationAngle="0.0"/>
        </g>
        <g latexdraw:type="rectangle" id="id1830727616">
            <rect x="240.05" y="139.21666666666655" width="99.9"
                height="19.9" latexdraw:borderPos="outer"
                stroke-width="0.1" stroke="black" fill="url(#pattern1830727616)"/>
        </g>
        <g latexdraw:type="rectangle" id="id2055124578">
            <rect x="200.05" y="139.21666666666655" width="39.9"
                height="19.9" latexdraw:borderPos="outer"
                stroke-width="0.1" stroke="black" fill="#ff3333"/>
        </g>
    </g>
    <defs>
        <marker overflow="visible" orient="auto" id="arrow0-1454483177">
            <path
                d="M 0.0 0.0 L 5.445833333333333 1.9449404761904758 L 5.445833333333333 0.0 L 5.445833333333333 -1.9449404761904758 z "
                latexdraw:arrSizeNum="2.0" fill="black"/>
        </marker>
        <pattern latexdraw:type="crosshatch*"
            latexdraw:rotationAngle="0.0"
            latexdraw:size="7.055555555555555"
            patternUnits="userSpaceOnUse" id="pattern2142785323" x="0"
            y="0" width="340" height="79">
            <rect width="340" height="79" fill="#cccccc" stroke="none"/>
            <g stroke="#999999" stroke-width="0.6" stroke-dasharray="none">
                <path d="M 240.0 59.1666666666665 L 240.0 79.1666666666665 M 247.65555555555557 59.1666666666665 L 247.65555555555557 79.1666666666665 M 255.31111111111113 59.1666666666665 L 255.31111111111113 79.1666666666665 M 262.9666666666667 59.1666666666665 L 262.9666666666667 79.1666666666665 M 270.62222222222226 59.1666666666665 L 270.62222222222226 79.1666666666665 M 278.2777777777778 59.1666666666665 L 278.2777777777778 79.1666666666665 M 285.9333333333334 59.1666666666665 L 285.9333333333334 79.1666666666665 M 293.58888888888896 59.1666666666665 L 293.58888888888896 79.1666666666665 M 301.2444444444445 59.1666666666665 L 301.2444444444445 79.1666666666665 M 308.9000000000001 59.1666666666665 L 308.9000000000001 79.1666666666665 M 316.55555555555566 59.1666666666665 L 316.55555555555566 79.1666666666665 M 324.2111111111112 59.1666666666665 L 324.2111111111112 79.1666666666665 M 331.8666666666668 59.1666666666665 L 331.8666666666668 79.1666666666665 M 339.52222222222235 59.1666666666665 L 339.52222222222235 79.1666666666665 M 240.0 59.1666666666665 L 340.0 59.1666666666665 M 240.0 66.82222222222205 L 340.0 66.82222222222205 M 240.0 74.4777777777776 L 340.0 74.4777777777776 "/>
            </g>
        </pattern>
        <pattern latexdraw:type="crosshatch*"
            latexdraw:rotationAngle="0.0"
            latexdraw:size="7.055555555555555"
            patternUnits="userSpaceOnUse" id="pattern1860500318" x="0"
            y="0" width="340" height="239">
            <rect width="340" height="239" fill="#cccccc" stroke="none"/>
            <g stroke="#999999" stroke-width="0.6" stroke-dasharray="none">
                <path d="M 240.0 219.1666666666667 L 240.0 239.1666666666667 M 247.65555555555557 219.1666666666667 L 247.65555555555557 239.1666666666667 M 255.31111111111113 219.1666666666667 L 255.31111111111113 239.1666666666667 M 262.9666666666667 219.1666666666667 L 262.9666666666667 239.1666666666667 M 270.62222222222226 219.1666666666667 L 270.62222222222226 239.1666666666667 M 278.2777777777778 219.1666666666667 L 278.2777777777778 239.1666666666667 M 285.9333333333334 219.1666666666667 L 285.9333333333334 239.1666666666667 M 293.58888888888896 219.1666666666667 L 293.58888888888896 239.1666666666667 M 301.2444444444445 219.1666666666667 L 301.2444444444445 239.1666666666667 M 308.9000000000001 219.1666666666667 L 308.9000000000001 239.1666666666667 M 316.55555555555566 219.1666666666667 L 316.55555555555566 239.1666666666667 M 324.2111111111112 219.1666666666667 L 324.2111111111112 239.1666666666667 M 331.8666666666668 219.1666666666667 L 331.8666666666668 239.1666666666667 M 339.52222222222235 219.1666666666667 L 339.52222222222235 239.1666666666667 M 240.0 219.1666666666667 L 340.0 219.1666666666667 M 240.0 226.82222222222228 L 340.0 226.82222222222228 M 240.0 234.47777777777785 L 340.0 234.47777777777785 "/>
            </g>
        </pattern>
        <pattern latexdraw:type="crosshatch*"
            latexdraw:rotationAngle="0.0"
            latexdraw:size="7.055555555555555"
            patternUnits="userSpaceOnUse" id="pattern841794608" x="0"
            y="0" width="440" height="239">
            <rect width="440" height="239" fill="#cccccc" stroke="none"/>
            <g stroke="#999999" stroke-width="0.6" stroke-dasharray="none">
                <path d="M 340.0 219.1666666666667 L 340.0 239.1666666666667 M 347.65555555555557 219.1666666666667 L 347.65555555555557 239.1666666666667 M 355.31111111111113 219.1666666666667 L 355.31111111111113 239.1666666666667 M 362.9666666666667 219.1666666666667 L 362.9666666666667 239.1666666666667 M 370.62222222222226 219.1666666666667 L 370.62222222222226 239.1666666666667 M 378.2777777777778 219.1666666666667 L 378.2777777777778 239.1666666666667 M 385.9333333333334 219.1666666666667 L 385.9333333333334 239.1666666666667 M 393.58888888888896 219.1666666666667 L 393.58888888888896 239.1666666666667 M 401.2444444444445 219.1666666666667 L 401.2444444444445 239.1666666666667 M 408.9000000000001 219.1666666666667 L 408.9000000000001 239.1666666666667 M 416.55555555555566 219.1666666666667 L 416.55555555555566 239.1666666666667 M 424.2111111111112 219.1666666666667 L 424.2111111111112 239.1666666666667 M 431.8666666666668 219.1666666666667 L 431.8666666666668 239.1666666666667 M 439.52222222222235 219.1666666666667 L 439.52222222222235 239.1666666666667 M 340.0 219.1666666666667 L 440.0 219.1666666666667 M 340.0 226.82222222222228 L 440.0 226.82222222222228 M 340.0 234.47777777777785 L 440.0 234.47777777777785 "/>
            </g>
        </pattern>
        <pattern latexdraw:type="crosshatch*"
            latexdraw:rotationAngle="0.0"
            latexdraw:size="7.055555555555555"
            patternUnits="userSpaceOnUse" id="pattern1196619307" x="0"
            y="0" width="340" height="279">
            <rect width="340" height="279" fill="#cccccc" stroke="none"/>
            <g stroke="#999999" stroke-width="0.6" stroke-dasharray="none">
                <path d="M 240.0 259.1666666666665 L 240.0 279.1666666666665 M 247.65555555555557 259.1666666666665 L 247.65555555555557 279.1666666666665 M 255.31111111111113 259.1666666666665 L 255.31111111111113 279.1666666666665 M 262.9666666666667 259.1666666666665 L 262.9666666666667 279.1666666666665 M 270.62222222222226 259.1666666666665 L 270.62222222222226 279.1666666666665 M 278.2777777777778 259.1666666666665 L 278.2777777777778 279.1666666666665 M 285.9333333333334 259.1666666666665 L 285.9333333333334 279.1666666666665 M 293.58888888888896 259.1666666666665 L 293.58888888888896 279.1666666666665 M 301.2444444444445 259.1666666666665 L 301.2444444444445 279.1666666666665 M 308.9000000000001 259.1666666666665 L 308.9000000000001 279.1666666666665 M 316.55555555555566 259.1666666666665 L 316.55555555555566 279.1666666666665 M 324.2111111111112 259.1666666666665 L 324.2111111111112 279.1666666666665 M 331.8666666666668 259.1666666666665 L 331.8666666666668 279.1666666666665 M 339.52222222222235 259.1666666666665 L 339.52222222222235 279.1666666666665 M 240.0 259.1666666666665 L 340.0 259.1666666666665 M 240.0 266.8222222222221 L 340.0 266.8222222222221 M 240.0 274.47777777777765 L 340.0 274.47777777777765 "/>
            </g>
        </pattern>
        <pattern latexdraw:type="crosshatch*"
            latexdraw:rotationAngle="0.0"
            latexdraw:size="7.055555555555555"
            patternUnits="userSpaceOnUse" id="pattern1767618659" x="0"
            y="0" width="440" height="279">
            <rect width="440" height="279" fill="#cccccc" stroke="none"/>
            <g stroke="#999999" stroke-width="0.6" stroke-dasharray="none">
                <path d="M 340.0 259.1666666666665 L 340.0 279.1666666666665 M 347.65555555555557 259.1666666666665 L 347.65555555555557 279.1666666666665 M 355.31111111111113 259.1666666666665 L 355.31111111111113 279.1666666666665 M 362.9666666666667 259.1666666666665 L 362.9666666666667 279.1666666666665 M 370.62222222222226 259.1666666666665 L 370.62222222222226 279.1666666666665 M 378.2777777777778 259.1666666666665 L 378.2777777777778 279.1666666666665 M 385.9333333333334 259.1666666666665 L 385.9333333333334 279.1666666666665 M 393.58888888888896 259.1666666666665 L 393.58888888888896 279.1666666666665 M 401.2444444444445 259.1666666666665 L 401.2444444444445 279.1666666666665 M 408.9000000000001 259.1666666666665 L 408.9000000000001 279.1666666666665 M 416.55555555555566 259.1666666666665 L 416.55555555555566 279.1666666666665 M 424.2111111111112 259.1666666666665 L 424.2111111111112 279.1666666666665 M 431.8666666666668 259.1666666666665 L 431.8666666666668 279.1666666666665 M 439.52222222222235 259.1666666666665 L 439.52222222222235 279.1666666666665 M 340.0 259.1666666666665 L 440.0 259.1666666666665 M 340.0 266.8222222222221 L 440.0 266.8222222222221 M 340.0 274.47777777777765 L 440.0 274.47777777777765 "/>
            </g>
        </pattern>
        <pattern latexdraw:type="crosshatch*"
            latexdraw:rotationAngle="0.0"
            latexdraw:size="7.055555555555555"
            patternUnits="userSpaceOnUse" id="pattern1094597461" x="0"
            y="0" width="340" height="319">
            <rect width="340" height="319" fill="#cccccc" stroke="none"/>
            <g stroke="#999999" stroke-width="0.6" stroke-dasharray="none">
                <path d="M 240.0 299.1666666666665 L 240.0 319.1666666666665 M 247.65555555555557 299.1666666666665 L 247.65555555555557 319.1666666666665 M 255.31111111111113 299.1666666666665 L 255.31111111111113 319.1666666666665 M 262.9666666666667 299.1666666666665 L 262.9666666666667 319.1666666666665 M 270.62222222222226 299.1666666666665 L 270.62222222222226 319.1666666666665 M 278.2777777777778 299.1666666666665 L 278.2777777777778 319.1666666666665 M 285.9333333333334 299.1666666666665 L 285.9333333333334 319.1666666666665 M 293.58888888888896 299.1666666666665 L 293.58888888888896 319.1666666666665 M 301.2444444444445 299.1666666666665 L 301.2444444444445 319.1666666666665 M 308.9000000000001 299.1666666666665 L 308.9000000000001 319.1666666666665 M 316.55555555555566 299.1666666666665 L 316.55555555555566 319.1666666666665 M 324.2111111111112 299.1666666666665 L 324.2111111111112 319.1666666666665 M 331.8666666666668 299.1666666666665 L 331.8666666666668 319.1666666666665 M 339.52222222222235 299.1666666666665 L 339.52222222222235 319.1666666666665 M 240.0 299.1666666666665 L 340.0 299.1666666666665 M 240.0 306.8222222222221 L 340.0 306.8222222222221 M 240.0 314.47777777777765 L 340.0 314.47777777777765 "/>
            </g>
        </pattern>
        <marker overflow="visible" orient="auto" id="arrow0-1790667617">
            <path
                d="M 0.0 0.0 L 6.504166666666667 2.322916666666667 L 6.504166666666667 0.0 L 6.504166666666667 -2.322916666666667 z "
                latexdraw:arrSizeNum="2.0" fill="black"/>
        </marker>
        <marker overflow="visible" orient="auto" id="arrow0-2041317551">
            <path
                d="M 0.0 0.0 L 6.504166666666667 2.322916666666667 L 6.504166666666667 0.0 L 6.504166666666667 -2.322916666666667 z "
                latexdraw:arrSizeNum="2.0" fill="black"/>
        </marker>
        <marker overflow="visible" orient="auto" id="arrow0-792568426">
            <path
                d="M 0.0 0.0 L 6.504166666666667 2.322916666666667 L 6.504166666666667 0.0 L 6.504166666666667 -2.322916666666667 z "
                latexdraw:arrSizeNum="2.0" fill="black"/>
        </marker>
        <marker overflow="visible" orient="auto" id="arrow0-1389398357">
            <path
                d="M 0.0 0.0 L 6.504166666666667 2.322916666666667 L 6.504166666666667 0.0 L 6.504166666666667 -2.322916666666667 z "
                latexdraw:arrSizeNum="2.0" fill="black"/>
        </marker>
        <marker overflow="visible" orient="auto" id="arrow0-1874471298">
            <path
                d="M 0.0 0.0 L 6.504166666666667 2.322916666666667 L 6.504166666666667 0.0 L 6.504166666666667 -2.322916666666667 z "
                latexdraw:arrSizeNum="2.0" fill="black"/>
        </marker>
        <marker overflow="visible" orient="auto" id="arrow0-1708379260">
            <path
                d="M 0.0 0.0 L 8.967424242424242 3.202651515151515 L 8.967424242424242 0.0 L 8.967424242424242 -3.202651515151515 z "
                latexdraw:arrSizeNum="4.0" fill="black"/>
        </marker>
        <marker overflow="visible" orient="auto" id="arrow1-1708379260">
            <path
                d="M 0.0 0.0 L -8.967424242424242 3.202651515151515 L -8.967424242424242 0.0 L -8.967424242424242 -3.202651515151515 z "
                latexdraw:arrSizeNum="4.0" fill="black"/>
        </marker>
        <marker overflow="visible" orient="auto" id="arrow0-460722056">
            <path
                d="M 0.0 0.0 L 6.504166666666667 2.322916666666667 L 6.504166666666667 0.0 L 6.504166666666667 -2.322916666666667 z "
                latexdraw:arrSizeNum="2.0" fill="black"/>
        </marker>
        <marker overflow="visible" orient="auto" id="arrow1-460722056">
            <path
                d="M 0.0 0.0 L -6.504166666666667 2.322916666666667 L -6.504166666666667 0.0 L -6.504166666666667 -2.322916666666667 z "
                latexdraw:arrSizeNum="2.0" fill="black"/>
        </marker>
        <marker overflow="visible" orient="auto" id="arrow0-242975335">
            <path
                d="M 0.0 0.0 L 6.504166666666667 2.322916666666667 L 6.504166666666667 0.0 L 6.504166666666667 -2.322916666666667 z "
                latexdraw:arrSizeNum="2.0" fill="black"/>
        </marker>
        <marker overflow="visible" orient="auto" id="arrow1-242975335">
            <path
                d="M 0.0 0.0 L -6.504166666666667 2.322916666666667 L -6.504166666666667 0.0 L -6.504166666666667 -2.322916666666667 z "
                latexdraw:arrSizeNum="2.0" fill="black"/>
        </marker>
        <pattern latexdraw:type="crosshatch*"
            latexdraw:rotationAngle="0.0"
            latexdraw:size="7.055555555555555"
            patternUnits="userSpaceOnUse" id="pattern40767898" x="0"
            y="0" width="340" height="99">
            <rect width="340" height="99" fill="#cccccc" stroke="none"/>
            <g stroke="#999999" stroke-width="0.6" stroke-dasharray="none">
                <path d="M 240.0 79.1666666666665 L 240.0 99.1666666666665 M 247.65555555555557 79.1666666666665 L 247.65555555555557 99.1666666666665 M 255.31111111111113 79.1666666666665 L 255.31111111111113 99.1666666666665 M 262.9666666666667 79.1666666666665 L 262.9666666666667 99.1666666666665 M 270.62222222222226 79.1666666666665 L 270.62222222222226 99.1666666666665 M 278.2777777777778 79.1666666666665 L 278.2777777777778 99.1666666666665 M 285.9333333333334 79.1666666666665 L 285.9333333333334 99.1666666666665 M 293.58888888888896 79.1666666666665 L 293.58888888888896 99.1666666666665 M 301.2444444444445 79.1666666666665 L 301.2444444444445 99.1666666666665 M 308.9000000000001 79.1666666666665 L 308.9000000000001 99.1666666666665 M 316.55555555555566 79.1666666666665 L 316.55555555555566 99.1666666666665 M 324.2111111111112 79.1666666666665 L 324.2111111111112 99.1666666666665 M 331.8666666666668 79.1666666666665 L 331.8666666666668 99.1666666666665 M 339.52222222222235 79.1666666666665 L 339.52222222222235 99.1666666666665 M 240.0 79.1666666666665 L 340.0 79.1666666666665 M 240.0 86.82222222222205 L 340.0 86.82222222222205 M 240.0 94.4777777777776 L 340.0 94.4777777777776 "/>
            </g>
        </pattern>
        <pattern latexdraw:type="crosshatch*"
            latexdraw:rotationAngle="0.0"
            latexdraw:size="7.055555555555555"
            patternUnits="userSpaceOnUse" id="pattern509279470" x="0"
            y="0" width="340" height="119">
            <rect width="340" height="119" fill="#cccccc" stroke="none"/>
            <g stroke="#999999" stroke-width="0.6" stroke-dasharray="none">
                <path d="M 240.0 99.1666666666665 L 240.0 119.1666666666665 M 247.65555555555557 99.1666666666665 L 247.65555555555557 119.1666666666665 M 255.31111111111113 99.1666666666665 L 255.31111111111113 119.1666666666665 M 262.9666666666667 99.1666666666665 L 262.9666666666667 119.1666666666665 M 270.62222222222226 99.1666666666665 L 270.62222222222226 119.1666666666665 M 278.2777777777778 99.1666666666665 L 278.2777777777778 119.1666666666665 M 285.9333333333334 99.1666666666665 L 285.9333333333334 119.1666666666665 M 293.58888888888896 99.1666666666665 L 293.58888888888896 119.1666666666665 M 301.2444444444445 99.1666666666665 L 301.2444444444445 119.1666666666665 M 308.9000000000001 99.1666666666665 L 308.9000000000001 119.1666666666665 M 316.55555555555566 99.1666666666665 L 316.55555555555566 119.1666666666665 M 324.2111111111112 99.1666666666665 L 324.2111111111112 119.1666666666665 M 331.8666666666668 99.1666666666665 L 331.8666666666668 119.1666666666665 M 339.52222222222235 99.1666666666665 L 339.52222222222235 119.1666666666665 M 240.0 99.1666666666665 L 340.0 99.1666666666665 M 240.0 106.82222222222205 L 340.0 106.82222222222205 M 240.0 114.4777777777776 L 340.0 114.4777777777776 "/>
            </g>
        </pattern>
        <pattern latexdraw:type="crosshatch*"
            latexdraw:rotationAngle="0.0"
            latexdraw:size="7.055555555555555"
            patternUnits="userSpaceOnUse" id="pattern1354691065" x="0"
            y="0" width="340" height="139">
            <rect width="340" height="139" fill="#cccccc" stroke="none"/>
            <g stroke="#999999" stroke-width="0.6" stroke-dasharray="none">
                <path d="M 240.0 119.1666666666665 L 240.0 139.16666666666652 M 247.65555555555557 119.1666666666665 L 247.65555555555557 139.16666666666652 M 255.31111111111113 119.1666666666665 L 255.31111111111113 139.16666666666652 M 262.9666666666667 119.1666666666665 L 262.9666666666667 139.16666666666652 M 270.62222222222226 119.1666666666665 L 270.62222222222226 139.16666666666652 M 278.2777777777778 119.1666666666665 L 278.2777777777778 139.16666666666652 M 285.9333333333334 119.1666666666665 L 285.9333333333334 139.16666666666652 M 293.58888888888896 119.1666666666665 L 293.58888888888896 139.16666666666652 M 301.2444444444445 119.1666666666665 L 301.2444444444445 139.16666666666652 M 308.9000000000001 119.1666666666665 L 308.9000000000001 139.16666666666652 M 316.55555555555566 119.1666666666665 L 316.55555555555566 139.16666666666652 M 324.2111111111112 119.1666666666665 L 324.2111111111112 139.16666666666652 M 331.8666666666668 119.1666666666665 L 331.8666666666668 139.16666666666652 M 339.52222222222235 119.1666666666665 L 339.52222222222235 139.16666666666652 M 240.0 119.1666666666665 L 340.0 119.1666666666665 M 240.0 126.82222222222205 L 340.0 126.82222222222205 M 240.0 134.47777777777762 L 340.0 134.47777777777762 "/>
            </g>
        </pattern>
        <pattern latexdraw:type="crosshatch*"
            latexdraw:rotationAngle="0.0"
            latexdraw:size="7.055555555555555"
            patternUnits="userSpaceOnUse" id="pattern1830727616" x="0"
            y="0" width="340" height="159">
            <rect width="340" height="159" fill="#cccccc" stroke="none"/>
            <g stroke="#999999" stroke-width="0.6" stroke-dasharray="none">
                <path d="M 240.0 139.16666666666654 L 240.0 159.16666666666654 M 247.65555555555557 139.16666666666654 L 247.65555555555557 159.16666666666654 M 255.31111111111113 139.16666666666654 L 255.31111111111113 159.16666666666654 M 262.9666666666667 139.16666666666654 L 262.9666666666667 159.16666666666654 M 270.62222222222226 139.16666666666654 L 270.62222222222226 159.16666666666654 M 278.2777777777778 139.16666666666654 L 278.2777777777778 159.16666666666654 M 285.9333333333334 139.16666666666654 L 285.9333333333334 159.16666666666654 M 293.58888888888896 139.16666666666654 L 293.58888888888896 159.16666666666654 M 301.2444444444445 139.16666666666654 L 301.2444444444445 159.16666666666654 M 308.9000000000001 139.16666666666654 L 308.9000000000001 159.16666666666654 M 316.55555555555566 139.16666666666654 L 316.55555555555566 159.16666666666654 M 324.2111111111112 139.16666666666654 L 324.2111111111112 159.16666666666654 M 331.8666666666668 139.16666666666654 L 331.8666666666668 159.16666666666654 M 339.52222222222235 139.16666666666654 L 339.52222222222235 159.16666666666654 M 240.0 139.16666666666654 L 340.0 139.16666666666654 M 240.0 146.8222222222221 L 340.0 146.8222222222221 M 240.0 154.47777777777767 L 340.0 154.47777777777767 "/>
            </g>
        </pattern>
    </defs>
    <metadata>
        <latexdraw:metadata>
            <latexdraw:latexIncludes/>
            <latexdraw:displayXScale>true</latexdraw:displayXScale>
            <latexdraw:displayYScale>true</latexdraw:displayYScale>
            <latexdraw:unit>CM</latexdraw:unit>
            <latexdraw:zoom>1.2000000000000002</latexdraw:zoom>
            <latexdraw:magneticGridStyle>CUSTOMISED</latexdraw:magneticGridStyle>
            <latexdraw:gridGap>20</latexdraw:gridGap>
            <latexdraw:magneticGrid>true</latexdraw:magneticGrid>
            <latexdraw:version>3.3.7</latexdraw:version>
            <latexdraw:size>
                <latexdraw:width>1440</latexdraw:width>
                <latexdraw:height>804</latexdraw:height>
            </latexdraw:size>
            <latexdraw:position>
                <latexdraw:x>0.0</latexdraw:x>
                <latexdraw:y>23.0</latexdraw:y>
            </latexdraw:position>
        </latexdraw:metadata>
    </metadata>
</svg>
