<?xml version="1.1" encoding="UTF-8"?>
<svg xmlns="http://www.w3.org/2000/svg"
    xmlns:latexdraw="http://latexdraw.sourceforge.net/namespaces/latexdraw"
    version="1.1" baseProfile="full">
    <g>
        <g latexdraw:type="rectangle" id="id589963331">
            <rect x="80.5" y="60.5" width="299.0" height="99.0"
                latexdraw:borderPos="outer" stroke-width="1.0"
                stroke="black" fill="none"/>
        </g>
        <g latexdraw:type="joinedLines" id="id1066970240">
            <polyline points="80.0,80.0 380.0,80.0 " stroke-width="0.6"
                stroke="black" latexdraw:rotationAngle="0.0"/>
        </g>
        <g latexdraw:type="joinedLines" id="id2049547357">
            <polyline
                points="377.99999280600423,39.95424573491031 80.00000719399597,40.04575426508969 "
                stroke-width="0.6" stroke="black"
                latexdraw:rotationAngle="0.0"
                marker-start="url(#arrow0-2049547357)" marker-end="url(#arrow1-2049547357)"/>
        </g>
        <g latexdraw:type="text" id="id1723941" fill="black" latexdraw:position="bl">
            <text x="210.0" y="38.0">Period</text>
        </g>
        <g latexdraw:type="rectangle" id="id670477154">
            <rect x="120.05" y="60.04999999999998" width="150.9"
                height="19.9" latexdraw:borderPos="outer"
                stroke-width="0.1" stroke="black" fill="url(#pattern670477154)"/>
        </g>
        <g latexdraw:type="rectangle" id="id2145797396">
            <rect x="78.5" y="219.5" width="299.0" height="99.0"
                latexdraw:borderPos="outer" stroke-width="1.0"
                stroke="black" fill="none"/>
        </g>
        <g latexdraw:type="joinedLines" id="id1290015428">
            <polyline points="78.0,239.0 378.0,239.0 "
                stroke-width="0.6" stroke="black" latexdraw:rotationAngle="0.0"/>
        </g>
        <g latexdraw:type="joinedLines" id="id154549178">
            <polyline points="378.0,279.0 78.0,279.0 "
                stroke-width="0.6" stroke="black" latexdraw:rotationAngle="0.0"/>
        </g>
        <g latexdraw:type="joinedLines" id="id1661694433">
            <polyline points="78.0,259.0 378.0,259.0 "
                stroke-width="0.6" stroke="black" latexdraw:rotationAngle="0.0"/>
        </g>
        <g latexdraw:type="joinedLines" id="id935849870">
            <polyline points="378.0,299.0 78.0,299.0 "
                stroke-width="0.6" stroke="black" latexdraw:rotationAngle="0.0"/>
        </g>
        <g latexdraw:type="rectangle" id="id701467693">
            <rect x="118.05" y="219.05000000000013" width="150.9"
                height="19.9" latexdraw:borderPos="outer"
                stroke-width="0.1" stroke="black" fill="url(#pattern701467693)"/>
        </g>
        <g latexdraw:type="rectangle" id="id154230286">
            <rect x="138.05" y="239.05" width="150.9" height="19.9"
                latexdraw:borderPos="outer" stroke-width="0.1"
                stroke="black" fill="url(#pattern154230286)"/>
        </g>
        <g latexdraw:type="rectangle" id="id1445970347">
            <rect x="198.05" y="259.05" width="150.9" height="19.9"
                latexdraw:borderPos="outer" stroke-width="0.1"
                stroke="black" fill="url(#pattern1445970347)"/>
        </g>
        <g latexdraw:type="rectangle" id="id1202519422">
            <rect x="258.05" y="279.05" width="119.9" height="19.9"
                latexdraw:borderPos="outer" stroke-width="0.1"
                stroke="black" fill="url(#pattern1202519422)"/>
        </g>
        <g latexdraw:type="rectangle" id="id1217238394">
            <rect x="78.05" y="279.05" width="66.9" height="19.9"
                latexdraw:borderPos="outer" stroke-width="0.1"
                stroke="black" fill="url(#pattern1217238394)"/>
        </g>
        <g latexdraw:type="rectangle" id="id1550246729">
            <rect x="318.05" y="299.05" width="59.9" height="19.9"
                latexdraw:borderPos="outer" stroke-width="0.1"
                stroke="black" fill="url(#pattern1550246729)"/>
        </g>
        <g latexdraw:type="rectangle" id="id564722805">
            <rect x="78.05" y="299.05" width="127.9" height="19.9"
                latexdraw:borderPos="outer" stroke-width="0.1"
                stroke="black" fill="url(#pattern564722805)"/>
        </g>
        <g latexdraw:type="joinedLines" id="id1990394933">
            <polyline points="220.0,200.0 220.0,180.0 "
                stroke-width="1.4000000000000001" stroke="black"
                latexdraw:rotationAngle="0.0" marker-start="url(#arrow0-1990394933)"/>
        </g>
        <g latexdraw:type="rectangle" id="id1445409858">
            <rect x="80.05" y="60.04999999999998" width="39.9"
                height="19.9" latexdraw:borderPos="outer"
                stroke-width="0.1" stroke="black" fill="#ff3333"/>
        </g>
        <g latexdraw:type="rectangle" id="id2041685162">
            <rect x="78.05" y="219.0500000000001" width="39.9"
                height="19.900000000000027" latexdraw:borderPos="outer"
                stroke-width="0.1" stroke="black" fill="#ff3333"/>
        </g>
        <g latexdraw:type="rectangle" id="id1664489577">
            <rect x="289.05" y="240.05" width="39.9" height="19.9"
                latexdraw:borderPos="outer" stroke-width="0.1"
                stroke="black" fill="#ff3333"/>
        </g>
        <g latexdraw:type="rectangle" id="id553943118">
            <rect x="360.05" y="260.05" width="1.0000000000000226"
                height="1.0000000000000226" latexdraw:borderPos="outer"
                stroke-width="0.1" stroke="black" fill="#ff3333"/>
        </g>
        <g latexdraw:type="rectangle" id="id1020106130">
            <rect x="346.05" y="259.05" width="30.9" height="19.9"
                latexdraw:borderPos="outer" stroke-width="0.1"
                stroke="black" fill="#ff3333"/>
        </g>
        <g latexdraw:type="rectangle" id="id1259165394">
            <rect x="258.05" y="280.05" width="39.9" height="19.9"
                latexdraw:borderPos="outer" stroke-width="0.1"
                stroke="black" fill="#ff3333"/>
        </g>
        <g latexdraw:type="rectangle" id="id764131544">
            <rect x="318.05" y="299.05" width="39.9" height="19.9"
                latexdraw:borderPos="outer" stroke-width="0.1"
                stroke="black" fill="#ff3333"/>
        </g>
        <g latexdraw:type="joinedLines" id="id1266994300">
            <polyline points="80.0,100.0 380.0,100.0 "
                stroke-width="0.6" stroke="black" latexdraw:rotationAngle="0.0"/>
        </g>
        <g latexdraw:type="rectangle" id="id1800960988">
            <rect x="120.05" y="80.04999999999998" width="150.9"
                height="19.9" latexdraw:borderPos="outer"
                stroke-width="0.1" stroke="black" fill="url(#pattern1800960988)"/>
        </g>
        <g latexdraw:type="rectangle" id="id1888279003">
            <rect x="80.05" y="80.04999999999998" width="39.9"
                height="19.9" latexdraw:borderPos="outer"
                stroke-width="0.1" stroke="black" fill="#ff3333"/>
        </g>
        <g latexdraw:type="joinedLines" id="id1811644227">
            <polyline points="80.0,120.0 380.0,120.0 "
                stroke-width="0.6" stroke="black" latexdraw:rotationAngle="0.0"/>
        </g>
        <g latexdraw:type="rectangle" id="id1157669516">
            <rect x="120.05" y="100.04999999999998" width="150.9"
                height="19.9" latexdraw:borderPos="outer"
                stroke-width="0.1" stroke="black" fill="url(#pattern1157669516)"/>
        </g>
        <g latexdraw:type="rectangle" id="id2081088535">
            <rect x="80.05" y="100.04999999999998" width="39.9"
                height="19.9" latexdraw:borderPos="outer"
                stroke-width="0.1" stroke="black" fill="#ff3333"/>
        </g>
        <g latexdraw:type="joinedLines" id="id1440846850">
            <polyline points="80.0,140.0 380.0,140.0 "
                stroke-width="0.6" stroke="black" latexdraw:rotationAngle="0.0"/>
        </g>
        <g latexdraw:type="rectangle" id="id1788699634">
            <rect x="120.05" y="120.04999999999998" width="150.9"
                height="19.900000000000013" latexdraw:borderPos="outer"
                stroke-width="0.1" stroke="black" fill="url(#pattern1788699634)"/>
        </g>
        <g latexdraw:type="rectangle" id="id1331566175">
            <rect x="80.05" y="120.04999999999998" width="39.9"
                height="19.900000000000013" latexdraw:borderPos="outer"
                stroke-width="0.1" stroke="black" fill="#ff3333"/>
        </g>
        <g latexdraw:type="joinedLines" id="id49778678">
            <polyline points="80.0,160.0 380.0,160.0 "
                stroke-width="0.6" stroke="black" latexdraw:rotationAngle="0.0"/>
        </g>
        <g latexdraw:type="rectangle" id="id1875600265">
            <rect x="120.05" y="140.05" width="150.9" height="19.9"
                latexdraw:borderPos="outer" stroke-width="0.1"
                stroke="black" fill="url(#pattern1875600265)"/>
        </g>
        <g latexdraw:type="rectangle" id="id1571229452">
            <rect x="80.05" y="140.05" width="39.9" height="19.9"
                latexdraw:borderPos="outer" stroke-width="0.1"
                stroke="black" fill="#ff3333"/>
        </g>
        <g latexdraw:type="rectangle" id="id802501293">
            <rect x="178.05" y="239.05000000000013" width="150.9"
                height="19.9" latexdraw:borderPos="outer"
                stroke-width="0.1" stroke="black" fill="url(#pattern802501293)"/>
        </g>
        <g latexdraw:type="rectangle" id="id927649480">
            <rect x="138.05" y="239.0500000000001" width="39.9"
                height="19.900000000000027" latexdraw:borderPos="outer"
                stroke-width="0.1" stroke="black" fill="#ff3333"/>
        </g>
        <g latexdraw:type="rectangle" id="id903440025">
            <rect x="238.05" y="259.0500000000001" width="138.9"
                height="19.9" latexdraw:borderPos="outer"
                stroke-width="0.1" stroke="black" fill="url(#pattern903440025)"/>
        </g>
        <g latexdraw:type="rectangle" id="id61579983">
            <rect x="198.05" y="259.0500000000001" width="39.9"
                height="19.9" latexdraw:borderPos="outer"
                stroke-width="0.1" stroke="black" fill="#ff3333"/>
        </g>
        <g latexdraw:type="rectangle" id="id1442956318">
            <rect x="79.05" y="259.05" width="9.9" height="19.9"
                latexdraw:borderPos="outer" stroke-width="0.1"
                stroke="black" fill="url(#pattern1442956318)"/>
        </g>
    </g>
    <defs>
        <marker overflow="visible" orient="auto" id="arrow0-2049547357">
            <path
                d="M 0.0 0.0 L 8.973611111111111 3.204861111111111 L 8.973611111111111 0.0 L 8.973611111111111 -3.204861111111111 z "
                latexdraw:arrSizeNum="2.0" fill="black"/>
        </marker>
        <marker overflow="visible" orient="auto" id="arrow1-2049547357">
            <path
                d="M 0.0 0.0 L -8.973611111111111 3.204861111111111 L -8.973611111111111 0.0 L -8.973611111111111 -3.204861111111111 z "
                latexdraw:arrSizeNum="2.0" fill="black"/>
        </marker>
        <pattern latexdraw:type="crosshatch*"
            latexdraw:rotationAngle="0.0"
            latexdraw:size="7.055555555555555"
            patternUnits="userSpaceOnUse" id="pattern670477154" x="0"
            y="0" width="271" height="79">
            <rect width="271" height="79" fill="#cccccc" stroke="none"/>
            <g stroke="#999999" stroke-width="0.5" stroke-dasharray="none">
                <path d="M 120.0 59.999999999999986 L 120.0 79.99999999999999 M 127.55555555555556 59.999999999999986 L 127.55555555555556 79.99999999999999 M 135.11111111111111 59.999999999999986 L 135.11111111111111 79.99999999999999 M 142.66666666666666 59.999999999999986 L 142.66666666666666 79.99999999999999 M 150.2222222222222 59.999999999999986 L 150.2222222222222 79.99999999999999 M 157.77777777777774 59.999999999999986 L 157.77777777777774 79.99999999999999 M 165.3333333333333 59.999999999999986 L 165.3333333333333 79.99999999999999 M 172.88888888888883 59.999999999999986 L 172.88888888888883 79.99999999999999 M 180.44444444444437 59.999999999999986 L 180.44444444444437 79.99999999999999 M 187.99999999999991 59.999999999999986 L 187.99999999999991 79.99999999999999 M 195.55555555555546 59.999999999999986 L 195.55555555555546 79.99999999999999 M 203.111111111111 59.999999999999986 L 203.111111111111 79.99999999999999 M 210.66666666666654 59.999999999999986 L 210.66666666666654 79.99999999999999 M 218.2222222222221 59.999999999999986 L 218.2222222222221 79.99999999999999 M 225.77777777777763 59.999999999999986 L 225.77777777777763 79.99999999999999 M 233.33333333333317 59.999999999999986 L 233.33333333333317 79.99999999999999 M 240.88888888888872 59.999999999999986 L 240.88888888888872 79.99999999999999 M 248.44444444444426 59.999999999999986 L 248.44444444444426 79.99999999999999 M 255.9999999999998 59.999999999999986 L 255.9999999999998 79.99999999999999 M 263.5555555555554 59.999999999999986 L 263.5555555555554 79.99999999999999 M 120.0 59.999999999999986 L 271.0 59.999999999999986 M 120.0 67.55555555555554 L 271.0 67.55555555555554 M 120.0 75.1111111111111 L 271.0 75.1111111111111 "/>
            </g>
        </pattern>
        <pattern latexdraw:type="crosshatch*"
            latexdraw:rotationAngle="0.0"
            latexdraw:size="7.055555555555555"
            patternUnits="userSpaceOnUse" id="pattern701467693" x="0"
            y="0" width="269" height="239">
            <rect width="269" height="239" fill="#cccccc" stroke="none"/>
            <g stroke="#999999" stroke-width="0.5" stroke-dasharray="none">
                <path d="M 118.0 219.0000000000001 L 118.0 239.0000000000001 M 125.55555555555556 219.0000000000001 L 125.55555555555556 239.0000000000001 M 133.11111111111111 219.0000000000001 L 133.11111111111111 239.0000000000001 M 140.66666666666666 219.0000000000001 L 140.66666666666666 239.0000000000001 M 148.2222222222222 219.0000000000001 L 148.2222222222222 239.0000000000001 M 155.77777777777774 219.0000000000001 L 155.77777777777774 239.0000000000001 M 163.3333333333333 219.0000000000001 L 163.3333333333333 239.0000000000001 M 170.88888888888883 219.0000000000001 L 170.88888888888883 239.0000000000001 M 178.44444444444437 219.0000000000001 L 178.44444444444437 239.0000000000001 M 185.99999999999991 219.0000000000001 L 185.99999999999991 239.0000000000001 M 193.55555555555546 219.0000000000001 L 193.55555555555546 239.0000000000001 M 201.111111111111 219.0000000000001 L 201.111111111111 239.0000000000001 M 208.66666666666654 219.0000000000001 L 208.66666666666654 239.0000000000001 M 216.2222222222221 219.0000000000001 L 216.2222222222221 239.0000000000001 M 223.77777777777763 219.0000000000001 L 223.77777777777763 239.0000000000001 M 231.33333333333317 219.0000000000001 L 231.33333333333317 239.0000000000001 M 238.88888888888872 219.0000000000001 L 238.88888888888872 239.0000000000001 M 246.44444444444426 219.0000000000001 L 246.44444444444426 239.0000000000001 M 253.9999999999998 219.0000000000001 L 253.9999999999998 239.0000000000001 M 261.5555555555554 219.0000000000001 L 261.5555555555554 239.0000000000001 M 118.0 219.0000000000001 L 269.0 219.0000000000001 M 118.0 226.55555555555566 L 269.0 226.55555555555566 M 118.0 234.1111111111112 L 269.0 234.1111111111112 "/>
            </g>
        </pattern>
        <pattern latexdraw:type="crosshatch*"
            latexdraw:rotationAngle="0.0"
            latexdraw:size="7.055555555555555"
            patternUnits="userSpaceOnUse" id="pattern154230286" x="0"
            y="0" width="289" height="259">
            <rect width="289" height="259" fill="#cccccc" stroke="none"/>
            <g stroke="#999999" stroke-width="0.5" stroke-dasharray="none">
                <path d="M 138.0 239.0 L 138.0 259.0 M 145.55555555555554 239.0 L 145.55555555555554 259.0 M 153.1111111111111 239.0 L 153.1111111111111 259.0 M 160.66666666666663 239.0 L 160.66666666666663 259.0 M 168.22222222222217 239.0 L 168.22222222222217 259.0 M 175.77777777777771 239.0 L 175.77777777777771 259.0 M 183.33333333333326 239.0 L 183.33333333333326 259.0 M 190.8888888888888 239.0 L 190.8888888888888 259.0 M 198.44444444444434 239.0 L 198.44444444444434 259.0 M 205.9999999999999 239.0 L 205.9999999999999 259.0 M 213.55555555555543 239.0 L 213.55555555555543 259.0 M 221.11111111111097 239.0 L 221.11111111111097 259.0 M 228.66666666666652 239.0 L 228.66666666666652 259.0 M 236.22222222222206 239.0 L 236.22222222222206 259.0 M 243.7777777777776 239.0 L 243.7777777777776 259.0 M 251.33333333333314 239.0 L 251.33333333333314 259.0 M 258.8888888888887 239.0 L 258.8888888888887 259.0 M 266.44444444444423 239.0 L 266.44444444444423 259.0 M 273.9999999999998 239.0 L 273.9999999999998 259.0 M 281.5555555555553 239.0 L 281.5555555555553 259.0 M 138.0 239.0 L 289.0 239.0 M 138.0 246.55555555555554 L 289.0 246.55555555555554 M 138.0 254.1111111111111 L 289.0 254.1111111111111 "/>
            </g>
        </pattern>
        <pattern latexdraw:type="crosshatch*"
            latexdraw:rotationAngle="0.0"
            latexdraw:size="7.055555555555555"
            patternUnits="userSpaceOnUse" id="pattern1445970347" x="0"
            y="0" width="349" height="279">
            <rect width="349" height="279" fill="#cccccc" stroke="none"/>
            <g stroke="#999999" stroke-width="0.5" stroke-dasharray="none">
                <path d="M 198.0 259.0 L 198.0 279.0 M 205.55555555555554 259.0 L 205.55555555555554 279.0 M 213.1111111111111 259.0 L 213.1111111111111 279.0 M 220.66666666666663 259.0 L 220.66666666666663 279.0 M 228.22222222222217 259.0 L 228.22222222222217 279.0 M 235.77777777777771 259.0 L 235.77777777777771 279.0 M 243.33333333333326 259.0 L 243.33333333333326 279.0 M 250.8888888888888 259.0 L 250.8888888888888 279.0 M 258.44444444444434 259.0 L 258.44444444444434 279.0 M 265.9999999999999 259.0 L 265.9999999999999 279.0 M 273.55555555555543 259.0 L 273.55555555555543 279.0 M 281.111111111111 259.0 L 281.111111111111 279.0 M 288.6666666666665 259.0 L 288.6666666666665 279.0 M 296.22222222222206 259.0 L 296.22222222222206 279.0 M 303.7777777777776 259.0 L 303.7777777777776 279.0 M 311.33333333333314 259.0 L 311.33333333333314 279.0 M 318.8888888888887 259.0 L 318.8888888888887 279.0 M 326.44444444444423 259.0 L 326.44444444444423 279.0 M 333.9999999999998 259.0 L 333.9999999999998 279.0 M 341.5555555555553 259.0 L 341.5555555555553 279.0 M 198.0 259.0 L 349.0 259.0 M 198.0 266.55555555555554 L 349.0 266.55555555555554 M 198.0 274.1111111111111 L 349.0 274.1111111111111 "/>
            </g>
        </pattern>
        <pattern latexdraw:type="crosshatch*"
            latexdraw:rotationAngle="0.0"
            latexdraw:size="7.055555555555555"
            patternUnits="userSpaceOnUse" id="pattern1202519422" x="0"
            y="0" width="378" height="299">
            <rect width="378" height="299" fill="#cccccc" stroke="none"/>
            <g stroke="#999999" stroke-width="0.5" stroke-dasharray="none">
                <path d="M 258.0 279.0 L 258.0 299.0 M 265.55555555555554 279.0 L 265.55555555555554 299.0 M 273.1111111111111 279.0 L 273.1111111111111 299.0 M 280.66666666666663 279.0 L 280.66666666666663 299.0 M 288.2222222222222 279.0 L 288.2222222222222 299.0 M 295.7777777777777 279.0 L 295.7777777777777 299.0 M 303.33333333333326 279.0 L 303.33333333333326 299.0 M 310.8888888888888 279.0 L 310.8888888888888 299.0 M 318.44444444444434 279.0 L 318.44444444444434 299.0 M 325.9999999999999 279.0 L 325.9999999999999 299.0 M 333.55555555555543 279.0 L 333.55555555555543 299.0 M 341.111111111111 279.0 L 341.111111111111 299.0 M 348.6666666666665 279.0 L 348.6666666666665 299.0 M 356.22222222222206 279.0 L 356.22222222222206 299.0 M 363.7777777777776 279.0 L 363.7777777777776 299.0 M 371.33333333333314 279.0 L 371.33333333333314 299.0 M 258.0 279.0 L 378.0 279.0 M 258.0 286.55555555555554 L 378.0 286.55555555555554 M 258.0 294.1111111111111 L 378.0 294.1111111111111 "/>
            </g>
        </pattern>
        <pattern latexdraw:type="crosshatch*"
            latexdraw:rotationAngle="0.0"
            latexdraw:size="7.055555555555555"
            patternUnits="userSpaceOnUse" id="pattern1217238394" x="0"
            y="0" width="145" height="299">
            <rect width="145" height="299" fill="#cccccc" stroke="none"/>
            <g stroke="#999999" stroke-width="0.5" stroke-dasharray="none">
                <path d="M 78.0 279.0 L 78.0 299.0 M 85.55555555555556 279.0 L 85.55555555555556 299.0 M 93.11111111111111 279.0 L 93.11111111111111 299.0 M 100.66666666666667 279.0 L 100.66666666666667 299.0 M 108.22222222222223 279.0 L 108.22222222222223 299.0 M 115.77777777777779 279.0 L 115.77777777777779 299.0 M 123.33333333333334 279.0 L 123.33333333333334 299.0 M 130.88888888888889 279.0 L 130.88888888888889 299.0 M 138.44444444444443 279.0 L 138.44444444444443 299.0 M 78.0 279.0 L 145.0 279.0 M 78.0 286.55555555555554 L 145.0 286.55555555555554 M 78.0 294.1111111111111 L 145.0 294.1111111111111 "/>
            </g>
        </pattern>
        <pattern latexdraw:type="crosshatch*"
            latexdraw:rotationAngle="0.0"
            latexdraw:size="7.055555555555555"
            patternUnits="userSpaceOnUse" id="pattern1550246729" x="0"
            y="0" width="378" height="319">
            <rect width="378" height="319" fill="#cccccc" stroke="none"/>
            <g stroke="#999999" stroke-width="0.5" stroke-dasharray="none">
                <path d="M 318.0 299.0 L 318.0 319.0 M 325.55555555555554 299.0 L 325.55555555555554 319.0 M 333.1111111111111 299.0 L 333.1111111111111 319.0 M 340.66666666666663 299.0 L 340.66666666666663 319.0 M 348.2222222222222 299.0 L 348.2222222222222 319.0 M 355.7777777777777 299.0 L 355.7777777777777 319.0 M 363.33333333333326 299.0 L 363.33333333333326 319.0 M 370.8888888888888 299.0 L 370.8888888888888 319.0 M 318.0 299.0 L 378.0 299.0 M 318.0 306.55555555555554 L 378.0 306.55555555555554 M 318.0 314.1111111111111 L 378.0 314.1111111111111 "/>
            </g>
        </pattern>
        <pattern latexdraw:type="crosshatch*"
            latexdraw:rotationAngle="0.0"
            latexdraw:size="7.055555555555555"
            patternUnits="userSpaceOnUse" id="pattern564722805" x="0"
            y="0" width="206" height="319">
            <rect width="206" height="319" fill="#cccccc" stroke="none"/>
            <g stroke="#999999" stroke-width="0.5" stroke-dasharray="none">
                <path d="M 78.0 299.0 L 78.0 319.0 M 85.55555555555556 299.0 L 85.55555555555556 319.0 M 93.11111111111111 299.0 L 93.11111111111111 319.0 M 100.66666666666667 299.0 L 100.66666666666667 319.0 M 108.22222222222223 299.0 L 108.22222222222223 319.0 M 115.77777777777779 299.0 L 115.77777777777779 319.0 M 123.33333333333334 299.0 L 123.33333333333334 319.0 M 130.88888888888889 299.0 L 130.88888888888889 319.0 M 138.44444444444443 299.0 L 138.44444444444443 319.0 M 145.99999999999997 299.0 L 145.99999999999997 319.0 M 153.55555555555551 299.0 L 153.55555555555551 319.0 M 161.11111111111106 299.0 L 161.11111111111106 319.0 M 168.6666666666666 299.0 L 168.6666666666666 319.0 M 176.22222222222214 299.0 L 176.22222222222214 319.0 M 183.7777777777777 299.0 L 183.7777777777777 319.0 M 191.33333333333323 299.0 L 191.33333333333323 319.0 M 198.88888888888877 299.0 L 198.88888888888877 319.0 M 78.0 299.0 L 206.0 299.0 M 78.0 306.55555555555554 L 206.0 306.55555555555554 M 78.0 314.1111111111111 L 206.0 314.1111111111111 "/>
            </g>
        </pattern>
        <marker overflow="visible" orient="auto" id="arrow0-1990394933">
            <path
                d="M 0.0 0.0 L 5.445833333333333 1.9449404761904758 L 5.445833333333333 0.0 L 5.445833333333333 -1.9449404761904758 z "
                latexdraw:arrSizeNum="2.0" fill="black"/>
        </marker>
        <pattern latexdraw:type="crosshatch*"
            latexdraw:rotationAngle="0.0"
            latexdraw:size="7.055555555555555"
            patternUnits="userSpaceOnUse" id="pattern1800960988" x="0"
            y="0" width="271" height="99">
            <rect width="271" height="99" fill="#cccccc" stroke="none"/>
            <g stroke="#999999" stroke-width="0.5" stroke-dasharray="none">
                <path d="M 120.0 79.99999999999999 L 120.0 99.99999999999999 M 127.55555555555556 79.99999999999999 L 127.55555555555556 99.99999999999999 M 135.11111111111111 79.99999999999999 L 135.11111111111111 99.99999999999999 M 142.66666666666666 79.99999999999999 L 142.66666666666666 99.99999999999999 M 150.2222222222222 79.99999999999999 L 150.2222222222222 99.99999999999999 M 157.77777777777774 79.99999999999999 L 157.77777777777774 99.99999999999999 M 165.3333333333333 79.99999999999999 L 165.3333333333333 99.99999999999999 M 172.88888888888883 79.99999999999999 L 172.88888888888883 99.99999999999999 M 180.44444444444437 79.99999999999999 L 180.44444444444437 99.99999999999999 M 187.99999999999991 79.99999999999999 L 187.99999999999991 99.99999999999999 M 195.55555555555546 79.99999999999999 L 195.55555555555546 99.99999999999999 M 203.111111111111 79.99999999999999 L 203.111111111111 99.99999999999999 M 210.66666666666654 79.99999999999999 L 210.66666666666654 99.99999999999999 M 218.2222222222221 79.99999999999999 L 218.2222222222221 99.99999999999999 M 225.77777777777763 79.99999999999999 L 225.77777777777763 99.99999999999999 M 233.33333333333317 79.99999999999999 L 233.33333333333317 99.99999999999999 M 240.88888888888872 79.99999999999999 L 240.88888888888872 99.99999999999999 M 248.44444444444426 79.99999999999999 L 248.44444444444426 99.99999999999999 M 255.9999999999998 79.99999999999999 L 255.9999999999998 99.99999999999999 M 263.5555555555554 79.99999999999999 L 263.5555555555554 99.99999999999999 M 120.0 79.99999999999999 L 271.0 79.99999999999999 M 120.0 87.55555555555554 L 271.0 87.55555555555554 M 120.0 95.1111111111111 L 271.0 95.1111111111111 "/>
            </g>
        </pattern>
        <pattern latexdraw:type="crosshatch*"
            latexdraw:rotationAngle="0.0"
            latexdraw:size="7.055555555555555"
            patternUnits="userSpaceOnUse" id="pattern1157669516" x="0"
            y="0" width="271" height="119">
            <rect width="271" height="119" fill="#cccccc" stroke="none"/>
            <g stroke="#999999" stroke-width="0.5" stroke-dasharray="none">
                <path d="M 120.0 99.99999999999999 L 120.0 119.99999999999999 M 127.55555555555556 99.99999999999999 L 127.55555555555556 119.99999999999999 M 135.11111111111111 99.99999999999999 L 135.11111111111111 119.99999999999999 M 142.66666666666666 99.99999999999999 L 142.66666666666666 119.99999999999999 M 150.2222222222222 99.99999999999999 L 150.2222222222222 119.99999999999999 M 157.77777777777774 99.99999999999999 L 157.77777777777774 119.99999999999999 M 165.3333333333333 99.99999999999999 L 165.3333333333333 119.99999999999999 M 172.88888888888883 99.99999999999999 L 172.88888888888883 119.99999999999999 M 180.44444444444437 99.99999999999999 L 180.44444444444437 119.99999999999999 M 187.99999999999991 99.99999999999999 L 187.99999999999991 119.99999999999999 M 195.55555555555546 99.99999999999999 L 195.55555555555546 119.99999999999999 M 203.111111111111 99.99999999999999 L 203.111111111111 119.99999999999999 M 210.66666666666654 99.99999999999999 L 210.66666666666654 119.99999999999999 M 218.2222222222221 99.99999999999999 L 218.2222222222221 119.99999999999999 M 225.77777777777763 99.99999999999999 L 225.77777777777763 119.99999999999999 M 233.33333333333317 99.99999999999999 L 233.33333333333317 119.99999999999999 M 240.88888888888872 99.99999999999999 L 240.88888888888872 119.99999999999999 M 248.44444444444426 99.99999999999999 L 248.44444444444426 119.99999999999999 M 255.9999999999998 99.99999999999999 L 255.9999999999998 119.99999999999999 M 263.5555555555554 99.99999999999999 L 263.5555555555554 119.99999999999999 M 120.0 99.99999999999999 L 271.0 99.99999999999999 M 120.0 107.55555555555554 L 271.0 107.55555555555554 M 120.0 115.1111111111111 L 271.0 115.1111111111111 "/>
            </g>
        </pattern>
        <pattern latexdraw:type="crosshatch*"
            latexdraw:rotationAngle="0.0"
            latexdraw:size="7.055555555555555"
            patternUnits="userSpaceOnUse" id="pattern1788699634" x="0"
            y="0" width="271" height="140">
            <rect width="271" height="140" fill="#cccccc" stroke="none"/>
            <g stroke="#999999" stroke-width="0.5" stroke-dasharray="none">
                <path d="M 120.0 119.99999999999999 L 120.0 140.0 M 127.55555555555556 119.99999999999999 L 127.55555555555556 140.0 M 135.11111111111111 119.99999999999999 L 135.11111111111111 140.0 M 142.66666666666666 119.99999999999999 L 142.66666666666666 140.0 M 150.2222222222222 119.99999999999999 L 150.2222222222222 140.0 M 157.77777777777774 119.99999999999999 L 157.77777777777774 140.0 M 165.3333333333333 119.99999999999999 L 165.3333333333333 140.0 M 172.88888888888883 119.99999999999999 L 172.88888888888883 140.0 M 180.44444444444437 119.99999999999999 L 180.44444444444437 140.0 M 187.99999999999991 119.99999999999999 L 187.99999999999991 140.0 M 195.55555555555546 119.99999999999999 L 195.55555555555546 140.0 M 203.111111111111 119.99999999999999 L 203.111111111111 140.0 M 210.66666666666654 119.99999999999999 L 210.66666666666654 140.0 M 218.2222222222221 119.99999999999999 L 218.2222222222221 140.0 M 225.77777777777763 119.99999999999999 L 225.77777777777763 140.0 M 233.33333333333317 119.99999999999999 L 233.33333333333317 140.0 M 240.88888888888872 119.99999999999999 L 240.88888888888872 140.0 M 248.44444444444426 119.99999999999999 L 248.44444444444426 140.0 M 255.9999999999998 119.99999999999999 L 255.9999999999998 140.0 M 263.5555555555554 119.99999999999999 L 263.5555555555554 140.0 M 120.0 119.99999999999999 L 271.0 119.99999999999999 M 120.0 127.55555555555554 L 271.0 127.55555555555554 M 120.0 135.1111111111111 L 271.0 135.1111111111111 "/>
            </g>
        </pattern>
        <pattern latexdraw:type="crosshatch*"
            latexdraw:rotationAngle="0.0"
            latexdraw:size="7.055555555555555"
            patternUnits="userSpaceOnUse" id="pattern1875600265" x="0"
            y="0" width="271" height="160">
            <rect width="271" height="160" fill="#cccccc" stroke="none"/>
            <g stroke="#999999" stroke-width="0.5" stroke-dasharray="none">
                <path d="M 120.0 140.0 L 120.0 160.0 M 127.55555555555556 140.0 L 127.55555555555556 160.0 M 135.11111111111111 140.0 L 135.11111111111111 160.0 M 142.66666666666666 140.0 L 142.66666666666666 160.0 M 150.2222222222222 140.0 L 150.2222222222222 160.0 M 157.77777777777774 140.0 L 157.77777777777774 160.0 M 165.3333333333333 140.0 L 165.3333333333333 160.0 M 172.88888888888883 140.0 L 172.88888888888883 160.0 M 180.44444444444437 140.0 L 180.44444444444437 160.0 M 187.99999999999991 140.0 L 187.99999999999991 160.0 M 195.55555555555546 140.0 L 195.55555555555546 160.0 M 203.111111111111 140.0 L 203.111111111111 160.0 M 210.66666666666654 140.0 L 210.66666666666654 160.0 M 218.2222222222221 140.0 L 218.2222222222221 160.0 M 225.77777777777763 140.0 L 225.77777777777763 160.0 M 233.33333333333317 140.0 L 233.33333333333317 160.0 M 240.88888888888872 140.0 L 240.88888888888872 160.0 M 248.44444444444426 140.0 L 248.44444444444426 160.0 M 255.9999999999998 140.0 L 255.9999999999998 160.0 M 263.5555555555554 140.0 L 263.5555555555554 160.0 M 120.0 140.0 L 271.0 140.0 M 120.0 147.55555555555554 L 271.0 147.55555555555554 M 120.0 155.1111111111111 L 271.0 155.1111111111111 "/>
            </g>
        </pattern>
        <pattern latexdraw:type="crosshatch*"
            latexdraw:rotationAngle="0.0"
            latexdraw:size="7.055555555555555"
            patternUnits="userSpaceOnUse" id="pattern802501293" x="0"
            y="0" width="329" height="259">
            <rect width="329" height="259" fill="#cccccc" stroke="none"/>
            <g stroke="#999999" stroke-width="0.5" stroke-dasharray="none">
                <path d="M 178.0 239.0000000000001 L 178.0 259.0000000000001 M 185.55555555555554 239.0000000000001 L 185.55555555555554 259.0000000000001 M 193.1111111111111 239.0000000000001 L 193.1111111111111 259.0000000000001 M 200.66666666666663 239.0000000000001 L 200.66666666666663 259.0000000000001 M 208.22222222222217 239.0000000000001 L 208.22222222222217 259.0000000000001 M 215.77777777777771 239.0000000000001 L 215.77777777777771 259.0000000000001 M 223.33333333333326 239.0000000000001 L 223.33333333333326 259.0000000000001 M 230.8888888888888 239.0000000000001 L 230.8888888888888 259.0000000000001 M 238.44444444444434 239.0000000000001 L 238.44444444444434 259.0000000000001 M 245.9999999999999 239.0000000000001 L 245.9999999999999 259.0000000000001 M 253.55555555555543 239.0000000000001 L 253.55555555555543 259.0000000000001 M 261.111111111111 239.0000000000001 L 261.111111111111 259.0000000000001 M 268.6666666666665 239.0000000000001 L 268.6666666666665 259.0000000000001 M 276.22222222222206 239.0000000000001 L 276.22222222222206 259.0000000000001 M 283.7777777777776 239.0000000000001 L 283.7777777777776 259.0000000000001 M 291.33333333333314 239.0000000000001 L 291.33333333333314 259.0000000000001 M 298.8888888888887 239.0000000000001 L 298.8888888888887 259.0000000000001 M 306.44444444444423 239.0000000000001 L 306.44444444444423 259.0000000000001 M 313.9999999999998 239.0000000000001 L 313.9999999999998 259.0000000000001 M 321.5555555555553 239.0000000000001 L 321.5555555555553 259.0000000000001 M 178.0 239.0000000000001 L 329.0 239.0000000000001 M 178.0 246.55555555555566 L 329.0 246.55555555555566 M 178.0 254.1111111111112 L 329.0 254.1111111111112 "/>
            </g>
        </pattern>
        <pattern latexdraw:type="crosshatch*"
            latexdraw:rotationAngle="0.0"
            latexdraw:size="7.055555555555555"
            patternUnits="userSpaceOnUse" id="pattern903440025" x="0"
            y="0" width="377" height="279">
            <rect width="377" height="279" fill="#cccccc" stroke="none"/>
            <g stroke="#999999" stroke-width="0.5" stroke-dasharray="none">
                <path d="M 238.0 259.0000000000001 L 238.0 279.0000000000001 M 245.55555555555554 259.0000000000001 L 245.55555555555554 279.0000000000001 M 253.1111111111111 259.0000000000001 L 253.1111111111111 279.0000000000001 M 260.66666666666663 259.0000000000001 L 260.66666666666663 279.0000000000001 M 268.2222222222222 259.0000000000001 L 268.2222222222222 279.0000000000001 M 275.7777777777777 259.0000000000001 L 275.7777777777777 279.0000000000001 M 283.33333333333326 259.0000000000001 L 283.33333333333326 279.0000000000001 M 290.8888888888888 259.0000000000001 L 290.8888888888888 279.0000000000001 M 298.44444444444434 259.0000000000001 L 298.44444444444434 279.0000000000001 M 305.9999999999999 259.0000000000001 L 305.9999999999999 279.0000000000001 M 313.55555555555543 259.0000000000001 L 313.55555555555543 279.0000000000001 M 321.111111111111 259.0000000000001 L 321.111111111111 279.0000000000001 M 328.6666666666665 259.0000000000001 L 328.6666666666665 279.0000000000001 M 336.22222222222206 259.0000000000001 L 336.22222222222206 279.0000000000001 M 343.7777777777776 259.0000000000001 L 343.7777777777776 279.0000000000001 M 351.33333333333314 259.0000000000001 L 351.33333333333314 279.0000000000001 M 358.8888888888887 259.0000000000001 L 358.8888888888887 279.0000000000001 M 366.44444444444423 259.0000000000001 L 366.44444444444423 279.0000000000001 M 373.9999999999998 259.0000000000001 L 373.9999999999998 279.0000000000001 M 238.0 259.0000000000001 L 377.0 259.0000000000001 M 238.0 266.55555555555566 L 377.0 266.55555555555566 M 238.0 274.1111111111112 L 377.0 274.1111111111112 "/>
            </g>
        </pattern>
        <pattern latexdraw:type="crosshatch*"
            latexdraw:rotationAngle="0.0"
            latexdraw:size="7.055555555555555"
            patternUnits="userSpaceOnUse" id="pattern1442956318" x="0"
            y="0" width="89" height="279">
            <rect width="89" height="279" fill="#cccccc" stroke="none"/>
            <g stroke="#999999" stroke-width="0.5" stroke-dasharray="none">
                <path d="M 79.0 259.0 L 79.0 279.0 M 86.55555555555556 259.0 L 86.55555555555556 279.0 M 79.0 259.0 L 89.0 259.0 M 79.0 266.55555555555554 L 89.0 266.55555555555554 M 79.0 274.1111111111111 L 89.0 274.1111111111111 "/>
            </g>
        </pattern>
    </defs>
    <metadata>
        <latexdraw:metadata>
            <latexdraw:latexIncludes/>
            <latexdraw:displayXScale>true</latexdraw:displayXScale>
            <latexdraw:displayYScale>true</latexdraw:displayYScale>
            <latexdraw:unit>CM</latexdraw:unit>
            <latexdraw:zoom>1.0</latexdraw:zoom>
            <latexdraw:magneticGridStyle>CUSTOMISED</latexdraw:magneticGridStyle>
            <latexdraw:gridGap>20</latexdraw:gridGap>
            <latexdraw:magneticGrid>false</latexdraw:magneticGrid>
            <latexdraw:version>3.3.7</latexdraw:version>
            <latexdraw:size>
                <latexdraw:width>1920</latexdraw:width>
                <latexdraw:height>810</latexdraw:height>
            </latexdraw:size>
            <latexdraw:position>
                <latexdraw:x>0.0</latexdraw:x>
                <latexdraw:y>23.0</latexdraw:y>
            </latexdraw:position>
        </latexdraw:metadata>
    </metadata>
</svg>
