<?xml version="1.1" encoding="UTF-8"?>
<svg xmlns="http://www.w3.org/2000/svg"
    xmlns:latexdraw="http://latexdraw.sourceforge.net/namespaces/latexdraw"
    version="1.1" baseProfile="full">
    <g>
        <g latexdraw:type="rectangle" id="id1353783151">
            <rect x="80.5" y="60.5" width="299.0" height="99.0"
                latexdraw:borderPos="outer" stroke-width="1.0"
                stroke="black" fill="none"/>
        </g>
        <g latexdraw:type="joinedLines" id="id1677448949">
            <polyline points="80.0,80.0 380.0,80.0 " stroke-width="0.6"
                stroke="black" latexdraw:rotationAngle="0.0"/>
        </g>
        <g latexdraw:type="rectangle" id="id1727248774">
            <rect x="120.05" y="60.04999999999998" width="150.9"
                height="19.9" latexdraw:borderPos="outer"
                stroke-width="0.1" stroke="black" fill="url(#pattern1727248774)"/>
        </g>
        <g latexdraw:type="rectangle" id="id1387415214">
            <rect x="458.5" y="59.5" width="299.0" height="99.0"
                latexdraw:borderPos="outer" stroke-width="1.0"
                stroke="black" fill="none"/>
        </g>
        <g latexdraw:type="joinedLines" id="id1319246258">
            <polyline points="458.0,79.0 758.0,79.0 " stroke-width="0.6"
                stroke="black" latexdraw:rotationAngle="0.0"/>
        </g>
        <g latexdraw:type="joinedLines" id="id709286764">
            <polyline points="758.0,119.0 458.0,119.0 "
                stroke-width="0.6" stroke="black" latexdraw:rotationAngle="0.0"/>
        </g>
        <g latexdraw:type="joinedLines" id="id1952035570">
            <polyline points="458.0,99.0 758.0,99.0 " stroke-width="0.6"
                stroke="black" latexdraw:rotationAngle="0.0"/>
        </g>
        <g latexdraw:type="joinedLines" id="id151348093">
            <polyline points="758.0,139.0 458.0,139.0 "
                stroke-width="0.6" stroke="black" latexdraw:rotationAngle="0.0"/>
        </g>
        <g latexdraw:type="rectangle" id="id1493047241">
            <rect x="498.05" y="59.05000000000014" width="150.9"
                height="19.9" latexdraw:borderPos="outer"
                stroke-width="0.1" stroke="black" fill="url(#pattern1493047241)"/>
        </g>
        <g latexdraw:type="rectangle" id="id1305030611">
            <rect x="518.05" y="79.05" width="150.9" height="19.9"
                latexdraw:borderPos="outer" stroke-width="0.1"
                stroke="black" fill="url(#pattern1305030611)"/>
        </g>
        <g latexdraw:type="rectangle" id="id1270854297">
            <rect x="578.05" y="99.05" width="150.9" height="19.9"
                latexdraw:borderPos="outer" stroke-width="0.1"
                stroke="black" fill="url(#pattern1270854297)"/>
        </g>
        <g latexdraw:type="rectangle" id="id218435080">
            <rect x="638.05" y="119.05" width="119.9" height="19.9"
                latexdraw:borderPos="outer" stroke-width="0.1"
                stroke="black" fill="url(#pattern218435080)"/>
        </g>
        <g latexdraw:type="rectangle" id="id1696207303">
            <rect x="458.05" y="119.05" width="66.9" height="19.9"
                latexdraw:borderPos="outer" stroke-width="0.1"
                stroke="black" fill="url(#pattern1696207303)"/>
        </g>
        <g latexdraw:type="rectangle" id="id2034183850">
            <rect x="698.05" y="139.05" width="59.9" height="19.9"
                latexdraw:borderPos="outer" stroke-width="0.1"
                stroke="black" fill="url(#pattern2034183850)"/>
        </g>
        <g latexdraw:type="rectangle" id="id631382493">
            <rect x="458.05" y="139.05" width="127.9" height="19.9"
                latexdraw:borderPos="outer" stroke-width="0.1"
                stroke="black" fill="url(#pattern631382493)"/>
        </g>
        <g latexdraw:type="rectangle" id="id968231767">
            <rect x="80.05" y="60.04999999999998" width="39.9"
                height="19.9" latexdraw:borderPos="outer"
                stroke-width="0.1" stroke="black" fill="#ff3333"/>
        </g>
        <g latexdraw:type="rectangle" id="id1753936042">
            <rect x="458.05" y="59.05000000000011" width="39.9"
                height="19.900000000000027" latexdraw:borderPos="outer"
                stroke-width="0.1" stroke="black" fill="#ff3333"/>
        </g>
        <g latexdraw:type="rectangle" id="id524299810">
            <rect x="669.05" y="80.05" width="39.9" height="19.9"
                latexdraw:borderPos="outer" stroke-width="0.1"
                stroke="black" fill="#ff3333"/>
        </g>
        <g latexdraw:type="rectangle" id="id1286963381">
            <rect x="740.05" y="100.05" width="1.0000000000000226"
                height="1.0000000000000226" latexdraw:borderPos="outer"
                stroke-width="0.1" stroke="black" fill="#ff3333"/>
        </g>
        <g latexdraw:type="rectangle" id="id1864029928">
            <rect x="726.05" y="99.05" width="30.9" height="19.9"
                latexdraw:borderPos="outer" stroke-width="0.1"
                stroke="black" fill="#ff3333"/>
        </g>
        <g latexdraw:type="rectangle" id="id1436260281">
            <rect x="638.05" y="120.05" width="39.9" height="19.9"
                latexdraw:borderPos="outer" stroke-width="0.1"
                stroke="black" fill="#ff3333"/>
        </g>
        <g latexdraw:type="rectangle" id="id861666088">
            <rect x="698.05" y="139.05" width="39.9" height="19.9"
                latexdraw:borderPos="outer" stroke-width="0.1"
                stroke="black" fill="#ff3333"/>
        </g>
        <g latexdraw:type="joinedLines" id="id1470032143">
            <polyline points="80.0,100.0 380.0,100.0 "
                stroke-width="0.6" stroke="black" latexdraw:rotationAngle="0.0"/>
        </g>
        <g latexdraw:type="rectangle" id="id1338187820">
            <rect x="120.05" y="80.04999999999998" width="150.9"
                height="19.9" latexdraw:borderPos="outer"
                stroke-width="0.1" stroke="black" fill="url(#pattern1338187820)"/>
        </g>
        <g latexdraw:type="rectangle" id="id1024423609">
            <rect x="80.05" y="80.04999999999998" width="39.9"
                height="19.9" latexdraw:borderPos="outer"
                stroke-width="0.1" stroke="black" fill="#ff3333"/>
        </g>
        <g latexdraw:type="joinedLines" id="id546534179">
            <polyline points="80.0,120.0 380.0,120.0 "
                stroke-width="0.6" stroke="black" latexdraw:rotationAngle="0.0"/>
        </g>
        <g latexdraw:type="rectangle" id="id844526153">
            <rect x="120.05" y="100.04999999999998" width="150.9"
                height="19.9" latexdraw:borderPos="outer"
                stroke-width="0.1" stroke="black" fill="url(#pattern844526153)"/>
        </g>
        <g latexdraw:type="rectangle" id="id1087759919">
            <rect x="80.05" y="100.04999999999998" width="39.9"
                height="19.9" latexdraw:borderPos="outer"
                stroke-width="0.1" stroke="black" fill="#ff3333"/>
        </g>
        <g latexdraw:type="joinedLines" id="id1717260510">
            <polyline points="80.0,140.0 380.0,140.0 "
                stroke-width="0.6" stroke="black" latexdraw:rotationAngle="0.0"/>
        </g>
        <g latexdraw:type="rectangle" id="id1454101979">
            <rect x="120.05" y="120.04999999999998" width="150.9"
                height="19.900000000000013" latexdraw:borderPos="outer"
                stroke-width="0.1" stroke="black" fill="url(#pattern1454101979)"/>
        </g>
        <g latexdraw:type="rectangle" id="id2018829562">
            <rect x="80.05" y="120.04999999999998" width="39.9"
                height="19.900000000000013" latexdraw:borderPos="outer"
                stroke-width="0.1" stroke="black" fill="#ff3333"/>
        </g>
        <g latexdraw:type="joinedLines" id="id1283969441">
            <polyline points="80.0,160.0 380.0,160.0 "
                stroke-width="0.6" stroke="black" latexdraw:rotationAngle="0.0"/>
        </g>
        <g latexdraw:type="rectangle" id="id2080290662">
            <rect x="120.05" y="140.05000000000004" width="150.9"
                height="19.9" latexdraw:borderPos="outer"
                stroke-width="0.1" stroke="black" fill="url(#pattern2080290662)"/>
        </g>
        <g latexdraw:type="rectangle" id="id454099531">
            <rect x="80.05" y="140.05000000000004" width="39.9"
                height="19.9" latexdraw:borderPos="outer"
                stroke-width="0.1" stroke="black" fill="#ff3333"/>
        </g>
        <g latexdraw:type="rectangle" id="id639287556">
            <rect x="558.05" y="79.05000000000011" width="150.9"
                height="19.9" latexdraw:borderPos="outer"
                stroke-width="0.1" stroke="black" fill="url(#pattern639287556)"/>
        </g>
        <g latexdraw:type="rectangle" id="id304363858">
            <rect x="518.05" y="79.05000000000008" width="39.9"
                height="19.900000000000027" latexdraw:borderPos="outer"
                stroke-width="0.1" stroke="black" fill="#ff3333"/>
        </g>
        <g latexdraw:type="rectangle" id="id1107347006">
            <rect x="618.05" y="99.05000000000011" width="138.9"
                height="19.9" latexdraw:borderPos="outer"
                stroke-width="0.1" stroke="black" fill="url(#pattern1107347006)"/>
        </g>
        <g latexdraw:type="rectangle" id="id1397287610">
            <rect x="578.05" y="99.05000000000011" width="39.9"
                height="19.9" latexdraw:borderPos="outer"
                stroke-width="0.1" stroke="black" fill="#ff3333"/>
        </g>
        <g latexdraw:type="rectangle" id="id878713925">
            <rect x="459.05" y="99.05" width="9.9" height="19.9"
                latexdraw:borderPos="outer" stroke-width="0.1"
                stroke="black" fill="url(#pattern878713925)"/>
        </g>
        <g latexdraw:type="joinedLines" id="id661477390">
            <polyline points="400.0,100.0 440.0,100.0 "
                stroke-width="2.0" stroke="black"
                latexdraw:rotationAngle="0.0" marker-end="url(#arrow1-661477390)"/>
        </g>
    </g>
    <defs>
        <pattern latexdraw:type="crosshatch*"
            latexdraw:rotationAngle="0.0"
            latexdraw:size="7.055555555555555"
            patternUnits="userSpaceOnUse" id="pattern1727248774" x="0"
            y="0" width="271" height="79">
            <rect width="271" height="79" fill="#cccccc" stroke="none"/>
            <g stroke="#999999" stroke-width="0.5" stroke-dasharray="none">
                <path d="M 120.0 59.999999999999986 L 120.0 79.99999999999999 M 127.55555555555556 59.999999999999986 L 127.55555555555556 79.99999999999999 M 135.11111111111111 59.999999999999986 L 135.11111111111111 79.99999999999999 M 142.66666666666666 59.999999999999986 L 142.66666666666666 79.99999999999999 M 150.2222222222222 59.999999999999986 L 150.2222222222222 79.99999999999999 M 157.77777777777774 59.999999999999986 L 157.77777777777774 79.99999999999999 M 165.3333333333333 59.999999999999986 L 165.3333333333333 79.99999999999999 M 172.88888888888883 59.999999999999986 L 172.88888888888883 79.99999999999999 M 180.44444444444437 59.999999999999986 L 180.44444444444437 79.99999999999999 M 187.99999999999991 59.999999999999986 L 187.99999999999991 79.99999999999999 M 195.55555555555546 59.999999999999986 L 195.55555555555546 79.99999999999999 M 203.111111111111 59.999999999999986 L 203.111111111111 79.99999999999999 M 210.66666666666654 59.999999999999986 L 210.66666666666654 79.99999999999999 M 218.2222222222221 59.999999999999986 L 218.2222222222221 79.99999999999999 M 225.77777777777763 59.999999999999986 L 225.77777777777763 79.99999999999999 M 233.33333333333317 59.999999999999986 L 233.33333333333317 79.99999999999999 M 240.88888888888872 59.999999999999986 L 240.88888888888872 79.99999999999999 M 248.44444444444426 59.999999999999986 L 248.44444444444426 79.99999999999999 M 255.9999999999998 59.999999999999986 L 255.9999999999998 79.99999999999999 M 263.5555555555554 59.999999999999986 L 263.5555555555554 79.99999999999999 M 120.0 59.999999999999986 L 271.0 59.999999999999986 M 120.0 67.55555555555554 L 271.0 67.55555555555554 M 120.0 75.1111111111111 L 271.0 75.1111111111111 "/>
            </g>
        </pattern>
        <pattern latexdraw:type="crosshatch*"
            latexdraw:rotationAngle="0.0"
            latexdraw:size="7.055555555555555"
            patternUnits="userSpaceOnUse" id="pattern1493047241" x="0"
            y="0" width="649" height="79">
            <rect width="649" height="79" fill="#cccccc" stroke="none"/>
            <g stroke="#999999" stroke-width="0.5" stroke-dasharray="none">
                <path d="M 498.0 59.00000000000014 L 498.0 79.00000000000014 M 505.55555555555554 59.00000000000014 L 505.55555555555554 79.00000000000014 M 513.1111111111111 59.00000000000014 L 513.1111111111111 79.00000000000014 M 520.6666666666666 59.00000000000014 L 520.6666666666666 79.00000000000014 M 528.2222222222222 59.00000000000014 L 528.2222222222222 79.00000000000014 M 535.7777777777777 59.00000000000014 L 535.7777777777777 79.00000000000014 M 543.3333333333333 59.00000000000014 L 543.3333333333333 79.00000000000014 M 550.8888888888888 59.00000000000014 L 550.8888888888888 79.00000000000014 M 558.4444444444443 59.00000000000014 L 558.4444444444443 79.00000000000014 M 565.9999999999999 59.00000000000014 L 565.9999999999999 79.00000000000014 M 573.5555555555554 59.00000000000014 L 573.5555555555554 79.00000000000014 M 581.111111111111 59.00000000000014 L 581.111111111111 79.00000000000014 M 588.6666666666665 59.00000000000014 L 588.6666666666665 79.00000000000014 M 596.2222222222221 59.00000000000014 L 596.2222222222221 79.00000000000014 M 603.7777777777776 59.00000000000014 L 603.7777777777776 79.00000000000014 M 611.3333333333331 59.00000000000014 L 611.3333333333331 79.00000000000014 M 618.8888888888887 59.00000000000014 L 618.8888888888887 79.00000000000014 M 626.4444444444442 59.00000000000014 L 626.4444444444442 79.00000000000014 M 633.9999999999998 59.00000000000014 L 633.9999999999998 79.00000000000014 M 641.5555555555553 59.00000000000014 L 641.5555555555553 79.00000000000014 M 498.0 59.00000000000014 L 649.0 59.00000000000014 M 498.0 66.5555555555557 L 649.0 66.5555555555557 M 498.0 74.11111111111126 L 649.0 74.11111111111126 "/>
            </g>
        </pattern>
        <pattern latexdraw:type="crosshatch*"
            latexdraw:rotationAngle="0.0"
            latexdraw:size="7.055555555555555"
            patternUnits="userSpaceOnUse" id="pattern1305030611" x="0"
            y="0" width="669" height="99">
            <rect width="669" height="99" fill="#cccccc" stroke="none"/>
            <g stroke="#999999" stroke-width="0.5" stroke-dasharray="none">
                <path d="M 518.0 79.0 L 518.0 99.0 M 525.5555555555555 79.0 L 525.5555555555555 99.0 M 533.1111111111111 79.0 L 533.1111111111111 99.0 M 540.6666666666666 79.0 L 540.6666666666666 99.0 M 548.2222222222222 79.0 L 548.2222222222222 99.0 M 555.7777777777777 79.0 L 555.7777777777777 99.0 M 563.3333333333333 79.0 L 563.3333333333333 99.0 M 570.8888888888888 79.0 L 570.8888888888888 99.0 M 578.4444444444443 79.0 L 578.4444444444443 99.0 M 585.9999999999999 79.0 L 585.9999999999999 99.0 M 593.5555555555554 79.0 L 593.5555555555554 99.0 M 601.111111111111 79.0 L 601.111111111111 99.0 M 608.6666666666665 79.0 L 608.6666666666665 99.0 M 616.2222222222221 79.0 L 616.2222222222221 99.0 M 623.7777777777776 79.0 L 623.7777777777776 99.0 M 631.3333333333331 79.0 L 631.3333333333331 99.0 M 638.8888888888887 79.0 L 638.8888888888887 99.0 M 646.4444444444442 79.0 L 646.4444444444442 99.0 M 653.9999999999998 79.0 L 653.9999999999998 99.0 M 661.5555555555553 79.0 L 661.5555555555553 99.0 M 518.0 79.0 L 669.0 79.0 M 518.0 86.55555555555556 L 669.0 86.55555555555556 M 518.0 94.11111111111111 L 669.0 94.11111111111111 "/>
            </g>
        </pattern>
        <pattern latexdraw:type="crosshatch*"
            latexdraw:rotationAngle="0.0"
            latexdraw:size="7.055555555555555"
            patternUnits="userSpaceOnUse" id="pattern1270854297" x="0"
            y="0" width="729" height="119">
            <rect width="729" height="119" fill="#cccccc" stroke="none"/>
            <g stroke="#999999" stroke-width="0.5" stroke-dasharray="none">
                <path d="M 578.0 99.0 L 578.0 119.0 M 585.5555555555555 99.0 L 585.5555555555555 119.0 M 593.1111111111111 99.0 L 593.1111111111111 119.0 M 600.6666666666666 99.0 L 600.6666666666666 119.0 M 608.2222222222222 99.0 L 608.2222222222222 119.0 M 615.7777777777777 99.0 L 615.7777777777777 119.0 M 623.3333333333333 99.0 L 623.3333333333333 119.0 M 630.8888888888888 99.0 L 630.8888888888888 119.0 M 638.4444444444443 99.0 L 638.4444444444443 119.0 M 645.9999999999999 99.0 L 645.9999999999999 119.0 M 653.5555555555554 99.0 L 653.5555555555554 119.0 M 661.111111111111 99.0 L 661.111111111111 119.0 M 668.6666666666665 99.0 L 668.6666666666665 119.0 M 676.2222222222221 99.0 L 676.2222222222221 119.0 M 683.7777777777776 99.0 L 683.7777777777776 119.0 M 691.3333333333331 99.0 L 691.3333333333331 119.0 M 698.8888888888887 99.0 L 698.8888888888887 119.0 M 706.4444444444442 99.0 L 706.4444444444442 119.0 M 713.9999999999998 99.0 L 713.9999999999998 119.0 M 721.5555555555553 99.0 L 721.5555555555553 119.0 M 578.0 99.0 L 729.0 99.0 M 578.0 106.55555555555556 L 729.0 106.55555555555556 M 578.0 114.11111111111111 L 729.0 114.11111111111111 "/>
            </g>
        </pattern>
        <pattern latexdraw:type="crosshatch*"
            latexdraw:rotationAngle="0.0"
            latexdraw:size="7.055555555555555"
            patternUnits="userSpaceOnUse" id="pattern218435080" x="0"
            y="0" width="758" height="139">
            <rect width="758" height="139" fill="#cccccc" stroke="none"/>
            <g stroke="#999999" stroke-width="0.5" stroke-dasharray="none">
                <path d="M 638.0 119.0 L 638.0 139.0 M 645.5555555555555 119.0 L 645.5555555555555 139.0 M 653.1111111111111 119.0 L 653.1111111111111 139.0 M 660.6666666666666 119.0 L 660.6666666666666 139.0 M 668.2222222222222 119.0 L 668.2222222222222 139.0 M 675.7777777777777 119.0 L 675.7777777777777 139.0 M 683.3333333333333 119.0 L 683.3333333333333 139.0 M 690.8888888888888 119.0 L 690.8888888888888 139.0 M 698.4444444444443 119.0 L 698.4444444444443 139.0 M 705.9999999999999 119.0 L 705.9999999999999 139.0 M 713.5555555555554 119.0 L 713.5555555555554 139.0 M 721.111111111111 119.0 L 721.111111111111 139.0 M 728.6666666666665 119.0 L 728.6666666666665 139.0 M 736.2222222222221 119.0 L 736.2222222222221 139.0 M 743.7777777777776 119.0 L 743.7777777777776 139.0 M 751.3333333333331 119.0 L 751.3333333333331 139.0 M 638.0 119.0 L 758.0 119.0 M 638.0 126.55555555555556 L 758.0 126.55555555555556 M 638.0 134.11111111111111 L 758.0 134.11111111111111 "/>
            </g>
        </pattern>
        <pattern latexdraw:type="crosshatch*"
            latexdraw:rotationAngle="0.0"
            latexdraw:size="7.055555555555555"
            patternUnits="userSpaceOnUse" id="pattern1696207303" x="0"
            y="0" width="525" height="139">
            <rect width="525" height="139" fill="#cccccc" stroke="none"/>
            <g stroke="#999999" stroke-width="0.5" stroke-dasharray="none">
                <path d="M 458.0 119.0 L 458.0 139.0 M 465.55555555555554 119.0 L 465.55555555555554 139.0 M 473.1111111111111 119.0 L 473.1111111111111 139.0 M 480.66666666666663 119.0 L 480.66666666666663 139.0 M 488.2222222222222 119.0 L 488.2222222222222 139.0 M 495.7777777777777 119.0 L 495.7777777777777 139.0 M 503.33333333333326 119.0 L 503.33333333333326 139.0 M 510.8888888888888 119.0 L 510.8888888888888 139.0 M 518.4444444444443 119.0 L 518.4444444444443 139.0 M 458.0 119.0 L 525.0 119.0 M 458.0 126.55555555555556 L 525.0 126.55555555555556 M 458.0 134.11111111111111 L 525.0 134.11111111111111 "/>
            </g>
        </pattern>
        <pattern latexdraw:type="crosshatch*"
            latexdraw:rotationAngle="0.0"
            latexdraw:size="7.055555555555555"
            patternUnits="userSpaceOnUse" id="pattern2034183850" x="0"
            y="0" width="758" height="159">
            <rect width="758" height="159" fill="#cccccc" stroke="none"/>
            <g stroke="#999999" stroke-width="0.5" stroke-dasharray="none">
                <path d="M 698.0 139.0 L 698.0 159.0 M 705.5555555555555 139.0 L 705.5555555555555 159.0 M 713.1111111111111 139.0 L 713.1111111111111 159.0 M 720.6666666666666 139.0 L 720.6666666666666 159.0 M 728.2222222222222 139.0 L 728.2222222222222 159.0 M 735.7777777777777 139.0 L 735.7777777777777 159.0 M 743.3333333333333 139.0 L 743.3333333333333 159.0 M 750.8888888888888 139.0 L 750.8888888888888 159.0 M 698.0 139.0 L 758.0 139.0 M 698.0 146.55555555555554 L 758.0 146.55555555555554 M 698.0 154.1111111111111 L 758.0 154.1111111111111 "/>
            </g>
        </pattern>
        <pattern latexdraw:type="crosshatch*"
            latexdraw:rotationAngle="0.0"
            latexdraw:size="7.055555555555555"
            patternUnits="userSpaceOnUse" id="pattern631382493" x="0"
            y="0" width="586" height="159">
            <rect width="586" height="159" fill="#cccccc" stroke="none"/>
            <g stroke="#999999" stroke-width="0.5" stroke-dasharray="none">
                <path d="M 458.0 139.0 L 458.0 159.0 M 465.55555555555554 139.0 L 465.55555555555554 159.0 M 473.1111111111111 139.0 L 473.1111111111111 159.0 M 480.66666666666663 139.0 L 480.66666666666663 159.0 M 488.2222222222222 139.0 L 488.2222222222222 159.0 M 495.7777777777777 139.0 L 495.7777777777777 159.0 M 503.33333333333326 139.0 L 503.33333333333326 159.0 M 510.8888888888888 139.0 L 510.8888888888888 159.0 M 518.4444444444443 139.0 L 518.4444444444443 159.0 M 525.9999999999999 139.0 L 525.9999999999999 159.0 M 533.5555555555554 139.0 L 533.5555555555554 159.0 M 541.111111111111 139.0 L 541.111111111111 159.0 M 548.6666666666665 139.0 L 548.6666666666665 159.0 M 556.2222222222221 139.0 L 556.2222222222221 159.0 M 563.7777777777776 139.0 L 563.7777777777776 159.0 M 571.3333333333331 139.0 L 571.3333333333331 159.0 M 578.8888888888887 139.0 L 578.8888888888887 159.0 M 458.0 139.0 L 586.0 139.0 M 458.0 146.55555555555554 L 586.0 146.55555555555554 M 458.0 154.1111111111111 L 586.0 154.1111111111111 "/>
            </g>
        </pattern>
        <pattern latexdraw:type="crosshatch*"
            latexdraw:rotationAngle="0.0"
            latexdraw:size="7.055555555555555"
            patternUnits="userSpaceOnUse" id="pattern1338187820" x="0"
            y="0" width="271" height="99">
            <rect width="271" height="99" fill="#cccccc" stroke="none"/>
            <g stroke="#999999" stroke-width="0.5" stroke-dasharray="none">
                <path d="M 120.0 79.99999999999999 L 120.0 99.99999999999999 M 127.55555555555556 79.99999999999999 L 127.55555555555556 99.99999999999999 M 135.11111111111111 79.99999999999999 L 135.11111111111111 99.99999999999999 M 142.66666666666666 79.99999999999999 L 142.66666666666666 99.99999999999999 M 150.2222222222222 79.99999999999999 L 150.2222222222222 99.99999999999999 M 157.77777777777774 79.99999999999999 L 157.77777777777774 99.99999999999999 M 165.3333333333333 79.99999999999999 L 165.3333333333333 99.99999999999999 M 172.88888888888883 79.99999999999999 L 172.88888888888883 99.99999999999999 M 180.44444444444437 79.99999999999999 L 180.44444444444437 99.99999999999999 M 187.99999999999991 79.99999999999999 L 187.99999999999991 99.99999999999999 M 195.55555555555546 79.99999999999999 L 195.55555555555546 99.99999999999999 M 203.111111111111 79.99999999999999 L 203.111111111111 99.99999999999999 M 210.66666666666654 79.99999999999999 L 210.66666666666654 99.99999999999999 M 218.2222222222221 79.99999999999999 L 218.2222222222221 99.99999999999999 M 225.77777777777763 79.99999999999999 L 225.77777777777763 99.99999999999999 M 233.33333333333317 79.99999999999999 L 233.33333333333317 99.99999999999999 M 240.88888888888872 79.99999999999999 L 240.88888888888872 99.99999999999999 M 248.44444444444426 79.99999999999999 L 248.44444444444426 99.99999999999999 M 255.9999999999998 79.99999999999999 L 255.9999999999998 99.99999999999999 M 263.5555555555554 79.99999999999999 L 263.5555555555554 99.99999999999999 M 120.0 79.99999999999999 L 271.0 79.99999999999999 M 120.0 87.55555555555554 L 271.0 87.55555555555554 M 120.0 95.1111111111111 L 271.0 95.1111111111111 "/>
            </g>
        </pattern>
        <pattern latexdraw:type="crosshatch*"
            latexdraw:rotationAngle="0.0"
            latexdraw:size="7.055555555555555"
            patternUnits="userSpaceOnUse" id="pattern844526153" x="0"
            y="0" width="271" height="119">
            <rect width="271" height="119" fill="#cccccc" stroke="none"/>
            <g stroke="#999999" stroke-width="0.5" stroke-dasharray="none">
                <path d="M 120.0 99.99999999999999 L 120.0 119.99999999999999 M 127.55555555555556 99.99999999999999 L 127.55555555555556 119.99999999999999 M 135.11111111111111 99.99999999999999 L 135.11111111111111 119.99999999999999 M 142.66666666666666 99.99999999999999 L 142.66666666666666 119.99999999999999 M 150.2222222222222 99.99999999999999 L 150.2222222222222 119.99999999999999 M 157.77777777777774 99.99999999999999 L 157.77777777777774 119.99999999999999 M 165.3333333333333 99.99999999999999 L 165.3333333333333 119.99999999999999 M 172.88888888888883 99.99999999999999 L 172.88888888888883 119.99999999999999 M 180.44444444444437 99.99999999999999 L 180.44444444444437 119.99999999999999 M 187.99999999999991 99.99999999999999 L 187.99999999999991 119.99999999999999 M 195.55555555555546 99.99999999999999 L 195.55555555555546 119.99999999999999 M 203.111111111111 99.99999999999999 L 203.111111111111 119.99999999999999 M 210.66666666666654 99.99999999999999 L 210.66666666666654 119.99999999999999 M 218.2222222222221 99.99999999999999 L 218.2222222222221 119.99999999999999 M 225.77777777777763 99.99999999999999 L 225.77777777777763 119.99999999999999 M 233.33333333333317 99.99999999999999 L 233.33333333333317 119.99999999999999 M 240.88888888888872 99.99999999999999 L 240.88888888888872 119.99999999999999 M 248.44444444444426 99.99999999999999 L 248.44444444444426 119.99999999999999 M 255.9999999999998 99.99999999999999 L 255.9999999999998 119.99999999999999 M 263.5555555555554 99.99999999999999 L 263.5555555555554 119.99999999999999 M 120.0 99.99999999999999 L 271.0 99.99999999999999 M 120.0 107.55555555555554 L 271.0 107.55555555555554 M 120.0 115.1111111111111 L 271.0 115.1111111111111 "/>
            </g>
        </pattern>
        <pattern latexdraw:type="crosshatch*"
            latexdraw:rotationAngle="0.0"
            latexdraw:size="7.055555555555555"
            patternUnits="userSpaceOnUse" id="pattern1454101979" x="0"
            y="0" width="271" height="140">
            <rect width="271" height="140" fill="#cccccc" stroke="none"/>
            <g stroke="#999999" stroke-width="0.5" stroke-dasharray="none">
                <path d="M 120.0 119.99999999999999 L 120.0 140.0 M 127.55555555555556 119.99999999999999 L 127.55555555555556 140.0 M 135.11111111111111 119.99999999999999 L 135.11111111111111 140.0 M 142.66666666666666 119.99999999999999 L 142.66666666666666 140.0 M 150.2222222222222 119.99999999999999 L 150.2222222222222 140.0 M 157.77777777777774 119.99999999999999 L 157.77777777777774 140.0 M 165.3333333333333 119.99999999999999 L 165.3333333333333 140.0 M 172.88888888888883 119.99999999999999 L 172.88888888888883 140.0 M 180.44444444444437 119.99999999999999 L 180.44444444444437 140.0 M 187.99999999999991 119.99999999999999 L 187.99999999999991 140.0 M 195.55555555555546 119.99999999999999 L 195.55555555555546 140.0 M 203.111111111111 119.99999999999999 L 203.111111111111 140.0 M 210.66666666666654 119.99999999999999 L 210.66666666666654 140.0 M 218.2222222222221 119.99999999999999 L 218.2222222222221 140.0 M 225.77777777777763 119.99999999999999 L 225.77777777777763 140.0 M 233.33333333333317 119.99999999999999 L 233.33333333333317 140.0 M 240.88888888888872 119.99999999999999 L 240.88888888888872 140.0 M 248.44444444444426 119.99999999999999 L 248.44444444444426 140.0 M 255.9999999999998 119.99999999999999 L 255.9999999999998 140.0 M 263.5555555555554 119.99999999999999 L 263.5555555555554 140.0 M 120.0 119.99999999999999 L 271.0 119.99999999999999 M 120.0 127.55555555555554 L 271.0 127.55555555555554 M 120.0 135.1111111111111 L 271.0 135.1111111111111 "/>
            </g>
        </pattern>
        <pattern latexdraw:type="crosshatch*"
            latexdraw:rotationAngle="0.0"
            latexdraw:size="7.055555555555555"
            patternUnits="userSpaceOnUse" id="pattern2080290662" x="0"
            y="0" width="271" height="160">
            <rect width="271" height="160" fill="#cccccc" stroke="none"/>
            <g stroke="#999999" stroke-width="0.5" stroke-dasharray="none">
                <path d="M 120.0 140.00000000000003 L 120.0 160.00000000000003 M 127.55555555555556 140.00000000000003 L 127.55555555555556 160.00000000000003 M 135.11111111111111 140.00000000000003 L 135.11111111111111 160.00000000000003 M 142.66666666666666 140.00000000000003 L 142.66666666666666 160.00000000000003 M 150.2222222222222 140.00000000000003 L 150.2222222222222 160.00000000000003 M 157.77777777777774 140.00000000000003 L 157.77777777777774 160.00000000000003 M 165.3333333333333 140.00000000000003 L 165.3333333333333 160.00000000000003 M 172.88888888888883 140.00000000000003 L 172.88888888888883 160.00000000000003 M 180.44444444444437 140.00000000000003 L 180.44444444444437 160.00000000000003 M 187.99999999999991 140.00000000000003 L 187.99999999999991 160.00000000000003 M 195.55555555555546 140.00000000000003 L 195.55555555555546 160.00000000000003 M 203.111111111111 140.00000000000003 L 203.111111111111 160.00000000000003 M 210.66666666666654 140.00000000000003 L 210.66666666666654 160.00000000000003 M 218.2222222222221 140.00000000000003 L 218.2222222222221 160.00000000000003 M 225.77777777777763 140.00000000000003 L 225.77777777777763 160.00000000000003 M 233.33333333333317 140.00000000000003 L 233.33333333333317 160.00000000000003 M 240.88888888888872 140.00000000000003 L 240.88888888888872 160.00000000000003 M 248.44444444444426 140.00000000000003 L 248.44444444444426 160.00000000000003 M 255.9999999999998 140.00000000000003 L 255.9999999999998 160.00000000000003 M 263.5555555555554 140.00000000000003 L 263.5555555555554 160.00000000000003 M 120.0 140.00000000000003 L 271.0 140.00000000000003 M 120.0 147.55555555555557 L 271.0 147.55555555555557 M 120.0 155.11111111111111 L 271.0 155.11111111111111 "/>
            </g>
        </pattern>
        <pattern latexdraw:type="crosshatch*"
            latexdraw:rotationAngle="0.0"
            latexdraw:size="7.055555555555555"
            patternUnits="userSpaceOnUse" id="pattern639287556" x="0"
            y="0" width="709" height="99">
            <rect width="709" height="99" fill="#cccccc" stroke="none"/>
            <g stroke="#999999" stroke-width="0.5" stroke-dasharray="none">
                <path d="M 558.0 79.00000000000011 L 558.0 99.00000000000011 M 565.5555555555555 79.00000000000011 L 565.5555555555555 99.00000000000011 M 573.1111111111111 79.00000000000011 L 573.1111111111111 99.00000000000011 M 580.6666666666666 79.00000000000011 L 580.6666666666666 99.00000000000011 M 588.2222222222222 79.00000000000011 L 588.2222222222222 99.00000000000011 M 595.7777777777777 79.00000000000011 L 595.7777777777777 99.00000000000011 M 603.3333333333333 79.00000000000011 L 603.3333333333333 99.00000000000011 M 610.8888888888888 79.00000000000011 L 610.8888888888888 99.00000000000011 M 618.4444444444443 79.00000000000011 L 618.4444444444443 99.00000000000011 M 625.9999999999999 79.00000000000011 L 625.9999999999999 99.00000000000011 M 633.5555555555554 79.00000000000011 L 633.5555555555554 99.00000000000011 M 641.111111111111 79.00000000000011 L 641.111111111111 99.00000000000011 M 648.6666666666665 79.00000000000011 L 648.6666666666665 99.00000000000011 M 656.2222222222221 79.00000000000011 L 656.2222222222221 99.00000000000011 M 663.7777777777776 79.00000000000011 L 663.7777777777776 99.00000000000011 M 671.3333333333331 79.00000000000011 L 671.3333333333331 99.00000000000011 M 678.8888888888887 79.00000000000011 L 678.8888888888887 99.00000000000011 M 686.4444444444442 79.00000000000011 L 686.4444444444442 99.00000000000011 M 693.9999999999998 79.00000000000011 L 693.9999999999998 99.00000000000011 M 701.5555555555553 79.00000000000011 L 701.5555555555553 99.00000000000011 M 558.0 79.00000000000011 L 709.0 79.00000000000011 M 558.0 86.55555555555567 L 709.0 86.55555555555567 M 558.0 94.11111111111123 L 709.0 94.11111111111123 "/>
            </g>
        </pattern>
        <pattern latexdraw:type="crosshatch*"
            latexdraw:rotationAngle="0.0"
            latexdraw:size="7.055555555555555"
            patternUnits="userSpaceOnUse" id="pattern1107347006" x="0"
            y="0" width="757" height="119">
            <rect width="757" height="119" fill="#cccccc" stroke="none"/>
            <g stroke="#999999" stroke-width="0.5" stroke-dasharray="none">
                <path d="M 618.0 99.00000000000011 L 618.0 119.00000000000011 M 625.5555555555555 99.00000000000011 L 625.5555555555555 119.00000000000011 M 633.1111111111111 99.00000000000011 L 633.1111111111111 119.00000000000011 M 640.6666666666666 99.00000000000011 L 640.6666666666666 119.00000000000011 M 648.2222222222222 99.00000000000011 L 648.2222222222222 119.00000000000011 M 655.7777777777777 99.00000000000011 L 655.7777777777777 119.00000000000011 M 663.3333333333333 99.00000000000011 L 663.3333333333333 119.00000000000011 M 670.8888888888888 99.00000000000011 L 670.8888888888888 119.00000000000011 M 678.4444444444443 99.00000000000011 L 678.4444444444443 119.00000000000011 M 685.9999999999999 99.00000000000011 L 685.9999999999999 119.00000000000011 M 693.5555555555554 99.00000000000011 L 693.5555555555554 119.00000000000011 M 701.111111111111 99.00000000000011 L 701.111111111111 119.00000000000011 M 708.6666666666665 99.00000000000011 L 708.6666666666665 119.00000000000011 M 716.2222222222221 99.00000000000011 L 716.2222222222221 119.00000000000011 M 723.7777777777776 99.00000000000011 L 723.7777777777776 119.00000000000011 M 731.3333333333331 99.00000000000011 L 731.3333333333331 119.00000000000011 M 738.8888888888887 99.00000000000011 L 738.8888888888887 119.00000000000011 M 746.4444444444442 99.00000000000011 L 746.4444444444442 119.00000000000011 M 753.9999999999998 99.00000000000011 L 753.9999999999998 119.00000000000011 M 618.0 99.00000000000011 L 757.0 99.00000000000011 M 618.0 106.55555555555567 L 757.0 106.55555555555567 M 618.0 114.11111111111123 L 757.0 114.11111111111123 "/>
            </g>
        </pattern>
        <pattern latexdraw:type="crosshatch*"
            latexdraw:rotationAngle="0.0"
            latexdraw:size="7.055555555555555"
            patternUnits="userSpaceOnUse" id="pattern878713925" x="0"
            y="0" width="469" height="119">
            <rect width="469" height="119" fill="#cccccc" stroke="none"/>
            <g stroke="#999999" stroke-width="0.5" stroke-dasharray="none">
                <path d="M 459.0 99.0 L 459.0 119.0 M 466.55555555555554 99.0 L 466.55555555555554 119.0 M 459.0 99.0 L 469.0 99.0 M 459.0 106.55555555555556 L 469.0 106.55555555555556 M 459.0 114.11111111111111 L 469.0 114.11111111111111 "/>
            </g>
        </pattern>
        <marker overflow="visible" orient="auto" id="arrow1-661477390">
            <path
                d="M 0.0 0.0 L -4.652083333333334 1.6614583333333335 L -4.652083333333334 0.0 L -4.652083333333334 -1.6614583333333335 z "
                latexdraw:arrSizeNum="2.0" fill="black"/>
        </marker>
    </defs>
    <metadata>
        <latexdraw:metadata>
            <latexdraw:latexIncludes/>
            <latexdraw:displayXScale>true</latexdraw:displayXScale>
            <latexdraw:displayYScale>true</latexdraw:displayYScale>
            <latexdraw:unit>CM</latexdraw:unit>
            <latexdraw:zoom>1.0</latexdraw:zoom>
            <latexdraw:magneticGridStyle>CUSTOMISED</latexdraw:magneticGridStyle>
            <latexdraw:gridGap>20</latexdraw:gridGap>
            <latexdraw:magneticGrid>true</latexdraw:magneticGrid>
            <latexdraw:version>3.3.7</latexdraw:version>
            <latexdraw:size>
                <latexdraw:width>1920</latexdraw:width>
                <latexdraw:height>810</latexdraw:height>
            </latexdraw:size>
            <latexdraw:position>
                <latexdraw:x>0.0</latexdraw:x>
                <latexdraw:y>23.0</latexdraw:y>
            </latexdraw:position>
        </latexdraw:metadata>
    </metadata>
</svg>
