<?xml version="1.1" encoding="UTF-8"?>
<svg xmlns="http://www.w3.org/2000/svg"
    xmlns:latexdraw="http://latexdraw.sourceforge.net/namespaces/latexdraw"
    version="1.1" baseProfile="full">
    <g>
        <g latexdraw:type="joinedLines" id="id1804606172">
            <polyline
                points="533.3333333333333,99.99999999999999 566.6666666666666,99.99999999999999 "
                stroke-width="2.0" stroke="black"
                latexdraw:rotationAngle="0.0" marker-end="url(#arrow1-1804606172)"/>
        </g>
        <g latexdraw:type="rectangle" id="id911437364">
            <rect x="600.5" y="59.666666666666515" width="299.0"
                height="99.0" latexdraw:borderPos="outer"
                stroke-width="1.0" stroke="black" fill="none"/>
        </g>
        <g latexdraw:type="joinedLines" id="id396398541">
            <polyline
                points="600.0,79.16666666666652 900.0,79.16666666666652 "
                stroke-width="0.6" stroke="black" latexdraw:rotationAngle="0.0"/>
        </g>
        <g latexdraw:type="joinedLines" id="id1540373530">
            <polyline
                points="900.0,119.16666666666652 600.0,119.16666666666652 "
                stroke-width="0.6" stroke="black" latexdraw:rotationAngle="0.0"/>
        </g>
        <g latexdraw:type="joinedLines" id="id1566999817">
            <polyline
                points="900.0,139.16666666666652 600.0,139.16666666666652 "
                stroke-width="0.6" stroke="black" latexdraw:rotationAngle="0.0"/>
        </g>
        <g latexdraw:type="rectangle" id="id254435414">
            <rect x="640.05" y="59.216666666666725" width="99.9"
                height="19.9" latexdraw:borderPos="outer"
                stroke-width="0.1" stroke="black" fill="url(#pattern254435414)"/>
        </g>
        <g latexdraw:type="rectangle" id="id1973051411">
            <rect x="740.05" y="59.216666666666725" width="99.9"
                height="19.9" latexdraw:borderPos="outer"
                stroke-width="0.1" stroke="black" fill="url(#pattern1973051411)"/>
        </g>
        <g latexdraw:type="rectangle" id="id2035192959">
            <rect x="600.05" y="59.216666666666725" width="39.9"
                height="19.9" latexdraw:borderPos="outer"
                stroke-width="0.1" stroke="black" fill="#ff3333"/>
        </g>
        <g latexdraw:type="rectangle" id="id750663629">
            <rect x="640.05" y="99.2166666666665" width="99.9"
                height="19.9" latexdraw:borderPos="outer"
                stroke-width="0.1" stroke="black" fill="url(#pattern750663629)"/>
        </g>
        <g latexdraw:type="rectangle" id="id1473267913">
            <rect x="740.05" y="99.2166666666665" width="99.9"
                height="19.9" latexdraw:borderPos="outer"
                stroke-width="0.1" stroke="black" fill="url(#pattern1473267913)"/>
        </g>
        <g latexdraw:type="rectangle" id="id313840078">
            <rect x="600.05" y="99.2166666666665" width="39.9"
                height="19.9" latexdraw:borderPos="outer"
                stroke-width="0.1" stroke="black" fill="#ff3333"/>
        </g>
        <g latexdraw:type="rectangle" id="id453990950">
            <rect x="640.05" y="139.21666666666655" width="99.9"
                height="19.9" latexdraw:borderPos="outer"
                stroke-width="0.1" stroke="black" fill="url(#pattern453990950)"/>
        </g>
        <g latexdraw:type="rectangle" id="id743873053">
            <rect x="600.05" y="139.21666666666655" width="39.9"
                height="19.9" latexdraw:borderPos="outer"
                stroke-width="0.1" stroke="black" fill="#ff3333"/>
        </g>
        <g latexdraw:type="joinedLines" id="id1705261979">
            <polyline
                points="900.0,99.16666666666652 600.0,99.16666666666652 "
                stroke-width="0.6" stroke="black" latexdraw:rotationAngle="0.0"/>
        </g>
        <g latexdraw:type="rectangle" id="id623465941">
            <rect x="200.5" y="59.666666666666515" width="299.0"
                height="99.0" latexdraw:borderPos="outer"
                stroke-width="1.0" stroke="black" fill="none"/>
        </g>
        <g latexdraw:type="joinedLines" id="id967613377">
            <polyline
                points="200.0,79.16666666666652 500.0,79.16666666666652 "
                stroke-width="0.6" stroke="black" latexdraw:rotationAngle="0.0"/>
        </g>
        <g latexdraw:type="joinedLines" id="id1455632435">
            <polyline
                points="500.0,119.16666666666652 200.0,119.16666666666652 "
                stroke-width="0.6" stroke="black" latexdraw:rotationAngle="0.0"/>
        </g>
        <g latexdraw:type="joinedLines" id="id1996059039">
            <polyline
                points="500.0,139.16666666666652 200.0,139.16666666666652 "
                stroke-width="0.6" stroke="black" latexdraw:rotationAngle="0.0"/>
        </g>
        <g latexdraw:type="rectangle" id="id1523935331">
            <rect x="240.05" y="59.216666666666725" width="99.9"
                height="19.9" latexdraw:borderPos="outer"
                stroke-width="0.1" stroke="black" fill="url(#pattern1523935331)"/>
        </g>
        <g latexdraw:type="rectangle" id="id2029637907">
            <rect x="340.05" y="59.216666666666725" width="99.9"
                height="19.9" latexdraw:borderPos="outer"
                stroke-width="0.1" stroke="black" fill="url(#pattern2029637907)"/>
        </g>
        <g latexdraw:type="rectangle" id="id1486188410">
            <rect x="200.05" y="59.216666666666725" width="39.9"
                height="19.9" latexdraw:borderPos="outer"
                stroke-width="0.1" stroke="black" fill="#ff3333"/>
        </g>
        <g latexdraw:type="rectangle" id="id570584868">
            <rect x="240.05" y="79.2166666666665" width="99.9"
                height="19.9" latexdraw:borderPos="outer"
                stroke-width="0.1" stroke="black" fill="url(#pattern570584868)"/>
        </g>
        <g latexdraw:type="rectangle" id="id1823640999">
            <rect x="340.05" y="79.2166666666665" width="99.9"
                height="19.9" latexdraw:borderPos="outer"
                stroke-width="0.1" stroke="black" fill="url(#pattern1823640999)"/>
        </g>
        <g latexdraw:type="rectangle" id="id1672229141">
            <rect x="200.05" y="79.2166666666665" width="39.9"
                height="19.9" latexdraw:borderPos="outer"
                stroke-width="0.1" stroke="black" fill="#ff3333"/>
        </g>
        <g latexdraw:type="rectangle" id="id2050581457">
            <rect x="240.05" y="99.2166666666665" width="99.9"
                height="19.9" latexdraw:borderPos="outer"
                stroke-width="0.1" stroke="black" fill="url(#pattern2050581457)"/>
        </g>
        <g latexdraw:type="rectangle" id="id451039935">
            <rect x="200.05" y="99.2166666666665" width="39.9"
                height="19.9" latexdraw:borderPos="outer"
                stroke-width="0.1" stroke="black" fill="#ff3333"/>
        </g>
        <g latexdraw:type="joinedLines" id="id1507089352">
            <polyline
                points="500.0,99.16666666666652 200.0,99.16666666666652 "
                stroke-width="0.6" stroke="black" latexdraw:rotationAngle="0.0"/>
        </g>
    </g>
    <defs>
        <marker overflow="visible" orient="auto" id="arrow1-1804606172">
            <path
                d="M 0.0 0.0 L -4.652083333333334 1.6614583333333335 L -4.652083333333334 0.0 L -4.652083333333334 -1.6614583333333335 z "
                latexdraw:arrSizeNum="2.0" fill="black"/>
        </marker>
        <pattern latexdraw:type="crosshatch*"
            latexdraw:rotationAngle="0.0"
            latexdraw:size="7.055555555555555"
            patternUnits="userSpaceOnUse" id="pattern254435414" x="0"
            y="0" width="740" height="79">
            <rect width="740" height="79" fill="#cccccc" stroke="none"/>
            <g stroke="#999999" stroke-width="0.6" stroke-dasharray="none">
                <path d="M 640.0 59.16666666666673 L 640.0 79.16666666666673 M 647.6555555555556 59.16666666666673 L 647.6555555555556 79.16666666666673 M 655.3111111111111 59.16666666666673 L 655.3111111111111 79.16666666666673 M 662.9666666666667 59.16666666666673 L 662.9666666666667 79.16666666666673 M 670.6222222222223 59.16666666666673 L 670.6222222222223 79.16666666666673 M 678.2777777777778 59.16666666666673 L 678.2777777777778 79.16666666666673 M 685.9333333333334 59.16666666666673 L 685.9333333333334 79.16666666666673 M 693.588888888889 59.16666666666673 L 693.588888888889 79.16666666666673 M 701.2444444444445 59.16666666666673 L 701.2444444444445 79.16666666666673 M 708.9000000000001 59.16666666666673 L 708.9000000000001 79.16666666666673 M 716.5555555555557 59.16666666666673 L 716.5555555555557 79.16666666666673 M 724.2111111111112 59.16666666666673 L 724.2111111111112 79.16666666666673 M 731.8666666666668 59.16666666666673 L 731.8666666666668 79.16666666666673 M 739.5222222222224 59.16666666666673 L 739.5222222222224 79.16666666666673 M 640.0 59.16666666666673 L 740.0 59.16666666666673 M 640.0 66.82222222222228 L 740.0 66.82222222222228 M 640.0 74.47777777777783 L 740.0 74.47777777777783 "/>
            </g>
        </pattern>
        <pattern latexdraw:type="crosshatch*"
            latexdraw:rotationAngle="0.0"
            latexdraw:size="7.055555555555555"
            patternUnits="userSpaceOnUse" id="pattern1973051411" x="0"
            y="0" width="840" height="79">
            <rect width="840" height="79" fill="#cccccc" stroke="none"/>
            <g stroke="#999999" stroke-width="0.6" stroke-dasharray="none">
                <path d="M 740.0 59.16666666666673 L 740.0 79.16666666666673 M 747.6555555555556 59.16666666666673 L 747.6555555555556 79.16666666666673 M 755.3111111111111 59.16666666666673 L 755.3111111111111 79.16666666666673 M 762.9666666666667 59.16666666666673 L 762.9666666666667 79.16666666666673 M 770.6222222222223 59.16666666666673 L 770.6222222222223 79.16666666666673 M 778.2777777777778 59.16666666666673 L 778.2777777777778 79.16666666666673 M 785.9333333333334 59.16666666666673 L 785.9333333333334 79.16666666666673 M 793.588888888889 59.16666666666673 L 793.588888888889 79.16666666666673 M 801.2444444444445 59.16666666666673 L 801.2444444444445 79.16666666666673 M 808.9000000000001 59.16666666666673 L 808.9000000000001 79.16666666666673 M 816.5555555555557 59.16666666666673 L 816.5555555555557 79.16666666666673 M 824.2111111111112 59.16666666666673 L 824.2111111111112 79.16666666666673 M 831.8666666666668 59.16666666666673 L 831.8666666666668 79.16666666666673 M 839.5222222222224 59.16666666666673 L 839.5222222222224 79.16666666666673 M 740.0 59.16666666666673 L 840.0 59.16666666666673 M 740.0 66.82222222222228 L 840.0 66.82222222222228 M 740.0 74.47777777777783 L 840.0 74.47777777777783 "/>
            </g>
        </pattern>
        <pattern latexdraw:type="crosshatch*"
            latexdraw:rotationAngle="0.0"
            latexdraw:size="7.055555555555555"
            patternUnits="userSpaceOnUse" id="pattern750663629" x="0"
            y="0" width="740" height="119">
            <rect width="740" height="119" fill="#cccccc" stroke="none"/>
            <g stroke="#999999" stroke-width="0.6" stroke-dasharray="none">
                <path d="M 640.0 99.1666666666665 L 640.0 119.1666666666665 M 647.6555555555556 99.1666666666665 L 647.6555555555556 119.1666666666665 M 655.3111111111111 99.1666666666665 L 655.3111111111111 119.1666666666665 M 662.9666666666667 99.1666666666665 L 662.9666666666667 119.1666666666665 M 670.6222222222223 99.1666666666665 L 670.6222222222223 119.1666666666665 M 678.2777777777778 99.1666666666665 L 678.2777777777778 119.1666666666665 M 685.9333333333334 99.1666666666665 L 685.9333333333334 119.1666666666665 M 693.588888888889 99.1666666666665 L 693.588888888889 119.1666666666665 M 701.2444444444445 99.1666666666665 L 701.2444444444445 119.1666666666665 M 708.9000000000001 99.1666666666665 L 708.9000000000001 119.1666666666665 M 716.5555555555557 99.1666666666665 L 716.5555555555557 119.1666666666665 M 724.2111111111112 99.1666666666665 L 724.2111111111112 119.1666666666665 M 731.8666666666668 99.1666666666665 L 731.8666666666668 119.1666666666665 M 739.5222222222224 99.1666666666665 L 739.5222222222224 119.1666666666665 M 640.0 99.1666666666665 L 740.0 99.1666666666665 M 640.0 106.82222222222205 L 740.0 106.82222222222205 M 640.0 114.4777777777776 L 740.0 114.4777777777776 "/>
            </g>
        </pattern>
        <pattern latexdraw:type="crosshatch*"
            latexdraw:rotationAngle="0.0"
            latexdraw:size="7.055555555555555"
            patternUnits="userSpaceOnUse" id="pattern1473267913" x="0"
            y="0" width="840" height="119">
            <rect width="840" height="119" fill="#cccccc" stroke="none"/>
            <g stroke="#999999" stroke-width="0.6" stroke-dasharray="none">
                <path d="M 740.0 99.1666666666665 L 740.0 119.1666666666665 M 747.6555555555556 99.1666666666665 L 747.6555555555556 119.1666666666665 M 755.3111111111111 99.1666666666665 L 755.3111111111111 119.1666666666665 M 762.9666666666667 99.1666666666665 L 762.9666666666667 119.1666666666665 M 770.6222222222223 99.1666666666665 L 770.6222222222223 119.1666666666665 M 778.2777777777778 99.1666666666665 L 778.2777777777778 119.1666666666665 M 785.9333333333334 99.1666666666665 L 785.9333333333334 119.1666666666665 M 793.588888888889 99.1666666666665 L 793.588888888889 119.1666666666665 M 801.2444444444445 99.1666666666665 L 801.2444444444445 119.1666666666665 M 808.9000000000001 99.1666666666665 L 808.9000000000001 119.1666666666665 M 816.5555555555557 99.1666666666665 L 816.5555555555557 119.1666666666665 M 824.2111111111112 99.1666666666665 L 824.2111111111112 119.1666666666665 M 831.8666666666668 99.1666666666665 L 831.8666666666668 119.1666666666665 M 839.5222222222224 99.1666666666665 L 839.5222222222224 119.1666666666665 M 740.0 99.1666666666665 L 840.0 99.1666666666665 M 740.0 106.82222222222205 L 840.0 106.82222222222205 M 740.0 114.4777777777776 L 840.0 114.4777777777776 "/>
            </g>
        </pattern>
        <pattern latexdraw:type="crosshatch*"
            latexdraw:rotationAngle="0.0"
            latexdraw:size="7.055555555555555"
            patternUnits="userSpaceOnUse" id="pattern453990950" x="0"
            y="0" width="740" height="159">
            <rect width="740" height="159" fill="#cccccc" stroke="none"/>
            <g stroke="#999999" stroke-width="0.6" stroke-dasharray="none">
                <path d="M 640.0 139.16666666666654 L 640.0 159.16666666666654 M 647.6555555555556 139.16666666666654 L 647.6555555555556 159.16666666666654 M 655.3111111111111 139.16666666666654 L 655.3111111111111 159.16666666666654 M 662.9666666666667 139.16666666666654 L 662.9666666666667 159.16666666666654 M 670.6222222222223 139.16666666666654 L 670.6222222222223 159.16666666666654 M 678.2777777777778 139.16666666666654 L 678.2777777777778 159.16666666666654 M 685.9333333333334 139.16666666666654 L 685.9333333333334 159.16666666666654 M 693.588888888889 139.16666666666654 L 693.588888888889 159.16666666666654 M 701.2444444444445 139.16666666666654 L 701.2444444444445 159.16666666666654 M 708.9000000000001 139.16666666666654 L 708.9000000000001 159.16666666666654 M 716.5555555555557 139.16666666666654 L 716.5555555555557 159.16666666666654 M 724.2111111111112 139.16666666666654 L 724.2111111111112 159.16666666666654 M 731.8666666666668 139.16666666666654 L 731.8666666666668 159.16666666666654 M 739.5222222222224 139.16666666666654 L 739.5222222222224 159.16666666666654 M 640.0 139.16666666666654 L 740.0 139.16666666666654 M 640.0 146.8222222222221 L 740.0 146.8222222222221 M 640.0 154.47777777777767 L 740.0 154.47777777777767 "/>
            </g>
        </pattern>
        <pattern latexdraw:type="crosshatch*"
            latexdraw:rotationAngle="0.0"
            latexdraw:size="7.055555555555555"
            patternUnits="userSpaceOnUse" id="pattern1523935331" x="0"
            y="0" width="340" height="79">
            <rect width="340" height="79" fill="#cccccc" stroke="none"/>
            <g stroke="#999999" stroke-width="0.6" stroke-dasharray="none">
                <path d="M 240.0 59.16666666666673 L 240.0 79.16666666666673 M 247.65555555555557 59.16666666666673 L 247.65555555555557 79.16666666666673 M 255.31111111111113 59.16666666666673 L 255.31111111111113 79.16666666666673 M 262.9666666666667 59.16666666666673 L 262.9666666666667 79.16666666666673 M 270.62222222222226 59.16666666666673 L 270.62222222222226 79.16666666666673 M 278.2777777777778 59.16666666666673 L 278.2777777777778 79.16666666666673 M 285.9333333333334 59.16666666666673 L 285.9333333333334 79.16666666666673 M 293.58888888888896 59.16666666666673 L 293.58888888888896 79.16666666666673 M 301.2444444444445 59.16666666666673 L 301.2444444444445 79.16666666666673 M 308.9000000000001 59.16666666666673 L 308.9000000000001 79.16666666666673 M 316.55555555555566 59.16666666666673 L 316.55555555555566 79.16666666666673 M 324.2111111111112 59.16666666666673 L 324.2111111111112 79.16666666666673 M 331.8666666666668 59.16666666666673 L 331.8666666666668 79.16666666666673 M 339.52222222222235 59.16666666666673 L 339.52222222222235 79.16666666666673 M 240.0 59.16666666666673 L 340.0 59.16666666666673 M 240.0 66.82222222222228 L 340.0 66.82222222222228 M 240.0 74.47777777777783 L 340.0 74.47777777777783 "/>
            </g>
        </pattern>
        <pattern latexdraw:type="crosshatch*"
            latexdraw:rotationAngle="0.0"
            latexdraw:size="7.055555555555555"
            patternUnits="userSpaceOnUse" id="pattern2029637907" x="0"
            y="0" width="440" height="79">
            <rect width="440" height="79" fill="#cccccc" stroke="none"/>
            <g stroke="#999999" stroke-width="0.6" stroke-dasharray="none">
                <path d="M 340.0 59.16666666666673 L 340.0 79.16666666666673 M 347.65555555555557 59.16666666666673 L 347.65555555555557 79.16666666666673 M 355.31111111111113 59.16666666666673 L 355.31111111111113 79.16666666666673 M 362.9666666666667 59.16666666666673 L 362.9666666666667 79.16666666666673 M 370.62222222222226 59.16666666666673 L 370.62222222222226 79.16666666666673 M 378.2777777777778 59.16666666666673 L 378.2777777777778 79.16666666666673 M 385.9333333333334 59.16666666666673 L 385.9333333333334 79.16666666666673 M 393.58888888888896 59.16666666666673 L 393.58888888888896 79.16666666666673 M 401.2444444444445 59.16666666666673 L 401.2444444444445 79.16666666666673 M 408.9000000000001 59.16666666666673 L 408.9000000000001 79.16666666666673 M 416.55555555555566 59.16666666666673 L 416.55555555555566 79.16666666666673 M 424.2111111111112 59.16666666666673 L 424.2111111111112 79.16666666666673 M 431.8666666666668 59.16666666666673 L 431.8666666666668 79.16666666666673 M 439.52222222222235 59.16666666666673 L 439.52222222222235 79.16666666666673 M 340.0 59.16666666666673 L 440.0 59.16666666666673 M 340.0 66.82222222222228 L 440.0 66.82222222222228 M 340.0 74.47777777777783 L 440.0 74.47777777777783 "/>
            </g>
        </pattern>
        <pattern latexdraw:type="crosshatch*"
            latexdraw:rotationAngle="0.0"
            latexdraw:size="7.055555555555555"
            patternUnits="userSpaceOnUse" id="pattern570584868" x="0"
            y="0" width="340" height="99">
            <rect width="340" height="99" fill="#cccccc" stroke="none"/>
            <g stroke="#999999" stroke-width="0.6" stroke-dasharray="none">
                <path d="M 240.0 79.1666666666665 L 240.0 99.1666666666665 M 247.65555555555557 79.1666666666665 L 247.65555555555557 99.1666666666665 M 255.31111111111113 79.1666666666665 L 255.31111111111113 99.1666666666665 M 262.9666666666667 79.1666666666665 L 262.9666666666667 99.1666666666665 M 270.62222222222226 79.1666666666665 L 270.62222222222226 99.1666666666665 M 278.2777777777778 79.1666666666665 L 278.2777777777778 99.1666666666665 M 285.9333333333334 79.1666666666665 L 285.9333333333334 99.1666666666665 M 293.58888888888896 79.1666666666665 L 293.58888888888896 99.1666666666665 M 301.2444444444445 79.1666666666665 L 301.2444444444445 99.1666666666665 M 308.9000000000001 79.1666666666665 L 308.9000000000001 99.1666666666665 M 316.55555555555566 79.1666666666665 L 316.55555555555566 99.1666666666665 M 324.2111111111112 79.1666666666665 L 324.2111111111112 99.1666666666665 M 331.8666666666668 79.1666666666665 L 331.8666666666668 99.1666666666665 M 339.52222222222235 79.1666666666665 L 339.52222222222235 99.1666666666665 M 240.0 79.1666666666665 L 340.0 79.1666666666665 M 240.0 86.82222222222205 L 340.0 86.82222222222205 M 240.0 94.4777777777776 L 340.0 94.4777777777776 "/>
            </g>
        </pattern>
        <pattern latexdraw:type="crosshatch*"
            latexdraw:rotationAngle="0.0"
            latexdraw:size="7.055555555555555"
            patternUnits="userSpaceOnUse" id="pattern1823640999" x="0"
            y="0" width="440" height="99">
            <rect width="440" height="99" fill="#cccccc" stroke="none"/>
            <g stroke="#999999" stroke-width="0.6" stroke-dasharray="none">
                <path d="M 340.0 79.1666666666665 L 340.0 99.1666666666665 M 347.65555555555557 79.1666666666665 L 347.65555555555557 99.1666666666665 M 355.31111111111113 79.1666666666665 L 355.31111111111113 99.1666666666665 M 362.9666666666667 79.1666666666665 L 362.9666666666667 99.1666666666665 M 370.62222222222226 79.1666666666665 L 370.62222222222226 99.1666666666665 M 378.2777777777778 79.1666666666665 L 378.2777777777778 99.1666666666665 M 385.9333333333334 79.1666666666665 L 385.9333333333334 99.1666666666665 M 393.58888888888896 79.1666666666665 L 393.58888888888896 99.1666666666665 M 401.2444444444445 79.1666666666665 L 401.2444444444445 99.1666666666665 M 408.9000000000001 79.1666666666665 L 408.9000000000001 99.1666666666665 M 416.55555555555566 79.1666666666665 L 416.55555555555566 99.1666666666665 M 424.2111111111112 79.1666666666665 L 424.2111111111112 99.1666666666665 M 431.8666666666668 79.1666666666665 L 431.8666666666668 99.1666666666665 M 439.52222222222235 79.1666666666665 L 439.52222222222235 99.1666666666665 M 340.0 79.1666666666665 L 440.0 79.1666666666665 M 340.0 86.82222222222205 L 440.0 86.82222222222205 M 340.0 94.4777777777776 L 440.0 94.4777777777776 "/>
            </g>
        </pattern>
        <pattern latexdraw:type="crosshatch*"
            latexdraw:rotationAngle="0.0"
            latexdraw:size="7.055555555555555"
            patternUnits="userSpaceOnUse" id="pattern2050581457" x="0"
            y="0" width="340" height="119">
            <rect width="340" height="119" fill="#cccccc" stroke="none"/>
            <g stroke="#999999" stroke-width="0.6" stroke-dasharray="none">
                <path d="M 240.0 99.1666666666665 L 240.0 119.1666666666665 M 247.65555555555557 99.1666666666665 L 247.65555555555557 119.1666666666665 M 255.31111111111113 99.1666666666665 L 255.31111111111113 119.1666666666665 M 262.9666666666667 99.1666666666665 L 262.9666666666667 119.1666666666665 M 270.62222222222226 99.1666666666665 L 270.62222222222226 119.1666666666665 M 278.2777777777778 99.1666666666665 L 278.2777777777778 119.1666666666665 M 285.9333333333334 99.1666666666665 L 285.9333333333334 119.1666666666665 M 293.58888888888896 99.1666666666665 L 293.58888888888896 119.1666666666665 M 301.2444444444445 99.1666666666665 L 301.2444444444445 119.1666666666665 M 308.9000000000001 99.1666666666665 L 308.9000000000001 119.1666666666665 M 316.55555555555566 99.1666666666665 L 316.55555555555566 119.1666666666665 M 324.2111111111112 99.1666666666665 L 324.2111111111112 119.1666666666665 M 331.8666666666668 99.1666666666665 L 331.8666666666668 119.1666666666665 M 339.52222222222235 99.1666666666665 L 339.52222222222235 119.1666666666665 M 240.0 99.1666666666665 L 340.0 99.1666666666665 M 240.0 106.82222222222205 L 340.0 106.82222222222205 M 240.0 114.4777777777776 L 340.0 114.4777777777776 "/>
            </g>
        </pattern>
    </defs>
    <metadata>
        <latexdraw:metadata>
            <latexdraw:latexIncludes/>
            <latexdraw:displayXScale>true</latexdraw:displayXScale>
            <latexdraw:displayYScale>true</latexdraw:displayYScale>
            <latexdraw:unit>CM</latexdraw:unit>
            <latexdraw:zoom>1.2000000000000002</latexdraw:zoom>
            <latexdraw:magneticGridStyle>CUSTOMISED</latexdraw:magneticGridStyle>
            <latexdraw:gridGap>20</latexdraw:gridGap>
            <latexdraw:magneticGrid>true</latexdraw:magneticGrid>
            <latexdraw:version>3.3.7</latexdraw:version>
            <latexdraw:size>
                <latexdraw:width>1440</latexdraw:width>
                <latexdraw:height>804</latexdraw:height>
            </latexdraw:size>
            <latexdraw:position>
                <latexdraw:x>0.0</latexdraw:x>
                <latexdraw:y>23.0</latexdraw:y>
            </latexdraw:position>
        </latexdraw:metadata>
    </metadata>
</svg>
